<?xml version="1.0" encoding="UTF-8" standalone="no"?>
<svg
   width="562"
   height="422"
   viewBox="0 0 562 422"
   version="1.1"
   id="svg250"
   sodipodi:docname="But-2-ene + HCl.svg"
   inkscape:version="1.2.2 (732a01da63, 2022-12-09)"
   xmlns:inkscape="http://www.inkscape.org/namespaces/inkscape"
   xmlns:sodipodi="http://sodipodi.sourceforge.net/DTD/sodipodi-0.dtd"
   xmlns="http://www.w3.org/2000/svg"
   xmlns:svg="http://www.w3.org/2000/svg">
  <defs
     id="defs254" />
  <sodipodi:namedview
     id="namedview252"
     pagecolor="#ffffff"
     bordercolor="#111111"
     borderopacity="1"
     inkscape:showpageshadow="0"
     inkscape:pageopacity="0"
     inkscape:pagecheckerboard="1"
     inkscape:deskcolor="#d1d1d1"
     showgrid="false"
     inkscape:zoom="1.0409207"
     inkscape:cx="193.57862"
     inkscape:cy="217.59582"
     inkscape:window-width="1920"
     inkscape:window-height="1001"
     inkscape:window-x="-9"
     inkscape:window-y="-9"
     inkscape:window-maximized="1"
     inkscape:current-layer="layer2" />
  <g
     inkscape:groupmode="layer"
     id="layer2"
     inkscape:label="Background"
     transform="translate(24.5,15.5)">
    <rect
       style="fill:#ffffff;fill-opacity:1;stroke:#000000;stroke-width:2;stroke-linecap:round;stroke-miterlimit:0;stroke-dasharray:none;stroke-opacity:1"
       id="rect715"
       width="560"
       height="420"
       x="-21.135136"
       y="-20.174448"
       transform="translate(-2.3648643,5.674448)" />
  </g>
  <g
     inkscape:groupmode="layer"
     id="layer1"
     inkscape:label="Reaction"
     style="display:inline"
     sodipodi:insensitive="true"
     transform="translate(24.5,15.5)">
    <path
       stroke="none"
       fill="#000000"
       transform="matrix(0.0833333,0,0,0.0833333,-193.25,-404.667)"
       d="m 2903.3,6032.3 -9.81,5.61 -9.81,-5.67 v -588.67 l 9.81,-5.66 9.81,5.6 z"
       id="path2" />
    <path
       stroke="none"
       fill="#000000"
       transform="matrix(0.0833333,0,0,0.0833333,-193.25,-404.667)"
       d="m 2975.49,5996.34 h -20 v -516.86 h 20 z"
       id="path4" />
    <path
       stroke="none"
       fill="#000000"
       transform="matrix(0.0833333,0,0,0.0833333,-193.25,-404.667)"
       d="m 2893.54,5426.61 -0.05,11.3 -9.81,5.66 -514.75,-297 10,-17.32 z"
       id="path6" />
    <path
       stroke="none"
       fill="#000000"
       transform="matrix(0.0833333,0,0,0.0833333,-193.25,-404.667)"
       d="m 2883.68,6032.24 9.81,5.67 0.05,11.3 -514.61,297.36 -10,-17.32 z"
       id="path8" />
    <text
       x="0"
       y="0"
       stroke="none"
       fill="#000000"
       transform="matrix(0.0833333,0,0,0.0833333,125.539,99.6346)"
       font-style="normal"
       font-weight="normal"
       font-size="200px"
       font-family="Arial"
       id="text10">H</text>
    <text
       x="0"
       y="0"
       stroke="none"
       fill="#000000"
       transform="matrix(0.0833333,0,0,0.0833333,175.539,99.6346)"
       font-style="normal"
       font-weight="normal"
       font-size="200px"
       font-family="Arial"
       id="text12">Cl</text>
    <path
       stroke="none"
       fill="#000000"
       transform="matrix(0.0833333,0,0,0.0833333,-193.25,-404.667)"
       d="m 3993.47,5983.62 v -20 h 403 v 20 z"
       id="path14" />
    <path
       stroke="#000000"
       stroke-width="20"
       fill="none"
       transform="matrix(0.0833333,0,0,0.0833333,-193.25,-404.667)"
       d="m 3887.03,5785.41 c -163.88,-291.43 -533.45,-394.97 -824.89,-231.1 -38.32,21.55 -74.28,47.28 -107.04,76.6"
       id="path16" />
    <path
       stroke="none"
       fill="#000000"
       transform="matrix(0.0833333,0,0,0.0833333,-193.25,-404.667)"
       d="m 3923.21,5861.78 c 0,0 -75.37,-57.28 -75.37,-57.28 0,0 18.49,-9.01 39.19,-19.09 20.69,-10.08 39.18,-19.09 39.18,-19.09 0,0 -3,95.46 -3,95.46 0,0 0,0 0,0"
       id="path18" />
    <path
       stroke="#000000"
       stroke-width="1"
       fill="none"
       transform="matrix(0.0833333,0,0,0.0833333,-193.25,-404.667)"
       d="m 3923.21,5861.78 c 0,0 -75.37,-57.28 -75.37,-57.28 0,0 18.49,-9.01 39.19,-19.09 20.69,-10.08 39.18,-19.09 39.18,-19.09 0,0 -3,95.46 -3,95.46 0,0 0,0 0,0"
       id="path20" />
    <path
       stroke="#000000"
       stroke-width="20"
       fill="none"
       transform="matrix(0.0833333,0,0,0.0833333,-193.25,-404.667)"
       d="m 4497.44,5785.01 c -43.81,-78.29 -142.92,-106.27 -221.2,-62.46 -50.04,28 -82.89,83.75 -83.16,141.08"
       id="path22" />
    <path
       stroke="none"
       fill="#000000"
       transform="matrix(0.0833333,0,0,0.0833333,-193.25,-404.667)"
       d="m 4518.02,5858.05 c 0,0 -58.1,-61.75 -58.1,-61.75 0,0 19.72,-5.94 37.52,-11.29 17.79,-5.36 37.52,-11.29 37.52,-11.29 0,0 -16.94,84.33 -16.94,84.33 0,0 0,0 0,0"
       id="path24" />
    <path
       stroke="#000000"
       stroke-width="1"
       fill="none"
       transform="matrix(0.0833333,0,0,0.0833333,-193.25,-404.667)"
       d="m 4518.02,5858.05 c 0,0 -58.1,-61.75 -58.1,-61.75 0,0 19.72,-5.94 37.52,-11.29 17.79,-5.36 37.52,-11.29 37.52,-11.29 0,0 -16.94,84.33 -16.94,84.33 0,0 0,0 0,0"
       id="path26" />
    <path
       stroke="none"
       fill="#000000"
       transform="matrix(0.0833333,0,0,0.0833333,-193.25,-404.667)"
       d="m 5529.51,5747.07 h -571.15 v -20 h 571.15 z"
       id="path28" />
    <path
       stroke="none"
       fill="#000000"
       transform="matrix(0.0833333,0,0,0.0833333,-193.25,-404.667)"
       d="m 5702.13,5737.07 c 0,0 -198.43,50.61 -198.43,50.61 0,0 24.81,-28.47 24.81,-50.61 0,-22.57 -24.81,-51.6 -24.81,-51.6 0,0 198.43,51.6 198.43,51.6 0,0 0,0 0,0"
       id="path30" />
    <path
       stroke="#000000"
       stroke-width="1"
       fill="none"
       transform="matrix(0.0833333,0,0,0.0833333,-193.25,-404.667)"
       d="m 5702.13,5737.07 c 0,0 -198.43,50.61 -198.43,50.61 0,0 24.81,-28.47 24.81,-50.61 0,-22.57 -24.81,-51.6 -24.81,-51.6 0,0 198.43,51.6 198.43,51.6 0,0 0,0 0,0"
       id="path32" />
    <text
       x="0"
       y="0"
       stroke="none"
       fill="#000000"
       transform="matrix(0.0833333,0,0,0.0833333,338.965,42.4918)"
       font-style="normal"
       font-weight="normal"
       font-size="200px"
       font-family="Arial"
       id="text34">C</text>
    <path
       stroke="none"
       fill="#000000"
       transform="matrix(0.0833333,0,0,0.0833333,-193.25,-404.667)"
       d="m 6448.8,5407.74 h 20 v 480.16 h -10 l -9.76,-5.69 z"
       id="path36" />
    <path
       stroke="none"
       fill="#000000"
       transform="matrix(0.0833333,0,0,0.0833333,-193.25,-404.667)"
       d="m 6449.04,5882.21 9.76,5.69 -7.82,15.5 -506.74,293.16 -10,-17.32 z"
       id="path38" />
    <path
       stroke="none"
       fill="#000000"
       transform="matrix(0.0833333,0,0,0.0833333,-193.25,-404.667)"
       d="m 6375.32,5228.15 -10,17.32 -431.08,-248.91 10,-17.32 z"
       id="path40" />
    <text
       x="0"
       y="0"
       stroke="none"
       fill="#000000"
       transform="matrix(0.0833333,0,0,0.0833333,85.1579,29.9932)"
       font-style="normal"
       font-weight="normal"
       font-size="200px"
       font-family="Arial"
       id="text42">H</text>
    <path
       stroke="none"
       fill="#000000"
       transform="matrix(0.0833333,0,0,0.0833333,-193.25,-404.667)"
       d="m 2903.3,5443.51 -9.81,-5.6 0.05,-11.3 405.03,-234.11 10,17.32 z"
       id="path44" />
    <text
       x="0"
       y="0"
       stroke="none"
       fill="#000000"
       transform="matrix(0.0833333,0,0,0.0833333,85.158,129.991)"
       font-style="normal"
       font-weight="normal"
       font-size="200px"
       font-family="Arial"
       id="text46">H</text>
    <path
       stroke="none"
       fill="#000000"
       transform="matrix(0.0833333,0,0,0.0833333,-193.25,-404.667)"
       d="m 2893.54,6049.21 -0.05,-11.3 9.81,-5.61 411.62,237.36 -10,17.32 z"
       id="path48" />
    <text
       x="0"
       y="0"
       stroke="none"
       fill="#000000"
       transform="matrix(0.0833333,0,0,0.0833333,382.267,117.491)"
       font-style="normal"
       font-weight="normal"
       font-size="200px"
       font-family="Arial"
       id="text50">H</text>
    <path
       stroke="none"
       fill="#000000"
       transform="matrix(0.0833333,0,0,0.0833333,-193.25,-404.667)"
       d="m 6500.65,5923.61 10,-17.32 18.49,7.97 -12.34,21.38 z"
       id="path52" />
    <path
       stroke="none"
       fill="#000000"
       transform="matrix(0.0833333,0,0,0.0833333,-193.25,-404.667)"
       d="m 6547.57,5958.56 16.81,-29.12 18.49,7.98 -19.15,33.17 z"
       id="path54" />
    <path
       stroke="none"
       fill="#000000"
       transform="matrix(0.0833333,0,0,0.0833333,-193.25,-404.667)"
       d="m 6594.49,5993.51 23.61,-40.91 18.5,7.97 -25.96,44.97 z"
       id="path56" />
    <path
       stroke="none"
       fill="#000000"
       transform="matrix(0.0833333,0,0,0.0833333,-193.25,-404.667)"
       d="m 6641.41,6028.46 30.42,-52.7 18.49,7.97 -32.76,56.75 z"
       id="path58" />
    <path
       stroke="none"
       fill="#000000"
       transform="matrix(0.0833333,0,0,0.0833333,-193.25,-404.667)"
       d="m 6688.33,6063.4 37.23,-64.49 18.49,7.98 -39.57,68.54 z"
       id="path60" />
    <path
       stroke="none"
       fill="#000000"
       transform="matrix(0.0833333,0,0,0.0833333,-193.25,-404.667)"
       d="m 6735.25,6098.35 44.04,-76.28 18.49,7.97 -46.38,80.34 z"
       id="path62" />
    <path
       stroke="none"
       fill="#000000"
       transform="matrix(0.0833333,0,0,0.0833333,-193.25,-404.667)"
       d="m 6782.17,6133.3 50.84,-88.07 18.5,7.97 -53.19,92.13 z"
       id="path64" />
    <path
       stroke="none"
       fill="#000000"
       transform="matrix(0.0833333,0,0,0.0833333,-193.25,-404.667)"
       d="m 6829.09,6168.25 57.65,-99.87 18.49,7.98 -60,103.92 z"
       id="path66" />
    <text
       x="0"
       y="0"
       stroke="none"
       fill="#000000"
       transform="matrix(0.0833333,0,0,0.0833333,338.967,142.492)"
       font-style="normal"
       font-weight="normal"
       font-size="200px"
       font-family="Arial"
       id="text68">H</text>
    <path
       stroke="none"
       fill="#000000"
       transform="matrix(0.0833333,0,0,0.0833333,-193.25,-404.667)"
       d="m 6450.98,5903.4 7.82,-15.5 h 10 l 50.02,497.33 -120,0.01 z"
       id="path70" />
    <text
       x="0"
       y="0"
       stroke="none"
       fill="#000000"
       transform="matrix(0.0833333,0,0,0.0833333,440.147,80.0548)"
       font-style="normal"
       font-weight="normal"
       font-size="200px"
       font-family="Arial"
       id="text72">Cl</text>
    <text
       x="0"
       y="0"
       stroke="none"
       fill="#000000"
       transform="matrix(0.0833333,0,0,0.0833333,455.886,73.5548)"
       font-style="normal"
       font-weight="normal"
       font-size="150px"
       font-family="Arial"
       id="text74">-</text>
    <text
       x="0"
       y="0"
       stroke="none"
       fill="#000000"
       transform="matrix(0.0833333,0,0,0.0833333,382.267,17.4928)"
       font-style="normal"
       font-weight="normal"
       font-size="200px"
       font-family="Arial"
       id="text76">H</text>
    <path
       stroke="none"
       fill="#000000"
       transform="matrix(0.0833333,0,0,0.0833333,-193.25,-404.667)"
       d="m 6556.69,5242.93 -10,-17.32 317.19,-183.12 10,17.32 z"
       id="path78" />
    <path
       stroke="none"
       fill="#000000"
       transform="matrix(0.0833333,0,0,0.0833333,-193.25,-404.667)"
       d="m 7516.44,5701.16 a 16.6667,16.6667 0 1 0 33.33,0 16.6667,16.6667 0 1 0 -33.33,0 z"
       id="path80" />
    <path
       stroke="none"
       fill="#000000"
       transform="matrix(0.0833333,0,0,0.0833333,-193.25,-404.667)"
       d="m 7516.44,5776.16 a 16.6667,16.6667 0 1 0 33.33,0 16.6667,16.6667 0 1 0 -33.33,0 z"
       id="path82" />
    <path
       stroke="none"
       fill="#000000"
       transform="matrix(0.0833333,0,0,0.0833333,-193.25,-404.667)"
       d="m 6610.4,5401.89 h 86.51 v 16 h -86.51 z"
       id="path84" />
    <path
       stroke="none"
       fill="#000000"
       transform="matrix(0.0833333,0,0,0.0833333,-193.25,-404.667)"
       d="m 6661.65,5366.64 v 86.51 h -16 v -86.51 z"
       id="path86" />
    <text
       x="0"
       y="0"
       stroke="none"
       fill="#000000"
       transform="matrix(0.0833333,0,0,0.0833333,49.632,242.575)"
       font-style="normal"
       font-weight="normal"
       font-size="200px"
       font-family="Arial"
       id="text88">C</text>
    <path
       stroke="none"
       fill="#000000"
       transform="matrix(0.0833333,0,0,0.0833333,-193.25,-404.667)"
       d="m 2976.8,7808.73 h 20 v 480.17 h -10 l -9.76,-5.7 z"
       id="path90" />
    <path
       stroke="none"
       fill="#000000"
       transform="matrix(0.0833333,0,0,0.0833333,-193.25,-404.667)"
       d="m 2977.04,8283.2 9.76,5.7 -7.82,15.5 -506.74,293.16 -10,-17.32 z"
       id="path92" />
    <path
       stroke="none"
       fill="#000000"
       transform="matrix(0.0833333,0,0,0.0833333,-193.25,-404.667)"
       d="m 2903.32,7629.15 -10,17.32 -431.08,-248.91 10,-17.32 z"
       id="path94" />
    <text
       x="0"
       y="0"
       stroke="none"
       fill="#000000"
       transform="matrix(0.0833333,0,0,0.0833333,92.9338,317.574)"
       font-style="normal"
       font-weight="normal"
       font-size="200px"
       font-family="Arial"
       id="text96">H</text>
    <path
       stroke="none"
       fill="#000000"
       transform="matrix(0.0833333,0,0,0.0833333,-193.25,-404.667)"
       d="m 3028.65,8324.61 10,-17.32 18.49,7.97 -12.34,21.37 z"
       id="path98" />
    <path
       stroke="none"
       fill="#000000"
       transform="matrix(0.0833333,0,0,0.0833333,-193.25,-404.667)"
       d="m 3075.57,8359.55 16.81,-29.11 18.49,7.97 -19.15,33.17 z"
       id="path100" />
    <path
       stroke="none"
       fill="#000000"
       transform="matrix(0.0833333,0,0,0.0833333,-193.25,-404.667)"
       d="m 3122.49,8394.5 23.61,-40.9 18.5,7.97 -25.96,44.96 z"
       id="path102" />
    <path
       stroke="none"
       fill="#000000"
       transform="matrix(0.0833333,0,0,0.0833333,-193.25,-404.667)"
       d="m 3169.41,8429.45 30.42,-52.69 18.49,7.97 -32.76,56.75 z"
       id="path104" />
    <path
       stroke="none"
       fill="#000000"
       transform="matrix(0.0833333,0,0,0.0833333,-193.25,-404.667)"
       d="m 3216.33,8464.4 37.23,-64.49 18.49,7.97 -39.57,68.55 z"
       id="path106" />
    <path
       stroke="none"
       fill="#000000"
       transform="matrix(0.0833333,0,0,0.0833333,-193.25,-404.667)"
       d="m 3263.25,8499.35 44.04,-76.28 18.49,7.97 -46.38,80.34 z"
       id="path108" />
    <path
       stroke="none"
       fill="#000000"
       transform="matrix(0.0833333,0,0,0.0833333,-193.25,-404.667)"
       d="m 3310.17,8534.3 50.84,-88.08 18.49,7.98 -53.19,92.13 z"
       id="path110" />
    <path
       stroke="none"
       fill="#000000"
       transform="matrix(0.0833333,0,0,0.0833333,-193.25,-404.667)"
       d="m 3357.09,8569.25 57.65,-99.87 18.49,7.97 -60,103.93 z"
       id="path112" />
    <text
       x="0"
       y="0"
       stroke="none"
       fill="#000000"
       transform="matrix(0.0833333,0,0,0.0833333,49.6336,342.575)"
       font-style="normal"
       font-weight="normal"
       font-size="200px"
       font-family="Arial"
       id="text114">H</text>
    <path
       stroke="none"
       fill="#000000"
       transform="matrix(0.0833333,0,0,0.0833333,-193.25,-404.667)"
       d="m 2978.98,8304.4 7.82,-15.5 h 10 l 50.02,497.33 h -120 z"
       id="path116" />
    <text
       x="0"
       y="0"
       stroke="none"
       fill="#000000"
       transform="matrix(0.0833333,0,0,0.0833333,150.814,280.138)"
       font-style="normal"
       font-weight="normal"
       font-size="200px"
       font-family="Arial"
       id="text118">Cl</text>
    <text
       x="0"
       y="0"
       stroke="none"
       fill="#000000"
       transform="matrix(0.0833333,0,0,0.0833333,166.553,273.638)"
       font-style="normal"
       font-weight="normal"
       font-size="150px"
       font-family="Arial"
       id="text120">-</text>
    <text
       x="0"
       y="0"
       stroke="none"
       fill="#000000"
       transform="matrix(0.0833333,0,0,0.0833333,92.9339,217.576)"
       font-style="normal"
       font-weight="normal"
       font-size="200px"
       font-family="Arial"
       id="text122">H</text>
    <path
       stroke="none"
       fill="#000000"
       transform="matrix(0.0833333,0,0,0.0833333,-193.25,-404.667)"
       d="m 3084.69,7643.93 -10,-17.32 317.19,-183.12 10,17.32 z"
       id="path124" />
    <path
       stroke="none"
       fill="#000000"
       transform="matrix(0.0833333,0,0,0.0833333,-193.25,-404.667)"
       d="m 4044.44,8102.15 a 16.6667,16.6667 0 1 0 33.33,0 16.6667,16.6667 0 1 0 -33.33,0 z"
       id="path126" />
    <path
       stroke="none"
       fill="#000000"
       transform="matrix(0.0833333,0,0,0.0833333,-193.25,-404.667)"
       d="m 4044.44,8177.15 a 16.6667,16.6667 0 1 0 33.33,0 16.6667,16.6667 0 1 0 -33.33,0 z"
       id="path128" />
    <path
       stroke="none"
       fill="#000000"
       transform="matrix(0.0833333,0,0,0.0833333,-193.25,-404.667)"
       d="m 3138.4,7802.89 h 86.51 v 16 h -86.51 z"
       id="path130" />
    <path
       stroke="none"
       fill="#000000"
       transform="matrix(0.0833333,0,0,0.0833333,-193.25,-404.667)"
       d="m 3189.65,7767.64 v 86.5 h -16 v -86.5 z"
       id="path132" />
    <path
       stroke="#000000"
       stroke-width="20"
       fill="none"
       transform="matrix(0.0833333,0,0,0.0833333,-193.25,-404.667)"
       d="m 3163.69,7988.32 c 101.67,287.94 417.92,439.14 705.86,337.47 54.97,-19.41 106.83,-47.57 153.04,-83.1"
       id="path134" />
    <path
       stroke="none"
       fill="#000000"
       transform="matrix(0.0833333,0,0,0.0833333,-193.25,-404.667)"
       d="m 3143.13,7913.93 c 0,0 58.76,63.11 58.76,63.11 0,0 -19.77,5.84 -38.2,11.28 -18.42,5.44 -38.19,11.28 -38.19,11.28 0,0 17.63,-85.67 17.63,-85.67 0,0 0,0 0,0"
       id="path136" />
    <path
       stroke="#000000"
       stroke-width="1"
       fill="none"
       transform="matrix(0.0833333,0,0,0.0833333,-193.25,-404.667)"
       d="m 3143.13,7913.93 c 0,0 58.76,63.11 58.76,63.11 0,0 -19.77,5.84 -38.2,11.28 -18.42,5.44 -38.19,11.28 -38.19,11.28 0,0 17.63,-85.67 17.63,-85.67 0,0 0,0 0,0"
       id="path138" />
    <path
       stroke="none"
       fill="#000000"
       transform="matrix(0.0833333,0,0,0.0833333,-193.25,-404.667)"
       d="m 5145.51,8148.07 h -571.15 v -20 h 571.15 z"
       id="path140" />
    <path
       stroke="none"
       fill="#000000"
       transform="matrix(0.0833333,0,0,0.0833333,-193.25,-404.667)"
       d="m 5318.13,8138.07 c 0,0 -198.43,50.61 -198.43,50.61 0,0 24.81,-28.47 24.81,-50.61 0,-22.58 -24.81,-51.6 -24.81,-51.6 0,0 198.43,51.6 198.43,51.6 0,0 0,0 0,0"
       id="path142" />
    <path
       stroke="#000000"
       stroke-width="1"
       fill="none"
       transform="matrix(0.0833333,0,0,0.0833333,-193.25,-404.667)"
       d="m 5318.13,8138.07 c 0,0 -198.43,50.61 -198.43,50.61 0,0 24.81,-28.47 24.81,-50.61 0,-22.58 -24.81,-51.6 -24.81,-51.6 0,0 198.43,51.6 198.43,51.6 0,0 0,0 0,0"
       id="path144" />
    <text
       x="0"
       y="0"
       stroke="none"
       fill="#000000"
       transform="matrix(0.0833333,0,0,0.0833333,299.632,255.075)"
       font-style="normal"
       font-weight="normal"
       font-size="200px"
       font-family="Arial"
       id="text146">C</text>
    <path
       stroke="none"
       fill="#000000"
       transform="matrix(0.0833333,0,0,0.0833333,-193.25,-404.667)"
       d="m 5976.8,7958.74 h 20 v 480.16 h -10 l -9.76,-5.69 z"
       id="path148" />
    <path
       stroke="none"
       fill="#000000"
       transform="matrix(0.0833333,0,0,0.0833333,-193.25,-404.667)"
       d="m 5977.04,8433.21 9.76,5.69 -7.82,15.51 -506.74,293.15 -10,-17.32 z"
       id="path150" />
    <path
       stroke="none"
       fill="#000000"
       transform="matrix(0.0833333,0,0,0.0833333,-193.25,-404.667)"
       d="m 5903.32,7779.16 -10,17.32 -431.08,-248.92 10,-17.32 z"
       id="path152" />
    <text
       x="0"
       y="0"
       stroke="none"
       fill="#000000"
       transform="matrix(0.0833333,0,0,0.0833333,342.934,330.074)"
       font-style="normal"
       font-weight="normal"
       font-size="200px"
       font-family="Arial"
       id="text154">H</text>
    <path
       stroke="none"
       fill="#000000"
       transform="matrix(0.0833333,0,0,0.0833333,-193.25,-404.667)"
       d="m 6028.65,8474.61 10,-17.32 18.49,7.97 -12.34,21.38 z"
       id="path156" />
    <path
       stroke="none"
       fill="#000000"
       transform="matrix(0.0833333,0,0,0.0833333,-193.25,-404.667)"
       d="m 6075.57,8509.56 16.81,-29.11 18.49,7.97 -19.15,33.17 z"
       id="path158" />
    <path
       stroke="none"
       fill="#000000"
       transform="matrix(0.0833333,0,0,0.0833333,-193.25,-404.667)"
       d="m 6122.49,8544.51 23.61,-40.91 18.5,7.97 -25.96,44.97 z"
       id="path160" />
    <path
       stroke="none"
       fill="#000000"
       transform="matrix(0.0833333,0,0,0.0833333,-193.25,-404.667)"
       d="m 6169.41,8579.46 30.42,-52.7 18.49,7.97 -32.76,56.76 z"
       id="path162" />
    <path
       stroke="none"
       fill="#000000"
       transform="matrix(0.0833333,0,0,0.0833333,-193.25,-404.667)"
       d="m 6216.33,8614.41 37.23,-64.49 18.49,7.97 -39.57,68.55 z"
       id="path164" />
    <path
       stroke="none"
       fill="#000000"
       transform="matrix(0.0833333,0,0,0.0833333,-193.25,-404.667)"
       d="m 6263.25,8649.36 44.04,-76.29 18.49,7.97 -46.38,80.34 z"
       id="path166" />
    <path
       stroke="none"
       fill="#000000"
       transform="matrix(0.0833333,0,0,0.0833333,-193.25,-404.667)"
       d="m 6310.17,8684.3 50.84,-88.07 18.49,7.97 -53.19,92.13 z"
       id="path168" />
    <path
       stroke="none"
       fill="#000000"
       transform="matrix(0.0833333,0,0,0.0833333,-193.25,-404.667)"
       d="m 6357.09,8719.25 57.65,-99.86 18.49,7.97 -60,103.92 z"
       id="path170" />
    <text
       x="0"
       y="0"
       stroke="none"
       fill="#000000"
       transform="matrix(0.0833333,0,0,0.0833333,299.634,355.075)"
       font-style="normal"
       font-weight="normal"
       font-size="200px"
       font-family="Arial"
       id="text172">H</text>
    <path
       stroke="none"
       fill="#000000"
       transform="matrix(0.0833333,0,0,0.0833333,-193.25,-404.667)"
       d="m 5978.98,8454.41 7.82,-15.51 h 10 l 50.02,497.34 h -120 z"
       id="path174" />
    <text
       x="0"
       y="0"
       stroke="none"
       fill="#000000"
       transform="matrix(0.0833333,0,0,0.0833333,342.934,230.076)"
       font-style="normal"
       font-weight="normal"
       font-size="200px"
       font-family="Arial"
       id="text176">Cl</text>
    <path
       stroke="none"
       fill="#000000"
       transform="matrix(0.0833333,0,0,0.0833333,-193.25,-404.667)"
       d="m 6084.69,7793.94 -10,-17.32 306,-234.4 60,103.93 z"
       id="path178" />
    <text
       x="0"
       y="0"
       stroke="none"
       fill="#000000"
       transform="matrix(0.0833333,0,0,0.0833333,299.634,205.075)"
       font-style="normal"
       font-weight="normal"
       font-size="200px"
       font-family="Arial"
       id="text180">H</text>
    <path
       stroke="none"
       fill="#000000"
       transform="matrix(0.0833333,0,0,0.0833333,-193.25,-404.667)"
       d="m 5996.8,7733.74 h -20 l -2.64,-20 h 25.29 z"
       id="path182" />
    <path
       stroke="none"
       fill="#000000"
       transform="matrix(0.0833333,0,0,0.0833333,-193.25,-404.667)"
       d="m 6004.7,7674.16 -35.79,-0.01 -2.64,-20 41.08,0.01 z"
       id="path184" />
    <path
       stroke="none"
       fill="#000000"
       transform="matrix(0.0833333,0,0,0.0833333,-193.25,-404.667)"
       d="m 6012.59,7614.57 h -51.57 l -2.64,-20 h 56.86 z"
       id="path186" />
    <path
       stroke="none"
       fill="#000000"
       transform="matrix(0.0833333,0,0,0.0833333,-193.25,-404.667)"
       d="m 6020.49,7554.99 h -67.36 l -2.64,-20 h 72.65 z"
       id="path188" />
    <path
       stroke="none"
       fill="#000000"
       transform="matrix(0.0833333,0,0,0.0833333,-193.25,-404.667)"
       d="m 6028.38,7495.41 -83.14,-0.01 -2.64,-20 88.43,0.01 z"
       id="path190" />
    <path
       stroke="none"
       fill="#000000"
       transform="matrix(0.0833333,0,0,0.0833333,-193.25,-404.667)"
       d="m 6036.27,7435.82 h -98.91 l -2.65,-20 h 104.21 z"
       id="path192" />
    <path
       stroke="none"
       fill="#000000"
       transform="matrix(0.0833333,0,0,0.0833333,-193.25,-404.667)"
       d="m 6044.17,7376.24 h -114.7 l -2.65,-20 h 120 z"
       id="path194" />
    <text
       x="0"
       y="0"
       stroke="none"
       fill="#000000"
       transform="matrix(0.0833333,0,0,0.0833333,450.299,255.075)"
       font-style="normal"
       font-weight="normal"
       font-size="200px"
       font-family="Arial"
       id="text196">C</text>
    <path
       stroke="none"
       fill="#000000"
       transform="matrix(0.0833333,0,0,0.0833333,-193.25,-404.667)"
       d="m 7784.8,7958.74 h 20 v 480.16 h -10 l -9.76,-5.69 z"
       id="path198" />
    <path
       stroke="none"
       fill="#000000"
       transform="matrix(0.0833333,0,0,0.0833333,-193.25,-404.667)"
       d="m 7785.04,8433.21 9.76,5.69 -7.82,15.51 -506.74,293.15 -10,-17.32 z"
       id="path200" />
    <path
       stroke="none"
       fill="#000000"
       transform="matrix(0.0833333,0,0,0.0833333,-193.25,-404.667)"
       d="m 7711.32,7779.16 -10,17.32 -431.08,-248.92 10,-17.32 z"
       id="path202" />
    <text
       x="0"
       y="0"
       stroke="none"
       fill="#000000"
       transform="matrix(0.0833333,0,0,0.0833333,493.6,330.074)"
       font-style="normal"
       font-weight="normal"
       font-size="200px"
       font-family="Arial"
       id="text204">H</text>
    <path
       stroke="none"
       fill="#000000"
       transform="matrix(0.0833333,0,0,0.0833333,-193.25,-404.667)"
       d="m 7836.65,8474.61 10,-17.32 18.49,7.97 -12.34,21.38 z"
       id="path206" />
    <path
       stroke="none"
       fill="#000000"
       transform="matrix(0.0833333,0,0,0.0833333,-193.25,-404.667)"
       d="m 7883.57,8509.56 16.81,-29.11 18.49,7.97 -19.15,33.17 z"
       id="path208" />
    <path
       stroke="none"
       fill="#000000"
       transform="matrix(0.0833333,0,0,0.0833333,-193.25,-404.667)"
       d="m 7930.49,8544.51 23.61,-40.91 18.5,7.97 -25.96,44.97 z"
       id="path210" />
    <path
       stroke="none"
       fill="#000000"
       transform="matrix(0.0833333,0,0,0.0833333,-193.25,-404.667)"
       d="m 7977.41,8579.46 30.42,-52.7 18.49,7.97 -32.76,56.76 z"
       id="path212" />
    <path
       stroke="none"
       fill="#000000"
       transform="matrix(0.0833333,0,0,0.0833333,-193.25,-404.667)"
       d="m 8024.33,8614.41 37.23,-64.49 18.49,7.97 -39.57,68.55 z"
       id="path214" />
    <path
       stroke="none"
       fill="#000000"
       transform="matrix(0.0833333,0,0,0.0833333,-193.25,-404.667)"
       d="m 8071.25,8649.36 44.04,-76.29 18.49,7.97 -46.38,80.34 z"
       id="path216" />
    <path
       stroke="none"
       fill="#000000"
       transform="matrix(0.0833333,0,0,0.0833333,-193.25,-404.667)"
       d="m 8118.17,8684.3 50.84,-88.07 18.49,7.97 -53.19,92.13 z"
       id="path218" />
    <path
       stroke="none"
       fill="#000000"
       transform="matrix(0.0833333,0,0,0.0833333,-193.25,-404.667)"
       d="m 8165.08,8719.25 57.66,-99.86 18.49,7.97 -60,103.92 z"
       id="path220" />
    <text
       x="0"
       y="0"
       stroke="none"
       fill="#000000"
       transform="matrix(0.0833333,0,0,0.0833333,450.3,355.075)"
       font-style="normal"
       font-weight="normal"
       font-size="200px"
       font-family="Arial"
       id="text222">H</text>
    <path
       stroke="none"
       fill="#000000"
       transform="matrix(0.0833333,0,0,0.0833333,-193.25,-404.667)"
       d="m 7786.98,8454.41 7.82,-15.51 h 10 l 50.02,497.34 h -120 z"
       id="path224" />
    <text
       x="0"
       y="0"
       stroke="none"
       fill="#000000"
       transform="matrix(0.0833333,0,0,0.0833333,493.6,230.076)"
       font-style="normal"
       font-weight="normal"
       font-size="200px"
       font-family="Arial"
       id="text226">Cl</text>
    <path
       stroke="none"
       fill="#000000"
       transform="matrix(0.0833333,0,0,0.0833333,-193.25,-404.667)"
       d="m 7892.69,7793.94 -10,-17.32 16.01,-12.27 12.62,21.85 z"
       id="path228" />
    <path
       stroke="none"
       fill="#000000"
       transform="matrix(0.0833333,0,0,0.0833333,-193.25,-404.667)"
       d="m 7948.92,7770.59 -17.9,-31 16.02,-12.26 20.51,35.53 z"
       id="path230" />
    <path
       stroke="none"
       fill="#000000"
       transform="matrix(0.0833333,0,0,0.0833333,-193.25,-404.667)"
       d="m 8005.15,7747.25 -25.8,-44.68 16.02,-12.26 28.41,49.21 z"
       id="path232" />
    <path
       stroke="none"
       fill="#000000"
       transform="matrix(0.0833333,0,0,0.0833333,-193.25,-404.667)"
       d="m 8061.38,7723.91 -33.69,-58.36 16.01,-12.26 36.31,62.88 z"
       id="path234" />
    <path
       stroke="none"
       fill="#000000"
       transform="matrix(0.0833333,0,0,0.0833333,-193.25,-404.667)"
       d="m 8117.6,7700.57 -41.58,-72.04 16.01,-12.27 44.2,76.57 z"
       id="path236" />
    <path
       stroke="none"
       fill="#000000"
       transform="matrix(0.0833333,0,0,0.0833333,-193.25,-404.667)"
       d="m 8173.83,7677.22 -49.48,-85.71 16.01,-12.27 52.1,90.25 z"
       id="path238" />
    <path
       stroke="none"
       fill="#000000"
       transform="matrix(0.0833333,0,0,0.0833333,-193.25,-404.667)"
       d="m 8230.06,7653.88 -57.38,-99.39 16.01,-12.27 60,103.93 z"
       id="path240" />
    <text
       x="0"
       y="0"
       stroke="none"
       fill="#000000"
       transform="matrix(0.0833333,0,0,0.0833333,450.3,205.075)"
       font-style="normal"
       font-weight="normal"
       font-size="200px"
       font-family="Arial"
       id="text242">H</text>
    <path
       stroke="none"
       fill="#000000"
       transform="matrix(0.0833333,0,0,0.0833333,-193.25,-404.667)"
       d="m 7804.8,7733.74 h -20 l -49.98,-377.5 h 120 z"
       id="path244" />
    <text
       x="0"
       y="0"
       stroke="none"
       fill="#000000"
       transform="matrix(0.0833333,0,0,0.0833333,293.272,381.646)"
       font-style="normal"
       font-weight="normal"
       font-size="240px"
       font-family="'Times New Roman'"
       id="text246">50%</text>
    <text
       x="0"
       y="0"
       stroke="none"
       fill="#000000"
       transform="matrix(0.0833333,0,0,0.0833333,443.939,381.646)"
       font-style="normal"
       font-weight="normal"
       font-size="240px"
       font-family="'Times New Roman'"
       id="text248">50%</text>
  </g>
</svg>
