<?xml version="1.0" encoding="UTF-8" standalone="no"?>
<svg
   viewBox="0 0 150 149.99998"
   version="1.1"
   id="svg1321"
   sodipodi:docname="erlenmeyer-flask.svg"
   inkscape:version="1.2.2 (732a01da63, 2022-12-09)"
   width="150"
   height="149.99998"
   xml:space="preserve"
   xmlns:inkscape="http://www.inkscape.org/namespaces/inkscape"
   xmlns:sodipodi="http://sodipodi.sourceforge.net/DTD/sodipodi-0.dtd"
   xmlns="http://www.w3.org/2000/svg"
   xmlns:svg="http://www.w3.org/2000/svg"><defs
     id="defs1325" /><sodipodi:namedview
     id="namedview1323"
     pagecolor="#ffffff"
     bordercolor="#111111"
     borderopacity="1"
     inkscape:showpageshadow="0"
     inkscape:pageopacity="0"
     inkscape:pagecheckerboard="1"
     inkscape:deskcolor="#d1d1d1"
     showgrid="false"
     inkscape:zoom="1.0425"
     inkscape:cx="-37.410072"
     inkscape:cy="163.54916"
     inkscape:window-width="1920"
     inkscape:window-height="1001"
     inkscape:window-x="-9"
     inkscape:window-y="-9"
     inkscape:window-maximized="1"
     inkscape:current-layer="svg1321" /><rect
     style="font-variation-settings:normal;opacity:1;vector-effect:none;fill:#ffffff;fill-opacity:1;fill-rule:evenodd;stroke:#000000;stroke-width:10.524;stroke-linecap:square;stroke-linejoin:miter;stroke-miterlimit:0;stroke-dasharray:none;stroke-dashoffset:0;stroke-opacity:1;-inkscape-stroke:none;stop-color:#000000;stop-opacity:1"
     id="rect15087"
     width="413.42926"
     height="400.95923"
     x="-4.7961631"
     y="-0.95923263"
     transform="matrix(0.35381257,0,0,0.36453488,3.5587046,2.2678563)" /><path
     style="fill:none;stroke:#000000;stroke-width:32.65799366;stroke-dasharray:none;stroke-opacity:1"
     d="M 146.001,0.648926 C 130.163,5.4494 136,34.2715 136,47 v 68 c 0,10.943 1.549,23.212 -0.329,34 -1.996,11.469 -8.897,23.246 -13.274,34 -20.37,50.037 -40.8015,100.059 -61.4078,150 -5.2223,12.656 -10.4301,25.318 -15.5926,38 -2.3677,5.816 -6.2156,12.53 -4.2485,19 2.7406,9.013 10.7334,9.997 18.8519,10 h 52 167 49 c 7.099,0 16.288,1.515 22.996,-1.148 15.685,-6.226 4.542,-25.678 0.401,-35.852 C 337.679,329.303 323.513,295.78 310,262 299.296,235.242 287.903,208.758 277.2,182 272.788,170.971 264.627,157.986 264.04,146 262.383,112.178 264,77.8668 264,44 264,33.8194 267.832,13.6567 261.146,5.3287 254.851,-2.51193 241.836,0 233,0 h -59 c -8.603,0 -19.727,-1.85852 -27.999,0.648926"
     transform="matrix(0.3062776,0,0,0.30612991,13.744476,13.774013)"
     id="path14716" /></svg>
