<?xml version="1.0" encoding="UTF-8" standalone="no"?>
<svg
   viewBox="0 0 150 150"
   version="1.1"
   id="svg1321"
   sodipodi:docname="pen-with-cap.svg"
   inkscape:version="1.2.2 (732a01da63, 2022-12-09)"
   width="150"
   height="150"
   xml:space="preserve"
   xmlns:inkscape="http://www.inkscape.org/namespaces/inkscape"
   xmlns:sodipodi="http://sodipodi.sourceforge.net/DTD/sodipodi-0.dtd"
   xmlns="http://www.w3.org/2000/svg"
   xmlns:svg="http://www.w3.org/2000/svg"><defs
     id="defs1325" /><sodipodi:namedview
     id="namedview1323"
     pagecolor="#ffffff"
     bordercolor="#111111"
     borderopacity="1"
     inkscape:showpageshadow="0"
     inkscape:pageopacity="0"
     inkscape:pagecheckerboard="1"
     inkscape:deskcolor="#d1d1d1"
     showgrid="false"
     inkscape:zoom="2.9486353"
     inkscape:cx="10.513338"
     inkscape:cy="83.258856"
     inkscape:window-width="1920"
     inkscape:window-height="1001"
     inkscape:window-x="-9"
     inkscape:window-y="-9"
     inkscape:window-maximized="1"
     inkscape:current-layer="svg1321" /><rect
     style="font-variation-settings:normal;opacity:1;fill:#ffffff;fill-opacity:1;fill-rule:evenodd;stroke:#000000;stroke-width:1.73961;stroke-linecap:square;stroke-linejoin:miter;stroke-miterlimit:0;stroke-dasharray:none;stroke-dashoffset:0;stroke-opacity:1;stop-color:#000000;stop-opacity:1"
     id="rect998"
     width="137.64989"
     height="120.38369"
     x="-22.062349"
     y="-15.827338"
     rx="1.922205"
     ry="1.6841015"
     transform="matrix(1.0761212,0,0,1.2282668,24.677777,20.508547)"
     inkscape:label="Background"
     sodipodi:insensitive="true" /><path
     id="path3602"
     style="fill:#343434;stroke:none;stroke-width:11.1849"
     d="M 290.00391,0.73632173 C 276.12392,2.5302669 248.71886,7.8216459 242.63086,23.060541 c -1.911,4.781695 -0.59781,11.867217 -0.63281,16.945312 -0.067,9.639591 -1.00195,19.276139 -1.00195,28.986329 -16.59399,2.184198 -42.91338,14.541037 -44.85938,33.011718 -1.218,11.56299 2.73496,22.92811 5.50195,33.99609 4.337,17.35099 8.56376,34.73412 13.21875,51.9961 15.01499,55.67694 29.0523,111.91178 42.36329,168.01172 4.66299,19.65298 7.33254,46.16839 16.76953,63.98438 3.40199,6.42099 11.75391,15.80534 20.0039,12.90234 7.094,-2.495 8.158,-11.45854 9,-17.89453 1.823,-13.93999 6.74681,-28.58247 -2.74218,-40.93946 -3.066,-3.99199 -8.73079,-5.13594 -11.42579,-9.21093 -3.75799,-5.682 -4.05931,-15.30262 -5.69531,-21.84961 -4.39999,-17.59799 -8.64178,-35.28507 -12.55078,-52.99805 -8.18899,-37.10796 -17.41309,-74.0949 -26.45508,-111.00586 -2.93299,-11.97199 -5.52323,-24.03701 -8.49023,-36 -1.272,-5.125 -4.42053,-12.74901 -3.26953,-18 1.122,-5.117 6.19077,-8.14196 10.63476,-10.00195 11.37299,95.7929 40.93806,186.81514 71.33203,277.99805 7.024,21.06997 14.55584,41.96202 21.67383,63 3.53,10.43299 7.53234,19.8429 19.98633,20.0039 -7.25199,18.02498 1.90605,34.43111 6.87305,51.9961 11.39399,40.29096 25.37084,79.9019 37.42383,120.00586 48.43695,161.16984 99.17215,321.18507 157.74609,479.00395 16.44499,44.3099 28.74074,99.4359 65.97071,131.2558 16.40898,14.03 34.6473,29.7817 56.98828,17.2617 18.10098,-10.14 18.58053,-25.9854 21.26953,-44.5254 C 708.45167,1188.3342 693.29046,1148.43 681.85548,1108 635.43252,943.85017 584.83197,780.87465 537.41602,617.00781 c -13.03699,-45.05495 -26.225,-90.07804 -39.70898,-135 -4.136,-13.78099 -6.60196,-40.115 -22.71094,-45 9.47499,-14.80998 3.85192,-26.14473 -0.58008,-42.01172 C 468.08503,372.32911 461.85106,349.64188 455.41407,327.0039 440.43408,274.32096 427.12601,219.85409 406.58204,168.99414 393.72905,137.17417 375.83202,106.38578 358.20703,77.007807 347.21205,58.680325 336.08716,40.437189 323.70118,23.007806 318.89018,16.238513 313.75932,6.4406613 306.86133,1.6328061 302.35234,-1.5094007 295.0499,0.08422238 290.00391,0.73632173 Z"
     transform="matrix(0.08572249,0.0254006,-0.0254006,0.08572249,53.236551,8.0067264)" /></svg>
