<?xml version="1.0" encoding="UTF-8" standalone="no"?>
<svg
   viewBox="0 0 150 150"
   version="1.1"
   id="svg1321"
   sodipodi:docname="pen.svg"
   inkscape:version="1.2.2 (732a01da63, 2022-12-09)"
   width="150"
   height="150"
   xml:space="preserve"
   xmlns:inkscape="http://www.inkscape.org/namespaces/inkscape"
   xmlns:sodipodi="http://sodipodi.sourceforge.net/DTD/sodipodi-0.dtd"
   xmlns="http://www.w3.org/2000/svg"
   xmlns:svg="http://www.w3.org/2000/svg"><defs
     id="defs1325" /><sodipodi:namedview
     id="namedview1323"
     pagecolor="#ffffff"
     bordercolor="#111111"
     borderopacity="1"
     inkscape:showpageshadow="0"
     inkscape:pageopacity="0"
     inkscape:pagecheckerboard="1"
     inkscape:deskcolor="#d1d1d1"
     showgrid="false"
     inkscape:zoom="1.4743176"
     inkscape:cx="-75.289067"
     inkscape:cy="137.35168"
     inkscape:window-width="1920"
     inkscape:window-height="1001"
     inkscape:window-x="-9"
     inkscape:window-y="-9"
     inkscape:window-maximized="1"
     inkscape:current-layer="svg1321" /><rect
     style="font-variation-settings:normal;opacity:1;fill:#ffffff;fill-opacity:1;fill-rule:evenodd;stroke:#000000;stroke-width:1.73961;stroke-linecap:square;stroke-linejoin:miter;stroke-miterlimit:0;stroke-dasharray:none;stroke-dashoffset:0;stroke-opacity:1;stop-color:#000000;stop-opacity:1"
     id="rect998"
     width="137.64989"
     height="120.38369"
     x="-22.062349"
     y="-15.827338"
     rx="1.922205"
     ry="1.6841015"
     transform="matrix(1.0761212,0,0,1.2282668,24.677777,20.508547)"
     inkscape:label="Background"
     sodipodi:insensitive="true" /><path
     id="path3563"
     style="fill:#0c0c0c;stroke:none;stroke-width:4.74"
     d="m 369.32918,-0.0842772 c -4.38414,-0.28215803 -8.57561,0.73963224 -11.97036,3.5272266 -9.34198,7.6720846 -15.70463,21.5807036 -22.35761,31.5598836 l -44.00239,65.998947 -55.33394,82.99629 -51.33457,77.00649 c -9.677,14.51696 -21.37693,28.93199 -28.32891,44.99297 9.82698,6.05798 19.20149,12.81071 28.99547,18.91371 3.78398,2.35898 8.59279,5.47904 13.06277,3.01804 6.42198,-3.53498 10.67483,-13.03224 14.60883,-18.93222 L 243.33035,263.00424 353.99824,97.002404 386.66906,48.000802 c 4.34898,-6.525088 11.75856,-14.647323 11.33156,-22.996407 -0.597,-11.678834 -15.51906,-24.24219812 -28.67144,-25.0886722 z M 155.00155,307.99721 97.001358,395.00214 c 8.412982,5.42298 16.647112,11.09053 24.996092,16.60851 3.54,2.339 8.0291,5.87846 12.53508,5.58246 7.89198,-0.519 13.99479,-14.47929 17.80277,-20.19129 13.80098,-20.70094 27.1772,-41.76861 41.66016,-61.99957 v -0.99984 z m -56.000504,91.0043 c -7.133986,10.68498 -16.794123,21.80271 -21.107813,33.99469 -4.335892,12.25498 -3.784541,28.10989 -3.897539,41.00285 19.62196,-5.59998 35.908936,-18.34181 47.001916,-35.00379 3.13,-4.70098 9.87914,-12.13544 7.86914,-18.29344 -1.19,-3.64498 -4.97895,-6.09042 -7.93395,-8.20242 -7.00298,-5.00398 -14.16277,-9.77189 -21.931754,-13.49789 z"
     transform="matrix(0.17588695,-0.11650028,0.11650028,0.17588695,6.8133282,59.542305)" /></svg>
