<?xml version="1.0" encoding="UTF-8" standalone="no"?>
<svg
   id="asvg1SVG"
   width="472.70297"
   height="262.16592"
   stroke="#000000"
   fill="#000000"
   version="1.1"
   sodipodi:docname="graph - absolute value function.svg"
   inkscape:version="1.2.2 (732a01da63, 2022-12-09)"
   xmlns:inkscape="http://www.inkscape.org/namespaces/inkscape"
   xmlns:sodipodi="http://sodipodi.sourceforge.net/DTD/sodipodi-0.dtd"
   xmlns="http://www.w3.org/2000/svg"
   xmlns:svg="http://www.w3.org/2000/svg">
  <defs
     id="defs24" />
  <sodipodi:namedview
     id="namedview22"
     pagecolor="#ffffff"
     bordercolor="#111111"
     borderopacity="1"
     inkscape:showpageshadow="0"
     inkscape:pageopacity="0"
     inkscape:pagecheckerboard="1"
     inkscape:deskcolor="#d1d1d1"
     showgrid="false"
     inkscape:zoom="1.1494414"
     inkscape:cx="117.01336"
     inkscape:cy="144.85297"
     inkscape:window-width="1920"
     inkscape:window-height="1001"
     inkscape:window-x="-9"
     inkscape:window-y="-9"
     inkscape:window-maximized="1"
     inkscape:current-layer="asvg1SVG" />
  <rect
     style="font-variation-settings:normal;opacity:1;vector-effect:none;fill:#ffffff;fill-opacity:1;fill-rule:evenodd;stroke:#000000;stroke-width:3.77953;stroke-linecap:square;stroke-linejoin:miter;stroke-miterlimit:0;stroke-dasharray:none;stroke-dashoffset:0;stroke-opacity:1;-inkscape-stroke:none;stop-color:#000000;stop-opacity:1"
     id="rect305"
     width="468.92343"
     height="258.38638"
     x="-6.0899148"
     y="-3.4799514"
     rx="3.8369308"
     ry="3.8369308"
     transform="translate(7.9796798,5.3697164)" />
  <text
     id="asvg1SVG-xAxisVbl"
     x="440"
     y="173"
     style="font-size:12px"
     class="intmathItalic"
     font-weight="normal"
     text-anchor="middle"
     transform="translate(11.351481,6.0829566)">x</text>
  <path
     d="m 450,179 -3,12 h 7 z"
     transform="rotate(90,452.63426,187.71722)"
     stroke="#000000"
     fill="#333333"
     id="asvg1SVG-xAxisArr" />
  <text
     id="asvg1SVG-yAxisVbl"
     x="231"
     y="14"
     style="font-size:12px"
     class="intmathItalic"
     font-weight="normal"
     text-anchor="start"
     transform="translate(11.351481,6.0829566)">y</text>
  <path
     d="m 225,0 -3,12 h 7 z"
     stroke="#000000"
     fill="#333333"
     id="asvg1SVG-yAxisArr"
     transform="translate(11.351481,6.0829566)" />
  <path
     d="M 308.2,0 V 250 M 391.4,0 V 250 M 141.8,0 V 250 M 58.6,0 V 250 M 0,152 H 450 M 0,125 H 450 M 0,98 H 450 M 0,71 H 450 M 0,44 H 450 M 0,17 H 450 M 0,206 H 450 M 0,233 h 450"
     stroke-width="1"
     shape-rendering="crispEdges"
     stroke="#dddddd"
     fill="none"
     id="asvg1SVG-grids"
     transform="translate(11.351481,6.0829566)" />
  <path
     d="M 0,179 H 450 M 225,0 v 250 m 83.2,-68 v -6 m 83.2,6 v -6 m -249.6,6 v -6 m -83.2,6 v -6 M 228,152 h -6 m 6,-27 h -6 m 6,-27 h -6 m 6,-27 h -6 m 6,-27 h -6 m 6,-27 h -6 m 6,189 h -6 m 6,27 h -6"
     stroke-width="1"
     shape-rendering="crispEdges"
     stroke="#333333"
     fill="none"
     id="asvg1SVG-AxTix"
     transform="translate(11.351481,6.0829566)" />
  <text
     id="asvg1SVG-x-labels-0"
     x="308.20001"
     y="195"
     style="font-size:12px"
     class="intmath"
     font-weight="normal"
     text-anchor="middle"
     transform="translate(11.351481,6.0829566)">2</text>
  <text
     id="asvg1SVG-x-labels-1"
     x="391.39999"
     y="195"
     style="font-size:12px"
     class="intmath"
     font-weight="normal"
     text-anchor="middle"
     transform="translate(11.351481,6.0829566)">4</text>
  <text
     id="asvg1SVG-x-labels-2"
     x="141.8"
     y="195"
     style="font-size:12px"
     class="intmath"
     font-weight="normal"
     text-anchor="middle"
     transform="translate(11.351481,6.0829566)">-2</text>
  <text
     id="asvg1SVG-x-labels-3"
     x="58.599998"
     y="195"
     style="font-size:12px"
     class="intmath"
     font-weight="normal"
     text-anchor="middle"
     transform="translate(11.351481,6.0829566)">-4</text>
  <text
     id="asvg1SVG-y-labels-0"
     x="219"
     y="156"
     style="font-size:12px"
     class="intmath"
     font-weight="normal"
     text-anchor="end"
     transform="translate(11.351481,6.0829566)">1</text>
  <text
     id="asvg1SVG-y-labels-1"
     x="219"
     y="129"
     style="font-size:12px"
     class="intmath"
     font-weight="normal"
     text-anchor="end"
     transform="translate(11.351481,6.0829566)">2</text>
  <text
     id="asvg1SVG-y-labels-2"
     x="219"
     y="102"
     style="font-size:12px"
     class="intmath"
     font-weight="normal"
     text-anchor="end"
     transform="translate(11.351481,6.0829566)">3</text>
  <text
     id="asvg1SVG-y-labels-3"
     x="219"
     y="75"
     style="font-size:12px"
     class="intmath"
     font-weight="normal"
     text-anchor="end"
     transform="translate(11.351481,6.0829566)">4</text>
  <text
     id="asvg1SVG-y-labels-4"
     x="219"
     y="48"
     style="font-size:12px"
     class="intmath"
     font-weight="normal"
     text-anchor="end"
     transform="translate(11.351481,6.0829566)">5</text>
  <text
     id="asvg1SVG-y-labels-5"
     x="219"
     y="21"
     style="font-size:12px"
     class="intmath"
     font-weight="normal"
     text-anchor="end"
     transform="translate(11.351481,6.0829566)">6</text>
  <text
     id="asvg1SVG-y-labels-6"
     x="219"
     y="210"
     style="font-size:12px"
     class="intmath"
     font-weight="normal"
     text-anchor="end"
     transform="translate(11.351481,6.0829566)">-1</text>
  <text
     id="asvg1SVG-y-labels-7"
     x="219"
     y="237"
     style="font-size:12px"
     class="intmath"
     font-weight="normal"
     text-anchor="end"
     transform="translate(11.351481,6.0829566)">-2</text>
  <path
     id="asvg1SVG-plot-1008"
     stroke="#165a71"
     stroke-width="1.5"
     stroke-opacity="1"
     fill="none"
     fill-opacity="1"
     vector-effect="non-scaling-stroke"
     d="m 17,44 0.83,0.54 0.83,0.54 0.84,0.54 0.83,0.54 0.83,0.54 0.83,0.54 0.83,0.54 0.84,0.54 0.83,0.54 0.83,0.54 0.83,0.54 0.83,0.54 0.84,0.54 0.83,0.54 0.83,0.54 0.83,0.54 0.83,0.54 0.84,0.54 0.83,0.54 0.83,0.54 0.83,0.54 0.83,0.54 0.84,0.54 0.83,0.54 0.83,0.54 0.83,0.54 0.83,0.54 0.84,0.54 0.83,0.54 0.83,0.54 0.83,0.54 0.83,0.54 0.84,0.54 0.83,0.54 0.83,0.54 0.83,0.54 0.83,0.54 0.84,0.54 0.83,0.54 0.83,0.54 0.83,0.54 0.83,0.54 0.84,0.54 0.83,0.54 0.83,0.54 0.83,0.54 0.83,0.54 0.84,0.54 0.83,0.54 0.83,0.54 0.83,0.54 0.83,0.54 0.84,0.54 0.83,0.54 0.83,0.54 0.83,0.54 0.83,0.54 0.84,0.54 0.83,0.54 0.83,0.54 0.83,0.54 0.83,0.54 0.84,0.54 0.83,0.54 0.83,0.54 0.83,0.54 0.83,0.54 0.84,0.54 0.83,0.54 0.83,0.54 0.83,0.54 0.83,0.54 0.84,0.54 0.83,0.54 0.83,0.54 0.83,0.54 0.83,0.54 0.84,0.54 0.83,0.54 0.83,0.54 0.83,0.54 0.83,0.54 0.84,0.54 0.83,0.54 0.83,0.54 0.83,0.54 0.83,0.54 0.84,0.54 0.83,0.54 0.83,0.54 0.83,0.54 0.83,0.54 0.84,0.54 0.83,0.54 0.83,0.54 0.83,0.54 0.83,0.54 0.84,0.54 0.83,0.54 0.83,0.54 0.83,0.54 0.83,0.54 0.84,0.54 0.83,0.54 0.83,0.54 0.83,0.54 0.83,0.54 0.84,0.54 0.83,0.54 0.83,0.54 0.83,0.54 0.83,0.54 0.84,0.54 0.83,0.54 0.83,0.54 0.83,0.54 0.83,0.54 0.84,0.54 0.83,0.54 0.83,0.54 0.83,0.54 0.83,0.54 0.84,0.54 0.83,0.54 0.83,0.54 0.83,0.54 0.83,0.54 0.84,0.54 0.83,0.54 0.83,0.54 0.83,0.54 0.83,0.54 0.84,0.54 0.83,0.54 0.83,0.54 0.83,0.54 0.83,0.54 0.84,0.54 0.83,0.54 0.83,0.54 0.83,0.54 0.83,0.54 0.84,0.54 0.83,0.54 0.83,0.54 0.83,0.54 0.83,0.54 0.84,0.54 0.83,0.54 0.83,0.54 0.83,0.54 0.83,0.54 0.84,0.54 0.83,0.54 0.83,0.54 0.83,0.54 0.83,0.54 0.84,0.54 0.83,0.54 0.83,0.54 0.83,0.54 0.83,0.54 0.84,0.54 0.83,0.54 0.83,0.54 0.83,0.54 0.83,0.54 0.84,0.54 0.83,0.54 0.83,0.54 0.83,0.54 0.83,0.54 0.84,0.54 0.83,0.54 0.83,0.54 0.83,0.54 0.83,0.54 0.84,0.54 0.83,0.54 0.83,0.54 0.83,0.54 0.83,0.54 0.84,0.54 0.83,0.54 0.83,0.54 0.83,0.54 0.83,0.54 0.84,0.54 0.83,0.54 0.83,0.54 0.83,0.54 0.83,0.54 0.84,0.54 0.83,0.54 0.83,0.54 0.83,0.54 0.83,0.54 0.84,0.54 0.83,0.54 0.83,0.54 0.83,0.54 0.83,0.54 0.84,0.54 0.83,0.54 0.83,0.54 0.83,0.54 0.83,0.54 0.84,0.54 0.83,0.54 0.83,0.54 0.83,0.54 0.83,0.54 0.84,0.54 0.83,0.54 0.83,0.54 0.83,0.54 0.83,0.54 0.84,0.54 0.83,0.54 0.83,0.54 0.83,0.54 0.83,0.54 0.84,0.54 0.83,0.54 0.83,0.54 0.83,0.54 0.83,0.54 0.84,0.54 0.83,0.54 0.83,0.54 0.83,0.54 0.83,0.54 0.84,0.54 0.83,0.54 0.83,0.54 0.83,0.54 0.83,0.54 0.84,0.54 0.83,0.54 0.83,0.54 0.83,0.54 0.83,0.54 0.84,0.54 0.83,0.54 0.83,0.54 0.83,0.54 0.83,0.54 0.84,0.54 0.83,0.54 0.83,0.54 v 0 l 0.83,-0.54 0.83,-0.54 0.84,-0.54 0.83,-0.54 0.83,-0.54 0.83,-0.54 0.83,-0.54 0.84,-0.54 0.83,-0.54 0.83,-0.54 0.83,-0.54 0.83,-0.54 0.84,-0.54 0.83,-0.54 0.83,-0.54 0.83,-0.54 0.83,-0.54 0.84,-0.54 0.83,-0.54 0.83,-0.54 0.83,-0.54 0.83,-0.54 0.84,-0.54 0.83,-0.54 0.83,-0.54 0.83,-0.54 0.83,-0.54 0.84,-0.54 0.83,-0.54 0.83,-0.54 0.83,-0.54 0.83,-0.54 0.84,-0.54 0.83,-0.54 0.83,-0.54 0.83,-0.54 0.83,-0.54 0.84,-0.54 0.83,-0.54 0.83,-0.54 0.83,-0.54 0.83,-0.54 0.84,-0.54 0.83,-0.54 0.83,-0.54 0.83,-0.54 0.83,-0.54 0.84,-0.54 0.83,-0.54 0.83,-0.54 0.83,-0.54 0.83,-0.54 0.84,-0.54 0.83,-0.54 0.83,-0.54 0.83,-0.54 0.83,-0.54 0.84,-0.54 0.83,-0.54 0.83,-0.54 0.83,-0.54 0.83,-0.54 0.84,-0.54 0.83,-0.54 0.83,-0.54 0.83,-0.54 0.83,-0.54 0.84,-0.54 0.83,-0.54 0.83,-0.54 0.83,-0.54 0.83,-0.54 0.84,-0.54 0.83,-0.54 0.83,-0.54 0.83,-0.54 0.83,-0.54 0.84,-0.54 0.83,-0.54 0.83,-0.54 0.83,-0.54 0.83,-0.54 0.84,-0.54 0.83,-0.54 0.83,-0.54 0.83,-0.54 0.83,-0.54 0.84,-0.54 0.83,-0.54 0.83,-0.54 0.83,-0.54 0.83,-0.54 0.84,-0.54 0.83,-0.54 0.83,-0.54 0.83,-0.54 0.83,-0.54 0.84,-0.54 0.83,-0.54 0.83,-0.54 0.83,-0.54 0.83,-0.54 0.84,-0.54 0.83,-0.54 0.83,-0.54 0.83,-0.54 0.83,-0.54 0.84,-0.54 0.83,-0.54 0.83,-0.54 0.83,-0.54 0.83,-0.54 0.84,-0.54 0.83,-0.54 0.83,-0.54 0.83,-0.54 0.83,-0.54 0.84,-0.54 0.83,-0.54 0.83,-0.54 0.83,-0.54 0.83,-0.54 0.84,-0.54 0.83,-0.54 0.83,-0.54 0.83,-0.54 0.83,-0.54 0.84,-0.54 0.83,-0.54 0.83,-0.54 0.83,-0.54 0.83,-0.54 0.84,-0.54 0.83,-0.54 0.83,-0.54 0.83,-0.54 0.83,-0.54 0.84,-0.54 0.83,-0.54 0.83,-0.54 0.83,-0.54 0.83,-0.54 0.84,-0.54 0.83,-0.54 0.83,-0.54 0.83,-0.54 0.83,-0.54 0.84,-0.54 0.83,-0.54 0.83,-0.54 0.83,-0.54 0.83,-0.54 0.84,-0.54 0.83,-0.54 0.83,-0.54 0.83,-0.54 0.83,-0.54 0.84,-0.54 0.83,-0.54 0.83,-0.54 0.83,-0.54 0.83,-0.54 0.84,-0.54 0.83,-0.54 0.83,-0.54 0.83,-0.54 0.83,-0.54 0.84,-0.54 0.83,-0.54 0.83,-0.54 0.83,-0.54 0.83,-0.54 0.84,-0.54 0.83,-0.54 0.83,-0.54 0.83,-0.54 0.83,-0.54 0.84,-0.54 0.83,-0.54 0.83,-0.54 0.83,-0.54 0.83,-0.54 0.84,-0.54 0.83,-0.54 0.83,-0.54 0.83,-0.54 0.83,-0.54 0.84,-0.54 0.83,-0.54 0.83,-0.54 0.83,-0.54 0.83,-0.54 0.84,-0.54 0.83,-0.54 0.83,-0.54 0.83,-0.54 0.83,-0.54 0.84,-0.54 0.83,-0.54 0.83,-0.54 0.83,-0.54 0.83,-0.54 0.84,-0.54 0.83,-0.54 0.83,-0.54 0.83,-0.54 0.83,-0.54 0.84,-0.54 0.83,-0.54 0.83,-0.54 0.83,-0.54 0.83,-0.54 0.84,-0.54 0.83,-0.54 0.83,-0.54 0.83,-0.54 0.83,-0.54 0.84,-0.54 0.83,-0.54 0.83,-0.54 0.83,-0.54 0.83,-0.54 0.84,-0.54 0.83,-0.54 0.83,-0.54 0.83,-0.54 0.83,-0.54 0.84,-0.54 0.83,-0.54 0.83,-0.54 0.83,-0.54 0.83,-0.54 0.84,-0.54 0.83,-0.54 0.83,-0.54 0.83,-0.54 0.83,-0.54 0.84,-0.54 0.83,-0.54 0.83,-0.54 0.83,-0.54 0.83,-0.54 0.84,-0.54 0.83,-0.54 0.83,-0.54 0.83,-0.54 0.83,-0.54 0.84,-0.54 0.83,-0.54 L 433,44"
     transform="translate(11.351481,6.0829566)" />
</svg>
