<?xml version="1.0" encoding="UTF-8" standalone="no"?>
<!-- Created with Inkscape (http://www.inkscape.org/) -->

<svg
   width="294.35135mm"
   height="66.675674mm"
   viewBox="0 0 294.35135 66.675674"
   version="1.1"
   id="svg5"
   xml:space="preserve"
   inkscape:version="1.2.2 (732a01da63, 2022-12-09)"
   sodipodi:docname="Resonance of carbonate.svg"
   xmlns:inkscape="http://www.inkscape.org/namespaces/inkscape"
   xmlns:sodipodi="http://sodipodi.sourceforge.net/DTD/sodipodi-0.dtd"
   xmlns="http://www.w3.org/2000/svg"
   xmlns:svg="http://www.w3.org/2000/svg"><sodipodi:namedview
     id="namedview7"
     pagecolor="#ffffff"
     bordercolor="#111111"
     borderopacity="1"
     inkscape:showpageshadow="0"
     inkscape:pageopacity="0"
     inkscape:pagecheckerboard="1"
     inkscape:deskcolor="#d1d1d1"
     inkscape:document-units="mm"
     showgrid="false"
     inkscape:zoom="0.72515432"
     inkscape:cx="414.39455"
     inkscape:cy="44.818046"
     inkscape:window-width="1920"
     inkscape:window-height="1001"
     inkscape:window-x="-9"
     inkscape:window-y="-9"
     inkscape:window-maximized="1"
     inkscape:current-layer="layer2" /><defs
     id="defs2" /><g
     inkscape:groupmode="layer"
     id="layer2"
     inkscape:label="BG"
     transform="translate(1.6548426,1.0586701)"><rect
       style="fill:#ffffff;fill-opacity:1;stroke:#000000;stroke-width:3.77953;stroke-linecap:square;stroke-miterlimit:0;stroke-dasharray:none;stroke-opacity:1"
       id="rect2722"
       width="1108.7295"
       height="248.22302"
       x="-4.1370506"
       y="-1.3790168"
       transform="matrix(0.26458333,0,0,0.26458333,-0.06024768,-0.19380491)" /></g><g
     inkscape:label="Layer 1"
     inkscape:groupmode="layer"
     id="layer1"
     transform="translate(73.108107,-148.72973)"><path
       style="fill:#000000;stroke:#000000;stroke-width:3.77953;stroke-linecap:square;stroke-dasharray:none;stroke-opacity:1"
       d="m 897,54 c 0,-0.608696 4.5,-1 11.5,-1 7,0 11.5,0.391304 11.5,1 0,0.608696 -4.5,1 -11.5,1 -7,0 -11.5,-0.391304 -11.5,-1 z"
       transform="matrix(0.26458333,0,0,0.26458333,-52.480291,152.70732)"
       id="path1069" /><path
       style="fill:#000000;stroke:#000000;stroke-width:3.77953;stroke-linecap:square;stroke-dasharray:none;stroke-opacity:1"
       d="m 897,54 c 0,-0.608696 4.5,-1 11.5,-1 7,0 11.5,0.391304 11.5,1 0,0.608696 -4.5,1 -11.5,1 -7,0 -11.5,-0.391304 -11.5,-1 z"
       transform="matrix(0.26458333,0,0,0.26458333,-152.7067,152.7868)"
       id="path1069-6" /><path
       style="fill:none;fill-opacity:1;stroke:#000000;stroke-width:3.77953;stroke-opacity:1"
       d="m 935,82.347163 c -5.53008,-2.21839 -9.00118,-8.410135 -8.99626,-16.047503 0.006,-9.895969 5.89382,-16.292184 14.99626,-16.292184 9.10244,0 14.98988,6.396215 14.99626,16.292184 0.007,10.332729 -4.68142,15.907329 -13.75996,16.361964 -3.15496,0.157995 -6.4113,0.01649 -7.2363,-0.314461 z"
       transform="matrix(0.26458333,0,0,0.26458333,-71.453264,149.7884)"
       id="path1063" /><path
       style="fill:none;fill-opacity:1;stroke:#000000;stroke-width:3.77953;stroke-opacity:1"
       d="M 558.03588,81.75 C 552.51247,78.917739 550,74.379053 550,67.233483 c 0,-10.872875 5.23403,-16.70015 15,-16.70015 9.76129,0 15.00164,5.829467 14.99845,16.684548 C 579.9963,74.509443 577.55364,78.96868 572.03811,81.75 569.58407,82.9875 566.41692,84 565,84 c -1.41692,0 -4.55077,-1.0125 -6.96412,-2.25 z"
       transform="matrix(0.26458333,0,0,0.26458333,-71.453264,149.7884)"
       id="path1059" /><path
       style="fill:none;fill-opacity:1;stroke:#000000;stroke-width:3.77953;stroke-opacity:1"
       d="m 147.29855,82.040484 c -5.6551,-3.448116 -8.31057,-11.524112 -6.29055,-19.131256 4.83741,-18.217123 29.91042,-14.559424 29.97555,4.372891 0.0211,6.118286 -1.87744,10.609365 -5.9243,14.014572 -2.66691,2.244059 -4.1765,2.702674 -8.88598,2.699571 -3.86149,-0.0025 -6.69566,-0.627128 -8.87472,-1.955778 z"
       transform="matrix(0.26458333,0,0,0.26458333,-71.453264,149.7884)"
       id="path1055" /><path
       style="fill:#000000;stroke-width:3.77953"
       d="m 940,103 c 0,-12.666667 0.23333,-15 1.5,-15 1.26667,0 1.5,2.333333 1.5,15 0,12.66667 -0.23333,15 -1.5,15 -1.26667,0 -1.5,-2.33333 -1.5,-15 z"
       transform="matrix(0.26458333,0,0,0.26458333,-71.453264,149.7884)"
       id="path1053" /><path
       style="fill:#000000;stroke-width:3.77953"
       d="m 564,102.91667 c 0,-11.621571 0.28689,-14.987989 1.25,-14.667896 0.90696,0.301431 1.32594,4.440742 1.52673,15.083336 C 567.01457,115.93856 566.8389,118 565.52673,118 564.22524,118 564,115.77479 564,102.91667 Z"
       transform="matrix(0.26458333,0,0,0.26458333,-71.453264,149.7884)"
       id="path1051" /><path
       style="fill:#000000;stroke-width:3.77953"
       d="m 160,104 c 0,-12.666667 0.23333,-15 1.5,-15 1.26667,0 1.5,2.333333 1.5,15 0,12.66667 -0.23333,15 -1.5,15 -1.26667,0 -1.5,-2.33333 -1.5,-15 z"
       transform="matrix(0.26458333,0,0,0.26458333,-71.453264,149.7884)"
       id="path1049" /><path
       style="fill:#000000;stroke-width:3.77953"
       d="m 149,104 c 0,-12.666667 0.23333,-15 1.5,-15 1.26667,0 1.5,2.333333 1.5,15 0,12.66667 -0.23333,15 -1.5,15 -1.26667,0 -1.5,-2.33333 -1.5,-15 z"
       transform="matrix(0.26458333,0,0,0.26458333,-71.453264,149.7884)"
       id="path1047" /><path
       style="fill:#000000;stroke-width:3.77953"
       d="m 710.5,132.8733 c -7.7,-2.03657 -14.225,-3.7835 -14.5,-3.88207 -0.275,-0.0986 6.025,-1.86695 14,-3.92972 7.975,-2.06278 14.64846,-3.63453 14.8299,-3.49277 0.18145,0.14175 -0.43281,1.42178 -1.36501,2.8445 L 721.76998,127 h 35.11501 C 776.19825,127 792,126.65013 792,126.22251 c 0,-0.42763 -0.75601,-1.85686 -1.68003,-3.17608 -1.30915,-1.86907 -1.36434,-2.28592 -0.25,-1.88826 0.78652,0.28067 7.40123,2.01621 14.69936,3.85674 7.29813,1.84054 12.92313,3.65255 12.5,4.02668 -1.19907,1.06024 -26.45671,7.10436 -27.08069,6.48038 -0.30542,-0.30542 -0.0228,-1.0878 0.62803,-1.73864 C 794.43939,130.16061 793.00268,130 756.97432,130 h -35.02568 l 1.59942,3.09293 c 0.87968,1.70111 1.45373,3.18075 1.27568,3.28808 C 724.64568,136.48834 718.2,134.90987 710.5,132.8733 Z"
       transform="matrix(0.26458333,0,0,0.26458333,-71.453264,149.7884)"
       id="path1045" /><path
       style="fill:#000000;stroke-width:3.77953"
       d="m 315.5,133.02172 -14,-3.75802 4.5,-1.20099 c 2.475,-0.66054 8.55,-2.29455 13.5,-3.63113 11.54547,-3.11747 12.18133,-3.12036 10.16706,-0.0462 -0.85963,1.31196 -1.28639,2.66196 -0.94835,3 1.14461,1.1446 69.28129,0.70093 69.28129,-0.45112 0,-0.58616 -0.46583,-1.93616 -1.03518,-3 -0.56935,-1.06384 -0.68185,-1.93564 -0.25,-1.93733 1.58676,-0.006 25.80907,6.3371 26.52044,6.94514 0.4044,0.34565 -5.2206,2.13296 -12.5,3.9718 -7.27939,1.83883 -13.87877,3.5897 -14.66529,3.8908 -1.10875,0.42448 -1.05258,0.009 0.25,-1.8511 C 399.85438,129.90749 400.4662,130 363.55902,130 c -18.94254,0 -34.67813,0.38371 -34.96797,0.85268 -0.28984,0.46897 0.11929,1.70647 0.90918,2.75 1.58968,2.10013 1.89892,3.45593 0.74977,3.28719 -0.4125,-0.0606 -7.05,-1.80123 -14.75,-3.86815 z"
       transform="matrix(0.26458333,0,0,0.26458333,-71.453264,149.7884)"
       id="path1043" /><path
       style="fill:#000000;stroke-width:3.77953"
       d="m 933.84881,154.53596 c -6.00955,-3.3917 -8.78195,-16.1821 -5.09726,-23.51603 3.58869,-7.14284 13.12861,-10.20174 20.28118,-6.503 2.96051,1.53093 6.41988,6.69712 5.26072,7.85629 -1.36894,1.36894 -4.19557,0.51053 -4.82242,-1.46451 -1.06581,-3.35804 -6.56142,-5.15416 -11.1684,-3.65014 -9.46793,3.09096 -9.93373,20.49066 -0.65236,24.36866 4.91539,2.05378 9.19912,0.83382 11.84973,-3.37469 2.26994,-3.6041 5.5,-4.34896 5.5,-1.26832 0,1.09133 -1.29065,3.42872 -2.86812,5.19421 -2.57483,2.88174 -3.52074,3.24291 -9.25,3.53191 -4.33442,0.21864 -7.23244,-0.15813 -9.03307,-1.17438 z"
       transform="matrix(0.26458333,0,0,0.26458333,-71.453264,149.7884)"
       id="path1041" /><path
       style="fill:#000000;stroke-width:3.77953"
       d="m 559.07108,155.24845 c -5.16108,-2.6317 -7.37694,-6.32884 -7.86882,-13.12904 -0.52708,-7.28674 1.03596,-12.30062 4.82979,-15.49292 5.71819,-4.81155 15.74463,-4.26844 19.95231,1.08076 4.28431,5.44661 1.18089,7.30416 -3.83051,2.29275 -4.07063,-4.07063 -8.891,-4.10016 -13.38807,-0.082 -3.11226,2.78078 -3.26578,3.25471 -3.26578,10.082 0,6.82729 0.15352,7.30122 3.26578,10.08203 4.38753,3.92026 9.32629,3.97974 13.14768,0.15835 1.51779,-1.51778 2.97266,-3.39874 3.23305,-4.17991 0.59102,-1.77307 3.85349,-0.69507 3.85349,1.27329 0,2.3344 -4.13862,6.82621 -7.63578,8.28742 -4.42255,1.84786 -8.16055,1.73452 -12.29314,-0.37273 z"
       transform="matrix(0.26458333,0,0,0.26458333,-71.453264,149.7884)"
       id="path1039" /><path
       style="fill:#000000;stroke-width:3.77953"
       d="m 147.0795,154.41344 c -4.45415,-3.74792 -6.66157,-11.81865 -5.05929,-18.4977 2.09518,-8.73368 8.68144,-13.01903 17.78567,-11.57224 3.84822,0.61153 9.19412,5.36328 9.19412,8.17228 0,2.46771 -2.97208,1.67085 -5.65345,-1.51578 -3.34546,-3.97585 -9.78764,-4.24498 -14.04079,-0.58658 -2.61079,2.24571 -2.80576,2.93499 -2.80576,9.91943 0,6.52529 0.31039,7.83642 2.37558,10.03471 4.67663,4.97804 12.74386,4.20283 15.69726,-1.50841 0.86919,-1.68084 2.29218,-2.85915 3.45284,-2.85915 2.37016,0 2.47326,1.13447 0.45739,5.03273 -2.0641,3.99154 -6.32089,5.96727 -12.85668,5.96727 -4.42769,0 -6.06002,-0.494 -8.54689,-2.58656 z"
       transform="matrix(0.26458333,0,0,0.26458333,-71.453264,149.7884)"
       id="path1037" /><path
       style="fill:#000000;stroke-width:3.77953"
       d="m 893.66499,161.33167 c -1.42225,-1.42225 -0.23483,-2.32906 12.89467,-9.84754 9.4344,-5.40251 13.87778,-7.44668 14.60531,-6.71915 0.98937,0.98937 -1.96753,2.92891 -22.24998,14.59457 -2.52175,1.45042 -4.88425,2.33787 -5.25,1.97212 z"
       transform="matrix(0.26458333,0,0,0.26458333,-71.453264,149.7884)"
       id="path1035" /><path
       style="fill:#000000;stroke-width:3.77953"
       d="m 598.28343,154.40037 c -9.22483,-5.29518 -12.99875,-7.97865 -12.61763,-8.97184 0.29908,-0.77937 0.83412,-1.25812 1.18898,-1.06389 2.41297,1.32067 25.73109,14.998 26.07855,15.29647 0.23834,0.20473 9.2e-4,0.80465 -0.52758,1.33315 -0.61456,0.61456 -5.7049,-1.76219 -14.12232,-6.59389 z"
       transform="matrix(0.26458333,0,0,0.26458333,-71.453264,149.7884)"
       id="path1033" /><path
       style="fill:#000000;stroke-width:3.77953"
       d="m 971.26759,158.66337 c -6.72782,-3.93985 -12.24032,-7.75886 -12.25,-8.48668 -0.01,-0.72783 0.55338,-1.17783 1.25123,-1 3.08641,0.78648 26.65113,15.14383 26.15996,15.93855 -0.97338,1.57497 -2.73287,0.82622 -15.16119,-6.45187 z"
       transform="matrix(0.26458333,0,0,0.26458333,-71.453264,149.7884)"
       id="path1031" /><path
       style="fill:#000000;stroke-width:3.77953"
       d="M 520,165.5986 C 520,164.34122 545.09746,149 547.15446,149 547.61951,149 548,149.57116 548,150.26925 548,151.3482 522.37981,167 520.61369,167 520.27616,167 520,166.36937 520,165.59859 Z"
       transform="matrix(0.26458333,0,0,0.26458333,-71.453264,149.7884)"
       id="path1029" /><path
       style="fill:#000000;stroke-width:3.77953"
       d="m 188,160.90689 c -14.93105,-8.60164 -15.38251,-8.92438 -14.17402,-10.13287 1.16102,-1.16102 26.23295,12.77691 26.93922,14.97598 0.75504,2.35088 -2.26941,1.20341 -12.7652,-4.84311 z"
       transform="matrix(0.26458333,0,0,0.26458333,-71.453264,149.7884)"
       id="path1025" /><path
       style="fill:#000000;stroke-width:3.77953"
       d="m 110.66478,166.56882 c -0.37026,-0.96488 3.73564,-3.85752 13.32647,-9.38859 C 136.70898,149.84587 139,148.9171 139,151.09576 c 0,0.41933 -5.2875,3.87952 -11.75,7.6893 -16.29887,9.60854 -15.94815,9.44394 -16.58522,7.78376 z"
       transform="matrix(0.26458333,0,0,0.26458333,-71.453264,149.7884)"
       id="path1019" /><path
       style="fill:#000000;stroke-width:3.77953"
       d="m 898.56197,170.10027 c -0.50342,-0.81456 23.53662,-15.6386 26.45873,-16.3155 0.67612,-0.15663 1.4166,0.22088 1.64552,0.83889 C 927.04294,155.64069 902.01035,171 899.97608,171 c -0.47193,0 -1.10828,-0.40488 -1.41411,-0.89973 z"
       transform="matrix(0.26458333,0,0,0.26458333,-71.453264,149.7884)"
       id="path1015" /><path
       style="fill:#000000;stroke-width:3.77953"
       d="m 592.26759,163.66336 c -6.72782,-3.93985 -12.24032,-7.774 -12.25,-8.52035 -0.0243,-1.87235 1.4702,-1.19604 15.68094,7.09635 10.78286,6.29211 13.85008,8.95463 9.99245,8.674 -0.65504,-0.0477 -6.69556,-3.31015 -13.42339,-7.25 z"
       transform="matrix(0.26458333,0,0,0.26458333,-71.453264,149.7884)"
       id="path1013" /><path
       style="fill:none;fill-opacity:1;stroke:#000000;stroke-width:3.77953;stroke-opacity:1"
       d="m 997.21818,191.33692 c -5.27147,-2.59821 -7.62913,-6.81285 -8.00751,-14.31454 -0.25254,-5.00686 0.11767,-7.33563 1.59327,-10.02238 5.43339,-9.89304 21.04656,-9.90229 26.33296,-0.0156 2.7516,5.1461 2.5484,14.69397 -0.4068,19.11772 -4.2399,6.34663 -12.6683,8.60788 -19.51192,5.2348 z"
       transform="matrix(0.26458333,0,0,0.26458333,-71.453264,149.7884)"
       id="path1009" /><path
       style="fill:none;fill-opacity:1;stroke:#000000;stroke-width:3.77953;stroke-opacity:1"
       d="m 871.21818,191.39359 c -5.29719,-2.70235 -7.63013,-6.88932 -8.00751,-14.37121 -0.55387,-10.98123 4.90559,-17.407 14.78933,-17.407 9.29465,0 15.0013,6.22814 14.99845,16.36902 -0.002,6.31971 -2.19908,11.4212 -6.17396,14.33415 -3.65395,2.67776 -11.41646,3.21248 -15.60631,1.07504 z"
       transform="matrix(0.26458333,0,0,0.26458333,-71.453264,149.7884)"
       id="path1005" /><path
       style="fill:none;fill-opacity:1;stroke:#000000;stroke-width:3.77953;stroke-opacity:1"
       d="m 620.24086,191.0054 c -4.96197,-3.02535 -7.23274,-7.51381 -7.23712,-14.30506 -0.007,-10.2859 4.65698,-15.85874 13.75996,-16.44266 10.22914,-0.65616 16.22882,5.34852 16.22882,16.24232 0,7.00464 -2.21441,11.4453 -7.23338,14.5054 -4.27864,2.60872 -11.23964,2.60872 -15.51828,0 z"
       transform="matrix(0.26458333,0,0,0.26458333,-71.453264,149.7884)"
       id="path1001" /><path
       style="fill:none;fill-opacity:1;stroke:#000000;stroke-width:3.77953;stroke-opacity:1"
       d="m 495.41844,192.03115 c -2.73035,-1.10454 -7.25607,-6.53604 -8.03629,-9.64467 -0.33949,-1.35265 -0.41856,-5.20632 -0.17571,-8.56371 0.40697,-5.62626 0.76557,-6.40658 4.57883,-9.96355 3.74152,-3.49006 4.65296,-3.85922 9.52812,-3.85922 9.8244,0 15.68555,6.35402 15.68132,17 -0.003,6.4729 -2.35752,11.03122 -7.23557,14.0054 -3.40713,2.07735 -10.48906,2.5839 -14.3407,1.02575 z"
       transform="matrix(0.26458333,0,0,0.26458333,-71.453264,149.7884)"
       id="path997" /><path
       style="fill:none;fill-opacity:1;stroke:#000000;stroke-width:3.77953;stroke-opacity:1"
       d="m 210.95195,191.7466 c -5.0634,-3.41222 -7.43968,-8.22271 -7.34926,-14.87769 0.10141,-7.46432 2.58812,-11.7004 8.63613,-14.71153 10.94006,-5.44674 21.79028,2.31767 21.74473,15.5605 -0.0434,12.61697 -13.2183,20.6419 -23.0316,14.02872 z"
       transform="matrix(0.26458333,0,0,0.26458333,-71.453264,149.7884)"
       id="path993" /><path
       style="fill:none;fill-opacity:1;stroke:#000000;stroke-width:3.77953;stroke-opacity:1"
       d="m 86.019933,192.24845 c -6.25496,-3.1426 -9.994513,-11.23996 -8.606876,-18.6367 3.513585,-18.72901 28.792013,-17.24268 30.369993,1.78572 0.63837,7.69787 -2.33282,13.72207 -8.158883,16.54242 -5.202367,2.51842 -9.032842,2.6053 -13.604234,0.30856 z"
       transform="matrix(0.26458333,0,0,0.26458333,-71.453264,149.7884)"
       id="path905" /><path
       style="fill:#000000;stroke:#000000;stroke-width:3.77953;stroke-linecap:square;stroke-dasharray:none;stroke-opacity:1"
       d="m 897,54 c 0,-0.608696 4.5,-1 11.5,-1 7,0 11.5,0.391304 11.5,1 0,0.608696 -4.5,1 -11.5,1 -7,0 -11.5,-0.391304 -11.5,-1 z"
       transform="matrix(0.26458333,0,0,0.26458333,-35.76891,182.19861)"
       id="path1069-7" /><path
       style="fill:#000000;stroke:#000000;stroke-width:3.77953;stroke-linecap:square;stroke-dasharray:none;stroke-opacity:1"
       d="m 897,54 c 0,-0.608696 4.5,-1 11.5,-1 7,0 11.5,0.391304 11.5,1 0,0.608696 -4.5,1 -11.5,1 -7,0 -11.5,-0.391304 -11.5,-1 z"
       transform="matrix(0.26458333,0,0,0.26458333,-188.56847,181.81162)"
       id="path1069-66" /><path
       style="fill:#000000;stroke:#000000;stroke-width:3.77953;stroke-linecap:square;stroke-dasharray:none;stroke-opacity:1"
       d="m 897,54 c 0,-0.608696 4.5,-1 11.5,-1 7,0 11.5,0.391304 11.5,1 0,0.608696 -4.5,1 -11.5,1 -7,0 -11.5,-0.391304 -11.5,-1 z"
       transform="matrix(0.26458333,0,0,0.26458333,-244.61863,182.65011)"
       id="path1069-0" /><path
       style="fill:#000000;stroke:#000000;stroke-width:3.77953;stroke-linecap:square;stroke-dasharray:none;stroke-opacity:1"
       d="m 897,54 c 0,-0.608696 4.5,-1 11.5,-1 7,0 11.5,0.391304 11.5,1 0,0.608696 -4.5,1 -11.5,1 -7,0 -11.5,-0.391304 -11.5,-1 z"
       transform="matrix(0.26458333,0,0,0.26458333,-296.77654,182.29482)"
       id="path1069-1" /></g></svg>
