<?xml version="1.0" standalone="no" ?>
<!DOCTYPE svg PUBLIC "-//W3C//DTD SVG 1.1//EN" "http://www.w3.org/Graphics/SVG/1.1/DTD/svg11.dtd">
<svg width="106px" height="97px" viewBox="0 0 106 97" style="background-color: #ffffff00" xmlns="http://www.w3.org/2000/svg" xmlns:xlink="http://www.w3.org/1999/xlink" version="1.1" >
<text x="0" y="0" stroke="none" fill="#000000" transform="matrix(0.0833333 0 0 0.0833333 47.6117 42.75)" font-style="normal" font-weight="normal" font-size="200px" font-family="Arial" >
B</text>
<text x="0" y="0" stroke="none" fill="#000000" transform="matrix(0.0833333 0 0 0.0833333 47.1519 92.75)" font-style="normal" font-weight="normal" font-size="200px" font-family="Arial" >
H</text>
<path stroke="none" fill="#000000" transform="matrix(0.0833333 0 0 0.0833333 -340.5 -265)" d="M 4714.04,3735 L 4734.04,3735 L 4734.04,4112.33 L 4714.04,4112.33 L 4714.04,3735 Z " />
<text x="0" y="0" stroke="none" fill="#000000" transform="matrix(0.0833333 0 0 0.0833333 3.85059 17.75)" font-style="normal" font-weight="normal" font-size="200px" font-family="Arial" >
H</text>
<path stroke="none" fill="#000000" transform="matrix(0.0833333 0 0 0.0833333 -340.5 -265)" d="M 4628.34,3548.2 L 4618.34,3565.52 L 4309.39,3387.15 L 4319.39,3369.83 L 4628.34,3548.2 Z " />
<text x="0" y="0" stroke="none" fill="#000000" transform="matrix(0.0833333 0 0 0.0833333 90.4531 17.75)" font-style="normal" font-weight="normal" font-size="200px" font-family="Arial" >
H</text>
<path stroke="none" fill="#000000" transform="matrix(0.0833333 0 0 0.0833333 -340.5 -265)" d="M 4815.84,3573.54 L 4805.84,3556.22 L 5129.11,3369.58 L 5139.11,3386.9 L 4815.84,3573.54 Z " />
</svg>
