<?xml version="1.0" encoding="UTF-8" standalone="no"?>
<!-- Created with Inkscape (http://www.inkscape.org/) -->

<svg
   width="89.949501mm"
   height="50.583267mm"
   viewBox="0 0 89.949501 50.583267"
   version="1.1"
   id="svg5"
   inkscape:version="1.2.2 (732a01da63, 2022-12-09)"
   sodipodi:docname="2-bit-adding-circuit-with-highlighted-section.svg"
   xmlns:inkscape="http://www.inkscape.org/namespaces/inkscape"
   xmlns:sodipodi="http://sodipodi.sourceforge.net/DTD/sodipodi-0.dtd"
   xmlns="http://www.w3.org/2000/svg"
   xmlns:svg="http://www.w3.org/2000/svg">
  <sodipodi:namedview
     id="namedview7"
     pagecolor="#ffffff"
     bordercolor="#111111"
     borderopacity="1"
     inkscape:showpageshadow="0"
     inkscape:pageopacity="0"
     inkscape:pagecheckerboard="1"
     inkscape:deskcolor="#d1d1d1"
     inkscape:document-units="mm"
     showgrid="false"
     inkscape:zoom="1.0255231"
     inkscape:cx="131.64014"
     inkscape:cy="126.27702"
     inkscape:window-width="1920"
     inkscape:window-height="1001"
     inkscape:window-x="-9"
     inkscape:window-y="-9"
     inkscape:window-maximized="1"
     inkscape:current-layer="layer1" />
  <defs
     id="defs2" />
  <g
     inkscape:label="Layer 1"
     inkscape:groupmode="layer"
     id="layer1"
     transform="translate(-44.052278,-53.884043)">
    <rect
       style="font-variation-settings:normal;fill:#ffffff;fill-opacity:1;fill-rule:evenodd;stroke:#000000;stroke-width:1.79612;stroke-linecap:square;stroke-linejoin:miter;stroke-miterlimit:0;stroke-dasharray:none;stroke-dashoffset:0;stroke-opacity:1;stop-color:#000000"
       id="rect10385"
       width="313.41565"
       height="164.50217"
       x="-1.2306898"
       y="-1.6409196"
       rx="1.9179047"
       ry="1.7993029"
       inkscape:label="Background"
       transform="matrix(0.28536212,0,0,0.3041719,44.659743,54.656329)" />
    <rect
       style="font-variation-settings:normal;opacity:1;fill:#d3d3d3;fill-opacity:1;fill-rule:evenodd;stroke:#000000;stroke-width:1.01978;stroke-linecap:square;stroke-linejoin:miter;stroke-miterlimit:0;stroke-dasharray:none;stroke-dashoffset:0;stroke-opacity:1;stop-color:#000000;stop-opacity:1"
       id="rect2584"
       width="343.37518"
       height="57.918705"
       x="163.06874"
       y="206.16301"
       transform="matrix(0.25450348,0,0,0.26449453,3.8303753,1.1154743)"
       rx="2.1504512"
       ry="2.0692201"
       inkscape:label="Highlighted Section" />
    <text
       x="338"
       y="120"
       style="font-style:normal;font-variant:normal;font-weight:normal;font-stretch:normal;font-size:18.6667px;font-family:Arial;-inkscape-font-specification:'Arial, Normal';font-variant-ligatures:normal;font-variant-caps:normal;font-variant-numeric:normal;font-variant-east-asian:normal;dominant-baseline:middle;text-anchor:start"
       dominant-baseline="middle"
       id="text10164"
       transform="matrix(0.26458333,0,0,0.26458333,38.209698,50.180046)"
       inkscape:label="text10164">l</text>
    <line
       x1="320"
       y1="120"
       x2="327"
       y2="120"
       style="stroke:#000000;stroke-width:2;stroke-linecap:square"
       id="line10166"
       transform="matrix(0.26458333,0,0,0.26458333,38.209698,50.180046)" />
    <circle
       cx="330"
       cy="120"
       style="fill:#000000;fill-opacity:0;stroke:#000000;stroke-width:2"
       id="ellipse10168"
       r="3"
       transform="matrix(0.26458333,0,0,0.26458333,38.209698,50.180046)" />
    <line
       x1="250"
       y1="130"
       x2="250"
       y2="170"
       style="stroke:#000000;stroke-width:2;stroke-linecap:square"
       id="line10170"
       transform="matrix(0.26458333,0,0,0.26458333,38.209698,50.180046)" />
    <line
       x1="250"
       y1="110"
       x2="265"
       y2="110"
       style="stroke:#000000;stroke-width:2;stroke-linecap:square"
       id="line10172"
       transform="matrix(0.26458333,0,0,0.26458333,38.209698,50.180046)" />
    <line
       x1="250"
       y1="130"
       x2="265"
       y2="130"
       style="stroke:#000000;stroke-width:2;stroke-linecap:square"
       id="line10174"
       transform="matrix(0.26458333,0,0,0.26458333,38.209698,50.180046)" />
    <path
       d="m 259,110 m 0,-10 q 20,20 0,40 m -1,0 q 35,-5 50,-20 -15,-15 -50,-20"
       style="fill:#000000;fill-opacity:0;stroke:#000000;stroke-width:2;stroke-linecap:square"
       id="path10176"
       transform="matrix(0.26458333,0,0,0.26458333,38.209698,50.180046)" />
    <line
       x1="310"
       y1="120"
       x2="320"
       y2="120"
       style="stroke:#000000;stroke-width:2;stroke-linecap:square"
       id="line10178"
       transform="matrix(0.26458333,0,0,0.26458333,38.209698,50.180046)" />
    <line
       x1="80"
       y1="180"
       x2="180"
       y2="180"
       style="stroke:#000000;stroke-width:2;stroke-linecap:square"
       id="line10180"
       transform="matrix(0.26458333,0,0,0.26458333,38.209698,50.180046)" />
    <line
       x1="100"
       y1="160"
       x2="110"
       y2="160"
       style="stroke:#000000;stroke-width:2;stroke-linecap:square"
       id="line10182"
       transform="matrix(0.26458333,0,0,0.26458333,38.209698,50.180046)" />
    <line
       x1="80"
       y1="60"
       x2="80"
       y2="180"
       style="stroke:#000000;stroke-width:2;stroke-linecap:square"
       id="line10184"
       transform="matrix(0.26458333,0,0,0.26458333,38.209698,50.180046)" />
    <line
       x1="80"
       y1="100"
       x2="110"
       y2="100"
       style="stroke:#000000;stroke-width:2;stroke-linecap:square"
       id="line10186"
       transform="matrix(0.26458333,0,0,0.26458333,38.209698,50.180046)" />
    <line
       x1="100"
       y1="70"
       x2="100"
       y2="160"
       style="stroke:#000000;stroke-width:2;stroke-linecap:square"
       id="line10188"
       transform="matrix(0.26458333,0,0,0.26458333,38.209698,50.180046)" />
    <line
       x1="100"
       y1="120"
       x2="180"
       y2="120"
       style="stroke:#000000;stroke-width:2;stroke-linecap:square"
       id="line10190"
       transform="matrix(0.26458333,0,0,0.26458333,38.209698,50.180046)" />
    <line
       x1="180"
       y1="160"
       x2="195"
       y2="160"
       style="stroke:#000000;stroke-width:2;stroke-linecap:square"
       id="line10192"
       transform="matrix(0.26458333,0,0,0.26458333,38.209698,50.180046)" />
    <line
       x1="180"
       y1="180"
       x2="195"
       y2="180"
       style="stroke:#000000;stroke-width:2;stroke-linecap:square"
       id="line10194"
       transform="matrix(0.26458333,0,0,0.26458333,38.209698,50.180046)" />
    <path
       d="m 195,160 m 0,-10 v 40 h 24 m -24,-40 h 24 m 0,40 a 20,20 90 0 0 0,-40"
       style="fill:#000000;fill-opacity:0;stroke:#000000;stroke-width:2;stroke-linecap:square"
       id="path10196"
       transform="matrix(0.26458333,0,0,0.26458333,38.209698,50.180046)" />
    <line
       x1="241"
       y1="170"
       x2="250"
       y2="170"
       style="stroke:#000000;stroke-width:2;stroke-linecap:square"
       id="line10198"
       transform="matrix(0.26458333,0,0,0.26458333,38.209698,50.180046)" />
    <line
       x1="180"
       y1="100"
       x2="195"
       y2="100"
       style="stroke:#000000;stroke-width:2;stroke-linecap:square"
       id="line10200"
       transform="matrix(0.26458333,0,0,0.26458333,38.209698,50.180046)" />
    <line
       x1="180"
       y1="120"
       x2="195"
       y2="120"
       style="stroke:#000000;stroke-width:2;stroke-linecap:square"
       id="line10202"
       transform="matrix(0.26458333,0,0,0.26458333,38.209698,50.180046)" />
    <path
       d="m 195,100 m 0,-10 v 40 h 24 M 195,90 h 24 m 0,40 a 20,20 90 0 0 0,-40"
       style="fill:#000000;fill-opacity:0;stroke:#000000;stroke-width:2;stroke-linecap:square"
       id="path10204"
       transform="matrix(0.26458333,0,0,0.26458333,38.209698,50.180046)" />
    <line
       x1="241"
       y1="110"
       x2="250"
       y2="110"
       style="stroke:#000000;stroke-width:2;stroke-linecap:square"
       id="line10206"
       transform="matrix(0.26458333,0,0,0.26458333,38.209698,50.180046)" />
    <line
       x1="110"
       y1="160"
       x2="117"
       y2="160"
       style="stroke:#000000;stroke-width:2;stroke-linecap:square"
       id="line10208"
       transform="matrix(0.26458333,0,0,0.26458333,38.209698,50.180046)" />
    <path
       d="m 119,150 m 0,10 v 18 l 28,-18 -28,-18 v 18 m 28,0 a 3,3 -5 1 1 6,0 3,3 -5 1 1 -6,0"
       style="fill:#000000;fill-opacity:0;stroke:#000000;stroke-width:2;stroke-linecap:square"
       id="path10210"
       transform="matrix(0.26458333,0,0,0.26458333,38.209698,50.180046)" />
    <line
       x1="155"
       y1="160"
       x2="180"
       y2="160"
       style="stroke:#000000;stroke-width:2;stroke-linecap:square"
       id="line10212"
       transform="matrix(0.26458333,0,0,0.26458333,38.209698,50.180046)" />
    <line
       x1="110"
       y1="100"
       x2="117"
       y2="100"
       style="stroke:#000000;stroke-width:2;stroke-linecap:square"
       id="line10214"
       transform="matrix(0.26458333,0,0,0.26458333,38.209698,50.180046)" />
    <path
       d="m 119,90 m 0,10 v 18 l 28,-18 -28,-18 v 18 m 28,0 a 3,3 -5 1 1 6,0 3,3 -5 1 1 -6,0"
       style="fill:#000000;fill-opacity:0;stroke:#000000;stroke-width:2;stroke-linecap:square"
       id="path10216"
       transform="matrix(0.26458333,0,0,0.26458333,38.209698,50.180046)" />
    <line
       x1="155"
       y1="100"
       x2="180"
       y2="100"
       style="stroke:#000000;stroke-width:2;stroke-linecap:square"
       id="line10218"
       transform="matrix(0.26458333,0,0,0.26458333,38.209698,50.180046)" />
    <text
       x="338"
       y="50"
       style="font-style:normal;font-variant:normal;font-weight:normal;font-stretch:normal;font-size:18.6667px;font-family:Arial;-inkscape-font-specification:'Arial, Normal';font-variant-ligatures:normal;font-variant-caps:normal;font-variant-numeric:normal;font-variant-east-asian:normal;dominant-baseline:middle;text-anchor:start"
       dominant-baseline="middle"
       id="text10220"
       transform="matrix(0.26458333,0,0,0.26458333,38.209698,50.180046)">m</text>
    <line
       x1="290"
       y1="50"
       x2="327"
       y2="50"
       style="stroke:#000000;stroke-width:2;stroke-linecap:square"
       id="line10222"
       transform="matrix(0.26458333,0,0,0.26458333,38.209698,50.180046)" />
    <circle
       cx="330"
       cy="50"
       style="fill:#000000;fill-opacity:0;stroke:#000000;stroke-width:2"
       id="ellipse10224"
       r="3"
       transform="matrix(0.26458333,0,0,0.26458333,38.209698,50.180046)" />
    <line
       x1="190"
       y1="50"
       x2="290"
       y2="50"
       style="stroke:#000000;stroke-width:2;stroke-linecap:square"
       id="line10226"
       transform="matrix(0.26458333,0,0,0.26458333,38.209698,50.180046)" />
    <text
       x="42"
       y="60"
       style="font-style:normal;font-variant:normal;font-weight:normal;font-stretch:normal;font-size:18.6667px;font-family:Arial;-inkscape-font-specification:'Arial, Normal';font-variant-ligatures:normal;font-variant-caps:normal;font-variant-numeric:normal;font-variant-east-asian:normal;dominant-baseline:middle;text-anchor:end"
       dominant-baseline="middle"
       id="text10228"
       transform="matrix(0.26458333,0,0,0.26458333,38.209698,50.180046)">y</text>
    <line
       x1="53"
       y1="60"
       x2="60"
       y2="60"
       style="stroke:#000000;stroke-width:2;stroke-linecap:square"
       id="line10230"
       transform="matrix(0.26458333,0,0,0.26458333,38.209698,50.180046)" />
    <circle
       cx="50"
       cy="60"
       style="fill:#000000;fill-opacity:0;stroke:#000000;stroke-width:2"
       id="ellipse10232"
       r="3"
       transform="matrix(0.26458333,0,0,0.26458333,38.209698,50.180046)" />
    <text
       x="42"
       y="40"
       style="font-style:normal;font-variant:normal;font-weight:normal;font-stretch:normal;font-size:18.6667px;font-family:Arial;-inkscape-font-specification:'Arial, Normal';font-variant-ligatures:normal;font-variant-caps:normal;font-variant-numeric:normal;font-variant-east-asian:normal;dominant-baseline:middle;text-anchor:end"
       dominant-baseline="middle"
       id="text10234"
       transform="matrix(0.26458333,0,0,0.26458333,38.209698,50.180046)">x</text>
    <line
       x1="53"
       y1="40"
       x2="60"
       y2="40"
       style="stroke:#000000;stroke-width:2;stroke-linecap:square"
       id="line10236"
       transform="matrix(0.26458333,0,0,0.26458333,38.209698,50.180046)" />
    <circle
       cx="50"
       cy="40"
       style="fill:#000000;fill-opacity:0;stroke:#000000;stroke-width:2"
       id="ellipse10238"
       r="3"
       transform="matrix(0.26458333,0,0,0.26458333,38.209698,50.180046)" />
    <line
       x1="100"
       y1="40"
       x2="100"
       y2="70"
       style="stroke:#000000;stroke-width:2;stroke-linecap:square"
       id="line10240"
       transform="matrix(0.26458333,0,0,0.26458333,38.209698,50.180046)" />
    <line
       x1="60"
       y1="60"
       x2="120"
       y2="60"
       style="stroke:#000000;stroke-width:2;stroke-linecap:square"
       id="line10242"
       transform="matrix(0.26458333,0,0,0.26458333,38.209698,50.180046)" />
    <line
       x1="60"
       y1="40"
       x2="120"
       y2="40"
       style="stroke:#000000;stroke-width:2;stroke-linecap:square"
       id="line10244"
       transform="matrix(0.26458333,0,0,0.26458333,38.209698,50.180046)" />
    <line
       x1="120"
       y1="40"
       x2="135"
       y2="40"
       style="stroke:#000000;stroke-width:2;stroke-linecap:square"
       id="line10246"
       transform="matrix(0.26458333,0,0,0.26458333,38.209698,50.180046)" />
    <line
       x1="120"
       y1="60"
       x2="135"
       y2="60"
       style="stroke:#000000;stroke-width:2;stroke-linecap:square"
       id="line10248"
       transform="matrix(0.26458333,0,0,0.26458333,38.209698,50.180046)" />
    <path
       d="m 135,40 m 0,-10 v 40 h 24 M 135,30 h 24 m 0,40 a 20,20 90 0 0 0,-40"
       style="fill:#000000;fill-opacity:0;stroke:#000000;stroke-width:2;stroke-linecap:square"
       id="path10250"
       transform="matrix(0.26458333,0,0,0.26458333,38.209698,50.180046)" />
    <line
       x1="181"
       y1="50"
       x2="190"
       y2="50"
       style="stroke:#000000;stroke-width:2;stroke-linecap:square"
       id="line10252"
       transform="matrix(0.26458333,0,0,0.26458333,38.209698,50.180046)" />
    <circle
       cx="80"
       cy="60"
       style="fill:#000000;fill-opacity:1;stroke:#000000;stroke-width:2"
       id="ellipse10254"
       r="2"
       transform="matrix(0.26458333,0,0,0.26458333,38.209698,50.180046)" />
    <circle
       cx="80"
       cy="100"
       style="fill:#000000;fill-opacity:1;stroke:#000000;stroke-width:2"
       id="ellipse10256"
       r="2"
       transform="matrix(0.26458333,0,0,0.26458333,38.209698,50.180046)" />
    <circle
       cx="100"
       cy="120"
       style="fill:#000000;fill-opacity:1;stroke:#000000;stroke-width:2"
       id="ellipse10258"
       r="2"
       transform="matrix(0.26458333,0,0,0.26458333,38.209698,50.180046)" />
    <circle
       cx="100"
       cy="40"
       style="fill:#000000;fill-opacity:1;stroke:#000000;stroke-width:2"
       id="ellipse10260"
       r="2"
       transform="matrix(0.26458333,0,0,0.26458333,38.209698,50.180046)" />
    <text
       xml:space="preserve"
       style="font-style:normal;font-variant:normal;font-weight:normal;font-stretch:normal;font-size:18.6667px;font-family:sans-serif;-inkscape-font-specification:'sans-serif, Normal';font-variant-ligatures:normal;font-variant-caps:normal;font-variant-numeric:normal;font-variant-east-asian:normal;fill:#020202;fill-opacity:1;fill-rule:evenodd;stroke:none;stroke-width:0.913;stroke-linecap:square;stroke-miterlimit:0;stroke-dasharray:none;stroke-opacity:1"
       x="175.20612"
       y="43.221375"
       id="text13107"
       transform="matrix(0.26458333,0,0,0.26458333,64.037656,50.326517)"><tspan
         sodipodi:role="line"
         id="tspan14122"
         x="175.20612"
         y="43.221375">x • y</tspan></text>
    <text
       xml:space="preserve"
       style="font-style:normal;font-variant:normal;font-weight:normal;font-stretch:normal;font-size:18.6667px;font-family:sans-serif;-inkscape-font-specification:'sans-serif, Normal';font-variant-ligatures:normal;font-variant-caps:normal;font-variant-numeric:normal;font-variant-east-asian:normal;fill:#020202;fill-opacity:1;fill-rule:evenodd;stroke:none;stroke-width:0.913;stroke-linecap:square;stroke-miterlimit:0;stroke-dasharray:none;stroke-opacity:1"
       x="175.20612"
       y="43.221375"
       id="text13107-7"
       transform="matrix(0.26458333,0,0,0.26458333,33.487355,63.521498)"><tspan
         sodipodi:role="line"
         id="tspan14122-7"
         x="175.20612"
         y="43.221375">x • y</tspan></text>
    <text
       xml:space="preserve"
       style="font-style:normal;font-variant:normal;font-weight:normal;font-stretch:normal;font-size:18.6667px;font-family:sans-serif;-inkscape-font-specification:'sans-serif, Normal';font-variant-ligatures:normal;font-variant-caps:normal;font-variant-numeric:normal;font-variant-east-asian:normal;fill:#020202;fill-opacity:1;fill-rule:evenodd;stroke:none;stroke-width:0.913;stroke-linecap:square;stroke-miterlimit:0;stroke-dasharray:none;stroke-opacity:1"
       x="175.20612"
       y="43.221375"
       id="text13107-7-4"
       transform="matrix(0.26458333,0,0,0.26458333,32.957824,79.469163)"><tspan
         sodipodi:role="line"
         id="tspan14122-7-3"
         x="175.20612"
         y="43.221375">x • y</tspan></text>
    <path
       style="fill:#010101;fill-opacity:1;fill-rule:evenodd;stroke:#000000;stroke-width:0.913;stroke-linecap:square;stroke-miterlimit:0;stroke-dasharray:none;stroke-opacity:1"
       d="m 115.74046,113.12977 h 13.92366"
       id="path14558"
       transform="matrix(0.26458333,0,0,0.26458333,47.993456,57.828944)" />
    <text
       xml:space="preserve"
       style="font-style:normal;font-variant:normal;font-weight:normal;font-stretch:normal;font-size:18.6667px;font-family:sans-serif;-inkscape-font-specification:'sans-serif, Normal';font-variant-ligatures:normal;font-variant-caps:normal;font-variant-numeric:normal;font-variant-east-asian:normal;fill:#020202;fill-opacity:1;fill-rule:evenodd;stroke:none;stroke-width:0.913;stroke-linecap:square;stroke-miterlimit:0;stroke-dasharray:none;stroke-opacity:1"
       x="175.20612"
       y="43.221375"
       id="text13107-7-4-8"
       transform="matrix(0.26458333,0,0,0.26458333,71.561225,63.742064)"><tspan
         sodipodi:role="line"
         id="tspan14122-7-3-2"
         x="175.20612"
         y="43.221375">x • y</tspan></text>
    <path
       style="fill:#010101;fill-opacity:1;fill-rule:evenodd;stroke:#000000;stroke-width:0.913;stroke-linecap:square;stroke-miterlimit:0;stroke-dasharray:none;stroke-opacity:1"
       d="m 115.74046,113.12977 h 13.92366"
       id="path14558-9"
       transform="matrix(0.26458333,0,0,0.26458333,86.750356,41.748372)" />
    <path
       style="fill:#010101;fill-opacity:1;fill-rule:evenodd;stroke:#000000;stroke-width:0.913;stroke-linecap:square;stroke-miterlimit:0;stroke-dasharray:none;stroke-opacity:1"
       d="m 145.47328,48.732824 h 13.92367"
       id="path14560"
       transform="matrix(0.26458333,0,0,0.26458333,47.763208,58.596438)" />
    <text
       xml:space="preserve"
       style="font-style:normal;font-variant:normal;font-weight:normal;font-stretch:normal;font-size:18.6667px;font-family:sans-serif;-inkscape-font-specification:'sans-serif, Normal';font-variant-ligatures:normal;font-variant-caps:normal;font-variant-numeric:normal;font-variant-east-asian:normal;fill:#020202;fill-opacity:1;fill-rule:evenodd;stroke:none;stroke-width:0.913;stroke-linecap:square;stroke-miterlimit:0;stroke-dasharray:none;stroke-opacity:1"
       x="175.20612"
       y="43.221375"
       id="text13107-7-49"
       transform="matrix(0.26458333,0,0,0.26458333,56.349995,63.71179)"><tspan
         sodipodi:role="line"
         id="tspan14122-7-9"
         x="175.20612"
         y="43.221375">x • y</tspan></text>
    <path
       style="fill:#010101;fill-opacity:1;fill-rule:evenodd;stroke:#000000;stroke-width:0.913;stroke-linecap:square;stroke-miterlimit:0;stroke-dasharray:none;stroke-opacity:1"
       d="m 145.47328,48.732824 h 13.92367"
       id="path14560-0"
       transform="matrix(0.26458333,0,0,0.26458333,70.625849,58.78673)" />
    <text
       xml:space="preserve"
       style="font-style:normal;font-variant:normal;font-weight:normal;font-stretch:normal;font-size:18.6667px;font-family:sans-serif;-inkscape-font-specification:'sans-serif, Normal';font-variant-ligatures:normal;font-variant-caps:normal;font-variant-numeric:normal;font-variant-east-asian:normal;fill:#010101;fill-opacity:1;fill-rule:evenodd;stroke:#000000;stroke-width:0;stroke-linecap:square;stroke-miterlimit:0;stroke-dasharray:none;stroke-opacity:1"
       x="252.94656"
       y="52.793892"
       id="text14740"
       transform="matrix(0.26458333,0,0,0.26458333,46.803841,61.512914)"><tspan
         sodipodi:role="line"
         id="tspan14738"
         x="252.94656"
         y="52.793892">+</tspan></text>
  </g>
</svg>
