<?xml version="1.0" encoding="UTF-8" standalone="no"?>
<!-- Created with Inkscape (http://www.inkscape.org/) -->

<svg
   width="100mm"
   height="110mm"
   viewBox="0 0 99.999998 110"
   version="1.1"
   id="svg5"
   inkscape:version="1.2.2 (732a01da63, 2022-12-09)"
   sodipodi:docname="and-or-not-gates.svg"
   xml:space="preserve"
   xmlns:inkscape="http://www.inkscape.org/namespaces/inkscape"
   xmlns:sodipodi="http://sodipodi.sourceforge.net/DTD/sodipodi-0.dtd"
   xmlns="http://www.w3.org/2000/svg"
   xmlns:svg="http://www.w3.org/2000/svg"><sodipodi:namedview
     id="namedview7"
     pagecolor="#ffffff"
     bordercolor="#111111"
     borderopacity="1"
     inkscape:showpageshadow="0"
     inkscape:pageopacity="0"
     inkscape:pagecheckerboard="1"
     inkscape:deskcolor="#d1d1d1"
     inkscape:document-units="mm"
     showgrid="false"
     inkscape:zoom="1.4503086"
     inkscape:cx="102.04725"
     inkscape:cy="218.91893"
     inkscape:window-width="1920"
     inkscape:window-height="1001"
     inkscape:window-x="-9"
     inkscape:window-y="-9"
     inkscape:window-maximized="1"
     inkscape:current-layer="layer1" /><defs
     id="defs2"><clipPath
       clipPathUnits="userSpaceOnUse"
       id="clipPath2840"><path
         id="path2842"
         style="fill:#ff0000;fill-opacity:1;fill-rule:nonzero;stroke:none;stroke-width:0.0011224"
         d="m 122.00781,245.9668 v 5.51563 c 0.47893,0.10455 0.95613,0.21341 1.42969,0.33789 0.97398,0.256 1.23509,0.37415 2.15625,0.71094 2.33158,0.9216 3.13297,2.18454 4.20703,4.34375 0.55808,1.26344 1.14,2.53519 2.0918,3.55273 0.80031,0.81416 1.7173,1.49875 2.58789,2.23438 0.56733,0.42967 0.95819,1.05073 1.52344,1.47851 0.72281,0.54801 1.23878,1.26572 1.66015,2.0586 0.44076,0.85834 0.57954,1.80206 0.66602,2.75 0.0867,1.11948 0.0157,2.24513 -0.0254,3.36523 -4.5e-4,1.18101 -0.12964,2.34947 -0.28906,3.51758 -0.18523,1.28756 -0.31082,2.58307 -0.39453,3.88086 -0.0753,1.3714 -0.19078,2.74017 -0.29883,4.10937 -0.12987,1.40787 -0.16822,2.82073 -0.26758,4.23047 -0.058,1.1378 -0.23213,2.26477 -0.33399,3.39844 -0.16005,1.48863 -0.36129,2.97361 -0.57812,4.45508 -0.24607,1.31246 -0.48229,2.62695 -0.73828,3.9375 -0.23821,1.1567 -0.4301,2.32172 -0.69531,3.47266 -0.22109,1.04473 -0.64969,1.98108 -1.24024,2.86328 -0.56101,0.79907 -1.29644,1.42579 -2.05859,2.02148 -0.98078,0.76282 -2.18879,1.05765 -3.36719,1.36719 -1.38829,0.35315 -2.80005,0.61838 -4.22656,0.75195 -0.74696,0.0255 -1.30344,-0.0418 -1.8086,-0.27344 v 12.90625 H 343.57227 V 245.9668 Z m 0,8.01563 v 20.16992 c 0.0198,0.77953 0.0238,1.55856 0,2.33789 v 30.11524 c 0.17484,0.31215 0.37282,0.61175 0.61133,0.88867 0.0358,0.0472 0.15152,0.25461 0.22461,0.28711 0.23513,0.10432 0.50032,0.12267 0.75195,0.11133 1.29323,-0.11327 2.57146,-0.36828 3.83008,-0.68164 0.85446,-0.22307 1.75618,-0.39832 2.48242,-0.92969 0.56121,-0.43863 1.1187,-0.88146 1.54102,-1.46484 0.43197,-0.6309 0.73049,-1.29244 0.88477,-2.04883 0.26151,-1.12278 0.44234,-2.26416 0.67773,-3.39258 0.2486,-1.27282 0.47686,-2.54814 0.71875,-3.82227 0.21099,-1.43695 0.4055,-2.87848 0.5625,-4.32226 0.1019,-1.11797 0.27055,-2.22767 0.33008,-3.34961 0.10159,-1.41587 0.13522,-2.83599 0.26758,-4.25 0.10715,-1.35781 0.22264,-2.71617 0.29687,-4.07617 0.0881,-1.35534 0.21871,-2.70804 0.41211,-4.05274 0.14869,-1.08847 0.27235,-2.17651 0.26953,-3.27734 0.0374,-1.0184 0.10296,-2.04056 0.0312,-3.0586 -0.0539,-0.62837 -0.11536,-1.26267 -0.39648,-1.83789 -0.25439,-0.50123 -0.56305,-0.94418 -1.02149,-1.2832 -0.56854,-0.46519 -1.02757,-1.03016 -1.57422,-1.51953 -0.95274,-0.80544 -1.9595,-1.55346 -2.82226,-2.45899 -0.1754,-0.19758 -0.36011,-0.38765 -0.52539,-0.59375 -0.84273,-1.05072 -1.38277,-2.30922 -1.94531,-3.51953 -0.75378,-1.54206 -1.18879,-2.47936 -2.86329,-3.13281 -0.74692,-0.27684 -1.06717,-0.41446 -1.85351,-0.62109 -0.29548,-0.0776 -0.59274,-0.14846 -0.89063,-0.2168 z m 2.01563,9.38867 c 0.57272,0.007 1.16959,0.5474 1.29297,1.67188 0.13489,1.22955 0.10433,2.46702 0.082,3.70117 -0.0267,1.07951 -0.0905,2.15371 0.0527,3.22656 0.0729,0.54064 0.0377,0.27076 0.10743,0.8086 0.31022,2.39325 -2.10794,2.70772 -2.41797,0.31445 -0.0685,-0.52904 -0.0339,-0.26034 -0.10743,-0.80664 -0.15307,-1.19309 -0.11436,-2.38774 -0.0723,-3.58789 0.0203,-1.12967 0.0529,-2.26292 -0.0684,-3.38867 -0.13727,-1.27469 0.48177,-1.94795 1.13086,-1.93946 z"
         transform="matrix(7.8974795,0,0,7.8974795,-878.35835,-1886.5139)" /></clipPath></defs><g
     inkscape:label="Layer 1"
     inkscape:groupmode="layer"
     id="layer1"
     transform="translate(-39.716918,-29.392899)"><rect
       style="font-variation-settings:normal;display:inline;opacity:1;vector-effect:none;fill:#ffffff;fill-opacity:1;fill-rule:evenodd;stroke:#000000;stroke-width:3.25714;stroke-linecap:square;stroke-linejoin:miter;stroke-miterlimit:0;stroke-dasharray:none;stroke-dashoffset:0;stroke-opacity:1;-inkscape-stroke:none;stop-color:#000000;stop-opacity:1"
       id="rect3786"
       width="270.28729"
       height="423.35815"
       x="-31.717386"
       y="-23.443285"
       transform="matrix(0.36557132,0,0,0.25784354,51.907243,35.857515)"
       inkscape:label="Background"
       sodipodi:insensitive="true" /><g
       id="g3633"
       inkscape:label="Or Gate"
       transform="translate(45.205845,11.801342)"><path
         style="fill:#030303;stroke:none;stroke-width:29.8487;stroke-opacity:1"
         d="m 449.99154,56.003881 45.28711,102.003969 19.71285,49.99166 H 231.99334 v 19.00331 h 210.99535 56.00732 c 5.566,0 16.81825,-2.13554 21.57925,1.03346 3.61398,2.405 4.03102,9.13223 5.12102,12.97223 3.454,12.16988 5.86148,24.49813 7.71238,37.00401 7.69398,51.9704 8.29867,105.95658 0.86379,157.99586 -2.024,14.16488 -4.3451,28.22076 -8.2831,42.00164 -1.153,4.03388 -1.63211,11.45893 -5.41409,13.97483 -4.761,3.16898 -16.01325,1.01804 -21.57925,1.01804 H 442.98869 230.99073 V 512.0062 H 514.9915 l -19.71285,50.00709 -45.28711,101.98854 h 215.00579 c 75.33514,0 151.95761,-0.46555 226.00365,-16.21143 66.86826,-14.21876 130.81802,-40.67491 189.98682,-74.64043 54.82,-31.46964 106.0973,-72.51161 146.5661,-121.14611 15.65,-18.80278 29.335,-39.13096 43.575,-58.99972 4.45,-6.20688 10.5783,-19.55476 17.9081,-22.39676 9.3,-3.60398 24.9926,-0.60156 34.9526,-0.60156 h 80.0082 273.0029 v -19.00331 h -272.0003 -80.0082 c -10.04,0 -25.5734,2.95443 -34.9834,-0.60157 -8.15,-3.082 -14.8383,-17.52867 -19.7283,-24.38655 -14.45,-20.27276 -28.4721,-40.97458 -44.5621,-60.00234 -42.99,-50.8294 -96.967,-91.87828 -154.7258,-124.58582 -60,-33.97464 -126.16914,-59.093836 -193.9973,-71.802282 C 805.70614,56.267006 732.25885,56.003881 659.99971,56.003881 Z M 509.99387,95.01311 H 676.9978 c 64.74016,0 130.1271,0.635212 193.99726,12.60203 86.27204,16.16388 171.75034,53.92503 241.99914,106.52343 40.89,30.62064 76.8163,65.22425 106.5851,106.86277 l 19.281,27.00876 c 2.3,3.205 7.0808,7.83747 7.1108,12.00047 0.03,4.20688 -4.682,8.77856 -6.972,12.00046 l -19.2964,26.99334 c -29.4798,41.37152 -65.1359,75.94454 -105.7059,106.36918 -66.7888,50.0844 -147.28601,87.0248 -228.99605,104.42566 -53.0904,11.30688 -107.08639,12.87876 -161.00369,15.23966 -71.09114,3.11298 -142.79003,0.97176 -214.00319,0.97176 3.236,-18.79478 16.09449,-38.45546 23.58447,-56.00732 15.40378,-36.10154 29.42817,-73.18669 36.17107,-111.99921 13.29086,-76.50014 13.06495,-161.17586 -9.47081,-235.9989 -8.87088,-29.45264 -20.48706,-57.79933 -32.71592,-85.99307 -5.816,-13.40778 -13.70981,-26.88814 -17.56881,-40.99902 z"
         transform="matrix(0.03350225,0,0,0.03350225,29.426981,63.202459)"
         id="path997"
         inkscape:label="Diagram" /><text
         xml:space="preserve"
         style="font-style:normal;font-variant:normal;font-weight:normal;font-stretch:normal;font-size:24px;font-family:sans-serif;-inkscape-font-specification:'sans-serif, Normal';font-variant-ligatures:normal;font-variant-caps:normal;font-variant-numeric:normal;font-variant-east-asian:normal;fill:#030303;fill-opacity:1;fill-rule:evenodd;stroke:none;stroke-width:1;stroke-linecap:square;stroke-miterlimit:0;stroke-dasharray:none;stroke-opacity:1"
         x="114.08812"
         y="266.93695"
         id="text2884"
         transform="matrix(0.26458333,0,0,0.26458333,1.5479905,1.8059889)"
         inkscape:label="A"><tspan
           sodipodi:role="line"
           id="tspan2882"
           x="114.08812"
           y="266.93695">A</tspan></text><text
         xml:space="preserve"
         style="font-style:normal;font-variant:normal;font-weight:normal;font-stretch:normal;font-size:24px;font-family:sans-serif;-inkscape-font-specification:'sans-serif, Normal';font-variant-ligatures:normal;font-variant-caps:normal;font-variant-numeric:normal;font-variant-east-asian:normal;fill:#030303;fill-opacity:1;fill-rule:evenodd;stroke:none;stroke-width:1;stroke-linecap:square;stroke-miterlimit:0;stroke-dasharray:none;stroke-opacity:1"
         x="115.79457"
         y="310.08566"
         id="text2888"
         transform="matrix(0.26458333,0,0,0.26458333,1.0964933,0.51599684)"
         inkscape:label="B"><tspan
           sodipodi:role="line"
           id="tspan2886"
           x="115.79457"
           y="310.08566">B</tspan></text><text
         xml:space="preserve"
         style="font-style:normal;font-variant:normal;font-weight:normal;font-stretch:normal;font-size:24px;font-family:sans-serif;-inkscape-font-specification:'sans-serif, Normal';font-variant-ligatures:normal;font-variant-caps:normal;font-variant-numeric:normal;font-variant-east-asian:normal;fill:#030303;fill-opacity:1;fill-rule:evenodd;stroke:none;stroke-width:1;stroke-linecap:square;stroke-miterlimit:0;stroke-dasharray:none;stroke-opacity:1"
         x="282.05118"
         y="269.37473"
         id="text2892"
         transform="matrix(0.26458333,0,0,0.26458333,-1.5479905,2.5154846)"
         inkscape:label="AvB"><tspan
           sodipodi:role="line"
           id="tspan2890"
           x="282.05118"
           y="269.37473">A + B</tspan></text></g><g
       id="g3654"
       inkscape:label="And Gate"
       transform="translate(-11.415252)"><path
         style="fill:#030303;stroke:none;stroke-width:27.1692"
         d="M 348,36 V 215 H 51 v 20 H 348 V 584 H 51 v 20 h 297 v 179 c 62.409,0 122.315,-9.831 179,-37.258 C 648.532,686.937 737,556.648 737,420 H 974 V 399 H 737 C 737,262.335 648.548,132.071 527,73.2585 470.31,45.8284 410.414,36 348,36 m 31,715 V 68 c 38.684,0.1068 78.324,10.7293 114,25 37.908,15.164 73.953,38.259 103,66.996 27.763,27.466 51.653,57.927 69.191,93.004 62.634,125.266 42.914,283.766 -51.361,388 C 583.32,674.734 546.776,700.581 506,720.258 467.72,738.731 421.668,750.882 379,751 Z"
         id="path999"
         transform="matrix(0.03680644,0,0,0.03680644,97.50872,33.079257)"
         inkscape:label="Diagram" /><text
         xml:space="preserve"
         style="font-style:normal;font-variant:normal;font-weight:normal;font-stretch:normal;font-size:24px;font-family:sans-serif;-inkscape-font-specification:'sans-serif, Normal';font-variant-ligatures:normal;font-variant-caps:normal;font-variant-numeric:normal;font-variant-east-asian:normal;fill:#030303;fill-opacity:1;fill-rule:evenodd;stroke:none;stroke-width:1;stroke-linecap:square;stroke-miterlimit:0;stroke-dasharray:none;stroke-opacity:1"
         x="274.98163"
         y="151.14238"
         id="text3637"
         transform="matrix(0.26458333,0,0,0.26458333,20.768873,3.6119779)"
         inkscape:label="A"><tspan
           sodipodi:role="line"
           id="tspan3635"
           x="274.98163"
           y="151.14238">A</tspan></text><text
         xml:space="preserve"
         style="font-style:normal;font-variant:normal;font-weight:normal;font-stretch:normal;font-size:24px;font-family:sans-serif;-inkscape-font-specification:'sans-serif, Normal';font-variant-ligatures:normal;font-variant-caps:normal;font-variant-numeric:normal;font-variant-east-asian:normal;fill:#030303;fill-opacity:1;fill-rule:evenodd;stroke:none;stroke-width:1;stroke-linecap:square;stroke-miterlimit:0;stroke-dasharray:none;stroke-opacity:1"
         x="283.75763"
         y="190.14687"
         id="text3641"
         transform="matrix(0.26458333,0,0,0.26458333,18.446887,6.9659574)"
         inkscape:label="B"><tspan
           sodipodi:role="line"
           id="tspan3639"
           x="283.75763"
           y="190.14687">B</tspan></text><text
         xml:space="preserve"
         style="font-style:normal;font-variant:normal;font-weight:normal;font-stretch:normal;font-size:24px;font-family:sans-serif;-inkscape-font-specification:'sans-serif, Normal';font-variant-ligatures:normal;font-variant-caps:normal;font-variant-numeric:normal;font-variant-east-asian:normal;fill:#030303;fill-opacity:1;fill-rule:evenodd;stroke:none;stroke-width:1;stroke-linecap:square;stroke-miterlimit:0;stroke-dasharray:none;stroke-opacity:1"
         x="419.29822"
         y="103.36189"
         id="text3645"
         transform="matrix(0.26458333,0,0,0.26458333,14.834909,19.220882)"
         inkscape:label="AxB"><tspan
           sodipodi:role="line"
           id="tspan3643"
           x="419.29822"
           y="103.36189">A • B</tspan></text></g><g
       id="g3732"
       inkscape:label="Not Gate"
       transform="translate(-5.0913903)"><path
         style="fill:#030302;stroke:none;stroke-width:32.1565"
         d="M 287,398 H 0 v 27 h 287 v 239 57 c 0,8.894 -0.779,18.318 7.043,24.442 13.73,10.749 31.322,-2.778 43.957,-8.902 37.195,-18.028 74.03,-36.808 111,-55.293 L 760,525.753 C 812.247,499.63 864.089,469.445 918,447 c 12.175,29.242 43.349,44.443 74,37.575 16.01,-3.588 30.05,-13.692 38.77,-27.575 3.34,-5.319 6.29,-22.043 12.29,-23.682 7.08,-1.936 16.61,-0.318 23.94,-0.318 h 50 163 v -27 h -163 -51 c -7.37,0 -16.82,1.581 -23.96,-0.318 -6.81,-1.812 -11.06,-17.189 -15.28,-22.681 -9.41,-12.25 -23.62,-20.253 -38.76,-22.917 C 960.073,355.171 921.643,372.023 917,403 899.222,395.329 882.586,382.606 866,372.601 831.626,351.867 797.314,331.034 763,310.203 658.732,246.906 554.594,183.355 450,120.6 412.911,98.3474 376.089,75.6523 339,53.3997 326.728,46.0369 309.514,30.1758 295.004,40.6381 285.959,47.1595 287,57.0642 287,67 v 63 268 m 593,30 c -24.904,5.762 -47.336,18.421 -70,29.753 l -98,49 -257,128.494 C 412.01,656.742 369.359,681.532 325,700 L 324,91 c 12.402,1.6234 26.331,13.995 37,20.4 28.417,17.058 56.595,34.521 85,51.6 100.18,60.236 199.763,121.46 300,181.6 31.754,19.052 63.246,38.548 95,57.6 11.048,6.629 32.4,14.606 39,25.8 m 94,-41.71 c 45.23,-5.659 53.64,67.633 8,72.536 -48.376,5.198 -56.437,-66.475 -8,-72.536 z"
         id="path995"
         transform="matrix(0.03109792,0,0,0.03109792,93.431974,111.07476)"
         inkscape:label="Diagram" /><text
         xml:space="preserve"
         style="font-style:normal;font-variant:normal;font-weight:normal;font-stretch:normal;font-size:24px;font-family:sans-serif;-inkscape-font-specification:'sans-serif, Normal';font-variant-ligatures:normal;font-variant-caps:normal;font-variant-numeric:normal;font-variant-east-asian:normal;fill:#030303;fill-opacity:1;fill-rule:evenodd;stroke:none;stroke-width:1;stroke-linecap:square;stroke-miterlimit:0;stroke-dasharray:none;stroke-opacity:1"
         x="328.12524"
         y="477.31738"
         id="text3658"
         transform="matrix(0.26458333,0,0,0.26458333,0.12899921,-0.38699763)"
         inkscape:label="A"><tspan
           sodipodi:role="line"
           id="tspan3656"
           x="328.12524"
           y="477.31738">A</tspan></text><g
         id="g3723"
         inkscape:label="Not A"
         transform="translate(-1.5479905,3.0959811)"><text
           xml:space="preserve"
           style="font-style:normal;font-variant:normal;font-weight:normal;font-stretch:normal;font-size:24px;font-family:sans-serif;-inkscape-font-specification:'sans-serif, Normal';font-variant-ligatures:normal;font-variant-caps:normal;font-variant-numeric:normal;font-variant-east-asian:normal;fill:#030303;fill-opacity:1;fill-rule:evenodd;stroke:none;stroke-width:1;stroke-linecap:square;stroke-miterlimit:0;stroke-dasharray:none;stroke-opacity:1"
           x="485.60583"
           y="450.5018"
           id="text3662"
           transform="scale(0.26458333)"
           inkscape:label="A"><tspan
             sodipodi:role="line"
             id="tspan3660"
             x="485.60583"
             y="450.5018">A</tspan></text><path
           style="fill:#030303;fill-opacity:1;fill-rule:evenodd;stroke:#000000;stroke-width:2.22778;stroke-linecap:square;stroke-miterlimit:0;stroke-dasharray:none;stroke-opacity:1"
           d="m 485.41392,429.56374 h 13.79017"
           id="path3718"
           transform="matrix(0.29850378,0,0,0.29850378,-16.448497,-14.593798)"
           inkscape:label="Complement" /></g></g><text
       xml:space="preserve"
       style="font-style:normal;font-variant:normal;font-weight:normal;font-stretch:normal;font-size:24px;font-family:sans-serif;-inkscape-font-specification:'sans-serif, Normal';font-variant-ligatures:normal;font-variant-caps:normal;font-variant-numeric:normal;font-variant-east-asian:normal;fill:#030303;fill-opacity:1;fill-rule:evenodd;stroke:#000000;stroke-width:2.51339;stroke-linecap:square;stroke-miterlimit:0;stroke-dasharray:none;stroke-opacity:1"
       x="-71.708878"
       y="90.3256"
       id="text3819"
       transform="matrix(0.26458333,0,0,0.26458333,70,29.392897)"><tspan
         sodipodi:role="line"
         id="tspan3817"
         x="-71.708878"
         y="90.3256" /></text><text
       xml:space="preserve"
       style="font-style:normal;font-variant:normal;font-weight:normal;font-stretch:normal;font-size:24px;font-family:sans-serif;-inkscape-font-specification:'sans-serif, Normal';font-variant-ligatures:normal;font-variant-caps:normal;font-variant-numeric:normal;font-variant-east-asian:normal;fill:#030303;fill-opacity:1;fill-rule:evenodd;stroke:none;stroke-width:2.51339;stroke-linecap:square;stroke-miterlimit:0;stroke-dasharray:none;stroke-opacity:1"
       x="-116.52692"
       y="70.329857"
       id="text3823"
       transform="matrix(0.26458333,0,0,0.26458333,77.220427,32.311816)"><tspan
         sodipodi:role="line"
         id="tspan3821"
         x="-116.52692"
         y="70.329857">And Gate</tspan></text><text
       xml:space="preserve"
       style="font-style:normal;font-variant:normal;font-weight:normal;font-stretch:normal;font-size:24px;font-family:sans-serif;-inkscape-font-specification:'sans-serif, Normal';font-variant-ligatures:normal;font-variant-caps:normal;font-variant-numeric:normal;font-variant-east-asian:normal;fill:#030303;fill-opacity:1;fill-rule:evenodd;stroke:none;stroke-width:2.51339;stroke-linecap:square;stroke-miterlimit:0;stroke-dasharray:none;stroke-opacity:1"
       x="-104.80528"
       y="219.95319"
       id="text3827"
       transform="matrix(0.26458333,0,0,0.26458333,76.078052,31.399654)"><tspan
         sodipodi:role="line"
         id="tspan3825"
         x="-104.80528"
         y="219.95319">Or Gate</tspan></text><text
       xml:space="preserve"
       style="font-style:normal;font-variant:normal;font-weight:normal;font-stretch:normal;font-size:24px;font-family:sans-serif;-inkscape-font-specification:'sans-serif, Normal';font-variant-ligatures:normal;font-variant-caps:normal;font-variant-numeric:normal;font-variant-east-asian:normal;fill:#030303;fill-opacity:1;fill-rule:evenodd;stroke:none;stroke-width:2.51339;stroke-linecap:square;stroke-miterlimit:0;stroke-dasharray:none;stroke-opacity:1"
       x="-106.8738"
       y="359.9234"
       id="text3831"
       transform="matrix(0.26458333,0,0,0.26458333,74.39651,34.501005)"><tspan
         sodipodi:role="line"
         x="-106.8738"
         y="359.9234"
         id="tspan3833">(Inverter)</tspan></text><text
       xml:space="preserve"
       style="font-style:normal;font-variant:normal;font-weight:normal;font-stretch:normal;font-size:24px;font-family:sans-serif;-inkscape-font-specification:'sans-serif, Normal';font-variant-ligatures:normal;font-variant-caps:normal;font-variant-numeric:normal;font-variant-east-asian:normal;fill:#030303;fill-opacity:1;fill-rule:evenodd;stroke:none;stroke-width:2.51339;stroke-linecap:square;stroke-miterlimit:0;stroke-dasharray:none;stroke-opacity:1"
       x="-210.30006"
       y="288.90402"
       id="text3839"
       transform="matrix(0.26458333,0,0,0.26458333,102.18682,46.176681)"><tspan
         sodipodi:role="line"
         id="tspan3837"
         x="-210.30006"
         y="288.90402">Not Gate</tspan></text></g></svg>
