<?xml version="1.0" encoding="UTF-8" standalone="no"?>
<!-- Created with Inkscape (http://www.inkscape.org/) -->

<svg
   width="132.29167mm"
   height="132.29167mm"
   viewBox="0 0 132.29167 132.29167"
   version="1.1"
   id="svg5"
   inkscape:version="1.2.2 (732a01da63, 2022-12-09)"
   sodipodi:docname="anti-reflexive-digraph-cats-chasing-cats.svg"
   xml:space="preserve"
   xmlns:inkscape="http://www.inkscape.org/namespaces/inkscape"
   xmlns:sodipodi="http://sodipodi.sourceforge.net/DTD/sodipodi-0.dtd"
   xmlns="http://www.w3.org/2000/svg"
   xmlns:svg="http://www.w3.org/2000/svg"><sodipodi:namedview
     id="namedview7"
     pagecolor="#ffffff"
     bordercolor="#111111"
     borderopacity="1"
     inkscape:showpageshadow="0"
     inkscape:pageopacity="0"
     inkscape:pagecheckerboard="1"
     inkscape:deskcolor="#d1d1d1"
     inkscape:document-units="mm"
     showgrid="false"
     inkscape:zoom="0.72515432"
     inkscape:cx="259.25516"
     inkscape:cy="280.62992"
     inkscape:window-width="1920"
     inkscape:window-height="1001"
     inkscape:window-x="-9"
     inkscape:window-y="-9"
     inkscape:window-maximized="1"
     inkscape:current-layer="svg5" /><defs
     id="defs2"><marker
       style="overflow:visible"
       id="marker7180"
       refX="0"
       refY="0"
       orient="auto-start-reverse"
       inkscape:stockid="TriangleStart"
       markerWidth="5.3244081"
       markerHeight="6.155385"
       viewBox="0 0 5.3244081 6.1553851"
       inkscape:isstock="true"
       inkscape:collect="always"
       preserveAspectRatio="xMidYMid"><path
         transform="scale(0.5)"
         style="fill:context-stroke;fill-rule:evenodd;stroke:context-stroke;stroke-width:1pt"
         d="M 5.77,0 -2.88,5 V -5 Z"
         id="path7178" /></marker><inkscape:path-effect
       effect="bspline"
       id="path-effect1668"
       is_visible="true"
       lpeversion="1"
       weight="33.333333"
       steps="2"
       helper_size="0"
       apply_no_weight="true"
       apply_with_weight="true"
       only_selected="false" /><inkscape:path-effect
       effect="bspline"
       id="path-effect1664"
       is_visible="true"
       lpeversion="1"
       weight="33.333333"
       steps="2"
       helper_size="0"
       apply_no_weight="true"
       apply_with_weight="true"
       only_selected="false" /><inkscape:path-effect
       effect="bspline"
       id="path-effect1660"
       is_visible="true"
       lpeversion="1"
       weight="33.333333"
       steps="2"
       helper_size="0"
       apply_no_weight="true"
       apply_with_weight="true"
       only_selected="false" /><inkscape:path-effect
       effect="bspline"
       id="path-effect1656"
       is_visible="true"
       lpeversion="1"
       weight="33.333333"
       steps="2"
       helper_size="0"
       apply_no_weight="true"
       apply_with_weight="true"
       only_selected="false" /><inkscape:path-effect
       effect="bspline"
       id="path-effect1652"
       is_visible="true"
       lpeversion="1"
       weight="33.333333"
       steps="2"
       helper_size="0"
       apply_no_weight="true"
       apply_with_weight="true"
       only_selected="false" /></defs><rect
     style="font-variation-settings:normal;opacity:1;vector-effect:none;fill:#ffffff;fill-opacity:1;fill-rule:evenodd;stroke:#000000;stroke-width:4.08242;stroke-linecap:square;stroke-linejoin:miter;stroke-miterlimit:0;stroke-dasharray:none;stroke-dashoffset:0;stroke-opacity:1;-inkscape-stroke:none;stop-color:#000000;stop-opacity:1"
     id="rect7308"
     width="558.50183"
     height="514.37329"
     x="-71.708878"
     y="-27.580336"
     transform="matrix(0.23514997,0,0,0.25516484,17.342331,7.5583769)"
     rx="2.32744"
     ry="2.1448781"
     inkscape:label="Background"
     sodipodi:insensitive="true" /><g
     inkscape:groupmode="layer"
     id="layer9"
     inkscape:label="Ginger"
     transform="translate(-33.788488,-76.627867)"><g
       id="g1742"
       transform="translate(0.30003941,-6.5416372)"><path
         style="fill:#050505;stroke:none;stroke-width:3.77953"
         d="m 28,182 c -5.9931,14.203 4.0745,22.981 3.9414,36 -0.1457,14.25 -15.5369,32.66 -5.9414,46 -14.7376,5.323 21.5979,27.18 20,6 l 25,3 c -1.1503,-5.405 -4.9569,-6.801 -10,-8 3.1581,-5.155 0.7636,-14.055 4.4877,-17.951 3.2327,-3.382 12.3559,-0.061 13.0856,-4.281 1.8033,-10.429 -12.8206,-7.268 -15.9244,-12.916 -1.9998,-3.639 -7.0401,-12.87 -6.6481,-16.852 0.3849,-3.91 3.1059,-6.799 2.929,-11 -0.2439,-5.791 -3.16,-13.403 -4.9298,-19 -12.3906,8.334 -13.8055,3.144 -26,-1"
         transform="matrix(0.26458333,0,0,0.26458333,42.54275,71.915653)"
         id="path327" /><text
         xml:space="preserve"
         style="font-style:normal;font-variant:normal;font-weight:normal;font-stretch:normal;font-size:26.6667px;font-family:Arial;-inkscape-font-specification:'Arial, Normal';font-variant-ligatures:normal;font-variant-caps:normal;font-variant-numeric:normal;font-variant-east-asian:normal;fill:#000000;fill-opacity:1;fill-rule:evenodd;stroke:#000000;stroke-width:1;stroke-linecap:square;stroke-miterlimit:0;stroke-dasharray:none;stroke-opacity:1"
         x="352.9906"
         y="427.09912"
         id="text1635"
         transform="matrix(0.26458333,0,0,0.26458333,-33.417335,14.837913)"><tspan
           sodipodi:role="line"
           id="tspan1633"
           x="352.9906"
           y="427.09912">Ginger</tspan></text></g></g><g
     inkscape:groupmode="layer"
     id="layer10"
     inkscape:label="Hops"
     transform="translate(-33.788488,-76.627867)"><g
       id="g1747"
       transform="translate(-47.320576,-106.19924)"><path
         style="fill:#050505;stroke:none;stroke-width:3.77953"
         d="m 7,367 5,-9 c -5.48428,0.735 -12.947659,6.332 -8.97145,12.721 5.39749,8.674 20.80525,-0.948 27.68595,3.886 2.8725,2.018 7.5763,6.726 7.8951,10.393 0.3786,4.356 -3.9559,7.424 -0.8627,11.787 2.3577,3.325 20.6165,12.437 20.6173,3.368 C 58.3645,397.1 52.4891,394.776 51,392 c 5.3687,0 14.0391,2.166 18.9406,0.243 C 80.6336,388.048 63.2475,385.027 60,385 c 5.1867,-5.7 11.4855,-16.229 1,-20 l 6,-27 c 7.7862,0.124 7.0334,-11.947 11.419,-16.621 2.508,-2.673 7.885,-4.27 8.4066,-8.4 0.348,-2.755 -1.8088,-3.91 -3.8256,-4.979 2.8658,-4.682 12.4364,-13.186 13.0787,-17.985 0.6853,-5.12 -7.1533,-5.163 -9.9738,-3.269 C 80.6191,290.43 77.4574,300.097 75,306 c -6.1393,-7.605 -8.3788,-13.579 -7,-23 -9.4644,2.391 -22.5644,10.852 -24.5316,21 -1.1672,6.021 1.0509,12.112 -0.1636,18 -1.432,6.942 -5.7935,12.947 -7.4175,20 -1.4201,6.167 -1.0101,14.364 -4.0625,19.956 C 27.6907,369.53 14.0028,369.494 7,367"
         transform="matrix(0.26458333,0,0,0.26458333,133.2343,109.97422)"
         id="path337" /><text
         xml:space="preserve"
         style="font-style:normal;font-variant:normal;font-weight:normal;font-stretch:normal;font-size:26.6667px;font-family:Arial;-inkscape-font-specification:'Arial, Normal';font-variant-ligatures:normal;font-variant-caps:normal;font-variant-numeric:normal;font-variant-east-asian:normal;fill:#000000;fill-opacity:1;fill-rule:evenodd;stroke:#000000;stroke-width:1;stroke-linecap:square;stroke-miterlimit:0;stroke-dasharray:none;stroke-opacity:1"
         x="608.46997"
         y="448.55157"
         id="text1639"
         transform="matrix(0.26458333,0,0,0.26458333,-5.1582627,79.819991)"><tspan
           sodipodi:role="line"
           id="tspan1637"
           x="608.46997"
           y="448.55157">Hops</tspan></text></g></g><g
     inkscape:groupmode="layer"
     id="layer11"
     inkscape:label="Iggy"
     transform="translate(-33.788488,-76.627867)"><g
       id="g1996"
       transform="translate(-15.041317,2.6094417)"><path
         style="fill:#050505;stroke:none;stroke-width:3.77953"
         d="m 183,191 c -14.329,9.095 -22.009,5.443 -37,1 l 5,34 -4,-4 -3.907,16 -0.093,24 h 7 l -1,-9 h 1 c 0.644,3.193 8.375,18.13 12.879,11.396 2.959,-4.426 -2.917,-8.751 2.121,-13.396 0.771,6.312 -2.081,15.435 8,13 -3.378,-9.916 1.913,-18.315 4.39,-28 2.305,-9.008 3.777,-19.735 4.784,-29 0.586,-5.4 3.042,-10.717 0.826,-16"
         transform="matrix(0.26458333,0,0,0.26458333,117.85735,65.976155)"
         id="path1817" /><text
         xml:space="preserve"
         style="font-style:normal;font-variant:normal;font-weight:normal;font-stretch:normal;font-size:26.6667px;font-family:Arial;-inkscape-font-specification:'Arial, Normal';font-variant-ligatures:normal;font-variant-caps:normal;font-variant-numeric:normal;font-variant-east-asian:normal;fill:#000000;fill-opacity:1;fill-rule:evenodd;stroke:#000000;stroke-width:1;stroke-linecap:square;stroke-miterlimit:0;stroke-dasharray:none;stroke-opacity:1"
         x="575.04999"
         y="434.39029"
         id="text1859"
         transform="matrix(0.26458333,0,0,0.26458333,-11.675676,13.5)"><tspan
           sodipodi:role="line"
           id="tspan1857"
           x="575.04999"
           y="434.39029">Iggy</tspan></text></g></g><g
     inkscape:groupmode="layer"
     id="layer12"
     inkscape:label="Jinx"
     transform="translate(-33.788488,-76.627867)" /><g
     inkscape:groupmode="layer"
     id="layer13"
     inkscape:label="Kit"
     transform="translate(-33.788488,-76.627867)"><g
       id="g2028"
       transform="translate(-35.609153,1.5354059)"><path
         style="fill:#050505;stroke:none;stroke-width:3.77953"
         d="m 344,294 c 3.077,-5.262 12.814,-7.554 9.434,0.997 C 350.137,303.339 341.373,303 334,303 c -12.332,0 -27.433,-0.194 -38,7 l -2,-17 c -12.501,6.218 -16.533,6.392 -30,4 0.497,23.333 17.309,43.54 21.997,66 1.476,7.074 3.245,12.179 0.516,18.981 -0.666,1.659 -1.109,3.451 0.824,4.411 9.983,4.959 8.66,-20.335 8.663,-25.392 h 1 c 1.141,6.144 -2.196,21.914 1.067,26.396 2.351,3.228 7.49,0.743 8.191,-2.505 C 308.339,375.247 308,362.016 308,352 c 8.787,0 25.793,-2.215 24.229,12 -0.402,3.653 -8.344,9.314 -6.143,12.411 4.915,6.915 12.393,-8.636 13.914,-11.411 l -5,14 c 9.745,-0.236 12.288,-7.121 12.91,-16 0.855,-12.196 3.47,-23.042 4.906,-35 0.586,-4.885 -0.69,-10.214 0.502,-15 2.366,-9.497 12.454,-13.662 8.119,-24.999 C 355.522,272.533 333.784,283.957 344,294"
         transform="matrix(0.26458333,0,0,0.26458333,19.708702,90.786966)"
         id="path1823" /><text
         xml:space="preserve"
         style="font-style:normal;font-variant:normal;font-weight:normal;font-stretch:normal;font-size:26.6667px;font-family:Arial;-inkscape-font-specification:'Arial, Normal';font-variant-ligatures:normal;font-variant-caps:normal;font-variant-numeric:normal;font-variant-east-asian:normal;fill:#000000;fill-opacity:1;fill-rule:evenodd;stroke:#000000;stroke-width:1;stroke-linecap:square;stroke-miterlimit:0;stroke-dasharray:none;stroke-opacity:1"
         x="343.37518"
         y="613.66248"
         id="text1871"
         transform="matrix(0.26458333,0,0,0.26458333,1.4594595,4.0135136)"><tspan
           sodipodi:role="line"
           id="tspan1869"
           x="343.37518"
           y="613.66248">Kit</tspan></text></g></g><g
     inkscape:groupmode="layer"
     id="layer14"
     inkscape:label="Leo"
     transform="translate(-33.788488,-76.627867)"><g
       id="g1991"
       transform="translate(-26.608283,-0.73786465)"><path
         style="fill:#050505;stroke:none;stroke-width:3.77953"
         d="m 299,207 7,12 c -8.893,0.025 -28.585,1.268 -30.566,12 -1.165,6.307 3.732,14.981 5.566,21 4.582,-2.817 5.759,-6.801 6,-12 h 1 c 1.914,9.092 5.654,5.493 11.941,9.742 3.721,2.514 3.552,7.744 7.287,9.939 6.496,3.818 10.368,-2.408 15.862,-3.912 3.981,-1.091 9.72,0.231 13.91,0.231 l -1.478,-9 7.688,-13 1.183,-11 L 351,210 319,211.711 299,207"
         transform="matrix(0.26458333,0,0,0.26458333,76.992486,119.24643)"
         id="path1819" /><text
         xml:space="preserve"
         style="font-style:normal;font-variant:normal;font-weight:normal;font-stretch:normal;font-size:26.6667px;font-family:Arial;-inkscape-font-specification:'Arial, Normal';font-variant-ligatures:normal;font-variant-caps:normal;font-variant-numeric:normal;font-variant-east-asian:normal;fill:#000000;fill-opacity:1;fill-rule:evenodd;stroke:#000000;stroke-width:1;stroke-linecap:square;stroke-miterlimit:0;stroke-dasharray:none;stroke-opacity:1"
         x="566.77594"
         y="639.86377"
         id="text1867"
         transform="matrix(0.26458333,0,0,0.26458333,17.878378,15.689189)"><tspan
           sodipodi:role="line"
           id="tspan1865"
           x="566.77594"
           y="639.86377">Leo</tspan></text></g></g><g
     inkscape:groupmode="layer"
     id="layer1"
     inkscape:label="Arrows"
     transform="translate(-33.788488,-76.627867)"><path
       style="display:inline;fill:none;fill-rule:evenodd;stroke:#000000;stroke-width:3.56487;stroke-linecap:square;stroke-miterlimit:0;stroke-dasharray:none;marker-end:url(#marker7180)"
       id="path7037"
       transform="matrix(0.364105,0,0,0.24206513,-42.027101,31.334732)"
       sodipodi:type="arc"
       sodipodi:cx="389.06973"
       sodipodi:cy="466.10361"
       sodipodi:rx="135.54059"
       sodipodi:ry="204.77354"
       sodipodi:start="3.8613069"
       sodipodi:end="4.3656614"
       sodipodi:open="true"
       sodipodi:arc-type="arc"
       d="m 287.14401,331.12307 a 135.54059,204.77354 0 0 1 55.86605,-57.60689" /><path
       style="display:inline;fill:none;fill-rule:evenodd;stroke:#000000;stroke-width:3.56487;stroke-linecap:square;stroke-miterlimit:0;stroke-dasharray:none;marker-end:url(#marker7180)"
       id="path7037-0"
       transform="matrix(0.364105,0,0,0.24206513,-42.027101,31.334732)"
       sodipodi:type="arc"
       sodipodi:cx="389.06973"
       sodipodi:cy="466.10361"
       sodipodi:rx="135.54059"
       sodipodi:ry="204.77354"
       sodipodi:start="2.8361546"
       sodipodi:end="3.1675458"
       sodipodi:open="true"
       sodipodi:arc-type="arc"
       d="m 259.8026,527.68126 a 135.54059,204.77354 0 0 1 -6.22781,-66.89157" /><path
       style="display:inline;fill:none;fill-rule:evenodd;stroke:#000000;stroke-width:3.56487;stroke-linecap:square;stroke-miterlimit:0;stroke-dasharray:none;marker-end:url(#marker7180)"
       id="path7037-09"
       transform="matrix(0.364105,0,0,0.24206513,-42.027101,31.334732)"
       sodipodi:type="arc"
       sodipodi:cx="389.06973"
       sodipodi:cy="466.10361"
       sodipodi:rx="135.54059"
       sodipodi:ry="204.77354"
       sodipodi:start="1.1185602"
       sodipodi:end="1.954641"
       sodipodi:arc-type="arc"
       d="m 448.29798,650.29172 a 135.54059,204.77354 0 0 1 -109.98659,5.68441"
       sodipodi:open="true" /><path
       style="fill:none;fill-rule:evenodd;stroke:#000000;stroke-width:3.56487;stroke-linecap:square;stroke-miterlimit:0;stroke-dasharray:none;marker-end:url(#marker7180)"
       id="path7037-1"
       transform="matrix(0.364105,0,0,0.24206513,-42.027101,31.334732)"
       sodipodi:type="arc"
       sodipodi:cx="389.06973"
       sodipodi:cy="466.10361"
       sodipodi:rx="135.54059"
       sodipodi:ry="204.77354"
       sodipodi:start="0"
       sodipodi:end="0.5137003"
       sodipodi:open="true"
       sodipodi:arc-type="arc"
       d="m 524.61032,466.10361 a 135.54059,204.77354 0 0 1 -17.49393,100.6264" /><path
       style="fill:none;fill-rule:evenodd;stroke:#000000;stroke-width:3.56487;stroke-linecap:square;stroke-miterlimit:0;stroke-dasharray:none;marker-end:url(#marker7180)"
       id="path7037-5"
       transform="matrix(0.364105,0,0,0.24206513,-42.027101,31.334732)"
       sodipodi:type="arc"
       sodipodi:cx="389.06973"
       sodipodi:cy="466.10361"
       sodipodi:rx="135.54059"
       sodipodi:ry="204.77354"
       sodipodi:start="4.9195121"
       sodipodi:end="5.5860445"
       sodipodi:arc-type="arc"
       d="m 416.94303,265.70677 a 135.54059,204.77354 0 0 1 76.0431,68.92644"
       sodipodi:open="true" /></g></svg>
