<?xml version="1.0" encoding="UTF-8" standalone="no"?>
<!-- Created with Inkscape (http://www.inkscape.org/) -->

<svg
   width="150mm"
   height="150mm"
   viewBox="0 0 150 150"
   version="1.1"
   id="svg5"
   inkscape:version="1.2.2 (732a01da63, 2022-12-09)"
   sodipodi:docname="anti-symmetric-digraph-fat-cats.svg"
   xml:space="preserve"
   xmlns:inkscape="http://www.inkscape.org/namespaces/inkscape"
   xmlns:sodipodi="http://sodipodi.sourceforge.net/DTD/sodipodi-0.dtd"
   xmlns="http://www.w3.org/2000/svg"
   xmlns:svg="http://www.w3.org/2000/svg"><sodipodi:namedview
     id="namedview7"
     pagecolor="#ffffff"
     bordercolor="#111111"
     borderopacity="1"
     inkscape:showpageshadow="0"
     inkscape:pageopacity="0"
     inkscape:pagecheckerboard="1"
     inkscape:deskcolor="#d1d1d1"
     inkscape:document-units="mm"
     showgrid="false"
     inkscape:zoom="1.0255231"
     inkscape:cx="159.91839"
     inkscape:cy="353.47815"
     inkscape:window-width="1920"
     inkscape:window-height="1001"
     inkscape:window-x="-9"
     inkscape:window-y="-9"
     inkscape:window-maximized="1"
     inkscape:current-layer="svg5" /><defs
     id="defs2"><marker
       style="overflow:visible"
       id="marker9521"
       refX="0"
       refY="0"
       orient="auto-start-reverse"
       inkscape:stockid="TriangleStart"
       markerWidth="5.3244081"
       markerHeight="6.155385"
       viewBox="0 0 5.3244081 6.1553851"
       inkscape:isstock="true"
       inkscape:collect="always"
       preserveAspectRatio="xMidYMid"><path
         transform="scale(0.5)"
         style="fill:context-stroke;fill-rule:evenodd;stroke:context-stroke;stroke-width:1pt"
         d="M 5.77,0 -2.88,5 V -5 Z"
         id="path9519" /></marker><marker
       style="overflow:visible"
       id="marker9475"
       refX="0"
       refY="0"
       orient="auto-start-reverse"
       inkscape:stockid="TriangleStart"
       markerWidth="5.3244081"
       markerHeight="6.155385"
       viewBox="0 0 5.3244081 6.1553851"
       inkscape:isstock="true"
       inkscape:collect="always"
       preserveAspectRatio="xMidYMid"><path
         transform="scale(0.5)"
         style="fill:context-stroke;fill-rule:evenodd;stroke:context-stroke;stroke-width:1pt"
         d="M 5.77,0 -2.88,5 V -5 Z"
         id="path9473" /></marker><marker
       style="overflow:visible"
       id="TriangleStart"
       refX="0"
       refY="0"
       orient="auto-start-reverse"
       inkscape:stockid="TriangleStart"
       markerWidth="5.3244081"
       markerHeight="6.155385"
       viewBox="0 0 5.3244081 6.1553851"
       inkscape:isstock="true"
       inkscape:collect="always"
       preserveAspectRatio="xMidYMid"><path
         transform="scale(0.5)"
         style="fill:context-stroke;fill-rule:evenodd;stroke:context-stroke;stroke-width:1pt"
         d="M 5.77,0 -2.88,5 V -5 Z"
         id="path135" /></marker></defs><rect
     style="font-variation-settings:normal;opacity:1;vector-effect:none;fill:#ffffff;fill-opacity:1;fill-rule:evenodd;stroke:#000000;stroke-width:3.84688;stroke-linecap:square;stroke-linejoin:miter;stroke-miterlimit:0;stroke-dasharray:none;stroke-dashoffset:0;stroke-opacity:1;-inkscape-stroke:none;stop-color:#000000;stop-opacity:1"
     id="rect10400"
     width="601.64417"
     height="546.06281"
     x="-50.70583"
     y="-25.352915"
     transform="matrix(0.24773281,0,0,0.27277206,13.037997,7.4402275)"
     rx="2.2092245"
     ry="2.006428"
     inkscape:label="Background"
     sodipodi:insensitive="true" /><g
     inkscape:groupmode="layer"
     id="layer8"
     inkscape:label="Felix"
     transform="translate(-19.966983,-30.613951)"><g
       id="g1726"
       transform="translate(-108.45861,29.578142)"><path
         style="fill:#050505;stroke:none;stroke-width:3.77953"
         d="m 228,132 c 13.531,4.282 15.794,17 31,17 l -14,14 c -1.617,-1.291 -3.038,-2.576 -5.025,-3.282 -19.203,-6.816 -8.362,27.486 3.283,12.159 1.149,-1.513 1.379,-3.085 1.742,-4.877 6.184,2.327 10,-0.975 16,-2.045 7.52,-1.341 17.184,-1.318 25,-1.865 15.109,-1.06 28.331,4.514 43,3.871 8.298,-0.364 14.479,-2.479 17,-10.961 5.02,3.321 9.353,8.425 15,10.656 11.106,4.387 26.271,2.344 38,2.344 -2.904,-9.202 -27.624,-7.478 -35.999,-12.363 C 352.719,150.639 349.61,137.47 340.829,129.819 321.661,113.118 295.688,120.974 275,129 c -9.67,-18.638 -36.854,-12.818 -47,3"
         transform="matrix(0.26458333,0,0,0.26458333,75.566548,39.149853)"
         id="path325" /><text
         xml:space="preserve"
         style="font-style:normal;font-variant:normal;font-weight:normal;font-stretch:normal;font-size:26.6667px;font-family:Arial;-inkscape-font-specification:'Arial, Normal';font-variant-ligatures:normal;font-variant-caps:normal;font-variant-numeric:normal;font-variant-east-asian:normal;fill:#000000;fill-opacity:1;fill-rule:evenodd;stroke:#000000;stroke-width:1;stroke-linecap:square;stroke-miterlimit:0;stroke-dasharray:none;stroke-opacity:1"
         x="561.66461"
         y="280.83231"
         id="text1631"
         transform="matrix(0.26458333,0,0,0.26458333,9.9782589,-4.7547768)"><tspan
           sodipodi:role="line"
           id="tspan1629"
           x="561.66461"
           y="280.83231">Felix</tspan></text></g></g><g
     inkscape:groupmode="layer"
     id="layer12"
     inkscape:label="Jinx"
     transform="translate(-19.966983,-30.613951)"><g
       id="g1980"
       transform="translate(53.531259,-27.456543)"><path
         style="fill:#050505;stroke:none;stroke-width:3.77953"
         d="m 161,296 c -2.445,12.529 4.009,23.351 4.956,35 0.917,11.276 -4.734,24.287 -9.786,34 -1.827,3.513 -2.126,10.751 -5.487,12.972 C 144.531,382.038 133.91,375.507 127,377 v 2 c 8.483,4.828 16.756,5.311 26,7.386 11.522,2.586 19.815,6.491 31.576,4.892 4.184,-0.569 9.916,4.405 13.816,1.504 3.222,-2.398 -2.314,-11.18 -2.387,-14.782 -0.248,-12.171 -1.798,-25.001 -3.759,-37 -0.946,-5.79 -3.969,-12.123 -2.714,-18 1.19,-5.569 7.821,-17.136 2.53,-22.342 -3.533,-3.476 -9.901,5.546 -14.063,5.617 C 169.787,306.416 167.698,299.132 161,296"
         transform="matrix(0.26458333,0,0,0.26458333,-2.9129196,89.692371)"
         id="path1827" /><text
         xml:space="preserve"
         style="font-style:normal;font-variant:normal;font-weight:normal;font-stretch:normal;font-size:26.6667px;font-family:Arial;-inkscape-font-specification:'Arial, Normal';font-variant-ligatures:normal;font-variant-caps:normal;font-variant-numeric:normal;font-variant-east-asian:normal;fill:#000000;fill-opacity:1;fill-rule:evenodd;stroke:#000000;stroke-width:1;stroke-linecap:square;stroke-miterlimit:0;stroke-dasharray:none;stroke-opacity:1"
         x="119.97446"
         y="630.21069"
         id="text1863"
         transform="scale(0.26458333)"><tspan
           sodipodi:role="line"
           id="tspan1861"
           x="119.97446"
           y="630.21069">Jinx</tspan></text></g></g><g
     inkscape:groupmode="layer"
     id="layer13"
     inkscape:label="Kit"
     transform="translate(-19.966983,-30.613951)"><g
       id="g2028"
       transform="translate(-8.7921245,-119.68013)"><path
         style="fill:#050505;stroke:none;stroke-width:3.77953"
         d="m 344,294 c 3.077,-5.262 12.814,-7.554 9.434,0.997 C 350.137,303.339 341.373,303 334,303 c -12.332,0 -27.433,-0.194 -38,7 l -2,-17 c -12.501,6.218 -16.533,6.392 -30,4 0.497,23.333 17.309,43.54 21.997,66 1.476,7.074 3.245,12.179 0.516,18.981 -0.666,1.659 -1.109,3.451 0.824,4.411 9.983,4.959 8.66,-20.335 8.663,-25.392 h 1 c 1.141,6.144 -2.196,21.914 1.067,26.396 2.351,3.228 7.49,0.743 8.191,-2.505 C 308.339,375.247 308,362.016 308,352 c 8.787,0 25.793,-2.215 24.229,12 -0.402,3.653 -8.344,9.314 -6.143,12.411 4.915,6.915 12.393,-8.636 13.914,-11.411 l -5,14 c 9.745,-0.236 12.288,-7.121 12.91,-16 0.855,-12.196 3.47,-23.042 4.906,-35 0.586,-4.885 -0.69,-10.214 0.502,-15 2.366,-9.497 12.454,-13.662 8.119,-24.999 C 355.522,272.533 333.784,283.957 344,294"
         transform="matrix(0.26458333,0,0,0.26458333,19.708702,90.786966)"
         id="path1823" /><text
         xml:space="preserve"
         style="font-style:normal;font-variant:normal;font-weight:normal;font-stretch:normal;font-size:26.6667px;font-family:Arial;-inkscape-font-specification:'Arial, Normal';font-variant-ligatures:normal;font-variant-caps:normal;font-variant-numeric:normal;font-variant-east-asian:normal;fill:#000000;fill-opacity:1;fill-rule:evenodd;stroke:#000000;stroke-width:1;stroke-linecap:square;stroke-miterlimit:0;stroke-dasharray:none;stroke-opacity:1"
         x="343.37518"
         y="613.66248"
         id="text1871"
         transform="matrix(0.26458333,0,0,0.26458333,11.779396,35.489321)"><tspan
           sodipodi:role="line"
           id="tspan1869"
           x="343.37518"
           y="613.66248">Kit</tspan></text></g></g><g
     inkscape:groupmode="layer"
     id="layer14"
     inkscape:label="Leo"
     transform="translate(-19.966983,-30.613951)"><g
       id="g1991"
       transform="translate(-19.725487,-73.625509)"><path
         style="fill:#050505;stroke:none;stroke-width:3.77953"
         d="m 299,207 7,12 c -8.893,0.025 -28.585,1.268 -30.566,12 -1.165,6.307 3.732,14.981 5.566,21 4.582,-2.817 5.759,-6.801 6,-12 h 1 c 1.914,9.092 5.654,5.493 11.941,9.742 3.721,2.514 3.552,7.744 7.287,9.939 6.496,3.818 10.368,-2.408 15.862,-3.912 3.981,-1.091 9.72,0.231 13.91,0.231 l -1.478,-9 7.688,-13 1.183,-11 L 351,210 319,211.711 299,207"
         transform="matrix(0.26458333,0,0,0.26458333,76.992486,119.24643)"
         id="path1819" /><text
         xml:space="preserve"
         style="font-style:normal;font-variant:normal;font-weight:normal;font-stretch:normal;font-size:26.6667px;font-family:Arial;-inkscape-font-specification:'Arial, Normal';font-variant-ligatures:normal;font-variant-caps:normal;font-variant-numeric:normal;font-variant-east-asian:normal;fill:#000000;fill-opacity:1;fill-rule:evenodd;stroke:#000000;stroke-width:1;stroke-linecap:square;stroke-miterlimit:0;stroke-dasharray:none;stroke-opacity:1"
         x="566.77594"
         y="639.86377"
         id="text1867"
         transform="matrix(0.26458333,0,0,0.26458333,-8.4374609,4.3372585)"><tspan
           sodipodi:role="line"
           id="tspan1865"
           x="566.77594"
           y="639.86377">Leo</tspan></text></g></g><g
     inkscape:groupmode="layer"
     id="layer3"
     inkscape:label="Arrows"
     transform="translate(-19.966983,-30.613951)"><path
       style="display:inline;fill:none;fill-rule:evenodd;stroke:#000000;stroke-width:3.60648;stroke-linecap:square;stroke-miterlimit:0;marker-end:url(#marker9521)"
       id="path8973-1"
       transform="matrix(0.29167733,0,0,0.29523994,-0.97352341,-99.549166)"
       sodipodi:type="arc"
       sodipodi:cx="324.06894"
       sodipodi:cy="701.23004"
       sodipodi:rx="169.61906"
       sodipodi:ry="167.55054"
       sodipodi:start="3.5308475"
       sodipodi:end="4.2708312"
       sodipodi:open="true"
       sodipodi:arc-type="arc"
       d="m 167.13872,637.64476 a 169.61906,167.55054 0 0 1 84.44379,-87.89499" /><path
       style="display:inline;fill:none;fill-rule:evenodd;stroke:#000000;stroke-width:3.60648;stroke-linecap:square;stroke-miterlimit:0;marker-end:url(#marker9475)"
       id="path8973-9"
       transform="matrix(0.29167733,0,0,0.29523994,-0.97352341,-99.549166)"
       sodipodi:type="arc"
       sodipodi:cx="324.06894"
       sodipodi:cy="701.23004"
       sodipodi:rx="169.61906"
       sodipodi:ry="167.55054"
       sodipodi:start="1.8597132"
       sodipodi:end="2.7516939"
       sodipodi:arc-type="arc"
       d="M 275.74207,861.83612 A 169.61906,167.55054 0 0 1 167.1802,764.91512"
       sodipodi:open="true" /><path
       style="display:inline;fill:none;fill-rule:evenodd;stroke:#000000;stroke-width:3.60648;stroke-linecap:square;stroke-miterlimit:0;marker-end:url(#TriangleStart)"
       id="path8973-3"
       transform="matrix(0.29167733,0,0,0.29523994,-0.97352341,-99.549166)"
       sodipodi:type="arc"
       sodipodi:cx="324.06894"
       sodipodi:cy="701.23004"
       sodipodi:rx="169.61906"
       sodipodi:ry="167.55054"
       sodipodi:start="0.29927927"
       sodipodi:end="1.1543741"
       sodipodi:open="true"
       sodipodi:arc-type="arc"
       d="M 486.14831,750.62923 A 169.61906,167.55054 0 0 1 392.67833,854.46204" /></g></svg>
