<?xml version="1.0" encoding="UTF-8" standalone="no"?>
<!-- Created with Inkscape (http://www.inkscape.org/) -->

<svg
   width="210mm"
   height="297mm"
   viewBox="0 0 210 297"
   version="1.1"
   id="svg5"
   inkscape:version="1.2.2 (732a01da63, 2022-12-09)"
   sodipodi:docname="cat-gang.svg"
   xml:space="preserve"
   xmlns:inkscape="http://www.inkscape.org/namespaces/inkscape"
   xmlns:sodipodi="http://sodipodi.sourceforge.net/DTD/sodipodi-0.dtd"
   xmlns="http://www.w3.org/2000/svg"
   xmlns:svg="http://www.w3.org/2000/svg"><sodipodi:namedview
     id="namedview7"
     pagecolor="#ffffff"
     bordercolor="#111111"
     borderopacity="1"
     inkscape:showpageshadow="0"
     inkscape:pageopacity="0"
     inkscape:pagecheckerboard="1"
     inkscape:deskcolor="#d1d1d1"
     inkscape:document-units="mm"
     showgrid="false"
     inkscape:zoom="0.72515432"
     inkscape:cx="102.73675"
     inkscape:cy="504.03065"
     inkscape:window-width="1920"
     inkscape:window-height="1001"
     inkscape:window-x="-9"
     inkscape:window-y="-9"
     inkscape:window-maximized="1"
     inkscape:current-layer="layer5" /><defs
     id="defs2" /><g
     inkscape:groupmode="layer"
     id="layer3"
     inkscape:label="Alice"><g
       id="g1711"
       transform="translate(-6.707959,8.7719461)"><path
         style="fill:#050505;stroke:none;stroke-width:3.77953"
         d="m 9,14 5,-7 c 9.8135,7.41 4.8631,18.8131 4.0941,29 -0.474,6.2801 3.1569,10.2433 3.8642,16 0.4463,3.6314 -2.6651,6.4056 -2.601,10 C 19.522,71.251 31.8833,78.1421 40,76 38.4576,72.9346 33.6815,69.645 34.037,65.9969 34.817,57.993 49.5599,57.1651 54.9568,60.0278 65.2159,65.4695 61.0765,80.8355 75,81 L 77.4244,58.5756 86.2392,41 90,6 C 80.4801,9.45801 76.7774,9.7886 67,7 65.5589,12.2412 68.1589,17.9963 64.9105,22.8526 59.4797,30.9714 36.6073,26 28,26 27.8731,19.8513 27.4166,11.1709 23.348,6.21375 15.5506,-3.28665 9.02452,5.45389 9,14"
         transform="matrix(0.26458333,0,0,0.26458333,42.284752,20.05797)"
         id="path315" /><text
         xml:space="preserve"
         style="font-style:normal;font-variant:normal;font-weight:normal;font-stretch:normal;font-size:26.6667px;font-family:Arial;-inkscape-font-specification:'Arial, Normal';font-variant-ligatures:normal;font-variant-caps:normal;font-variant-numeric:normal;font-variant-east-asian:normal;fill:#000000;fill-opacity:1;fill-rule:evenodd;stroke:#000000;stroke-width:1;stroke-linecap:square;stroke-miterlimit:0;stroke-dasharray:none;stroke-opacity:1"
         x="169.66951"
         y="52.656055"
         id="text423"
         transform="matrix(0.26458333,0,0,0.26458333,4.3859731,6.4499605)"><tspan
           sodipodi:role="line"
           id="tspan421"
           x="169.66951"
           y="52.656055">Alice</tspan></text></g></g><g
     inkscape:groupmode="layer"
     id="layer4"
     inkscape:label="Boots"><g
       id="g1716"
       transform="translate(-5.9339639,1.2899921)"><path
         style="fill:#050505;stroke:none;stroke-width:3.77953"
         d="m 184,1 c -1.356,5.37973 3.585,12.0747 0.957,16.7863 -4.264,7.6445 -19.329,6.0213 -25.942,11.4884 -8.986,7.4282 -14.444,38.72 -28.801,22.6821 C 128.438,49.9737 126.912,47.6147 126.282,45 125.399,41.3294 126.794,37.7012 126,34 h -2 c -14.06,25.0994 28.924,39.456 47,33 -1.488,-6.2684 1.903,-9.5472 6,-14 l -1,17 h 7 c -1.24,-6.7016 -1.606,-15.3305 4,-20 1.823,7.8802 2.481,20.6883 12,21 -3.686,-14.8102 -4.732,-27.7377 -0.428,-43 2.696,-9.5616 7.34,-16.3947 7.428,-27 -10.851,7.51538 -11.154,3.9939 -22,0"
         transform="matrix(0.26458333,0,0,0.26458333,57.506658,24.95994)"
         id="path311" /><text
         xml:space="preserve"
         style="font-style:normal;font-variant:normal;font-weight:normal;font-stretch:normal;font-size:26.6667px;font-family:Arial;-inkscape-font-specification:'Arial, Normal';font-variant-ligatures:normal;font-variant-caps:normal;font-variant-numeric:normal;font-variant-east-asian:normal;fill:#000000;fill-opacity:1;fill-rule:evenodd;stroke:#000000;stroke-width:1;stroke-linecap:square;stroke-miterlimit:0;stroke-dasharray:none;stroke-opacity:1"
         x="353.9657"
         y="73.133408"
         id="text1565"
         transform="matrix(0.26458333,0,0,0.26458333,-4.4074818e-8,30.959811)"><tspan
           sodipodi:role="line"
           id="tspan1563"
           x="353.9657"
           y="73.133408">Boots</tspan></text></g></g><g
     inkscape:groupmode="layer"
     id="layer5"
     inkscape:label="Cleo"><g
       id="g1721"
       transform="translate(-1.0319936,3.6119779)"><path
         style="fill:#050505;stroke:none;stroke-width:3.77953"
         d="m 284,65 -5,4 c 4.97,1.1871 11.081,4.0826 16,4.3565 6.904,0.3844 13.875,-1.9263 21,-1.2523 8.505,0.8044 14.16,3.1217 23,1.6489 4.283,-0.7136 15.278,-1 17.647,-5.2662 C 358.785,64.637 354.28,58.1357 354.043,54 353.731,48.5427 354.894,42.758 351.486,38.0146 345.564,29.7732 331.206,22.8376 321,23.3758 315.863,23.6467 303.408,29.5859 299.694,24.6783 297.212,21.3984 299.989,13.0622 300,9 c -5.581,1.1492 -8.974,7.3841 -14.985,6.8079 -4.719,-0.4524 -7.26,-9.61311 -11.802,-7.63197 C 268.681,10.1526 269.02,18.989 269.001,23 c -0.048,9.9703 2.955,23.1003 7.456,31.9962 1.937,3.8285 5.615,6.1896 7.543,10.0038"
         transform="matrix(0.26458333,0,0,0.26458333,69.116587,23.41195)"
         id="path317" /><text
         xml:space="preserve"
         style="font-style:normal;font-variant:normal;font-weight:normal;font-stretch:normal;font-size:26.6667px;font-family:Arial;-inkscape-font-specification:'Arial, Normal';font-variant-ligatures:normal;font-variant-caps:normal;font-variant-numeric:normal;font-variant-east-asian:normal;fill:#000000;fill-opacity:1;fill-rule:evenodd;stroke:#000000;stroke-width:1;stroke-linecap:square;stroke-miterlimit:0;stroke-dasharray:none;stroke-opacity:1"
         x="476.82983"
         y="164.79395"
         id="text1569"
         transform="matrix(0.26458333,0,0,0.26458333,21.671867,-18.575886)"><tspan
           sodipodi:role="line"
           id="tspan1567"
           x="476.82983"
           y="164.79395">Cleo</tspan></text></g></g><g
     inkscape:groupmode="layer"
     id="layer6"
     inkscape:label="Duke"><g
       id="g1737"
       transform="translate(-7.7399526,8.5139474)"><path
         style="fill:#050505;stroke:none;stroke-width:3.77953"
         d="m 72,102 c -0.158,13.343 -17.3696,12.34 -11,28 -7.2639,-1.349 -14.8868,-1.908 -20.8148,3.39 C 33.7103,139.177 32.1277,148.117 24,152.583 16.6918,156.6 2.66134,157.114 1,167 c 15.8669,-3.94 30.543,-4.611 47,-1.532 7.0121,1.311 14.0371,7.506 20.9954,7.329 5.9601,-0.151 5.5251,-4.498 4.0046,-8.797 8.0095,-1.414 11.4731,4.654 18.9961,4.952 5.6311,0.223 7.914,-3.673 2.0039,-5.952 3.0628,-10.899 -0.1242,-16.693 -1.5664,-27 -0.9589,-6.853 1.3276,-14.104 -0.4336,-21 -8.9943,1.655 -13.9518,-6.169 -18,-13 h -2"
         transform="matrix(0.26458333,0,0,0.26458333,40.478763,39.923849)"
         id="path321" /><path
         style="fill:#050505;stroke:none;stroke-width:3.77953"
         d="m 71,65 v 5 h -1 l 1,-5"
         transform="matrix(0.26458333,0,0,0.26458333,45.638731,45.083817)"
         id="path319" /><text
         xml:space="preserve"
         style="font-style:normal;font-variant:normal;font-weight:normal;font-stretch:normal;font-size:26.6667px;font-family:Arial;-inkscape-font-specification:'Arial, Normal';font-variant-ligatures:normal;font-variant-caps:normal;font-variant-numeric:normal;font-variant-east-asian:normal;fill:#000000;fill-opacity:1;fill-rule:evenodd;stroke:#000000;stroke-width:1;stroke-linecap:square;stroke-miterlimit:0;stroke-dasharray:none;stroke-opacity:1"
         x="162.84373"
         y="267.18073"
         id="text1573"
         transform="matrix(0.26458333,0,0,0.26458333,-3.1796603,-0.11080518)"><tspan
           sodipodi:role="line"
           id="tspan1571"
           x="162.84373"
           y="267.18073">Duke</tspan></text></g></g><g
     inkscape:groupmode="layer"
     id="layer7"
     inkscape:label="Elvis"><g
       id="g1731"
       transform="translate(-2.3219858,2.3219856)"><path
         style="fill:#050505;stroke:none;stroke-width:3.77953"
         d="m 171,117 -0.457,18.852 -17.539,5.801 -11.217,11.758 L 114,157 v 2 c 8.897,2.63 18.832,0.208 28,1.105 4.549,0.445 8.498,2.99 13,3.749 10.864,1.832 22.019,1.146 33,1.146 7.274,0 21.09,1.801 24.392,-7.044 3.44,-9.215 -9.468,-7.305 -12.294,-13.011 -3.572,-7.212 -1.122,-21.312 0.902,-28.945 -11.978,2.127 -17.821,4.474 -30,1"
         transform="matrix(0.26458333,0,0,0.26458333,58.280654,41.729838)"
         id="path323" /><text
         xml:space="preserve"
         style="font-style:normal;font-variant:normal;font-weight:normal;font-stretch:normal;font-size:26.6667px;font-family:Arial;-inkscape-font-specification:'Arial, Normal';font-variant-ligatures:normal;font-variant-caps:normal;font-variant-numeric:normal;font-variant-east-asian:normal;fill:#000000;fill-opacity:1;fill-rule:evenodd;stroke:#000000;stroke-width:1;stroke-linecap:square;stroke-miterlimit:0;stroke-dasharray:none;stroke-opacity:1"
         x="371.51773"
         y="275.95673"
         id="text1577"
         transform="matrix(0.26458333,0,0,0.26458333,-17.369574,8.4031427)"><tspan
           sodipodi:role="line"
           id="tspan1575"
           x="371.51773"
           y="275.95673">Elvis</tspan></text></g></g><g
     inkscape:groupmode="layer"
     id="layer8"
     inkscape:label="Felix"><g
       id="g1726"
       transform="translate(6.4499609,4.6439722)"><path
         style="fill:#050505;stroke:none;stroke-width:3.77953"
         d="m 228,132 c 13.531,4.282 15.794,17 31,17 l -14,14 c -1.617,-1.291 -3.038,-2.576 -5.025,-3.282 -19.203,-6.816 -8.362,27.486 3.283,12.159 1.149,-1.513 1.379,-3.085 1.742,-4.877 6.184,2.327 10,-0.975 16,-2.045 7.52,-1.341 17.184,-1.318 25,-1.865 15.109,-1.06 28.331,4.514 43,3.871 8.298,-0.364 14.479,-2.479 17,-10.961 5.02,3.321 9.353,8.425 15,10.656 11.106,4.387 26.271,2.344 38,2.344 -2.904,-9.202 -27.624,-7.478 -35.999,-12.363 C 352.719,150.639 349.61,137.47 340.829,129.819 321.661,113.118 295.688,120.974 275,129 c -9.67,-18.638 -36.854,-12.818 -47,3"
         transform="matrix(0.26458333,0,0,0.26458333,75.566548,39.149853)"
         id="path325" /><text
         xml:space="preserve"
         style="font-style:normal;font-variant:normal;font-weight:normal;font-stretch:normal;font-size:26.6667px;font-family:Arial;-inkscape-font-specification:'Arial, Normal';font-variant-ligatures:normal;font-variant-caps:normal;font-variant-numeric:normal;font-variant-east-asian:normal;fill:#000000;fill-opacity:1;fill-rule:evenodd;stroke:#000000;stroke-width:1;stroke-linecap:square;stroke-miterlimit:0;stroke-dasharray:none;stroke-opacity:1"
         x="561.66461"
         y="280.83231"
         id="text1631"
         transform="matrix(0.26458333,0,0,0.26458333,-26.14152,6.3391553)"><tspan
           sodipodi:role="line"
           id="tspan1629"
           x="561.66461"
           y="280.83231">Felix</tspan></text></g></g><g
     inkscape:groupmode="layer"
     id="layer9"
     inkscape:label="Ginger"><g
       id="g1742"
       transform="translate(-13.415918,-4.9019701)"><path
         style="fill:#050505;stroke:none;stroke-width:3.77953"
         d="m 28,182 c -5.9931,14.203 4.0745,22.981 3.9414,36 -0.1457,14.25 -15.5369,32.66 -5.9414,46 -14.7376,5.323 21.5979,27.18 20,6 l 25,3 c -1.1503,-5.405 -4.9569,-6.801 -10,-8 3.1581,-5.155 0.7636,-14.055 4.4877,-17.951 3.2327,-3.382 12.3559,-0.061 13.0856,-4.281 1.8033,-10.429 -12.8206,-7.268 -15.9244,-12.916 -1.9998,-3.639 -7.0401,-12.87 -6.6481,-16.852 0.3849,-3.91 3.1059,-6.799 2.929,-11 -0.2439,-5.791 -3.16,-13.403 -4.9298,-19 -12.3906,8.334 -13.8055,3.144 -26,-1"
         transform="matrix(0.26458333,0,0,0.26458333,42.54275,71.915653)"
         id="path327" /><text
         xml:space="preserve"
         style="font-style:normal;font-variant:normal;font-weight:normal;font-stretch:normal;font-size:26.6667px;font-family:Arial;-inkscape-font-specification:'Arial, Normal';font-variant-ligatures:normal;font-variant-caps:normal;font-variant-numeric:normal;font-variant-east-asian:normal;fill:#000000;fill-opacity:1;fill-rule:evenodd;stroke:#000000;stroke-width:1;stroke-linecap:square;stroke-miterlimit:0;stroke-dasharray:none;stroke-opacity:1"
         x="352.9906"
         y="427.09912"
         id="text1635"
         transform="matrix(0.26458333,0,0,0.26458333,-38.525444,6.0811569)"><tspan
           sodipodi:role="line"
           id="tspan1633"
           x="352.9906"
           y="427.09912">Ginger</tspan></text></g></g><g
     inkscape:groupmode="layer"
     id="layer10"
     inkscape:label="Hops"><g
       id="g1747"
       transform="translate(-65.531598,-11.351931)"><path
         style="fill:#050505;stroke:none;stroke-width:3.77953"
         d="m 7,367 5,-9 c -5.48428,0.735 -12.947659,6.332 -8.97145,12.721 5.39749,8.674 20.80525,-0.948 27.68595,3.886 2.8725,2.018 7.5763,6.726 7.8951,10.393 0.3786,4.356 -3.9559,7.424 -0.8627,11.787 2.3577,3.325 20.6165,12.437 20.6173,3.368 C 58.3645,397.1 52.4891,394.776 51,392 c 5.3687,0 14.0391,2.166 18.9406,0.243 C 80.6336,388.048 63.2475,385.027 60,385 c 5.1867,-5.7 11.4855,-16.229 1,-20 l 6,-27 c 7.7862,0.124 7.0334,-11.947 11.419,-16.621 2.508,-2.673 7.885,-4.27 8.4066,-8.4 0.348,-2.755 -1.8088,-3.91 -3.8256,-4.979 2.8658,-4.682 12.4364,-13.186 13.0787,-17.985 0.6853,-5.12 -7.1533,-5.163 -9.9738,-3.269 C 80.6191,290.43 77.4574,300.097 75,306 c -6.1393,-7.605 -8.3788,-13.579 -7,-23 -9.4644,2.391 -22.5644,10.852 -24.5316,21 -1.1672,6.021 1.0509,12.112 -0.1636,18 -1.432,6.942 -5.7935,12.947 -7.4175,20 -1.4201,6.167 -1.0101,14.364 -4.0625,19.956 C 27.6907,369.53 14.0028,369.494 7,367"
         transform="matrix(0.26458333,0,0,0.26458333,147.54811,46.115811)"
         id="path337" /><text
         xml:space="preserve"
         style="font-style:normal;font-variant:normal;font-weight:normal;font-stretch:normal;font-size:26.6667px;font-family:Arial;-inkscape-font-specification:'Arial, Normal';font-variant-ligatures:normal;font-variant-caps:normal;font-variant-numeric:normal;font-variant-east-asian:normal;fill:#000000;fill-opacity:1;fill-rule:evenodd;stroke:#000000;stroke-width:1;stroke-linecap:square;stroke-miterlimit:0;stroke-dasharray:none;stroke-opacity:1"
         x="608.46997"
         y="448.55157"
         id="text1639"
         transform="matrix(0.26458333,0,0,0.26458333,6.3662811,18.72308)"><tspan
           sodipodi:role="line"
           id="tspan1637"
           x="608.46997"
           y="448.55157">Hops</tspan></text></g></g><g
     inkscape:groupmode="layer"
     id="layer11"
     inkscape:label="Iggy"><g
       id="g1996"><path
         style="fill:#050505;stroke:none;stroke-width:3.77953"
         d="m 183,191 c -14.329,9.095 -22.009,5.443 -37,1 l 5,34 -4,-4 -3.907,16 -0.093,24 h 7 l -1,-9 h 1 c 0.644,3.193 8.375,18.13 12.879,11.396 2.959,-4.426 -2.917,-8.751 2.121,-13.396 0.771,6.312 -2.081,15.435 8,13 -3.378,-9.916 1.913,-18.315 4.39,-28 2.305,-9.008 3.777,-19.735 4.784,-29 0.586,-5.4 3.042,-10.717 0.826,-16"
         transform="matrix(0.26458333,0,0,0.26458333,117.85735,65.976155)"
         id="path1817" /><text
         xml:space="preserve"
         style="font-style:normal;font-variant:normal;font-weight:normal;font-stretch:normal;font-size:26.6667px;font-family:Arial;-inkscape-font-specification:'Arial, Normal';font-variant-ligatures:normal;font-variant-caps:normal;font-variant-numeric:normal;font-variant-east-asian:normal;fill:#000000;fill-opacity:1;fill-rule:evenodd;stroke:#000000;stroke-width:1;stroke-linecap:square;stroke-miterlimit:0;stroke-dasharray:none;stroke-opacity:1"
         x="575.04999"
         y="434.39029"
         id="text1859"
         transform="scale(0.26458333)"><tspan
           sodipodi:role="line"
           id="tspan1857"
           x="575.04999"
           y="434.39029">Iggy</tspan></text></g></g><g
     inkscape:groupmode="layer"
     id="layer12"
     inkscape:label="Jinx"><g
       id="g1980"><path
         style="fill:#050505;stroke:none;stroke-width:3.77953"
         d="m 161,296 c -2.445,12.529 4.009,23.351 4.956,35 0.917,11.276 -4.734,24.287 -9.786,34 -1.827,3.513 -2.126,10.751 -5.487,12.972 C 144.531,382.038 133.91,375.507 127,377 v 2 c 8.483,4.828 16.756,5.311 26,7.386 11.522,2.586 19.815,6.491 31.576,4.892 4.184,-0.569 9.916,4.405 13.816,1.504 3.222,-2.398 -2.314,-11.18 -2.387,-14.782 -0.248,-12.171 -1.798,-25.001 -3.759,-37 -0.946,-5.79 -3.969,-12.123 -2.714,-18 1.19,-5.569 7.821,-17.136 2.53,-22.342 -3.533,-3.476 -9.901,5.546 -14.063,5.617 C 169.787,306.416 167.698,299.132 161,296"
         transform="matrix(0.26458333,0,0,0.26458333,-2.9129196,89.692371)"
         id="path1827" /><text
         xml:space="preserve"
         style="font-style:normal;font-variant:normal;font-weight:normal;font-stretch:normal;font-size:26.6667px;font-family:Arial;-inkscape-font-specification:'Arial, Normal';font-variant-ligatures:normal;font-variant-caps:normal;font-variant-numeric:normal;font-variant-east-asian:normal;fill:#000000;fill-opacity:1;fill-rule:evenodd;stroke:#000000;stroke-width:1;stroke-linecap:square;stroke-miterlimit:0;stroke-dasharray:none;stroke-opacity:1"
         x="119.97446"
         y="630.21069"
         id="text1863"
         transform="scale(0.26458333)"><tspan
           sodipodi:role="line"
           id="tspan1861"
           x="119.97446"
           y="630.21069">Jinx</tspan></text></g></g><g
     inkscape:groupmode="layer"
     id="layer13"
     inkscape:label="Kit"><g
       id="g2028"
       transform="translate(-0.36486487,0.7297297)"><path
         style="fill:#050505;stroke:none;stroke-width:3.77953"
         d="m 344,294 c 3.077,-5.262 12.814,-7.554 9.434,0.997 C 350.137,303.339 341.373,303 334,303 c -12.332,0 -27.433,-0.194 -38,7 l -2,-17 c -12.501,6.218 -16.533,6.392 -30,4 0.497,23.333 17.309,43.54 21.997,66 1.476,7.074 3.245,12.179 0.516,18.981 -0.666,1.659 -1.109,3.451 0.824,4.411 9.983,4.959 8.66,-20.335 8.663,-25.392 h 1 c 1.141,6.144 -2.196,21.914 1.067,26.396 2.351,3.228 7.49,0.743 8.191,-2.505 C 308.339,375.247 308,362.016 308,352 c 8.787,0 25.793,-2.215 24.229,12 -0.402,3.653 -8.344,9.314 -6.143,12.411 4.915,6.915 12.393,-8.636 13.914,-11.411 l -5,14 c 9.745,-0.236 12.288,-7.121 12.91,-16 0.855,-12.196 3.47,-23.042 4.906,-35 0.586,-4.885 -0.69,-10.214 0.502,-15 2.366,-9.497 12.454,-13.662 8.119,-24.999 C 355.522,272.533 333.784,283.957 344,294"
         transform="matrix(0.26458333,0,0,0.26458333,19.708702,90.786966)"
         id="path1823" /><text
         xml:space="preserve"
         style="font-style:normal;font-variant:normal;font-weight:normal;font-stretch:normal;font-size:26.6667px;font-family:Arial;-inkscape-font-specification:'Arial, Normal';font-variant-ligatures:normal;font-variant-caps:normal;font-variant-numeric:normal;font-variant-east-asian:normal;fill:#000000;fill-opacity:1;fill-rule:evenodd;stroke:#000000;stroke-width:1;stroke-linecap:square;stroke-miterlimit:0;stroke-dasharray:none;stroke-opacity:1"
         x="343.37518"
         y="613.66248"
         id="text1871"
         transform="matrix(0.26458333,0,0,0.26458333,1.4594595,4.0135136)"><tspan
           sodipodi:role="line"
           id="tspan1869"
           x="343.37518"
           y="613.66248">Kit</tspan></text></g></g><g
     inkscape:groupmode="layer"
     id="layer14"
     inkscape:label="Leo"><g
       id="g1991"><path
         style="fill:#050505;stroke:none;stroke-width:3.77953"
         d="m 299,207 7,12 c -8.893,0.025 -28.585,1.268 -30.566,12 -1.165,6.307 3.732,14.981 5.566,21 4.582,-2.817 5.759,-6.801 6,-12 h 1 c 1.914,9.092 5.654,5.493 11.941,9.742 3.721,2.514 3.552,7.744 7.287,9.939 6.496,3.818 10.368,-2.408 15.862,-3.912 3.981,-1.091 9.72,0.231 13.91,0.231 l -1.478,-9 7.688,-13 1.183,-11 L 351,210 319,211.711 299,207"
         transform="matrix(0.26458333,0,0,0.26458333,76.992486,119.24643)"
         id="path1819" /><text
         xml:space="preserve"
         style="font-style:normal;font-variant:normal;font-weight:normal;font-stretch:normal;font-size:26.6667px;font-family:Arial;-inkscape-font-specification:'Arial, Normal';font-variant-ligatures:normal;font-variant-caps:normal;font-variant-numeric:normal;font-variant-east-asian:normal;fill:#000000;fill-opacity:1;fill-rule:evenodd;stroke:#000000;stroke-width:1;stroke-linecap:square;stroke-miterlimit:0;stroke-dasharray:none;stroke-opacity:1"
         x="566.77594"
         y="639.86377"
         id="text1867"
         transform="matrix(0.26458333,0,0,0.26458333,17.878378,15.689189)"><tspan
           sodipodi:role="line"
           id="tspan1865"
           x="566.77594"
           y="639.86377">Leo</tspan></text></g></g></svg>
