<?xml version="1.0" encoding="UTF-8" standalone="no"?>
<!-- Created with Inkscape (http://www.inkscape.org/) -->

<svg
   width="111.46848mm"
   height="47.484879mm"
   viewBox="0 0 111.46848 47.484879"
   version="1.1"
   id="svg5"
   inkscape:version="1.2.2 (732a01da63, 2022-12-09)"
   sodipodi:docname="digraph-non-transitive-trick-question.svg"
   xml:space="preserve"
   xmlns:inkscape="http://www.inkscape.org/namespaces/inkscape"
   xmlns:sodipodi="http://sodipodi.sourceforge.net/DTD/sodipodi-0.dtd"
   xmlns="http://www.w3.org/2000/svg"
   xmlns:svg="http://www.w3.org/2000/svg"><sodipodi:namedview
     id="namedview7"
     pagecolor="#ffffff"
     bordercolor="#111111"
     borderopacity="1"
     inkscape:showpageshadow="0"
     inkscape:pageopacity="0"
     inkscape:pagecheckerboard="1"
     inkscape:deskcolor="#d1d1d1"
     inkscape:document-units="mm"
     showgrid="false"
     inkscape:zoom="1.0255231"
     inkscape:cx="224.27579"
     inkscape:cy="144.80415"
     inkscape:window-width="1920"
     inkscape:window-height="1001"
     inkscape:window-x="-9"
     inkscape:window-y="-9"
     inkscape:window-maximized="1"
     inkscape:current-layer="layer4" /><defs
     id="defs2"><marker
       style="overflow:visible"
       id="TriangleStart"
       refX="0"
       refY="0"
       orient="auto-start-reverse"
       inkscape:stockid="TriangleStart"
       markerWidth="5.3244081"
       markerHeight="6.155385"
       viewBox="0 0 5.3244081 6.1553851"
       inkscape:isstock="true"
       inkscape:collect="always"
       preserveAspectRatio="xMidYMid"><path
         transform="scale(0.5)"
         style="fill:context-stroke;fill-rule:evenodd;stroke:context-stroke;stroke-width:1pt"
         d="M 5.77,0 -2.88,5 V -5 Z"
         id="path135" /></marker><inkscape:path-effect
       effect="bspline"
       id="path-effect5542"
       is_visible="true"
       lpeversion="1"
       weight="33.333333"
       steps="2"
       helper_size="0"
       apply_no_weight="true"
       apply_with_weight="true"
       only_selected="false" /><inkscape:path-effect
       effect="bspline"
       id="path-effect5542-2"
       is_visible="true"
       lpeversion="1"
       weight="33.333333"
       steps="2"
       helper_size="0"
       apply_no_weight="true"
       apply_with_weight="true"
       only_selected="false" /></defs><g
     inkscape:groupmode="layer"
     id="layer4"
     inkscape:label="Background"
     transform="translate(-47.981119,-68.878996)"
     sodipodi:insensitive="true"><rect
       style="font-variation-settings:normal;opacity:1;fill:#ffffff;fill-opacity:1;fill-rule:evenodd;stroke:#000000;stroke-width:2;stroke-linecap:square;stroke-linejoin:miter;stroke-miterlimit:0;stroke-dasharray:none;stroke-dashoffset:0;stroke-opacity:1;stop-color:#000000;stop-opacity:1"
       id="rect6816"
       width="419.29822"
       height="177.47041"
       x="185.2713"
       y="264.2554"
       transform="matrix(0.26458333,0,0,0.26458333,-0.77399526,-0.77399526)"
       rx="2.0685256"
       ry="2.068526"
       sodipodi:insensitive="true" /></g><g
     inkscape:groupmode="layer"
     id="layer2"
     inkscape:label="Diagram"
     transform="translate(-47.981119,-68.878996)"><g
       inkscape:groupmode="layer"
       id="layer3"
       inkscape:label="Alice"><g
         id="g1711"
         transform="translate(12.147725,61.794852)"><path
           style="fill:#050505;stroke:none;stroke-width:3.77953"
           d="m 9,14 5,-7 c 9.8135,7.41 4.8631,18.8131 4.0941,29 -0.474,6.2801 3.1569,10.2433 3.8642,16 0.4463,3.6314 -2.6651,6.4056 -2.601,10 C 19.522,71.251 31.8833,78.1421 40,76 38.4576,72.9346 33.6815,69.645 34.037,65.9969 34.817,57.993 49.5599,57.1651 54.9568,60.0278 65.2159,65.4695 61.0765,80.8355 75,81 L 77.4244,58.5756 86.2392,41 90,6 C 80.4801,9.45801 76.7774,9.7886 67,7 65.5589,12.2412 68.1589,17.9963 64.9105,22.8526 59.4797,30.9714 36.6073,26 28,26 27.8731,19.8513 27.4166,11.1709 23.348,6.21375 15.5506,-3.28665 9.02452,5.45389 9,14"
           transform="matrix(0.26458333,0,0,0.26458333,42.284752,20.05797)"
           id="path315" /><text
           xml:space="preserve"
           style="font-style:normal;font-variant:normal;font-weight:normal;font-stretch:normal;font-size:26.6667px;font-family:Arial;-inkscape-font-specification:'Arial, Normal';font-variant-ligatures:normal;font-variant-caps:normal;font-variant-numeric:normal;font-variant-east-asian:normal;fill:#000000;fill-opacity:1;fill-rule:evenodd;stroke:#000000;stroke-width:1;stroke-linecap:square;stroke-miterlimit:0;stroke-dasharray:none;stroke-opacity:1"
           x="169.66951"
           y="52.656055"
           id="text423"
           transform="matrix(0.26458333,0,0,0.26458333,0.19002715,32.355366)"><tspan
             sodipodi:role="line"
             id="tspan421"
             x="169.66951"
             y="52.656055">Alice</tspan></text></g><path
         style="fill:none;fill-rule:evenodd;stroke:#000000;stroke-width:3;stroke-linecap:square;stroke-miterlimit:0;stroke-dasharray:none;marker-end:url(#TriangleStart)"
         d="m 317.86338,373.71355 c 21.95005,7.35516 43.89965,14.71016 65.84945,14.70986 21.9498,-3e-4 43.8974,-7.3548 65.84665,-14.70986"
         id="path5540"
         transform="matrix(0.26458333,0,0,0.26458333,1.7331084,-3.2837838)"
         inkscape:path-effect="#path-effect5542"
         inkscape:original-d="m 317.86338,373.71355 c 21.94985,7.35576 43.89945,14.71076 65.8488,22.06502 21.95085,-7.35426 43.89845,-14.70876 65.8473,-22.06502"
         sodipodi:nodetypes="ccc" /><path
         style="fill:none;fill-rule:evenodd;stroke:#000000;stroke-width:3;stroke-linecap:square;stroke-miterlimit:0;stroke-dasharray:none;marker-start:url(#TriangleStart)"
         d="m 317.86338,373.71355 c 21.95005,7.35516 43.89965,14.71016 65.84945,14.70986 21.9498,-3e-4 43.8974,-7.3548 65.84665,-14.70986"
         id="path5540-9"
         transform="matrix(0.26458333,0,0,-0.26458333,1.7331084,188.72163)"
         inkscape:path-effect="#path-effect5542-2"
         inkscape:original-d="m 317.86338,373.71355 c 21.94985,7.35576 43.89945,14.71076 65.8488,22.06502 21.95085,-7.35426 43.89845,-14.70876 65.8473,-22.06502"
         sodipodi:nodetypes="ccc" /><path
         style="fill:none;fill-rule:evenodd;stroke:#000000;stroke-width:4.18143;stroke-linecap:square;stroke-miterlimit:0;stroke-dasharray:none;marker-start:url(#TriangleStart)"
         id="path5570"
         transform="matrix(0.18427972,0,0,0.19554222,30.506521,17.679115)"
         sodipodi:type="arc"
         sodipodi:cx="243.96628"
         sodipodi:cy="339.29346"
         sodipodi:rx="39.301979"
         sodipodi:ry="36.888699"
         sodipodi:start="2.751143"
         sodipodi:end="1.1704852"
         sodipodi:arc-type="arc"
         d="m 207.62224,353.33345 a 39.301979,36.888699 0 0 1 21.26615,-48.10604 39.301979,36.888699 0 0 1 51.3228,19.80209 39.301979,36.888699 0 0 1 -20.92874,48.23623"
         sodipodi:open="true" /></g><g
       inkscape:groupmode="layer"
       id="layer6"
       inkscape:label="Duke"><g
         id="g1737"
         transform="translate(84.935723,16.176109)"><path
           style="fill:#050505;stroke:none;stroke-width:3.77953"
           d="m 72,102 c -0.158,13.343 -17.3696,12.34 -11,28 -7.2639,-1.349 -14.8868,-1.908 -20.8148,3.39 C 33.7103,139.177 32.1277,148.117 24,152.583 16.6918,156.6 2.66134,157.114 1,167 c 15.8669,-3.94 30.543,-4.611 47,-1.532 7.0121,1.311 14.0371,7.506 20.9954,7.329 5.9601,-0.151 5.5251,-4.498 4.0046,-8.797 8.0095,-1.414 11.4731,4.654 18.9961,4.952 5.6311,0.223 7.914,-3.673 2.0039,-5.952 3.0628,-10.899 -0.1242,-16.693 -1.5664,-27 -0.9589,-6.853 1.3276,-14.104 -0.4336,-21 -8.9943,1.655 -13.9518,-6.169 -18,-13 h -2"
           transform="matrix(0.26458333,0,0,0.26458333,40.478763,39.923849)"
           id="path321" /><text
           xml:space="preserve"
           style="font-style:normal;font-variant:normal;font-weight:normal;font-stretch:normal;font-size:26.6667px;font-family:Arial;-inkscape-font-specification:'Arial, Normal';font-variant-ligatures:normal;font-variant-caps:normal;font-variant-numeric:normal;font-variant-east-asian:normal;fill:#000000;fill-opacity:1;fill-rule:evenodd;stroke:#000000;stroke-width:1;stroke-linecap:square;stroke-miterlimit:0;stroke-dasharray:none;stroke-opacity:1"
           x="162.84373"
           y="267.18073"
           id="text1573"
           transform="matrix(0.26458333,0,0,0.26458333,-3.1796603,-0.11080518)"><tspan
             sodipodi:role="line"
             id="tspan1571"
             x="162.84373"
             y="267.18073">Duke</tspan></text></g></g></g></svg>
