<?xml version="1.0" encoding="UTF-8" standalone="no"?>
<!-- Created with Inkscape (http://www.inkscape.org/) -->

<svg
   width="128.70921mm"
   height="111.68133mm"
   viewBox="0 0 128.70922 111.68133"
   version="1.1"
   id="svg5"
   inkscape:version="1.2.2 (732a01da63, 2022-12-09)"
   sodipodi:docname="digraph-non-transitive-neither-reflexive, anti-reflexive, symmetric, or anti-symmetric.svg"
   xml:space="preserve"
   xmlns:inkscape="http://www.inkscape.org/namespaces/inkscape"
   xmlns:sodipodi="http://sodipodi.sourceforge.net/DTD/sodipodi-0.dtd"
   xmlns="http://www.w3.org/2000/svg"
   xmlns:svg="http://www.w3.org/2000/svg"><sodipodi:namedview
     id="namedview7"
     pagecolor="#ffffff"
     bordercolor="#111111"
     borderopacity="1"
     inkscape:showpageshadow="0"
     inkscape:pageopacity="0"
     inkscape:pagecheckerboard="1"
     inkscape:deskcolor="#d1d1d1"
     inkscape:document-units="mm"
     showgrid="false"
     inkscape:zoom="1.4503086"
     inkscape:cx="273.04533"
     inkscape:cy="227.88253"
     inkscape:window-width="1920"
     inkscape:window-height="1001"
     inkscape:window-x="-9"
     inkscape:window-y="-9"
     inkscape:window-maximized="1"
     inkscape:current-layer="layer7" /><defs
     id="defs2"><marker
       style="overflow:visible"
       id="marker1447"
       refX="0"
       refY="0"
       orient="auto-start-reverse"
       inkscape:stockid="TriangleStart"
       markerWidth="5.3244081"
       markerHeight="6.155385"
       viewBox="0 0 5.3244081 6.1553851"
       inkscape:isstock="true"
       inkscape:collect="always"
       preserveAspectRatio="xMidYMid"><path
         transform="scale(0.5)"
         style="fill:context-stroke;fill-rule:evenodd;stroke:context-stroke;stroke-width:1pt"
         d="M 5.77,0 -2.88,5 V -5 Z"
         id="path1445" /></marker><marker
       style="overflow:visible"
       id="TriangleStart"
       refX="0"
       refY="0"
       orient="auto-start-reverse"
       inkscape:stockid="TriangleStart"
       markerWidth="5.3244081"
       markerHeight="6.155385"
       viewBox="0 0 5.3244081 6.1553851"
       inkscape:isstock="true"
       inkscape:collect="always"
       preserveAspectRatio="xMidYMid"><path
         transform="scale(0.5)"
         style="fill:context-stroke;fill-rule:evenodd;stroke:context-stroke;stroke-width:1pt"
         d="M 5.77,0 -2.88,5 V -5 Z"
         id="path135" /></marker><inkscape:path-effect
       effect="bspline"
       id="path-effect1086"
       is_visible="true"
       lpeversion="1"
       weight="33.333333"
       steps="2"
       helper_size="0"
       apply_no_weight="true"
       apply_with_weight="true"
       only_selected="false" /><marker
       style="overflow:visible"
       id="TriangleStart-1"
       refX="0"
       refY="0"
       orient="auto-start-reverse"
       inkscape:stockid="TriangleStart"
       markerWidth="5.3244081"
       markerHeight="6.155385"
       viewBox="0 0 5.3244081 6.1553851"
       inkscape:isstock="true"
       inkscape:collect="always"
       preserveAspectRatio="xMidYMid"><path
         transform="scale(0.5)"
         style="fill:context-stroke;fill-rule:evenodd;stroke:context-stroke;stroke-width:1pt"
         d="M 5.77,0 -2.88,5 V -5 Z"
         id="path135-9" /></marker></defs><g
     inkscape:groupmode="layer"
     id="layer1"
     inkscape:label="Background"
     sodipodi:insensitive="true"><rect
       style="font-variation-settings:normal;display:inline;opacity:1;fill:#ffffff;fill-opacity:1;fill-rule:evenodd;stroke:#000000;stroke-width:2;stroke-linecap:square;stroke-linejoin:miter;stroke-miterlimit:0;stroke-dasharray:none;stroke-dashoffset:0;stroke-opacity:1;stop-color:#000000;stop-opacity:1"
       id="rect5062"
       width="482.68051"
       height="418.32312"
       x="-26.328028"
       y="-13.65157"
       transform="matrix(0.26458333,0,0,0.26458333,7.4659577,4.1119782)"
       rx="2.0685256"
       ry="2.068526"
       inkscape:label="Background"
       sodipodi:insensitive="true" /></g><g
     inkscape:groupmode="layer"
     id="layer7"
     inkscape:label="Elvis"
     transform="translate(-44.20083,-52.79638)"><g
       id="g1731"
       transform="translate(-32.423337,-2.0106992)"><path
         style="fill:#050505;stroke:none;stroke-width:3.77953"
         d="m 171,117 -0.457,18.852 -17.539,5.801 -11.217,11.758 L 114,157 v 2 c 8.897,2.63 18.832,0.208 28,1.105 4.549,0.445 8.498,2.99 13,3.749 10.864,1.832 22.019,1.146 33,1.146 7.274,0 21.09,1.801 24.392,-7.044 3.44,-9.215 -9.468,-7.305 -12.294,-13.011 -3.572,-7.212 -1.122,-21.312 0.902,-28.945 -11.978,2.127 -17.821,4.474 -30,1"
         transform="matrix(0.26458333,0,0,0.26458333,58.280654,41.729838)"
         id="path323" /><text
         xml:space="preserve"
         style="font-style:normal;font-variant:normal;font-weight:normal;font-stretch:normal;font-size:26.6667px;font-family:Arial;-inkscape-font-specification:'Arial, Normal';font-variant-ligatures:normal;font-variant-caps:normal;font-variant-numeric:normal;font-variant-east-asian:normal;fill:#000000;fill-opacity:1;fill-rule:evenodd;stroke:#000000;stroke-width:1;stroke-linecap:square;stroke-miterlimit:0;stroke-dasharray:none;stroke-opacity:1"
         x="371.51773"
         y="275.95673"
         id="text1577"
         transform="matrix(0.26458333,0,0,0.26458333,1.4209666,19.896386)"><tspan
           sodipodi:role="line"
           id="tspan1575"
           x="371.51773"
           y="275.95673">Elvis</tspan></text></g></g><g
     inkscape:groupmode="layer"
     id="layer11"
     inkscape:label="Iggy"
     transform="translate(-44.20083,-52.79638)"><g
       id="g1996"
       transform="translate(-15.141891,-46.155406)"><path
         style="fill:#050505;stroke:none;stroke-width:3.77953"
         d="m 183,191 c -14.329,9.095 -22.009,5.443 -37,1 l 5,34 -4,-4 -3.907,16 -0.093,24 h 7 l -1,-9 h 1 c 0.644,3.193 8.375,18.13 12.879,11.396 2.959,-4.426 -2.917,-8.751 2.121,-13.396 0.771,6.312 -2.081,15.435 8,13 -3.378,-9.916 1.913,-18.315 4.39,-28 2.305,-9.008 3.777,-19.735 4.784,-29 0.586,-5.4 3.042,-10.717 0.826,-16"
         transform="matrix(0.26458333,0,0,0.26458333,117.85735,65.976155)"
         id="path1817" /><text
         xml:space="preserve"
         style="font-style:normal;font-variant:normal;font-weight:normal;font-stretch:normal;font-size:26.6667px;font-family:Arial;-inkscape-font-specification:'Arial, Normal';font-variant-ligatures:normal;font-variant-caps:normal;font-variant-numeric:normal;font-variant-east-asian:normal;fill:#000000;fill-opacity:1;fill-rule:evenodd;stroke:#000000;stroke-width:1;stroke-linecap:square;stroke-miterlimit:0;stroke-dasharray:none;stroke-opacity:1"
         x="575.04999"
         y="434.39029"
         id="text1859"
         transform="matrix(0.26458333,0,0,0.26458333,-12.587838,17.513514)"><tspan
           sodipodi:role="line"
           id="tspan1857"
           x="575.04999"
           y="434.39029">Iggy</tspan></text></g></g><g
     inkscape:groupmode="layer"
     id="layer13"
     inkscape:label="Kit"
     transform="translate(-44.20083,-52.79638)"><g
       id="g2028"
       transform="translate(-37.022271,-34.844595)"><path
         style="fill:#050505;stroke:none;stroke-width:3.77953"
         d="m 344,294 c 3.077,-5.262 12.814,-7.554 9.434,0.997 C 350.137,303.339 341.373,303 334,303 c -12.332,0 -27.433,-0.194 -38,7 l -2,-17 c -12.501,6.218 -16.533,6.392 -30,4 0.497,23.333 17.309,43.54 21.997,66 1.476,7.074 3.245,12.179 0.516,18.981 -0.666,1.659 -1.109,3.451 0.824,4.411 9.983,4.959 8.66,-20.335 8.663,-25.392 h 1 c 1.141,6.144 -2.196,21.914 1.067,26.396 2.351,3.228 7.49,0.743 8.191,-2.505 C 308.339,375.247 308,362.016 308,352 c 8.787,0 25.793,-2.215 24.229,12 -0.402,3.653 -8.344,9.314 -6.143,12.411 4.915,6.915 12.393,-8.636 13.914,-11.411 l -5,14 c 9.745,-0.236 12.288,-7.121 12.91,-16 0.855,-12.196 3.47,-23.042 4.906,-35 0.586,-4.885 -0.69,-10.214 0.502,-15 2.366,-9.497 12.454,-13.662 8.119,-24.999 C 355.522,272.533 333.784,283.957 344,294"
         transform="matrix(0.26458333,0,0,0.26458333,19.708702,90.786966)"
         id="path1823" /><text
         xml:space="preserve"
         style="font-style:normal;font-variant:normal;font-weight:normal;font-stretch:normal;font-size:26.6667px;font-family:Arial;-inkscape-font-specification:'Arial, Normal';font-variant-ligatures:normal;font-variant-caps:normal;font-variant-numeric:normal;font-variant-east-asian:normal;fill:#000000;fill-opacity:1;fill-rule:evenodd;stroke:#000000;stroke-width:1;stroke-linecap:square;stroke-miterlimit:0;stroke-dasharray:none;stroke-opacity:1"
         x="343.37518"
         y="613.66248"
         id="text1871"
         transform="matrix(0.26458333,0,0,0.26458333,1.4594595,4.0135136)"><tspan
           sodipodi:role="line"
           id="tspan1869"
           x="343.37518"
           y="613.66248">Kit</tspan></text></g><path
       style="fill:none;fill-rule:evenodd;stroke:#000000;stroke-width:4;stroke-linecap:square;stroke-miterlimit:0;marker-end:url(#TriangleStart)"
       d="M 347.13992,287.65808 H 511.93387"
       id="path1076"
       transform="matrix(0.26458333,0,0,0.26458333,-2.7364865,0.91216216)" /><path
       style="fill:none;fill-rule:evenodd;stroke:#000000;stroke-width:4;stroke-linecap:square;stroke-miterlimit:0;marker-start:url(#TriangleStart)"
       d="M 557.76414,366.64216 V 490.48141"
       id="path1078"
       transform="matrix(0.26458333,0,0,0.26458333,-2.7364865,0.91216216)" /><path
       style="fill:none;fill-rule:evenodd;stroke:#000000;stroke-width:4;stroke-linecap:square;stroke-miterlimit:0;marker-end:url(#marker1447)"
       d="m 336.41369,538.2619 h 144.3166"
       id="path1080"
       transform="matrix(0.26458333,0,0,0.26458333,-2.7364865,0.91216216)" /><path
       style="fill:none;fill-rule:evenodd;stroke:#000000;stroke-width:4;stroke-linecap:square;stroke-miterlimit:0;marker-start:url(#marker1447)"
       d="M 340.31414,487.55607 514.83601,341.11483"
       id="path1082"
       transform="matrix(0.26458333,0,0,0.26458333,-2.7364865,0.91216216)" /><path
       style="fill:none;fill-rule:evenodd;stroke:#000000;stroke-width:3.99874;stroke-linecap:square;stroke-miterlimit:0;stroke-dasharray:none;marker-end:url(#TriangleStart)"
       d="m 579.21661,366.64216 c 5.40451,9.93366 10.80898,19.86726 14.38469,30.26962 3.57571,10.40235 5.32206,21.26956 5.18791,32.54946 -0.13414,11.27989 -2.14864,22.9702 -5.72417,33.37109 -3.57554,10.40088 -8.71175,19.51212 -13.84843,28.62419"
       id="path1084"
       transform="matrix(0.26458333,0,0,0.26458333,-2.7364865,0.91216216)"
       inkscape:path-effect="#path-effect1086"
       inkscape:original-d="m 579.21661,366.64216 c 5.40486,9.93347 10.80933,19.86707 16.21342,29.80081 1.7478,10.87103 3.49414,21.73824 5.2398,32.60638 -2.01362,11.69198 -4.02812,23.38229 -6.04366,35.07181 -5.13548,9.11272 -10.27169,18.22396 -15.40956,27.33536"
       sodipodi:nodetypes="ccccc" /><path
       style="fill:none;fill-rule:evenodd;stroke:#000000;stroke-width:5.38047;stroke-linecap:square;stroke-miterlimit:0;stroke-dasharray:none;marker-start:url(#TriangleStart)"
       id="path1603"
       transform="matrix(0.19879702,0,0,0.19450035,20.121445,8.7254634)"
       sodipodi:type="arc"
       sodipodi:cx="671.58118"
       sodipodi:cy="305.10748"
       sodipodi:rx="44.128536"
       sodipodi:ry="45.1628"
       sodipodi:start="3.3672179"
       sodipodi:end="1.5319447"
       sodipodi:arc-type="arc"
       d="m 628.5711,295.00385 a 44.128536,45.1628 0 0 1 49.05718,-34.63312 44.128536,45.1628 0 0 1 38.0278,46.96271 44.128536,45.1628 0 0 1 -42.36087,42.90276"
       sodipodi:open="true" /><path
       style="fill:none;fill-rule:evenodd;stroke:#000000;stroke-width:5.38047;stroke-linecap:square;stroke-miterlimit:0;stroke-dasharray:none;marker-start:url(#TriangleStart-1)"
       id="path1603-6"
       transform="matrix(0.19879702,0,0,0.19450035,-52.583035,7.7850481)"
       sodipodi:type="arc"
       sodipodi:cx="671.58118"
       sodipodi:cy="305.10748"
       sodipodi:rx="44.128536"
       sodipodi:ry="45.1628"
       sodipodi:start="3.3672179"
       sodipodi:end="1.5319447"
       sodipodi:arc-type="arc"
       d="m 628.5711,295.00385 a 44.128536,45.1628 0 0 1 49.05718,-34.63312 44.128536,45.1628 0 0 1 38.0278,46.96271 44.128536,45.1628 0 0 1 -42.36087,42.90276"
       sodipodi:open="true" /></g><g
     inkscape:groupmode="layer"
     id="layer14"
     inkscape:label="Leo"
     transform="translate(-44.20083,-52.79638)"><g
       id="g1991"
       transform="translate(-20.196878,-38.550532)"><path
         style="fill:#050505;stroke:none;stroke-width:3.77953"
         d="m 299,207 7,12 c -8.893,0.025 -28.585,1.268 -30.566,12 -1.165,6.307 3.732,14.981 5.566,21 4.582,-2.817 5.759,-6.801 6,-12 h 1 c 1.914,9.092 5.654,5.493 11.941,9.742 3.721,2.514 3.552,7.744 7.287,9.939 6.496,3.818 10.368,-2.408 15.862,-3.912 3.981,-1.091 9.72,0.231 13.91,0.231 l -1.478,-9 7.688,-13 1.183,-11 L 351,210 319,211.711 299,207"
         transform="matrix(0.26458333,0,0,0.26458333,76.992486,119.24643)"
         id="path1819" /><text
         xml:space="preserve"
         style="font-style:normal;font-variant:normal;font-weight:normal;font-stretch:normal;font-size:26.6667px;font-family:Arial;-inkscape-font-specification:'Arial, Normal';font-variant-ligatures:normal;font-variant-caps:normal;font-variant-numeric:normal;font-variant-east-asian:normal;fill:#000000;fill-opacity:1;fill-rule:evenodd;stroke:#000000;stroke-width:1;stroke-linecap:square;stroke-miterlimit:0;stroke-dasharray:none;stroke-opacity:1"
         x="566.77594"
         y="639.86377"
         id="text1867"
         transform="matrix(0.26458333,0,0,0.26458333,17.878378,15.689189)"><tspan
           sodipodi:role="line"
           id="tspan1865"
           x="566.77594"
           y="639.86377">Leo</tspan></text></g></g></svg>
