<?xml version="1.0" encoding="UTF-8" standalone="no"?>
<!-- Created with Inkscape (http://www.inkscape.org/) -->

<svg
   width="120mm"
   height="50mm"
   viewBox="0 0 120 50"
   version="1.1"
   id="svg5"
   inkscape:version="1.2.2 (732a01da63, 2022-12-09)"
   sodipodi:docname="reflexive-digraph-the-three-sisters.svg"
   xml:space="preserve"
   xmlns:inkscape="http://www.inkscape.org/namespaces/inkscape"
   xmlns:sodipodi="http://sodipodi.sourceforge.net/DTD/sodipodi-0.dtd"
   xmlns="http://www.w3.org/2000/svg"
   xmlns:svg="http://www.w3.org/2000/svg"><sodipodi:namedview
     id="namedview7"
     pagecolor="#ffffff"
     bordercolor="#111111"
     borderopacity="1"
     inkscape:showpageshadow="0"
     inkscape:pageopacity="0"
     inkscape:pagecheckerboard="1"
     inkscape:deskcolor="#d1d1d1"
     inkscape:document-units="mm"
     showgrid="false"
     inkscape:zoom="1.4503086"
     inkscape:cx="344.75421"
     inkscape:cy="85.843799"
     inkscape:window-width="1920"
     inkscape:window-height="1001"
     inkscape:window-x="-9"
     inkscape:window-y="-9"
     inkscape:window-maximized="1"
     inkscape:current-layer="svg5" /><defs
     id="defs2"><inkscape:path-effect
       effect="bspline"
       id="path-effect436"
       is_visible="true"
       lpeversion="1"
       weight="33.333333"
       steps="2"
       helper_size="0"
       apply_no_weight="true"
       apply_with_weight="true"
       only_selected="false" /><inkscape:path-effect
       effect="bspline"
       id="path-effect4311"
       is_visible="true"
       lpeversion="1"
       weight="33.333333"
       steps="2"
       helper_size="0"
       apply_no_weight="true"
       apply_with_weight="true"
       only_selected="false" /><marker
       style="overflow:visible"
       id="TriangleStart"
       refX="0"
       refY="0"
       orient="auto-start-reverse"
       inkscape:stockid="TriangleStart"
       markerWidth="5.3244081"
       markerHeight="6.155385"
       viewBox="0 0 5.3244081 6.1553851"
       inkscape:isstock="true"
       inkscape:collect="always"
       preserveAspectRatio="xMidYMid"><path
         transform="scale(0.5)"
         style="fill:context-stroke;fill-rule:evenodd;stroke:context-stroke;stroke-width:1pt"
         d="M 5.77,0 -2.88,5 V -5 Z"
         id="path135" /></marker><marker
       style="overflow:visible"
       id="TriangleStart-3"
       refX="0"
       refY="0"
       orient="auto-start-reverse"
       inkscape:stockid="TriangleStart"
       markerWidth="5.3244081"
       markerHeight="6.155385"
       viewBox="0 0 5.3244081 6.1553851"
       inkscape:isstock="true"
       inkscape:collect="always"
       preserveAspectRatio="xMidYMid"><path
         transform="scale(0.5)"
         style="fill:context-stroke;fill-rule:evenodd;stroke:context-stroke;stroke-width:1pt"
         d="M 5.77,0 -2.88,5 V -5 Z"
         id="path135-6" /></marker><marker
       style="overflow:visible"
       id="TriangleStart-3-5"
       refX="0"
       refY="0"
       orient="auto-start-reverse"
       inkscape:stockid="TriangleStart"
       markerWidth="5.3244081"
       markerHeight="6.155385"
       viewBox="0 0 5.3244081 6.1553851"
       inkscape:isstock="true"
       inkscape:collect="always"
       preserveAspectRatio="xMidYMid"><path
         transform="scale(0.5)"
         style="fill:context-stroke;fill-rule:evenodd;stroke:context-stroke;stroke-width:1pt"
         d="M 5.77,0 -2.88,5 V -5 Z"
         id="path135-6-1" /></marker><marker
       style="overflow:visible"
       id="TriangleStart-3-54"
       refX="0"
       refY="0"
       orient="auto-start-reverse"
       inkscape:stockid="TriangleStart"
       markerWidth="5.3244081"
       markerHeight="6.155385"
       viewBox="0 0 5.3244081 6.1553851"
       inkscape:isstock="true"
       inkscape:collect="always"
       preserveAspectRatio="xMidYMid"><path
         transform="scale(0.5)"
         style="fill:context-stroke;fill-rule:evenodd;stroke:context-stroke;stroke-width:1pt"
         d="M 5.77,0 -2.88,5 V -5 Z"
         id="path135-6-8" /></marker><marker
       style="overflow:visible"
       id="TriangleStart-3-9"
       refX="0"
       refY="0"
       orient="auto-start-reverse"
       inkscape:stockid="TriangleStart"
       markerWidth="5.3244081"
       markerHeight="6.155385"
       viewBox="0 0 5.3244081 6.1553851"
       inkscape:isstock="true"
       inkscape:collect="always"
       preserveAspectRatio="xMidYMid"><path
         transform="scale(0.5)"
         style="fill:context-stroke;fill-rule:evenodd;stroke:context-stroke;stroke-width:1pt"
         d="M 5.77,0 -2.88,5 V -5 Z"
         id="path135-6-10" /></marker><inkscape:path-effect
       effect="bspline"
       id="path-effect4311-2"
       is_visible="true"
       lpeversion="1"
       weight="33.333333"
       steps="2"
       helper_size="0"
       apply_no_weight="true"
       apply_with_weight="true"
       only_selected="false" /><marker
       style="overflow:visible"
       id="TriangleStart-3-5-5"
       refX="0"
       refY="0"
       orient="auto-start-reverse"
       inkscape:stockid="TriangleStart"
       markerWidth="5.3244081"
       markerHeight="6.155385"
       viewBox="0 0 5.3244081 6.1553851"
       inkscape:isstock="true"
       inkscape:collect="always"
       preserveAspectRatio="xMidYMid"><path
         transform="scale(0.5)"
         style="fill:context-stroke;fill-rule:evenodd;stroke:context-stroke;stroke-width:1pt"
         d="M 5.77,0 -2.88,5 V -5 Z"
         id="path135-6-1-5" /></marker><inkscape:path-effect
       effect="bspline"
       id="path-effect436-7"
       is_visible="true"
       lpeversion="1"
       weight="33.333333"
       steps="2"
       helper_size="0"
       apply_no_weight="true"
       apply_with_weight="true"
       only_selected="false" /></defs><rect
     style="font-variation-settings:normal;display:inline;opacity:1;fill:#ffffff;fill-opacity:1;fill-rule:evenodd;stroke:#000000;stroke-width:1.74107;stroke-linecap:square;stroke-linejoin:miter;stroke-miterlimit:0;stroke-dasharray:none;stroke-dashoffset:0;stroke-opacity:1;stop-color:#000000;stop-opacity:1"
     id="rect4894"
     width="454.38605"
     height="140.65971"
     x="-8.2741013"
     y="-9.6531181"
     transform="matrix(0.26308456,0,0,0.35112166,2.4058126,3.6950826)"
     rx="2.0803096"
     ry="1.5587115"
     inkscape:label="Background"
     sodipodi:insensitive="true" /><g
     inkscape:groupmode="layer"
     id="layer3"
     inkscape:label="Alice"
     transform="translate(-113.95166,-61.183685)"><g
       id="g4539"
       transform="translate(78.574947,42.206067)"><path
         style="fill:#050505;stroke:none;stroke-width:3.77953"
         d="m 9,14 5,-7 c 9.8135,7.41 4.8631,18.8131 4.0941,29 -0.474,6.2801 3.1569,10.2433 3.8642,16 0.4463,3.6314 -2.6651,6.4056 -2.601,10 C 19.522,71.251 31.8833,78.1421 40,76 38.4576,72.9346 33.6815,69.645 34.037,65.9969 34.817,57.993 49.5599,57.1651 54.9568,60.0278 65.2159,65.4695 61.0765,80.8355 75,81 L 77.4244,58.5756 86.2392,41 90,6 C 80.4801,9.45801 76.7774,9.7886 67,7 65.5589,12.2412 68.1589,17.9963 64.9105,22.8526 59.4797,30.9714 36.6073,26 28,26 27.8731,19.8513 27.4166,11.1709 23.348,6.21375 15.5506,-3.28665 9.02452,5.45389 9,14"
         transform="matrix(0.26458333,0,0,0.26458333,35.318795,31.151902)"
         id="path315" /><text
         xml:space="preserve"
         style="font-style:normal;font-variant:normal;font-weight:normal;font-stretch:normal;font-size:26.6667px;font-family:Arial;-inkscape-font-specification:'Arial, Normal';font-variant-ligatures:normal;font-variant-caps:normal;font-variant-numeric:normal;font-variant-east-asian:normal;fill:#000000;fill-opacity:1;fill-rule:evenodd;stroke:#000000;stroke-width:1;stroke-linecap:square;stroke-miterlimit:0;stroke-dasharray:none;stroke-opacity:1"
         x="169.66951"
         y="52.656055"
         id="text423"
         transform="matrix(0.26458333,0,0,0.26458333,-4.7729709,44.504728)"><tspan
           sodipodi:role="line"
           id="tspan421"
           x="169.66951"
           y="52.656055">Alice</tspan></text></g><path
       style="fill:none;fill-rule:evenodd;stroke:#000000;stroke-width:3.31538;stroke-linecap:butt;stroke-linejoin:miter;stroke-dasharray:none;stroke-opacity:1;marker-end:url(#TriangleStart)"
       d="m 231.25903,147.3182 127.27268,0.70544"
       id="path2442"
       inkscape:connector-type="polyline"
       inkscape:connector-curvature="0"
       transform="matrix(0.15598099,0,0,0.16332289,103.92519,63.513975)"
       sodipodi:nodetypes="cc" /><path
       style="fill:none;fill-rule:evenodd;stroke:#000000;stroke-width:2.18983;stroke-linecap:square;stroke-miterlimit:0;stroke-dasharray:none;stroke-opacity:1;marker-start:url(#TriangleStart-3)"
       id="path4152-7"
       transform="matrix(0.23806657,0,0,0.24528459,126.90058,56.944402)"
       sodipodi:type="arc"
       sodipodi:cx="232.0247"
       sodipodi:cy="80.61467"
       sodipodi:rx="29.253365"
       sodipodi:ry="29.009586"
       sodipodi:start="3.0725062"
       sodipodi:end="1.1638604"
       sodipodi:arc-type="arc"
       d="m 202.84112,82.617245 a 29.253365,29.009586 0 0 1 23.89736,-30.534588 29.253365,29.009586 0 0 1 33.28169,20.116662 29.253365,29.009586 0 0 1 -16.41706,35.055951"
       sodipodi:open="true" /><path
       style="fill:none;fill-rule:evenodd;stroke:#000000;stroke-width:2.18983;stroke-linecap:square;stroke-miterlimit:0;stroke-dasharray:none;stroke-opacity:1;marker-start:url(#TriangleStart-3-54)"
       id="path4152-7-7"
       transform="matrix(-0.23806657,0,0,0.24528459,266.63301,58.801241)"
       sodipodi:type="arc"
       sodipodi:cx="232.0247"
       sodipodi:cy="80.61467"
       sodipodi:rx="29.253365"
       sodipodi:ry="29.009586"
       sodipodi:start="3.0725062"
       sodipodi:end="0.88242355"
       sodipodi:arc-type="arc"
       d="m 202.84112,82.617245 a 29.253365,29.009586 0 0 1 21.22542,-29.91807 29.253365,29.009586 0 0 1 33.87944,14.469475 29.253365,29.009586 0 0 1 -7.33716,35.84957"
       sodipodi:open="true" /><path
       style="fill:none;fill-rule:evenodd;stroke:#000000;stroke-width:2.18983;stroke-linecap:square;stroke-miterlimit:0;stroke-dasharray:none;stroke-opacity:1;marker-start:url(#TriangleStart-3-5)"
       id="path4152-7-4"
       transform="matrix(0.23806657,0,0,0.24528459,79.887733,56.479256)"
       sodipodi:type="arc"
       sodipodi:cx="232.0247"
       sodipodi:cy="80.61467"
       sodipodi:rx="29.253365"
       sodipodi:ry="29.009586"
       sodipodi:start="3.0725062"
       sodipodi:end="1.1638604"
       sodipodi:arc-type="arc"
       d="m 202.84112,82.617245 a 29.253365,29.009586 0 0 1 23.89736,-30.534588 29.253365,29.009586 0 0 1 33.28169,20.116662 29.253365,29.009586 0 0 1 -16.41706,35.055951"
       sodipodi:open="true" /><path
       style="fill:none;fill-rule:evenodd;stroke:#000000;stroke-width:2;stroke-linecap:square;stroke-miterlimit:0;stroke-dasharray:none;stroke-opacity:1;marker-end:url(#TriangleStart-3)"
       d="m 323.73723,166.98795 c -6.75303,2.99641 -13.50478,5.99226 -21.6712,8.55207 -8.16641,2.55982 -17.74646,4.68307 -27.54233,4.83726 -9.79588,0.1542 -19.80471,-1.66081 -28.54125,-4.22079 -8.73654,-2.55998 -16.19661,-5.86422 -23.65688,-9.16854"
       id="path4309"
       transform="matrix(0.26458333,0,0,0.26458333,78.445948,48.527028)"
       inkscape:path-effect="#path-effect4311"
       inkscape:original-d="m 323.73723,166.98795 c -6.75249,2.99762 -13.50425,5.99347 -20.25786,8.9887 -9.57949,2.12435 -19.15954,4.2476 -28.74152,6.37006 -10.01017,-1.81443 -20.019,-3.62944 -30.03205,-5.44604 -7.4601,-3.30369 -14.92017,-6.60793 -22.38023,-9.91272"
       sodipodi:nodetypes="ccccc" /><path
       style="fill:none;fill-rule:evenodd;stroke:#000000;stroke-width:2;stroke-linecap:square;stroke-miterlimit:0;stroke-dasharray:none;stroke-opacity:1;marker-end:url(#TriangleStart-3-9)"
       d="m 323.73723,166.98795 c -6.75303,2.99641 -13.50478,5.99226 -21.6712,8.55207 -8.16641,2.55982 -17.74646,4.68307 -27.54233,4.83726 -9.79588,0.1542 -19.80471,-1.66081 -28.54125,-4.22079 -8.73654,-2.55998 -16.19661,-5.86422 -23.65688,-9.16854"
       id="path4309-8"
       transform="matrix(0.26458333,0,0,0.26458333,126.56655,49.879665)"
       inkscape:path-effect="#path-effect4311-2"
       inkscape:original-d="m 323.73723,166.98795 c -6.75249,2.99762 -13.50425,5.99347 -20.25786,8.9887 -9.57949,2.12435 -19.15954,4.2476 -28.74152,6.37006 -10.01017,-1.81443 -20.019,-3.62944 -30.03205,-5.44604 -7.4601,-3.30369 -14.92017,-6.60793 -22.38023,-9.91272"
       sodipodi:nodetypes="ccccc" /></g><g
     inkscape:groupmode="layer"
     id="layer4"
     inkscape:label="Boots"
     transform="translate(-113.95166,-61.183685)"><g
       id="g1716"
       transform="translate(72.511984,49.81702)"><path
         style="fill:#050505;stroke:none;stroke-width:3.77953"
         d="m 184,1 c -1.356,5.37973 3.585,12.0747 0.957,16.7863 -4.264,7.6445 -19.329,6.0213 -25.942,11.4884 -8.986,7.4282 -14.444,38.72 -28.801,22.6821 C 128.438,49.9737 126.912,47.6147 126.282,45 125.399,41.3294 126.794,37.7012 126,34 h -2 c -14.06,25.0994 28.924,39.456 47,33 -1.488,-6.2684 1.903,-9.5472 6,-14 l -1,17 h 7 c -1.24,-6.7016 -1.606,-15.3305 4,-20 1.823,7.8802 2.481,20.6883 12,21 -3.686,-14.8102 -4.732,-27.7377 -0.428,-43 2.696,-9.5616 7.34,-16.3947 7.428,-27 -10.851,7.51538 -11.154,3.9939 -22,0"
         transform="matrix(0.26458333,0,0,0.26458333,57.506658,24.95994)"
         id="path311" /><text
         xml:space="preserve"
         style="font-style:normal;font-variant:normal;font-weight:normal;font-stretch:normal;font-size:26.6667px;font-family:Arial;-inkscape-font-specification:'Arial, Normal';font-variant-ligatures:normal;font-variant-caps:normal;font-variant-numeric:normal;font-variant-east-asian:normal;fill:#000000;fill-opacity:1;fill-rule:evenodd;stroke:#000000;stroke-width:1;stroke-linecap:square;stroke-miterlimit:0;stroke-dasharray:none;stroke-opacity:1"
         x="353.9657"
         y="73.133408"
         id="text1565"
         transform="matrix(0.26458333,0,0,0.26458333,-4.4074818e-8,30.959811)"><tspan
           sodipodi:role="line"
           id="tspan1563"
           x="353.9657"
           y="73.133408">Boots</tspan></text></g><path
       style="fill:none;fill-rule:evenodd;stroke:#000000;stroke-width:2.1247;stroke-linecap:square;stroke-miterlimit:0;marker-end:url(#TriangleStart-3-5)"
       d="m 411.63653,207.54203 c 13.18066,-6.83963 26.36133,-13.67926 45.54366,-19.20115 19.18232,-5.5219 44.36584,-9.7261 69.82045,-9.63387 25.45461,0.0922 51.18084,4.48049 70.61197,10.34753 19.43113,5.86704 32.56468,13.21138 45.69875,20.55602"
       id="path434"
       transform="matrix(0.25418639,0,0,0.24402635,39.824686,19.602418)"
       inkscape:path-effect="#path-effect436"
       inkscape:original-d="m 411.63653,207.54203 c 13.18133,-6.83835 26.36199,-13.67798 39.54161,-20.5187 25.18458,-4.20312 50.36809,-8.40733 75.5499,-12.61251 25.72706,4.38931 51.45329,8.77756 77.17945,13.1649 13.13603,7.34624 26.26958,14.69058 39.40387,22.03484"
       sodipodi:nodetypes="ccccc" /><path
       style="fill:none;fill-rule:evenodd;stroke:#000000;stroke-width:2.1247;stroke-linecap:square;stroke-miterlimit:0;marker-end:url(#TriangleStart-3-5-5)"
       d="m 411.63653,207.54203 c 13.18066,-6.83963 26.36132,-13.67926 45.54365,-19.20116 19.18233,-5.52189 44.36585,-9.72609 69.82046,-9.63386 25.45461,0.0922 51.18084,4.48049 70.61197,10.34753 19.43113,5.86703 32.56467,13.21138 45.69875,20.55602"
       id="path434-3"
       transform="matrix(-0.25418639,0,0,-0.24402635,307.75859,152.76495)"
       inkscape:path-effect="#path-effect436-7"
       inkscape:original-d="m 411.63653,207.54203 c 13.18133,-6.83835 26.36199,-13.67798 39.54161,-20.5187 25.18458,-4.20312 50.36809,-8.40733 75.5499,-12.61251 25.72706,4.38931 51.45329,8.77756 77.17945,13.1649 13.13603,7.34624 26.26958,14.69058 39.40387,22.03484"
       sodipodi:nodetypes="ccccc" /></g><g
     inkscape:groupmode="layer"
     id="layer5"
     inkscape:label="Cleo"
     transform="translate(-113.95166,-61.183685)"><path
       style="fill:#050505;stroke:none;stroke-width:3.77953"
       d="m 284,65 -5,4 c 4.97,1.1871 11.081,4.0826 16,4.3565 6.904,0.3844 13.875,-1.9263 21,-1.2523 8.505,0.8044 14.16,3.1217 23,1.6489 4.283,-0.7136 15.278,-1 17.647,-5.2662 C 358.785,64.637 354.28,58.1357 354.043,54 353.731,48.5427 354.894,42.758 351.486,38.0146 345.564,29.7732 331.206,22.8376 321,23.3758 315.863,23.6467 303.408,29.5859 299.694,24.6783 297.212,21.3984 299.989,13.0622 300,9 c -5.581,1.1492 -8.974,7.3841 -14.985,6.8079 -4.719,-0.4524 -7.26,-9.61311 -11.802,-7.63197 C 268.681,10.1526 269.02,18.989 269.001,23 c -0.048,9.9703 2.955,23.1003 7.456,31.9962 1.937,3.8285 5.615,6.1896 7.543,10.0038"
       transform="matrix(0.26458333,0,0,0.26458333,137.1136,74.389963)"
       id="path317" /><text
       xml:space="preserve"
       style="font-style:normal;font-variant:normal;font-weight:normal;font-stretch:normal;font-size:26.6667px;font-family:Arial;-inkscape-font-specification:'Arial, Normal';font-variant-ligatures:normal;font-variant-caps:normal;font-variant-numeric:normal;font-variant-east-asian:normal;fill:#000000;fill-opacity:1;fill-rule:evenodd;stroke:#000000;stroke-width:1;stroke-linecap:square;stroke-miterlimit:0;stroke-dasharray:none;stroke-opacity:1"
       x="476.82983"
       y="164.79395"
       id="text1569"
       transform="matrix(0.26458333,0,0,0.26458333,87.217893,56.52498)"><tspan
         sodipodi:role="line"
         id="tspan1567"
         x="476.82983"
         y="164.79395">Cleo</tspan></text><path
       style="fill:none;fill-rule:evenodd;stroke:#000000;stroke-width:2;stroke-linecap:butt;stroke-linejoin:miter;stroke-dasharray:none;stroke-opacity:1;marker-end:url(#TriangleStart-3)"
       d="m 398.82087,146.75438 78.98408,-1e-5"
       id="path4417"
       inkscape:connector-type="polyline"
       inkscape:connector-curvature="0"
       transform="matrix(0.26458333,0,0,0.26458333,78.445948,48.527028)"
       sodipodi:nodetypes="cc" /></g></svg>
