<?xml version="1.0" encoding="UTF-8" standalone="no"?>
<svg
   version="1.1"
   width="340"
   height="340"
   viewBox="0 0 339.99999 340.00002"
   xml:space="preserve"
   id="svg452"
   sodipodi:docname="set tri-union-intersect.svg"
   inkscape:version="1.2.2 (732a01da63, 2022-12-09)"
   xmlns:inkscape="http://www.inkscape.org/namespaces/inkscape"
   xmlns:sodipodi="http://sodipodi.sourceforge.net/DTD/sodipodi-0.dtd"
   xmlns="http://www.w3.org/2000/svg"
   xmlns:svg="http://www.w3.org/2000/svg"><sodipodi:namedview
   id="namedview454"
   pagecolor="#ffffff"
   bordercolor="#111111"
   borderopacity="1"
   inkscape:showpageshadow="0"
   inkscape:pageopacity="0"
   inkscape:pagecheckerboard="1"
   inkscape:deskcolor="#d1d1d1"
   showgrid="false"
   inkscape:zoom="1.8764706"
   inkscape:cx="-3.9968652"
   inkscape:cy="171.33229"
   inkscape:window-width="1920"
   inkscape:window-height="1001"
   inkscape:window-x="-9"
   inkscape:window-y="-9"
   inkscape:window-maximized="1"
   inkscape:current-layer="layer2" />
<desc
   id="desc420">Created with Fabric.js 3.6.6</desc>
<defs
   id="defs422">
</defs>

<g
   inkscape:groupmode="layer"
   id="layer1"
   inkscape:label="Background"
   transform="translate(-5.9258809,-10.754487)"
   sodipodi:insensitive="true"><rect
     style="display:inline;fill:#ffffff;stroke:#ffffff;stroke-width:1.49137;image-rendering:auto"
     id="rect750"
     width="339.38416"
     height="339.76062"
     x="6.671566"
     y="11.500173"
     inkscape:label="White Background"
     sodipodi:insensitive="true" /></g><g
   transform="matrix(2.45,0,0,2.45,107.41302,107.19006)"
   id="g428"
   inkscape:label="Venn Diagram">
<circle
   style="opacity:1;fill:none;fill-rule:nonzero;stroke:#000000;stroke-width:3;stroke-linecap:butt;stroke-linejoin:miter;stroke-miterlimit:4;stroke-dasharray:none;stroke-dashoffset:0"
   cx="49.762764"
   cy="47.87595"
   r="40"
   id="circle430"
   inkscape:label="Right Circle" /><circle
   style="fill:none;fill-rule:nonzero;stroke:#000000;stroke-width:3;stroke-linecap:butt;stroke-linejoin:miter;stroke-miterlimit:4;stroke-dasharray:none;stroke-dashoffset:0"
   cx="26.20549"
   cy="3.9313862"
   r="40"
   id="circle430-0"
   inkscape:label="Right Circle" /><circle
   style="opacity:1;fill:none;fill-rule:nonzero;stroke:#000000;stroke-width:3;stroke-linecap:butt;stroke-linejoin:miter;stroke-miterlimit:4;stroke-dasharray:none;stroke-dashoffset:0"
   cx="1.4320207"
   cy="47.87595"
   r="40"
   id="circle426"
   inkscape:label="Left Circle" />
<g
   inkscape:groupmode="layer"
   id="layer3"
   inkscape:label="Filled"
   transform="matrix(0.40816327,0,0,0.40816327,-43.842049,-43.751045)"><path
     style="fill:#999999;fill-opacity:1;stroke:#808080;stroke-width:0;stroke-linecap:square;stroke-linejoin:miter;stroke-miterlimit:0;stroke-dasharray:none;stroke-opacity:1;paint-order:normal"
     d="m 269.98848,139.57137 c -4.18289,16.90803 -12.31297,33.06077 -24.49142,45.70716 -9.13428,9.87632 -20.07659,18.00089 -32.32953,23.53 -2.77799,0.42922 -2.27571,3.02219 -1.93185,5.06863 0.57846,11.69421 0.62873,23.63898 -2.48029,35.04206 -4.8317,19.55104 -15.68523,37.40095 -30.65261,50.89903 -0.93876,0.91319 -3.27393,2.67205 -1.38587,3.83157 17.50792,11.7255 38.99387,17.31943 59.99801,15.65335 24.60758,-1.87635 48.25413,-13.76899 64.3409,-32.50263 18.20623,-20.67294 26.66455,-49.53004 22.21945,-76.74642 -3.10956,-21.16192 -13.81502,-40.97726 -29.57091,-55.40226 -6.76003,-6.2345 -14.37411,-11.74193 -22.71495,-15.56619 -0.47481,-0.26315 -0.67288,0.30132 -1.00093,0.4857 z"
     id="path2341" /><path
     style="fill:#999999;fill-opacity:1;stroke:#808080;stroke-width:0;stroke-linecap:square;stroke-linejoin:miter;stroke-miterlimit:0;stroke-dasharray:none;stroke-opacity:1;paint-order:normal"
     d="m 227.84482,129.38082 c -18.48533,0.20199 -36.83767,6.20761 -52.06503,16.55573 -0.69521,1.82461 2.19392,2.69898 3.14436,4.016 15.30127,13.92152 25.94434,32.73497 30.57533,52.82364 1.37024,1.9082 3.58774,-0.91392 5.23143,-1.24972 25.16515,-12.65752 44.12505,-37.1921 49.81747,-64.76925 -1.05747,-1.73553 -3.68126,-1.74238 -5.41749,-2.5881 -10.08173,-3.26026 -20.68559,-4.93703 -31.28607,-4.7883 z"
     id="path2343" /><path
     style="fill:#999999;fill-opacity:1;stroke:#808080;stroke-width:0;stroke-linecap:square;stroke-linejoin:miter;stroke-miterlimit:0;stroke-dasharray:none;stroke-opacity:1;paint-order:normal"
     d="M 170.01275,21.943611 C 151.86007,21.695202 133.93233,27.80777 118.85687,37.732854 95.841455,52.873461 80.287139,78.526021 77.197193,105.8706 c -0.792305,7.27418 -1.014315,14.70569 -0.0203,21.96096 1.00953,1.93934 3.508292,0.10987 5.061564,-0.086 20.512523,-6.0715 42.907913,-5.20416 63.090323,1.85949 8.47599,3.26428 16.62391,7.50206 24.14596,12.69905 2.01722,0.36744 3.47357,-1.91729 5.23659,-2.62086 23.52393,-15.31845 53.3708,-19.83102 80.33209,-12.72237 3.50821,0.72021 6.91283,2.46854 10.44299,2.86154 1.17817,-2.02022 0.6594,-4.72293 1.04035,-7.02593 1.80863,-27.556238 -8.99866,-55.782875 -29.29964,-74.609446 -14.67517,-14.416605 -34.40063,-23.501616 -54.79465,-25.831193 -4.12974,-0.340744 -8.27723,-0.433191 -12.41972,-0.41224 z"
     id="path2345" /><path
     style="fill:#333333;fill-opacity:1;stroke:#808080;stroke-width:0;stroke-linecap:square;stroke-linejoin:miter;stroke-miterlimit:0;stroke-dasharray:none;stroke-opacity:1;paint-order:normal"
     d="m 169.96271,150.68633 c -3.51624,1.85287 -6.05658,5.21385 -8.9687,7.87459 -11.76992,12.00145 -20.19679,27.32308 -24.07442,43.67505 -0.56386,1.4758 -0.462,3.48391 1.47935,3.71308 10.89278,3.92475 22.44496,6.29935 34.06531,5.72709 10.19227,0.12195 20.43378,-1.44802 30.01239,-4.94841 2.53566,-1.1655 0.78673,-4.32214 0.45744,-6.26626 -5.02808,-19.17868 -16.23102,-36.709 -31.58256,-49.26215 -0.40486,-0.28176 -0.86715,-0.59336 -1.38881,-0.51299 z"
     id="path2416" /><path
     style="fill:#333333;fill-opacity:1;stroke:#808080;stroke-width:0;stroke-linecap:square;stroke-linejoin:miter;stroke-miterlimit:0;stroke-dasharray:none;stroke-opacity:1;paint-order:normal"
     d="m 135.90245,211.47488 c -1.83171,0.8395 -0.82934,3.48813 -1.3453,5.09207 -2.73024,30.72017 10.62258,62.60614 34.99634,81.64094 1.95807,0.59196 3.23392,-1.91655 4.71212,-2.84758 21.20596,-18.84454 33.29513,-47.53828 31.61646,-75.89255 -0.24859,-2.13489 0.0323,-4.44472 -0.77353,-6.46275 -1.7265,-1.08509 -3.85697,0.57284 -5.68207,0.79098 -20.24784,5.82332 -42.26315,4.93873 -62.14838,-2.03114 -0.45222,-0.11097 -0.90329,-0.30211 -1.37564,-0.28997 z"
     id="path2418" /><path
     style="fill:#333333;fill-opacity:1;stroke:#808080;stroke-width:0;stroke-linecap:square;stroke-linejoin:miter;stroke-miterlimit:0;stroke-dasharray:none;stroke-opacity:1;paint-order:normal"
     d="m 110.21117,129.4375 c -10.338957,0.15757 -20.801909,1.65892 -30.495106,5.30944 -2.244744,1.74485 -0.226843,4.88028 0.130841,7.04892 4.628515,17.28078 14.441853,32.99403 27.637975,45.03426 6.59925,6.26127 14.26612,11.46666 22.40915,15.4092 1.89024,-0.30221 1.38899,-3.18826 2.17653,-4.62499 5.52485,-19.50732 16.86681,-37.15896 32.23973,-50.36214 1.01774,-2.07605 -2.40451,-2.55352 -3.53102,-3.69912 -15.07556,-9.41669 -32.80282,-14.3246 -50.5681,-14.11557 z"
     id="path2420" /></g><g
   inkscape:groupmode="layer"
   id="layer2"
   inkscape:label="Labels"
   style="display:inline"
   transform="matrix(0.40816327,0,0,0.40816327,-43.842049,-43.751045)"><text
     xml:space="preserve"
     font-family="'Open Sans', sans-serif"
     font-size="7.34694px"
     font-style="normal"
     font-weight="normal"
     style="font-style:normal;font-variant:normal;font-weight:normal;font-stretch:normal;font-size:7.34694px;font-family:'Open Sans', sans-serif;-inkscape-font-specification:'Open Sans, sans-serif, Normal';font-variant-ligatures:normal;font-variant-caps:normal;font-variant-numeric:normal;font-variant-east-asian:normal;white-space:pre;fill:#ffffff;fill-opacity:1;fill-rule:nonzero;stroke:#ffffff;stroke-width:0.408163;stroke-linecap:butt;stroke-linejoin:miter;stroke-miterlimit:4;stroke-dasharray:none;stroke-dashoffset:0;stroke-opacity:1"
     id="text448-3-5"
     inkscape:label="H"
     x="22.770231"
     y="33.869286"
     transform="matrix(2.45,0,0,2.45,107.41302,107.19006)"><tspan
       sodipodi:role="line"
       id="tspan914"
       x="22.770231"
       y="33.869286">H</tspan></text><text
     xml:space="preserve"
     font-family="'Open Sans', sans-serif"
     font-size="7.34694px"
     font-style="normal"
     font-weight="normal"
     style="font-style:normal;font-variant:normal;font-weight:normal;font-stretch:normal;font-size:7.34694px;font-family:'Open Sans', sans-serif;-inkscape-font-specification:'Open Sans, sans-serif, Normal';font-variant-ligatures:normal;font-variant-caps:normal;font-variant-numeric:normal;font-variant-east-asian:normal;white-space:pre;fill:#ffffff;fill-rule:nonzero;stroke:#ffffff;stroke-width:0.408163;stroke-linecap:butt;stroke-linejoin:miter;stroke-miterlimit:4;stroke-dasharray:none;stroke-dashoffset:0;stroke-opacity:1;fill-opacity:1"
     id="text448-3"
     inkscape:label="G"
     x="23.014275"
     y="60.05838"
     transform="matrix(2.45,0,0,2.45,107.41302,107.19006)"><tspan
       sodipodi:role="line"
       id="tspan640"
       x="23.014275"
       y="60.05838">G</tspan></text><text
     xml:space="preserve"
     font-family="'Open Sans', sans-serif"
     font-size="7.34694px"
     font-style="normal"
     font-weight="normal"
     style="font-style:normal;font-variant:normal;font-weight:normal;font-stretch:normal;font-size:7.34694px;font-family:'Open Sans', sans-serif;-inkscape-font-specification:'Open Sans, sans-serif, Normal';font-variant-ligatures:normal;font-variant-caps:normal;font-variant-numeric:normal;font-variant-east-asian:normal;white-space:pre;fill:#000000;fill-rule:nonzero;stroke:#000000;stroke-width:0.408163;stroke-linecap:butt;stroke-linejoin:miter;stroke-miterlimit:4;stroke-dasharray:none;stroke-dashoffset:0;stroke-opacity:1"
     id="text448-7"
     inkscape:label="F"
     x="46.962528"
     y="23.405922"
     transform="matrix(2.45,0,0,2.45,107.41302,107.19006)"><tspan
       sodipodi:role="line"
       id="tspan611"
       x="46.962528"
       y="23.405922">F</tspan></text><text
     xml:space="preserve"
     font-family="'Open Sans', sans-serif"
     font-size="7.34694px"
     font-style="normal"
     font-weight="normal"
     style="white-space:pre;fill:#ffffff;fill-rule:nonzero;stroke:#ffffff;stroke-width:0.408163;stroke-linecap:butt;stroke-linejoin:miter;stroke-miterlimit:4;stroke-dasharray:none;stroke-dashoffset:0;stroke-opacity:1;fill-opacity:1"
     id="text448-4"
     inkscape:label="E"
     x="7.3919125"
     y="20.809753"
     transform="matrix(2.45,0,0,2.45,107.41302,107.19006)"><tspan
       x="3.2980366"
       y="23.115873"
       id="tspan446-4"
       style="stroke:#ffffff;stroke-width:0.408163;stroke-opacity:1;fill:#ffffff;fill-opacity:1">E</tspan></text><text
     xml:space="preserve"
     font-family="'Open Sans', sans-serif"
     font-size="7.34694px"
     font-style="normal"
     font-weight="normal"
     style="white-space:pre;opacity:1;fill:#000000;fill-rule:nonzero;stroke:#000000;stroke-width:0.408163;stroke-linecap:butt;stroke-linejoin:miter;stroke-miterlimit:4;stroke-dasharray:none;stroke-dashoffset:0;stroke-opacity:1"
     id="text448"
     inkscape:label="C"
     x="27.938679"
     y="-9.3038664"
     transform="matrix(2.45,0,0,2.45,107.41302,107.19006)"><tspan
       x="23.844801"
       y="-6.9977446"
       id="tspan446"
       style="stroke:#000000;stroke-width:0.408163;stroke-opacity:1">C</tspan></text><text
     xml:space="preserve"
     font-family="'Open Sans', sans-serif"
     font-size="7.34694px"
     font-style="normal"
     font-weight="normal"
     style="font-style:normal;font-variant:normal;font-weight:normal;font-stretch:normal;font-size:7.34694px;font-family:'Open Sans', sans-serif;-inkscape-font-specification:'Open Sans, sans-serif, Normal';font-variant-ligatures:normal;font-variant-caps:normal;font-variant-numeric:normal;font-variant-east-asian:normal;white-space:pre;fill:#000000;fill-rule:nonzero;stroke:#000000;stroke-width:0.408163;stroke-linecap:butt;stroke-linejoin:miter;stroke-miterlimit:4;stroke-dasharray:none;stroke-dashoffset:0;stroke-opacity:1"
     id="text448-6"
     inkscape:label="B"
     x="60.20026"
     y="52.501392"
     transform="matrix(2.45,0,0,2.45,107.41302,107.19006)"><tspan
       sodipodi:role="line"
       id="tspan659"
       x="60.20026"
       y="52.501392">B</tspan></text><text
     xml:space="preserve"
     font-family="'Open Sans', sans-serif"
     font-size="7.34694px"
     font-style="normal"
     font-weight="normal"
     style="font-style:normal;font-variant:normal;font-weight:normal;font-stretch:normal;font-size:7.34694px;font-family:'Open Sans', sans-serif;-inkscape-font-specification:'Open Sans, sans-serif, Normal';font-variant-ligatures:normal;font-variant-caps:normal;font-variant-numeric:normal;font-variant-east-asian:normal;white-space:pre;fill:#000000;fill-rule:nonzero;stroke:#000000;stroke-width:0.408163;stroke-linecap:butt;stroke-linejoin:miter;stroke-miterlimit:4;stroke-dasharray:none;stroke-dashoffset:0;stroke-opacity:1"
     id="text448-37"
     inkscape:label="A"
     x="-13.931019"
     y="52.512413"
     transform="matrix(2.45,0,0,2.45,107.41302,107.19006)"><tspan
       sodipodi:role="line"
       id="tspan678"
       x="-13.931019"
       y="52.512413">A</tspan></text></g></g>




</svg>
