<?xml version="1.0" encoding="UTF-8" standalone="no"?>
<svg
   version="1.1"
   width="340"
   height="340"
   viewBox="0 0 339.99999 340.00002"
   xml:space="preserve"
   id="svg452"
   sodipodi:docname="set tri-union.svg"
   inkscape:version="1.2.2 (732a01da63, 2022-12-09)"
   xmlns:inkscape="http://www.inkscape.org/namespaces/inkscape"
   xmlns:sodipodi="http://sodipodi.sourceforge.net/DTD/sodipodi-0.dtd"
   xmlns="http://www.w3.org/2000/svg"
   xmlns:svg="http://www.w3.org/2000/svg"><sodipodi:namedview
   id="namedview454"
   pagecolor="#ffffff"
   bordercolor="#111111"
   borderopacity="1"
   inkscape:showpageshadow="0"
   inkscape:pageopacity="0"
   inkscape:pagecheckerboard="1"
   inkscape:deskcolor="#d1d1d1"
   showgrid="false"
   inkscape:zoom="3.1744507"
   inkscape:cx="136.87408"
   inkscape:cy="187.59151"
   inkscape:window-width="1920"
   inkscape:window-height="1001"
   inkscape:window-x="-9"
   inkscape:window-y="-9"
   inkscape:window-maximized="1"
   inkscape:current-layer="svg452" />
<desc
   id="desc420">Created with Fabric.js 3.6.6</desc>
<defs
   id="defs422">
</defs>

<g
   inkscape:groupmode="layer"
   id="layer1"
   inkscape:label="Background"
   transform="translate(-5.9258809,-10.754487)"
   sodipodi:insensitive="true"><rect
     style="display:inline;fill:#ffffff;stroke:#ffffff;stroke-width:1.49137;image-rendering:auto"
     id="rect750"
     width="339.38416"
     height="339.76062"
     x="6.671566"
     y="11.500173"
     inkscape:label="White Background"
     sodipodi:insensitive="true" /></g><g
   transform="matrix(2.45,0,0,2.45,107.41302,107.19006)"
   id="g428"
   inkscape:label="Venn Diagram">
<circle
   style="opacity:1;fill:none;fill-rule:nonzero;stroke:#000000;stroke-width:3;stroke-linecap:butt;stroke-linejoin:miter;stroke-miterlimit:4;stroke-dasharray:none;stroke-dashoffset:0"
   cx="49.762764"
   cy="47.87595"
   r="40"
   id="circle430"
   inkscape:label="Right Circle" /><circle
   style="fill:none;fill-rule:nonzero;stroke:#000000;stroke-width:3;stroke-linecap:butt;stroke-linejoin:miter;stroke-miterlimit:4;stroke-dasharray:none;stroke-dashoffset:0"
   cx="26.20549"
   cy="3.9313862"
   r="40"
   id="circle430-0"
   inkscape:label="Right Circle" /><circle
   style="opacity:1;fill:none;fill-rule:nonzero;stroke:#000000;stroke-width:3;stroke-linecap:butt;stroke-linejoin:miter;stroke-miterlimit:4;stroke-dasharray:none;stroke-dashoffset:0"
   cx="1.4320207"
   cy="47.87595"
   r="40"
   id="circle426"
   inkscape:label="Left Circle" /><text
   xml:space="preserve"
   font-family="'Open Sans', sans-serif"
   font-size="7.34694px"
   font-style="normal"
   font-weight="normal"
   style="white-space:pre;opacity:1;fill:#000000;fill-rule:nonzero;stroke:#000000;stroke-width:0.408163;stroke-linecap:butt;stroke-linejoin:miter;stroke-miterlimit:4;stroke-dasharray:none;stroke-dashoffset:0;stroke-opacity:1"
   id="text448"
   inkscape:label="C"
   x="27.938679"
   y="-9.3038664"><tspan
     x="23.844801"
     y="-6.9977446"
     id="tspan446"
     style="stroke:#000000;stroke-width:0.408163;stroke-opacity:1">C</tspan></text><text
   xml:space="preserve"
   font-family="'Open Sans', sans-serif"
   font-size="7.34694px"
   font-style="normal"
   font-weight="normal"
   style="font-style:normal;font-variant:normal;font-weight:normal;font-stretch:normal;font-size:7.34694px;font-family:'Open Sans', sans-serif;-inkscape-font-specification:'Open Sans, sans-serif, Normal';font-variant-ligatures:normal;font-variant-caps:normal;font-variant-numeric:normal;font-variant-east-asian:normal;white-space:pre;fill:#000000;fill-rule:nonzero;stroke:#000000;stroke-width:0.408163;stroke-linecap:butt;stroke-linejoin:miter;stroke-miterlimit:4;stroke-dasharray:none;stroke-dashoffset:0;stroke-opacity:1"
   id="text448-3"
   inkscape:label="G"
   x="23.014275"
   y="60.05838"><tspan
     sodipodi:role="line"
     id="tspan640"
     x="23.014275"
     y="60.05838">G</tspan></text><text
   xml:space="preserve"
   font-family="'Open Sans', sans-serif"
   font-size="7.34694px"
   font-style="normal"
   font-weight="normal"
   style="font-style:normal;font-variant:normal;font-weight:normal;font-stretch:normal;font-size:7.34694px;font-family:'Open Sans', sans-serif;-inkscape-font-specification:'Open Sans, sans-serif, Normal';font-variant-ligatures:normal;font-variant-caps:normal;font-variant-numeric:normal;font-variant-east-asian:normal;white-space:pre;fill:#ffffff;fill-opacity:1;fill-rule:nonzero;stroke:#ffffff;stroke-width:0.408163;stroke-linecap:butt;stroke-linejoin:miter;stroke-miterlimit:4;stroke-dasharray:none;stroke-dashoffset:0;stroke-opacity:1"
   id="text448-3-5"
   inkscape:label="H"
   x="22.770231"
   y="33.869286"><tspan
     sodipodi:role="line"
     id="tspan914"
     x="22.770231"
     y="33.869286">H</tspan></text><text
   xml:space="preserve"
   font-family="'Open Sans', sans-serif"
   font-size="7.34694px"
   font-style="normal"
   font-weight="normal"
   style="font-style:normal;font-variant:normal;font-weight:normal;font-stretch:normal;font-size:7.34694px;font-family:'Open Sans', sans-serif;-inkscape-font-specification:'Open Sans, sans-serif, Normal';font-variant-ligatures:normal;font-variant-caps:normal;font-variant-numeric:normal;font-variant-east-asian:normal;white-space:pre;fill:#000000;fill-rule:nonzero;stroke:#000000;stroke-width:0.408163;stroke-linecap:butt;stroke-linejoin:miter;stroke-miterlimit:4;stroke-dasharray:none;stroke-dashoffset:0;stroke-opacity:1"
   id="text448-7"
   inkscape:label="F"
   x="46.962528"
   y="23.405922"><tspan
     sodipodi:role="line"
     id="tspan611"
     x="46.962528"
     y="23.405922">F</tspan></text>
<text
   xml:space="preserve"
   font-family="'Open Sans', sans-serif"
   font-size="7.34694px"
   font-style="normal"
   font-weight="normal"
   style="white-space:pre;fill:#000000;fill-rule:nonzero;stroke:#000000;stroke-width:0.408163;stroke-linecap:butt;stroke-linejoin:miter;stroke-miterlimit:4;stroke-dasharray:none;stroke-dashoffset:0;stroke-opacity:1"
   id="text448-4"
   inkscape:label="B"
   x="7.3919125"
   y="20.809753"><tspan
     x="3.2980366"
     y="23.115873"
     id="tspan446-4"
     style="stroke:#000000;stroke-width:0.408163;stroke-opacity:1">E</tspan></text><text
   xml:space="preserve"
   style="font-size:10.8844px;font-family:sans-serif;-inkscape-font-specification:'sans-serif, Normal';fill:#a1a1a1;stroke:#a1a1a1;stroke-width:0.408163"
   x="42.412258"
   y="-0.55018729"
   id="text572"><tspan
     sodipodi:role="line"
     id="tspan570"
     style="stroke-width:0.408163"
     x="42.412258"
     y="-0.55018729"></tspan></text><text
   xml:space="preserve"
   font-family="'Open Sans', sans-serif"
   font-size="7.34694px"
   font-style="normal"
   font-weight="normal"
   style="font-style:normal;font-variant:normal;font-weight:normal;font-stretch:normal;font-size:7.34694px;font-family:'Open Sans', sans-serif;-inkscape-font-specification:'Open Sans, sans-serif, Normal';font-variant-ligatures:normal;font-variant-caps:normal;font-variant-numeric:normal;font-variant-east-asian:normal;white-space:pre;fill:#000000;fill-rule:nonzero;stroke:#000000;stroke-width:0.408163;stroke-linecap:butt;stroke-linejoin:miter;stroke-miterlimit:4;stroke-dasharray:none;stroke-dashoffset:0;stroke-opacity:1"
   id="text448-6"
   inkscape:label="B"
   x="60.20026"
   y="52.501392"><tspan
     sodipodi:role="line"
     id="tspan659"
     x="60.20026"
     y="52.501392">B</tspan></text><text
   xml:space="preserve"
   font-family="'Open Sans', sans-serif"
   font-size="7.34694px"
   font-style="normal"
   font-weight="normal"
   style="font-style:normal;font-variant:normal;font-weight:normal;font-stretch:normal;font-size:7.34694px;font-family:'Open Sans', sans-serif;-inkscape-font-specification:'Open Sans, sans-serif, Normal';font-variant-ligatures:normal;font-variant-caps:normal;font-variant-numeric:normal;font-variant-east-asian:normal;white-space:pre;fill:#000000;fill-rule:nonzero;stroke:#000000;stroke-width:0.408163;stroke-linecap:butt;stroke-linejoin:miter;stroke-miterlimit:4;stroke-dasharray:none;stroke-dashoffset:0;stroke-opacity:1"
   id="text448-37"
   inkscape:label="A"
   x="-13.931019"
   y="52.512413"><tspan
     sodipodi:role="line"
     id="tspan678"
     x="-13.931019"
     y="52.512413">A</tspan></text><path
   style="fill:#999999;stroke:#999999;stroke-width:1;stroke-dasharray:none;stroke-opacity:1"
   d="m 173.6282,301.42571 c -3.74733,-3.22523 -5.86488,-5.31229 -9.00564,-8.87599 -13.60554,-15.43766 -21.49651,-33.72965 -23.41583,-54.28001 -0.33777,-3.61659 -0.20812,-15.64387 0.20571,-19.08362 l 0.16295,-1.35445 1.90148,0.6902 c 5.70797,2.07188 14.20809,4.05378 21.48627,5.00977 4.86503,0.63901 18.49816,0.73235 23.29239,0.15946 6.87644,-0.8217 13.06002,-2.09928 18.97851,-3.9211 1.53145,-0.47141 2.82233,-0.81925 2.8686,-0.77298 0.33886,0.33886 0.75802,10.03931 0.6083,14.07761 -0.76586,20.65745 -7.69015,39.44263 -20.54815,55.74585 -2.40057,3.04379 -11.65164,12.51296 -13.46283,13.78023 l -0.94133,0.65864 z m 6.66664,-41.03798 1.4742,-0.34191 0.0825,-3.75755 0.0825,-3.75756 h -2.95721 -2.95721 v 1.32678 1.32679 h 1.4742 1.4742 v 1.32116 c 0,1.17083 -0.0857,1.34267 -0.75311,1.51018 -1.06745,0.26791 -2.78982,-0.0672 -3.66258,-0.71257 -1.0649,-0.78747 -1.52324,-1.90822 -1.52324,-3.72468 0,-3.74024 2.59676,-5.41314 6.39884,-4.1223 0.75077,0.2549 1.38957,0.42074 1.41954,0.36855 0.03,-0.0522 0.29043,-0.61303 0.57878,-1.24631 0.42291,-0.92879 0.44972,-1.19937 0.13868,-1.39943 -1.27129,-0.81767 -5.0134,-1.10715 -7.03878,-0.5445 -1.56763,0.43548 -3.3861,2.14075 -4.0116,3.76186 -0.33619,0.87133 -0.53314,2.12879 -0.52317,3.3403 0.0279,3.39084 1.70644,5.91965 4.48446,6.75613 1.15419,0.34752 4.09686,0.29446 5.81896,-0.10494 z"
   id="path985"
   transform="matrix(0.40816327,0,0,0.40816327,-46.160176,-46.039833)"
   inkscape:label="G Background" /><path
   style="fill:#999999;stroke:#999999;stroke-width:1;stroke-dasharray:none;stroke-opacity:1"
   d="m 215.40445,205.41741 c -1.60652,-6.80107 -5.25228,-16.37638 -8.66725,-22.76385 -5.30578,-9.92408 -10.64771,-17.02477 -19.11158,-25.4038 l -5.25997,-5.20725 2.31693,-1.48625 c 20.71605,-13.28879 46.65574,-17.75761 71.2425,-12.27345 3.39003,0.75616 13.41153,3.8774 13.41153,4.17708 0,0.0795 -0.27332,1.2281 -0.60738,2.55241 -6.6746,26.46044 -24.3354,48.78723 -48.27653,61.03122 l -4.37218,2.23602 z m 16.78228,-37.35844 v -2.80098 h 2.65356 2.65357 v -1.32679 -1.32678 h -2.65357 -2.65356 v -1.62162 -1.62162 h 2.80099 2.80098 v -1.32678 -1.32678 h -4.27519 -4.27518 v 7.07616 7.07617 h 1.4742 1.4742 z"
   id="path1750"
   transform="matrix(0.40816327,0,0,0.40816327,-46.160176,-46.039833)"
   inkscape:label="F Background" /><path
   style="fill:#999999;stroke:#999999;stroke-width:0.29484;stroke-dasharray:none;stroke-opacity:1"
   d="m 132.08845,205.02208 c -7.813,-4.31918 -14.82495,-9.60891 -21.23699,-16.02096 -9.13715,-9.13715 -16.223227,-19.82812 -21.013585,-31.70382 -2.310623,-5.72823 -5.087982,-15.44022 -4.562169,-15.95319 0.345149,-0.33672 6.744144,-2.22208 10.397201,-3.06337 18.721933,-4.31162 39.611153,-2.51338 57.201783,4.92418 3.97852,1.68217 9.64087,4.60311 13.36565,6.8947 l 3.19365,1.96483 -2.60397,2.37336 c -14.83056,13.51718 -25.27548,30.62715 -30.26367,49.57532 -0.38184,1.45046 -0.81584,2.67425 -0.96445,2.71954 -0.14861,0.0453 -1.72966,-0.72448 -3.51345,-1.71059 z m -1.32678,-36.37343 v -1.32678 h -2.80098 -2.80098 v -1.62162 -1.62163 h 2.65356 2.65356 v -1.32678 -1.32678 h -2.65356 -2.65356 v -1.32678 -1.32678 h 2.80098 2.80098 v -1.4742 -1.4742 h -4.27518 -4.27519 v 7.07616 7.07617 h 4.27519 4.27518 z"
   id="path1752"
   transform="matrix(0.40816327,0,0,0.40816327,-46.160176,-46.039833)"
   inkscape:label="E Background" /><path
   style="fill:#333333;stroke:#333333;stroke-width:1;stroke-dasharray:none;stroke-opacity:1"
   d="m 170.41769,216.37226 c -0.48649,-0.0548 -2.27764,-0.24634 -3.98034,-0.4257 -6.12976,-0.64573 -12.66226,-2.11105 -19.23833,-4.3154 -4.55849,-1.52804 -4.36152,-1.29156 -3.59475,-4.31588 3.82091,-15.07059 11.6848,-29.63232 22.01486,-40.76542 2.88816,-3.11267 7.43932,-7.47122 9.21812,-8.82797 l 1.036,-0.7902 1.69482,1.41238 c 2.83988,2.3666 9.81797,9.54042 12.31269,12.65805 9.06365,11.32673 15.77305,25.36497 18.84455,39.42887 0.17134,0.78452 0.12051,0.8165 -2.70286,1.70073 -6.57607,2.05953 -13.78426,3.49309 -20.71532,4.11985 -3.10082,0.2804 -12.77437,0.35881 -14.88944,0.12069 z m 2.50614,-22.95703 v -3.09582 h 2.65357 2.65356 v 3.09582 3.09583 h 1.4742 1.4742 v -7.07617 -7.07617 h -1.4742 -1.4742 v 2.65357 2.65356 h -2.65356 -2.65357 v -2.65356 -2.65357 h -1.4742 -1.4742 v 7.07617 7.07617 h 1.4742 1.4742 z"
   id="path1823"
   transform="matrix(0.40816327,0,0,0.40816327,-46.160176,-46.039833)"
   inkscape:label="H Background" /></g>




</svg>
