<?xml version="1.0" encoding="UTF-8" standalone="no"?>
<svg
   version="1.1"
   width="340"
   height="340"
   viewBox="0 0 339.99999 340.00002"
   xml:space="preserve"
   id="svg452"
   sodipodi:docname="set tri-difference.svg"
   inkscape:version="1.2.2 (732a01da63, 2022-12-09)"
   xmlns:inkscape="http://www.inkscape.org/namespaces/inkscape"
   xmlns:sodipodi="http://sodipodi.sourceforge.net/DTD/sodipodi-0.dtd"
   xmlns:xlink="http://www.w3.org/1999/xlink"
   xmlns="http://www.w3.org/2000/svg"
   xmlns:svg="http://www.w3.org/2000/svg"><sodipodi:namedview
   id="namedview454"
   pagecolor="#ffffff"
   bordercolor="#111111"
   borderopacity="1"
   inkscape:showpageshadow="0"
   inkscape:pageopacity="0"
   inkscape:pagecheckerboard="1"
   inkscape:deskcolor="#d1d1d1"
   showgrid="false"
   inkscape:zoom="2.2446756"
   inkscape:cx="75.066526"
   inkscape:cy="170.84874"
   inkscape:window-width="1920"
   inkscape:window-height="1001"
   inkscape:window-x="-9"
   inkscape:window-y="-9"
   inkscape:window-maximized="1"
   inkscape:current-layer="g428" />
<desc
   id="desc420">Created with Fabric.js 3.6.6</desc>
<defs
   id="defs422"><pattern
   inkscape:collect="always"
   xlink:href="#Strips1_1"
   id="pattern6078"
   patternTransform="matrix(2.6683056,-0.7355865,10.110342,36.674785,0,0)" /><pattern
   inkscape:collect="always"
   xlink:href="#Strips1_1"
   id="pattern6076"
   patternTransform="matrix(2.502739,-0.79897318,11.473637,35.940525,0,0)" /><pattern
   inkscape:collect="always"
   xlink:href="#Strips1_1"
   id="pattern6061"
   patternTransform="matrix(2.5294954,2.2489394,-6.225841,7.0025166,119.70575,78.753779)" /><pattern
   inkscape:collect="always"
   xlink:href="#Strips1_1"
   id="pattern3775"
   patternTransform="matrix(2.8634032,2.6529028,-1.6321632,1.7616707,-134.46777,-211.94779)" /><pattern
   inkscape:collect="always"
   patternUnits="userSpaceOnUse"
   width="2"
   height="1"
   patternTransform="translate(0,0) scale(10,10)"
   id="Strips1_1"
   inkscape:stockid="Stripes 1:1"
   inkscape:isstock="true"><rect
     style="fill:black;stroke:none"
     x="0"
     y="-0.5"
     width="1"
     height="2"
     id="rect1944" /></pattern>
<pattern
   patternUnits="userSpaceOnUse"
   width="71.204444"
   height="85.961155"
   patternTransform="translate(134.46777,211.94779)"
   id="pattern3789"><path
     style="fill:url(#pattern3775);fill-opacity:1;stroke:#ffffff;stroke-width:0;stroke-linecap:square;stroke-miterlimit:0;stroke-dasharray:none;stroke-opacity:1"
     d="m 1.7799711,0.00448479 c -2.42241,1.23232001 -1.02205,5.02097001 -1.60219,7.30398001 -1.73921,27.4500502 9.37034,55.2138002 29.4654399,73.9745102 2.15561,1.37586 3.88494,5.13595 6.75026,4.63204 7.21905,-5.65938 13.20599,-12.89161 18.61149,-20.27764 10.64844,-15.73833 16.76312,-34.66912 16.11735,-53.74841 -0.41919,-3.3050302 0.94845,-7.4033302 -0.99268,-10.2688002 -3.88143,-1.16987001 -7.84734,1.72862 -11.77457,1.97271 -18.3038,3.69312 -37.46923,2.6556 -55.1821499,-3.42227001 -0.45715,-0.0914 -0.92365,-0.19335 -1.39295,-0.16612 z"
     id="path392" /></pattern></defs>

<g
   inkscape:groupmode="layer"
   id="layer1"
   inkscape:label="Background"
   transform="translate(-5.9258809,-10.754487)"
   sodipodi:insensitive="true"><rect
     style="display:inline;fill:#ffffff;stroke:#ffffff;stroke-width:1.49137;image-rendering:auto"
     id="rect750"
     width="339.38416"
     height="339.76062"
     x="6.671566"
     y="11.500173"
     inkscape:label="White Background"
     sodipodi:insensitive="true" /></g><g
   transform="matrix(2.45,0,0,2.45,107.41302,107.19006)"
   id="g428"
   inkscape:label="Venn Diagram">
<circle
   style="opacity:1;fill:none;fill-rule:nonzero;stroke:#000000;stroke-width:3;stroke-linecap:butt;stroke-linejoin:miter;stroke-miterlimit:4;stroke-dasharray:none;stroke-dashoffset:0"
   cx="49.762764"
   cy="47.87595"
   r="40"
   id="circle430"
   inkscape:label="Right Circle" /><circle
   style="fill:none;fill-rule:nonzero;stroke:#000000;stroke-width:3;stroke-linecap:butt;stroke-linejoin:miter;stroke-miterlimit:4;stroke-dasharray:none;stroke-dashoffset:0"
   cx="26.20549"
   cy="3.9313862"
   r="40"
   id="circle430-0"
   inkscape:label="Right Circle" /><circle
   style="opacity:1;fill:none;fill-rule:nonzero;stroke:#000000;stroke-width:3;stroke-linecap:butt;stroke-linejoin:miter;stroke-miterlimit:4;stroke-dasharray:none;stroke-dashoffset:0"
   cx="1.4320207"
   cy="47.87595"
   r="40"
   id="circle426"
   inkscape:label="Left Circle"
   sodipodi:insensitive="true" />
<path
   style="fill:url(#pattern6078);fill-opacity:1;stroke:#ffffff;stroke-width:0;stroke-linecap:square;stroke-miterlimit:0;stroke-dasharray:none;stroke-opacity:1"
   d="m 109.69356,129.35309 c -10.463626,0.0709 -20.805844,2.17143 -30.736125,5.37125 -1.320966,1.29241 0.154988,3.29998 0.266409,4.84951 4.43552,18.15693 14.435169,34.83648 28.276646,47.38491 6.6548,6.18888 14.27796,11.41319 22.42335,15.36494 1.84489,-0.11153 1.37921,-2.86059 2.06023,-4.17141 3.99257,-14.77786 11.35461,-28.62983 21.5198,-40.06897 3.46528,-3.90219 7.42803,-7.39914 10.88415,-11.25932 0.42887,-1.77692 -2.31087,-2.12799 -3.33161,-3.15372 -15.29381,-9.55403 -33.32836,-14.6009 -51.36285,-14.31719 z"
   id="path6068"
   transform="matrix(0.40816327,0,0,0.40816327,-43.842049,-43.751045)" /><path
   style="fill:url(#pattern6076);fill-opacity:1;stroke:#ffffff;stroke-width:0;stroke-linecap:square;stroke-miterlimit:0;stroke-dasharray:none;stroke-opacity:1"
   d="m 170.12601,150.59446 c -2.68566,0.95123 -4.46459,3.51728 -6.62577,5.28327 -13.36662,12.75979 -22.81966,29.46848 -26.96345,47.47186 -1.12012,2.09189 1.49732,2.56483 2.93898,3.03343 8.60308,2.96299 17.61249,5.01597 26.71993,5.37961 9.86664,0.11601 19.87494,-0.055 29.41462,-2.88075 2.65857,-0.88971 5.67973,-1.19849 8.03343,-2.76047 0.74975,-2.13129 -0.53587,-4.43362 -0.90321,-6.55748 -4.89746,-17.86402 -15.06742,-34.19388 -28.94548,-46.46329 -1.15621,-0.83068 -2.14252,-2.42385 -3.66905,-2.50618 z"
   id="path6070"
   transform="matrix(0.40816327,0,0,0.40816327,-43.842049,-43.751045)" /><g
   inkscape:groupmode="layer"
   id="layer3"
   inkscape:label="Removed Chunks"
   transform="matrix(0.40816327,0,0,0.40816327,-43.842049,-43.751045)"
   sodipodi:insensitive="true"
   style="display:inline"><rect
     style="fill:url(#pattern3789);stroke:none"
     width="71.204445"
     height="85.961159"
     x="134.46777"
     y="211.94778"
     id="rect3792" /><path
     style="fill:url(#pattern6061);fill-opacity:1;stroke:#ffffff;stroke-width:0;stroke-linecap:square;stroke-miterlimit:0;stroke-dasharray:none;stroke-opacity:1"
     d="m 169.67379,150.75935 c -12.761,10.26022 -22.71811,24.08053 -28.75989,39.27722 -1.60674,4.96246 -4.36614,10.1199 -3.63252,15.40005 11.89865,4.29276 24.54391,6.96232 37.26505,5.98692 10.00922,-0.0539 20.2119,-1.76703 29.42587,-5.45533 -4.17803,-21.55686 -16.4779,-41.67193 -33.58186,-55.35794 l -0.21459,-0.0687 z"
     id="path4595" /></g><path
   style="fill:#b3b3b3;stroke:#ffffff;stroke-width:0;stroke-linecap:square;stroke-miterlimit:0"
   d="m 71.534276,138.49837 c -7.550277,2.61907 -14.339878,7.3846 -20.42092,12.52846 -10.870431,9.58486 -20.781645,20.65399 -26.484904,34.14962 -6.227708,13.07375 -8.959833,27.58648 -8.346107,42.02944 -0.03919,23.66212 10.619637,46.7075 26.870421,63.62019 16.562666,16.9288 39.747239,27.67019 63.488454,28.42472 14.94146,0.39753 30.03198,-2.00679 43.62592,-8.39854 4.83077,-2.34208 9.94453,-4.68572 13.99356,-8.12888 -4.18142,-5.61357 -9.97983,-10.22941 -14.35657,-15.85428 -17.14404,-21.42534 -24.07559,-49.83037 -20.66548,-76.77985 -2.70511,-3.88185 -7.9567,-5.05461 -11.59403,-7.95044 -11.41303,-7.09047 -21.174336,-17.20249 -29.140136,-27.82839 -7.595916,-10.68085 -11.816675,-23.28864 -15.872578,-35.52903 -0.302767,-0.24912 -0.716817,-0.31727 -1.09763,-0.28302 z"
   id="path390"
   transform="matrix(0.40816327,0,0,0.40816327,-43.842049,-43.751045)"
   inkscape:label="Filled In" /><g
   inkscape:groupmode="layer"
   id="layer2"
   inkscape:label="Labels"
   style="display:inline"
   transform="matrix(0.40816327,0,0,0.40816327,-43.842049,-43.751045)"><text
     xml:space="preserve"
     font-family="'Open Sans', sans-serif"
     font-size="7.34694px"
     font-style="normal"
     font-weight="normal"
     style="white-space:pre;opacity:1;fill:#000000;fill-rule:nonzero;stroke:#000000;stroke-width:0.408163;stroke-linecap:butt;stroke-linejoin:miter;stroke-miterlimit:4;stroke-dasharray:none;stroke-dashoffset:0;stroke-opacity:1"
     id="text448"
     inkscape:label="C"
     x="27.938679"
     y="-9.3038664"
     transform="matrix(2.45,0,0,2.45,107.41302,107.19006)"><tspan
       x="23.844801"
       y="-6.9977446"
       id="tspan446"
       style="stroke:#000000;stroke-width:0.408163;stroke-opacity:1">C</tspan></text><text
     xml:space="preserve"
     font-family="'Open Sans', sans-serif"
     font-size="7.34694px"
     font-style="normal"
     font-weight="normal"
     style="font-style:normal;font-variant:normal;font-weight:normal;font-stretch:normal;font-size:7.34694px;font-family:'Open Sans', sans-serif;-inkscape-font-specification:'Open Sans, sans-serif, Normal';font-variant-ligatures:normal;font-variant-caps:normal;font-variant-numeric:normal;font-variant-east-asian:normal;white-space:pre;fill:#000000;fill-rule:nonzero;stroke:#000000;stroke-width:0.408163;stroke-linecap:butt;stroke-linejoin:miter;stroke-miterlimit:4;stroke-dasharray:none;stroke-dashoffset:0;stroke-opacity:1"
     id="text448-6"
     inkscape:label="B"
     x="60.20026"
     y="52.501392"
     transform="matrix(2.45,0,0,2.45,107.41302,107.19006)"><tspan
       sodipodi:role="line"
       id="tspan659"
       x="60.20026"
       y="52.501392">B</tspan></text><text
     xml:space="preserve"
     font-family="'Open Sans', sans-serif"
     font-size="7.34694px"
     font-style="normal"
     font-weight="normal"
     style="font-style:normal;font-variant:normal;font-weight:normal;font-stretch:normal;font-size:7.34694px;font-family:'Open Sans', sans-serif;-inkscape-font-specification:'Open Sans, sans-serif, Normal';font-variant-ligatures:normal;font-variant-caps:normal;font-variant-numeric:normal;font-variant-east-asian:normal;white-space:pre;display:inline;fill:#000000;fill-rule:nonzero;stroke:#000000;stroke-width:0.408163;stroke-linecap:butt;stroke-linejoin:miter;stroke-miterlimit:4;stroke-dasharray:none;stroke-dashoffset:0;stroke-opacity:1"
     id="text448-37"
     inkscape:label="A"
     x="-13.931019"
     y="52.512413"
     transform="matrix(2.45,0,0,2.45,107.41302,107.19006)"><tspan
       sodipodi:role="line"
       id="tspan678"
       x="-13.931019"
       y="52.512413">A</tspan></text></g></g>




</svg>
