<?xml version="1.0" encoding="UTF-8" standalone="no"?>
<svg
   version="1.1"
   width="340"
   height="340"
   viewBox="0 0 339.99999 340.00002"
   xml:space="preserve"
   id="svg452"
   sodipodi:docname="set tri-symmetric-difference.svg"
   inkscape:version="1.2.2 (732a01da63, 2022-12-09)"
   xmlns:inkscape="http://www.inkscape.org/namespaces/inkscape"
   xmlns:sodipodi="http://sodipodi.sourceforge.net/DTD/sodipodi-0.dtd"
   xmlns:xlink="http://www.w3.org/1999/xlink"
   xmlns="http://www.w3.org/2000/svg"
   xmlns:svg="http://www.w3.org/2000/svg"><sodipodi:namedview
   id="namedview454"
   pagecolor="#ffffff"
   bordercolor="#111111"
   borderopacity="1"
   inkscape:showpageshadow="0"
   inkscape:pageopacity="0"
   inkscape:pagecheckerboard="1"
   inkscape:deskcolor="#d1d1d1"
   showgrid="false"
   inkscape:zoom="2.2446756"
   inkscape:cx="-7.1279788"
   inkscape:cy="171.73974"
   inkscape:window-width="1920"
   inkscape:window-height="1001"
   inkscape:window-x="-9"
   inkscape:window-y="-9"
   inkscape:window-maximized="1"
   inkscape:current-layer="layer2" />
<desc
   id="desc420">Created with Fabric.js 3.6.6</desc>
<defs
   id="defs422"><pattern
   inkscape:collect="always"
   xlink:href="#Strips1_1"
   id="pattern3586"
   patternTransform="matrix(2.3560485,2.3355889,-2.0219501,2.0396621,0,0)" /><pattern
   inkscape:collect="always"
   xlink:href="#Strips1_1"
   id="pattern6078"
   patternTransform="matrix(2.6683056,-0.7355865,10.110342,36.674785,0,0)" /><pattern
   inkscape:collect="always"
   xlink:href="#Strips1_1"
   id="pattern3775"
   patternTransform="matrix(2.8634032,2.6529028,-1.6321632,1.7616707,-134.46777,-211.94779)" /><pattern
   inkscape:collect="always"
   patternUnits="userSpaceOnUse"
   width="2"
   height="1"
   patternTransform="translate(0,0) scale(10,10)"
   id="Strips1_1"
   inkscape:stockid="Stripes 1:1"
   inkscape:isstock="true"><rect
     style="fill:black;stroke:none"
     x="0"
     y="-0.5"
     width="1"
     height="2"
     id="rect1944" /></pattern>
<pattern
   patternUnits="userSpaceOnUse"
   width="71.204444"
   height="85.961155"
   patternTransform="translate(134.46777,211.94779)"
   id="pattern3789"><path
     style="fill:url(#pattern3775);fill-opacity:1;stroke:#ffffff;stroke-width:0;stroke-linecap:square;stroke-miterlimit:0;stroke-dasharray:none;stroke-opacity:1"
     d="m 1.7799711,0.00448479 c -2.42241,1.23232001 -1.02205,5.02097001 -1.60219,7.30398001 -1.73921,27.4500502 9.37034,55.2138002 29.4654399,73.9745102 2.15561,1.37586 3.88494,5.13595 6.75026,4.63204 7.21905,-5.65938 13.20599,-12.89161 18.61149,-20.27764 10.64844,-15.73833 16.76312,-34.66912 16.11735,-53.74841 -0.41919,-3.3050302 0.94845,-7.4033302 -0.99268,-10.2688002 -3.88143,-1.16987001 -7.84734,1.72862 -11.77457,1.97271 -18.3038,3.69312 -37.46923,2.6556 -55.1821499,-3.42227001 -0.45715,-0.0914 -0.92365,-0.19335 -1.39295,-0.16612 z"
     id="path392" /></pattern></defs>

<g
   inkscape:groupmode="layer"
   id="layer1"
   inkscape:label="Background"
   transform="translate(-5.9258809,-10.754487)"
   sodipodi:insensitive="true"><rect
     style="display:inline;fill:#ffffff;stroke:#ffffff;stroke-width:1.49137;image-rendering:auto"
     id="rect750"
     width="339.38416"
     height="339.76062"
     x="6.671566"
     y="11.500173"
     inkscape:label="White Background"
     sodipodi:insensitive="true" /></g><g
   transform="matrix(2.45,0,0,2.45,107.41302,107.19006)"
   id="g428"
   inkscape:label="Venn Diagram">

<g
   inkscape:groupmode="layer"
   id="layer4"
   inkscape:label="Circles"><circle
     style="opacity:1;fill:none;fill-rule:nonzero;stroke:#000000;stroke-width:3;stroke-linecap:butt;stroke-linejoin:miter;stroke-miterlimit:4;stroke-dasharray:none;stroke-dashoffset:0"
     cx="49.762764"
     cy="47.87595"
     r="40"
     id="circle430"
     inkscape:label="Right Circle" /><circle
     style="fill:none;fill-rule:nonzero;stroke:#000000;stroke-width:3;stroke-linecap:butt;stroke-linejoin:miter;stroke-miterlimit:4;stroke-dasharray:none;stroke-dashoffset:0"
     cx="26.20549"
     cy="3.9313862"
     r="40"
     id="circle430-0"
     inkscape:label="Top Circle" /><circle
     style="opacity:1;fill:none;fill-rule:nonzero;stroke:#000000;stroke-width:3;stroke-linecap:butt;stroke-linejoin:miter;stroke-miterlimit:4;stroke-dasharray:none;stroke-dashoffset:0"
     cx="1.4320207"
     cy="47.87595"
     r="40"
     id="circle426"
     inkscape:label="Left Circle"
     sodipodi:insensitive="true" /></g><g
   inkscape:groupmode="layer"
   id="layer3"
   inkscape:label="Removed Chunks"
   transform="matrix(0.40816327,0,0,0.40816327,-43.842049,-43.751045)"
   style="display:inline"><rect
     style="fill:url(#pattern3789);stroke:none"
     width="71.204445"
     height="85.961159"
     x="134.46777"
     y="211.94778"
     id="rect3792" /><path
     style="fill:url(#pattern3586);fill-opacity:1;stroke:#000000;stroke-width:0;stroke-linecap:square;stroke-miterlimit:0;stroke-opacity:1"
     d="m 228.80359,129.43738 c -18.60287,0.0247 -37.0103,5.92729 -52.49575,16.15628 -1.09975,2.48634 3.10295,3.95092 4.27943,5.93201 14.17555,13.71105 24.39417,31.3831 28.85627,50.56889 0.73134,2.7813 3.6688,0.21852 5.14325,-0.4455 24.65204,-12.67864 43.66237,-36.32187 49.59914,-63.51576 0.65947,-2.82237 -3.34662,-3.13648 -5.1346,-3.94759 -9.7495,-3.15914 -19.99418,-4.81768 -30.24774,-4.74833 z"
     id="path329"
     inkscape:label="path329" /><path
     style="fill:url(#pattern6078);fill-opacity:1;stroke:#ffffff;stroke-width:0;stroke-linecap:square;stroke-miterlimit:0;stroke-dasharray:none;stroke-opacity:1"
     d="m 109.69356,129.35309 c -10.463626,0.0709 -20.805844,2.17143 -30.736125,5.37125 -1.320966,1.29241 0.154988,3.29998 0.266409,4.84951 4.43552,18.15693 14.435169,34.83648 28.276646,47.38491 6.6548,6.18888 14.27796,11.41319 22.42335,15.36494 1.84489,-0.11153 1.37921,-2.86059 2.06023,-4.17141 3.99257,-14.77786 11.35461,-28.62983 21.5198,-40.06897 3.46528,-3.90219 7.42803,-7.39914 10.88415,-11.25932 0.42887,-1.77692 -2.31087,-2.12799 -3.33161,-3.15372 -15.29381,-9.55403 -33.32836,-14.6009 -51.36285,-14.31719 z"
     id="path6068" /><path
     style="fill:#b3b3b3;stroke:#000000;stroke-width:0;stroke-linecap:square;stroke-miterlimit:0"
     d="m 169.81766,150.91094 c -3.39438,1.41735 -5.6709,4.78332 -8.40364,7.16968 -12.23231,12.57365 -21.16437,28.58094 -24.75382,45.78375 0.73777,2.53613 4.24533,2.61793 6.30527,3.59371 10.88737,3.29354 22.2914,5.07715 33.67851,4.13864 8.99664,-0.31214 17.94628,-2.12229 26.43467,-5.05849 1.7895,-1.8929 -0.30668,-4.85337 -0.48465,-7.03227 -5.06419,-18.71358 -16.07148,-35.8334 -31.09441,-48.07905 -0.50601,-0.30276 -1.07913,-0.55518 -1.68193,-0.51597 z"
     id="path388" /></g><path
   style="fill:#b3b3b3;stroke:#ffffff;stroke-width:0;stroke-linecap:square;stroke-miterlimit:0"
   d="m 71.534276,138.49837 c -7.550277,2.61907 -14.339878,7.3846 -20.42092,12.52846 -10.870431,9.58486 -20.781645,20.65399 -26.484904,34.14962 -6.227708,13.07375 -8.959833,27.58648 -8.346107,42.02944 -0.03919,23.66212 10.619637,46.7075 26.870421,63.62019 16.562666,16.9288 39.747239,27.67019 63.488454,28.42472 14.94146,0.39753 30.03198,-2.00679 43.62592,-8.39854 4.83077,-2.34208 9.94453,-4.68572 13.99356,-8.12888 -4.18142,-5.61357 -9.97983,-10.22941 -14.35657,-15.85428 -17.14404,-21.42534 -24.07559,-49.83037 -20.66548,-76.77985 -2.70511,-3.88185 -7.9567,-5.05461 -11.59403,-7.95044 -11.41303,-7.09047 -21.174336,-17.20249 -29.140136,-27.82839 -7.595916,-10.68085 -11.816675,-23.28864 -15.872578,-35.52903 -0.302767,-0.24912 -0.716817,-0.31727 -1.09763,-0.28302 z"
   id="path390"
   transform="matrix(0.40816327,0,0,0.40816327,-43.842049,-43.751045)"
   inkscape:label="Filled In A" /><path
   style="fill:#b3b3b3;fill-opacity:1;stroke:#000000;stroke-width:0;stroke-linecap:square;stroke-miterlimit:0;stroke-opacity:1"
   d="M 169.92468,21.94081 C 137.05214,21.920087 105.32198,41.116313 89.183266,69.606557 79.029232,87.082031 74.807493,107.8848 77.238332,127.92599 c 1.572246,1.57188 4.10594,-0.35708 5.975506,-0.47719 16.271928,-4.64802 33.646712,-4.7024 50.210402,-1.34222 12.97316,2.84561 25.15509,8.7026 36.09845,16.14671 2.47011,0.10805 4.28483,-2.48306 6.4606,-3.43434 21.02354,-12.96449 46.66852,-18.04816 70.91695,-13.58423 6.15679,0.89256 12.20855,3.01726 18.21327,4.4745 1.71767,-1.24965 0.91714,-4.2813 1.32509,-6.32217 0.84499,-16.17227 -1.84108,-32.629236 -8.94559,-47.257243 C 244.66888,48.701595 217.98128,28.440264 188.18055,23.229449 182.17133,22.05038 176.0307,21.88535 169.92468,21.94081 Z"
   id="path3935"
   transform="matrix(0.40816327,0,0,0.40816327,-43.842049,-43.751045)"
   inkscape:label="Filled In C" /><path
   style="fill:#b3b3b3;fill-opacity:1;stroke:#000000;stroke-width:0;stroke-linecap:square;stroke-miterlimit:0;stroke-opacity:1"
   d="m 269.99047,139.66818 c -4.73876,19.00302 -14.5512,36.93018 -28.96699,50.35963 -8.65301,8.2718 -18.73774,14.5808 -29.47774,19.61586 -1.20718,2.42238 0.27537,5.57808 0.0125,8.31227 0.63148,12.67597 -0.60227,25.49083 -4.71286,37.51579 -5.07785,15.70653 -13.84251,30.21106 -25.88701,41.5191 -1.54885,1.71956 -3.41505,3.23399 -5.08472,4.65702 -0.0195,2.33076 3.10318,3.01908 4.60639,4.29053 18.62658,11.29484 41.17936,15.89152 62.72137,12.52083 31.78445,-4.2655 60.15594,-26.27873 73.00727,-55.54162 10.49267,-23.00728 10.8236,-50.19589 1.34407,-73.59396 -8.4314,-21.70586 -25.48722,-39.63354 -46.1614,-50.14532 -0.63524,-0.17995 -1.00951,-0.0264 -1.40088,0.48987 z"
   id="path3937"
   transform="matrix(0.40816327,0,0,0.40816327,-43.842049,-43.751045)"
   inkscape:label="Filled In B" /><g
   inkscape:groupmode="layer"
   id="layer2"
   inkscape:label="Labels"
   style="display:inline"
   transform="matrix(0.40816327,0,0,0.40816327,-43.842049,-43.751045)"><text
     xml:space="preserve"
     font-family="'Open Sans', sans-serif"
     font-size="18px"
     font-style="normal"
     font-weight="normal"
     style="display:inline;font-style:normal;font-variant:normal;font-weight:normal;font-stretch:normal;font-size:18px;font-family:'Open Sans', sans-serif;-inkscape-font-specification:'Open Sans, sans-serif, Normal';font-variant-ligatures:normal;font-variant-caps:normal;font-variant-numeric:normal;font-variant-east-asian:normal;white-space:pre;fill:#000000;fill-rule:nonzero;stroke:#000000;stroke-width:0.999999;stroke-linecap:butt;stroke-linejoin:miter;stroke-miterlimit:4;stroke-dasharray:none;stroke-dashoffset:0;stroke-opacity:1"
     id="text448-7"
     inkscape:label="D"
     x="164.89703"
     y="192.34042"><tspan
       sodipodi:role="line"
       id="tspan417"
       x="164.89703"
       y="192.34042">D</tspan></text><text
     xml:space="preserve"
     font-family="'Open Sans', sans-serif"
     font-size="7.34694px"
     font-style="normal"
     font-weight="normal"
     style="display:inline;white-space:pre;opacity:1;fill:#000000;fill-rule:nonzero;stroke:#000000;stroke-width:0.408163;stroke-linecap:butt;stroke-linejoin:miter;stroke-miterlimit:4;stroke-dasharray:none;stroke-dashoffset:0;stroke-opacity:1"
     id="text448"
     inkscape:label="C"
     x="27.938679"
     y="-9.3038664"
     transform="matrix(2.45,0,0,2.45,107.41302,107.19006)"><tspan
       x="23.844801"
       y="-6.9977446"
       id="tspan446"
       style="stroke:#000000;stroke-width:0.408163;stroke-opacity:1">C</tspan></text><text
     xml:space="preserve"
     font-family="'Open Sans', sans-serif"
     font-size="7.34694px"
     font-style="normal"
     font-weight="normal"
     style="font-style:normal;font-variant:normal;font-weight:normal;font-stretch:normal;font-size:7.34694px;font-family:'Open Sans', sans-serif;-inkscape-font-specification:'Open Sans, sans-serif, Normal';font-variant-ligatures:normal;font-variant-caps:normal;font-variant-numeric:normal;font-variant-east-asian:normal;white-space:pre;fill:#000000;fill-rule:nonzero;stroke:#000000;stroke-width:0.408163;stroke-linecap:butt;stroke-linejoin:miter;stroke-miterlimit:4;stroke-dasharray:none;stroke-dashoffset:0;stroke-opacity:1"
     id="text448-6"
     inkscape:label="B"
     x="60.20026"
     y="52.501392"
     transform="matrix(2.45,0,0,2.45,107.41302,107.19006)"><tspan
       sodipodi:role="line"
       id="tspan659"
       x="60.20026"
       y="52.501392">B</tspan></text><text
     xml:space="preserve"
     font-family="'Open Sans', sans-serif"
     font-size="7.34694px"
     font-style="normal"
     font-weight="normal"
     style="font-style:normal;font-variant:normal;font-weight:normal;font-stretch:normal;font-size:7.34694px;font-family:'Open Sans', sans-serif;-inkscape-font-specification:'Open Sans, sans-serif, Normal';font-variant-ligatures:normal;font-variant-caps:normal;font-variant-numeric:normal;font-variant-east-asian:normal;white-space:pre;display:inline;fill:#000000;fill-rule:nonzero;stroke:#000000;stroke-width:0.408163;stroke-linecap:butt;stroke-linejoin:miter;stroke-miterlimit:4;stroke-dasharray:none;stroke-dashoffset:0;stroke-opacity:1"
     id="text448-37"
     inkscape:label="A"
     x="-13.931019"
     y="52.512413"
     transform="matrix(2.45,0,0,2.45,107.41302,107.19006)"><tspan
       sodipodi:role="line"
       id="tspan678"
       x="-13.931019"
       y="52.512413">A</tspan></text></g></g>




</svg>
