<?xml version="1.0" encoding="UTF-8" standalone="no"?>
<svg
   version="1.1"
   width="348.90372"
   height="223.37541"
   viewBox="0 0 348.90372 223.37542"
   xml:space="preserve"
   id="svg452"
   sodipodi:docname="set union.svg"
   inkscape:version="1.2.2 (732a01da63, 2022-12-09)"
   xmlns:inkscape="http://www.inkscape.org/namespaces/inkscape"
   xmlns:sodipodi="http://sodipodi.sourceforge.net/DTD/sodipodi-0.dtd"
   xmlns="http://www.w3.org/2000/svg"
   xmlns:svg="http://www.w3.org/2000/svg"><sodipodi:namedview
   id="namedview454"
   pagecolor="#ffffff"
   bordercolor="#111111"
   borderopacity="1"
   inkscape:showpageshadow="0"
   inkscape:pageopacity="0"
   inkscape:pagecheckerboard="1"
   inkscape:deskcolor="#d1d1d1"
   showgrid="false"
   inkscape:zoom="2.3982705"
   inkscape:cx="259.56204"
   inkscape:cy="145.9385"
   inkscape:window-width="1920"
   inkscape:window-height="1001"
   inkscape:window-x="-9"
   inkscape:window-y="-9"
   inkscape:window-maximized="1"
   inkscape:current-layer="layer1" />
<desc
   id="desc420">Created with Fabric.js 3.6.6</desc>
<defs
   id="defs422">
</defs>

<g
   inkscape:groupmode="layer"
   id="layer1"
   inkscape:label="Background"
   transform="translate(9.9999997,9.9999997)"><rect
     style="fill:#ffffff;stroke:#ffffff;stroke-width:1.22059;image-rendering:auto"
     id="rect750"
     width="347.68314"
     height="222.15482"
     x="-9.3897047"
     y="-9.3897047"
     inkscape:label="White Background" /><path
     style="fill:#999999;fill-opacity:1;stroke:#999999;stroke-width:1;stroke-opacity:1;stroke-dasharray:none"
     d="m 225.62866,205.64689 c -15.77497,-1.1615 -31.10844,-6.22809 -44.15268,-14.58924 l -2.03751,-1.30601 5.81733,-5.83405 c 10.70306,-10.73382 17.81528,-21.3859 22.99075,-34.43356 4.71129,-11.87746 6.74512,-22.06298 7.0424,-35.26874 0.23865,-10.60183 -0.566,-18.309498 -2.86089,-27.403862 -4.81599,-19.085242 -15.49056,-37.056153 -29.68789,-49.980304 -1.75034,-1.593375 -3.21673,-2.972948 -3.25865,-3.065717 -0.12728,-0.281669 5.73383,-3.826439 9.80595,-5.930591 10.74655,-5.552974 22.52098,-8.892878 35.36575,-10.031764 4.72832,-0.419237 14.89103,-0.173041 19.62196,0.475351 17.44504,2.390905 33.47647,9.294163 47.17445,20.313688 2.96403,2.384452 9.58818,8.874068 12.22124,11.973019 12.0026,14.126359 19.202,30.341218 21.87651,49.271457 0.72719,5.147073 0.73155,18.358473 0.008,23.554093 -1.51382,10.8668 -4.29455,20.17049 -8.76827,29.33661 -4.82237,9.88049 -10.49926,17.80454 -18.38431,25.66161 -12.98846,12.9424 -29.58698,21.87995 -47.34988,25.49578 -7.99556,1.62758 -17.91486,2.31513 -25.42402,1.76223 z M 276.486,117.18365 c 1.66982,-0.46373 2.58941,-1.40302 2.78242,-2.84198 0.23289,-1.73635 -0.0795,-2.67871 -1.09196,-3.29445 l -0.87405,-0.53155 0.71925,-0.6757 c 0.91537,-0.85995 1.18459,-2.0853 0.74848,-3.40673 -0.51076,-1.5476 -1.61484,-1.98854 -5.37948,-2.14837 l -3.16953,-0.13457 v 6.67178 6.67178 l 2.57985,-0.002 c 1.41892,-8.9e-4 3.07718,-0.13976 3.68502,-0.30857 z"
     id="path1374"
     transform="translate(-9.9999997,-9.9999997)" /><path
     style="fill:#888888;fill-opacity:1;stroke:#999999;stroke-width:1;stroke-opacity:1;stroke-dasharray:none"
     d="m 170.20479,182.57985 c -17.82628,-15.69446 -28.83813,-36.62713 -31.67998,-60.22113 -0.59167,-4.91232 -0.66894,-15.90161 -0.14303,-20.34398 2.36613,-19.98678 9.79962,-37.110042 22.52712,-51.89189 2.79433,-3.245366 7.60038,-8.027331 10.45623,-10.403825 l 1.51869,-1.263775 2.1576,1.82299 c 3.24692,2.743374 9.04174,8.728399 11.89542,12.285867 11.38036,14.187011 18.22396,30.595326 20.3175,48.713533 0.53066,4.59251 0.6146,14.8905 0.15895,19.50193 -2.08915,21.14349 -11.19962,40.84628 -25.93827,56.09548 -3.47264,3.59293 -8.12441,7.84239 -8.58486,7.84239 -0.14158,0 -1.35,-0.96191 -2.68537,-2.13759 z m 6.97503,-65.66838 c 0.6619,-0.25165 0.7563,-0.45834 0.7563,-1.65601 0,-1.28373 -0.0411,-1.35569 -0.66339,-1.16209 -1.43599,0.44672 -3.7732,0.51783 -4.67961,0.14239 -1.70773,-0.70737 -2.56716,-4.02084 -1.62671,-6.27167 0.98394,-2.35488 2.60716,-2.846 5.99071,-1.81253 0.53773,0.16424 0.74411,-0.003 1.26434,-1.02238 l 0.62171,-1.21865 -1.11692,-0.48563 c -0.69745,-0.30324 -1.95842,-0.49168 -3.35761,-0.50175 -1.99075,-0.0143 -2.40042,0.0826 -3.67247,0.86907 -2.1036,1.30055 -3.08041,3.29781 -3.07658,6.29059 0.004,3.43375 1.16926,5.61932 3.54397,6.64934 1.16616,0.5058 4.86738,0.61613 6.01626,0.17932 z"
     id="path2756"
     transform="translate(-9.9999997,-9.9999997)" /><path
     style="fill:#888888;fill-opacity:1;stroke:#999999;stroke-width:1;stroke-opacity:1;stroke-dasharray:none"
     d="m 109.09091,205.77086 c -4.18874,-0.31668 -8.31126,-0.79173 -11.351353,-1.30805 -37.729126,-6.40777 -68.284356,-35.80588 -76.178591,-73.2937 -1.574999,-7.4793 -1.800974,-9.94874 -1.791012,-19.57206 0.01003,-9.68932 0.37289,-13.324634 2.067029,-20.708603 6.687827,-29.149146 26.721252,-53.396932 54.084392,-65.461935 12.747523,-5.620659 26.191955,-8.20076 40.540545,-7.780074 12.93466,0.379232 23.84479,2.857627 35.82309,8.137733 4.14783,1.828386 14.18502,7.481175 14.13577,7.961041 -0.009,0.08878 -0.81413,0.824812 -1.78892,1.635623 -2.72237,2.264415 -8.95643,8.780445 -11.85099,12.387019 -19.56958,24.383381 -26.87198,56.229536 -19.90821,86.820726 4.58166,20.12685 15.8488,39.19686 31.30653,52.9874 l 2.31186,2.06252 -2.34725,1.50569 c -11.66582,7.48331 -25.64023,12.43744 -39.6482,14.05586 -3.8304,0.44254 -12.73633,0.77255 -15.40469,0.57081 z m -35.611373,-92.03622 0.735214,-1.84275 h 2.428443 2.428447 l 0.720312,1.84275 c 0.656748,1.68014 0.803953,1.85091 1.668109,1.93515 0.63919,0.0623 0.942015,-0.0337 0.930033,-0.29484 -0.0098,-0.21298 -1.109411,-3.17348 -2.443643,-6.57888 -2.387681,-6.09417 -2.439443,-6.19165 -3.287976,-6.19165 -0.848533,0 -0.900295,0.0975 -3.287976,6.19165 -1.334232,3.4054 -2.433872,6.3659 -2.443643,6.57888 -0.01188,0.2592 0.285606,0.35668 0.89985,0.29484 0.824754,-0.0831 0.99202,-0.27888 1.65283,-1.93515 z"
     id="path2758"
     transform="translate(-9.9999997,-9.9999997)" /><path
     style="fill:#888888;fill-opacity:1;stroke:#999999;stroke-width:0.104242;stroke-dasharray:none;stroke-opacity:1"
     d="m 75.479032,108.07267 c 0.421272,-1.13233 0.853123,-2.36368 0.959668,-2.73635 l 0.193717,-0.67757 0.187462,0.57333 c 0.103105,0.31533 0.533703,1.51932 0.956884,2.67553 0.423182,1.15621 0.769422,2.12956 0.769422,2.16301 0,0.0335 -0.862448,0.0608 -1.916552,0.0608 h -1.916552 z"
     id="path2760"
     transform="translate(-9.9999997,-9.9999997)" /><path
     style="fill:#888888;fill-opacity:1;stroke:#999999;stroke-width:0.104242;stroke-dasharray:none;stroke-opacity:1"
     d="m 271.9147,113.5598 v -2.30494 l 1.85029,0.0486 c 1.93769,0.0509 2.32411,0.12616 2.91973,0.56838 1.02246,0.75913 1.01251,2.63372 -0.0182,3.41985 -0.56025,0.42732 -1.34731,0.56954 -3.16219,0.5714 l -1.58968,0.002 z"
     id="path2762"
     transform="translate(-9.9999997,-9.9999997)" /><path
     style="fill:#888888;fill-opacity:1;stroke:#999999;stroke-width:0.104242;stroke-dasharray:none;stroke-opacity:1"
     d="m 271.9147,107.82762 v -1.99111 l 1.74605,0.0485 c 0.96032,0.0267 1.93262,0.10692 2.16066,0.17831 0.61925,0.19389 1.16597,0.79156 1.25262,1.36936 0.15457,1.0308 -0.39475,1.95047 -1.33112,2.22854 -0.37546,0.1115 -1.01181,0.15749 -2.17927,0.15749 h -1.64894 z"
     id="path2764"
     transform="translate(-9.9999997,-9.9999997)" /><path
     style="fill:#888888;fill-opacity:1;stroke:#999999;stroke-width:0.416967;stroke-dasharray:none;stroke-opacity:1"
     d="m 169.62547,181.06798 c -14.64196,-13.06907 -25.17129,-31.48066 -29.09454,-50.87474 -5.72695,-28.31048 1.84535,-57.247491 20.77739,-79.399279 3.48631,-4.079224 10.50868,-10.965845 11.54708,-11.323869 0.74045,-0.255298 12.24197,11.711329 15.67193,16.305686 8.95183,11.990791 14.81333,25.837842 17.52282,41.395474 1.13021,6.489558 1.03193,23.749808 -0.17203,30.212208 -3.03871,16.31058 -9.63674,30.70893 -19.87176,43.36458 -2.99889,3.70814 -12.24015,12.92598 -12.95882,12.92598 -0.27631,0 -1.81625,-1.17272 -3.42207,-2.60604 z m 8.38972,-63.93 c 0.7651,-0.7651 0.87391,-2.9131 0.16962,-3.34837 -0.26709,-0.16507 -1.67846,-0.25688 -3.13638,-0.20403 l -2.65078,0.0961 -0.65008,-1.55586 c -0.4029,-0.96427 -0.55207,-2.07826 -0.39233,-2.92977 0.28584,-1.52364 2.0721,-3.19553 3.10678,-2.90786 2.96308,0.82381 3.32398,0.76695 4.19447,-0.66085 1.13802,-1.86659 1.0776,-2.17737 -0.53688,-2.76118 -2.36627,-0.85565 -6.20542,-0.63955 -7.83111,0.44081 -4.35248,2.89245 -4.39165,11.05113 -0.0651,13.55882 1.97721,1.146 6.75119,1.31278 7.79178,0.27219 z"
     id="path2766"
     transform="translate(-9.9999997,-9.9999997)" /><path
     style="fill:#888888;fill-opacity:1;stroke:#999999;stroke-width:0.416967;stroke-dasharray:none;stroke-opacity:1"
     d="m 221.20107,205.14184 c -5.3586,-0.66214 -11.54515,-1.9465 -16.26172,-3.37601 -8.34242,-2.52843 -20.09987,-8.1253 -25.35803,-12.07113 -0.0723,-0.0543 0.86584,-0.99992 2.08484,-2.1014 15.03746,-13.58797 26.06035,-31.87246 30.76761,-51.03656 2.2882,-9.31571 2.92976,-14.79551 2.92976,-25.02441 0,-11.598941 -1.32165,-20.326606 -4.65889,-30.765441 -5.20246,-16.273243 -13.21677,-29.313727 -25.5857,-41.631748 l -5.50299,-5.480344 2.96721,-1.93783 c 9.72582,-6.351745 24.73195,-11.715794 37.30102,-13.333523 6.55427,-0.843583 17.72412,-0.854447 24.12448,-0.02347 27.48536,3.568519 51.80213,18.946964 67.24359,42.526281 3.26391,4.984037 7.97707,14.79095 9.92386,20.649092 3.61918,10.890603 4.85578,18.584473 4.85578,30.211843 0,9.48708 -0.63214,14.59959 -2.89852,23.44243 -9.64091,37.61626 -41.65396,65.41097 -80.58314,69.96476 -6.31399,0.73859 -15.31327,0.73331 -21.34916,-0.0126 z m 56.82777,-88.60461 c 1.90568,-1.499 1.84047,-5.00166 -0.10461,-5.61901 l -0.86608,-0.27488 0.84094,-0.69897 c 0.46251,-0.38444 0.95079,-1.26889 1.08506,-1.96546 0.48936,-2.53869 -1.90828,-3.88061 -7.01733,-3.92745 l -1.9806,-0.0182 v 6.67148 6.67147 h 3.48799 c 2.86366,0 3.67891,-0.15018 4.55463,-0.83902 z"
     id="path2768"
     transform="translate(-9.9999997,-9.9999997)" /></g><g
   transform="matrix(2.45,0,0,2.45,113.09243,112.79759)"
   id="g428">
<circle
   style="opacity:1;fill:none;fill-rule:nonzero;stroke:#000000;stroke-width:3;stroke-linecap:butt;stroke-linejoin:miter;stroke-miterlimit:4;stroke-dasharray:none;stroke-dashoffset:0"
   cx="48.57143"
   cy="-0.45820001"
   r="40"
   id="circle430"
   inkscape:label="Right Circle" /><circle
   style="opacity:1;fill:none;fill-rule:nonzero;stroke:#000000;stroke-width:3;stroke-linecap:butt;stroke-linejoin:miter;stroke-miterlimit:4;stroke-dasharray:none;stroke-dashoffset:0"
   cx="0.24068595"
   cy="-0.45820001"
   r="40"
   id="circle426"
   inkscape:label="Left Circle" /><text
   xml:space="preserve"
   font-family="'Open Sans', sans-serif"
   font-size="7.34694px"
   font-style="normal"
   font-weight="normal"
   style="white-space:pre;opacity:1;fill:#000000;fill-rule:nonzero;stroke:#000000;stroke-width:0.408163;stroke-linecap:butt;stroke-linejoin:miter;stroke-miterlimit:4;stroke-dasharray:none;stroke-dashoffset:0;stroke-opacity:1"
   id="text448"
   inkscape:label="C"
   x="26.134363"
   y="-0.79433459"><tspan
     x="22.040485"
     y="1.5117879"
     id="tspan446"
     style="stroke-width:0.408163;stroke:#000000;stroke-opacity:1">C</tspan></text><text
   xml:space="preserve"
   font-family="'Open Sans', sans-serif"
   font-size="7.34694px"
   font-style="normal"
   font-weight="normal"
   style="white-space:pre;opacity:1;fill:#000000;fill-rule:nonzero;stroke:none;stroke-width:0.408163;stroke-linecap:butt;stroke-linejoin:miter;stroke-miterlimit:4;stroke-dasharray:none;stroke-dashoffset:0"
   id="text442"
   inkscape:label="B"
   x="73.439468"
   y="-0.48044026"><tspan
     x="63.44355"
     y="1.8256823"
     id="tspan440"
     style="stroke-width:0.408163">B</tspan></text><text
   xml:space="preserve"
   font-family="'Open Sans', sans-serif"
   font-size="18px"
   font-style="normal"
   font-weight="normal"
   style="white-space:pre;opacity:1;fill:#000000;fill-rule:nonzero;stroke:none;stroke-width:1;stroke-linecap:butt;stroke-linejoin:miter;stroke-miterlimit:4;stroke-dasharray:none;stroke-dashoffset:0"
   id="text436"
   inkscape:label="A"
   transform="matrix(0.40816327,0,0,0.40816327,-13.122448,-1.1469376)"><tspan
     x="-10.03"
     y="5.6500001"
     id="tspan434">A</tspan></text>
</g>




</svg>
