<?xml version="1.0" encoding="UTF-8" standalone="no"?>
<!-- Created with Inkscape (http://www.inkscape.org/) -->

<svg
   width="110mm"
   height="80mm"
   viewBox="0 0 110 80"
   version="1.1"
   id="svg5"
   inkscape:version="1.2.2 (732a01da63, 2022-12-09)"
   sodipodi:docname="symmetric-digraph-cats-grooming-cats.svg"
   xml:space="preserve"
   xmlns:inkscape="http://www.inkscape.org/namespaces/inkscape"
   xmlns:sodipodi="http://sodipodi.sourceforge.net/DTD/sodipodi-0.dtd"
   xmlns="http://www.w3.org/2000/svg"
   xmlns:svg="http://www.w3.org/2000/svg"><sodipodi:namedview
     id="namedview7"
     pagecolor="#ffffff"
     bordercolor="#111111"
     borderopacity="1"
     inkscape:showpageshadow="0"
     inkscape:pageopacity="0"
     inkscape:pagecheckerboard="1"
     inkscape:deskcolor="#d1d1d1"
     inkscape:document-units="mm"
     showgrid="false"
     inkscape:zoom="1.4503086"
     inkscape:cx="205.47351"
     inkscape:cy="126.52479"
     inkscape:window-width="1920"
     inkscape:window-height="1001"
     inkscape:window-x="-9"
     inkscape:window-y="-9"
     inkscape:window-maximized="1"
     inkscape:current-layer="svg5" /><defs
     id="defs2"><marker
       style="overflow:visible"
       id="marker8023"
       refX="0"
       refY="0"
       orient="auto-start-reverse"
       inkscape:stockid="TriangleStart"
       markerWidth="5.3244081"
       markerHeight="6.155385"
       viewBox="0 0 5.3244081 6.1553851"
       inkscape:isstock="true"
       inkscape:collect="always"
       preserveAspectRatio="xMidYMid"><path
         transform="scale(0.5)"
         style="fill:context-stroke;fill-rule:evenodd;stroke:context-stroke;stroke-width:1pt"
         d="M 5.77,0 -2.88,5 V -5 Z"
         id="path8021" /></marker><inkscape:path-effect
       effect="bspline"
       id="path-effect7981"
       is_visible="true"
       lpeversion="1"
       weight="33.333333"
       steps="2"
       helper_size="0"
       apply_no_weight="true"
       apply_with_weight="true"
       only_selected="false" /><marker
       style="overflow:visible"
       id="TriangleStart"
       refX="0"
       refY="0"
       orient="auto-start-reverse"
       inkscape:stockid="TriangleStart"
       markerWidth="5.3244081"
       markerHeight="6.155385"
       viewBox="0 0 5.3244081 6.1553851"
       inkscape:isstock="true"
       inkscape:collect="always"
       preserveAspectRatio="xMidYMid"><path
         transform="scale(0.5)"
         style="fill:context-stroke;fill-rule:evenodd;stroke:context-stroke;stroke-width:1pt"
         d="M 5.77,0 -2.88,5 V -5 Z"
         id="path135" /></marker><inkscape:path-effect
       effect="bspline"
       id="path-effect7981-7"
       is_visible="true"
       lpeversion="1"
       weight="33.333333"
       steps="2"
       helper_size="0"
       apply_no_weight="true"
       apply_with_weight="true"
       only_selected="false" /><marker
       style="overflow:visible"
       id="marker8023-6"
       refX="0"
       refY="0"
       orient="auto-start-reverse"
       inkscape:stockid="TriangleStart"
       markerWidth="5.3244081"
       markerHeight="6.155385"
       viewBox="0 0 5.3244081 6.1553851"
       inkscape:isstock="true"
       inkscape:collect="always"
       preserveAspectRatio="xMidYMid"><path
         transform="scale(0.5)"
         style="fill:context-stroke;fill-rule:evenodd;stroke:context-stroke;stroke-width:1pt"
         d="M 5.77,0 -2.88,5 V -5 Z"
         id="path8021-9" /></marker><inkscape:path-effect
       effect="bspline"
       id="path-effect7981-7-2"
       is_visible="true"
       lpeversion="1"
       weight="33.333333"
       steps="2"
       helper_size="0"
       apply_no_weight="true"
       apply_with_weight="true"
       only_selected="false" /><inkscape:path-effect
       effect="bspline"
       id="path-effect7981-8"
       is_visible="true"
       lpeversion="1"
       weight="33.333333"
       steps="2"
       helper_size="0"
       apply_no_weight="true"
       apply_with_weight="true"
       only_selected="false" /></defs><rect
     style="font-variation-settings:normal;opacity:1;vector-effect:none;fill:#ffffff;fill-opacity:1;fill-rule:evenodd;stroke:#000000;stroke-width:3.70076;stroke-linecap:square;stroke-linejoin:miter;stroke-miterlimit:0;stroke-dasharray:none;stroke-dashoffset:0;stroke-opacity:1;-inkscape-stroke:none;stop-color:#000000;stop-opacity:1"
     id="rect8531"
     width="408.18896"
     height="288.90402"
     x="-15.858693"
     y="-4.1370506"
     transform="matrix(0.26706176,0,0,0.27340634,4.7294165,1.6370015)"
     rx="2.0493288"
     ry="2.0017734"
     inkscape:label="Background" /><g
     inkscape:groupmode="layer"
     id="layer2"
     inkscape:label="Arrows"
     transform="translate(4.871509,2.1854424)"><path
       style="fill:none;fill-rule:evenodd;stroke:#000000;stroke-width:13.4882;stroke-linecap:square;stroke-miterlimit:0;stroke-dasharray:none;marker-end:url(#TriangleStart)"
       id="path7588"
       transform="matrix(0.06751877,0,0,0.09118276,15.7669,14.223951)"
       sodipodi:type="arc"
       sodipodi:cx="366.12897"
       sodipodi:cy="322.68994"
       sodipodi:rx="119.97446"
       sodipodi:ry="88.257072"
       sodipodi:start="0.46253285"
       sodipodi:end="5.1026427"
       sodipodi:arc-type="arc"
       d="M 473.49713,362.07168 A 119.97446,88.257072 0 0 1 315.19653,402.59923 119.97446,88.257072 0 0 1 256.30681,287.15835 119.97446,88.257072 0 0 1 411.77002,241.06869"
       sodipodi:open="true" /><path
       style="fill:none;fill-rule:evenodd;stroke:#000000;stroke-width:4;stroke-linecap:square;stroke-miterlimit:0;stroke-dasharray:none;marker-end:url(#marker8023)"
       d="m 175.82465,309.58928 c -4.49813,-7.63576 -8.99557,-15.27036 -12.55837,-25.49877 -3.5628,-10.2284 -6.18914,-23.04752 -6.7038,-34.6527 -0.51467,-11.60517 1.08269,-21.99669 4.64524,-31.53579 3.56255,-9.5391 9.08984,-18.2238 14.61693,-26.90819"
       id="path7979"
       transform="matrix(0.26458333,0,0,0.26458333,-32.668464,-26.645865)"
       inkscape:path-effect="#path-effect7981"
       inkscape:original-d="m 175.82465,309.58928 c -4.49782,-7.63594 -8.99526,-15.27054 -13.49484,-22.90807 -2.62557,-12.81926 -5.25191,-25.63838 -7.87918,-38.45818 1.59831,-10.39022 3.19567,-20.78174 4.79216,-31.17512 5.52864,-8.68425 11.05593,-17.36895 16.58186,-26.05408"
       sodipodi:nodetypes="ccccc" /><path
       style="fill:none;fill-rule:evenodd;stroke:#000000;stroke-width:4;stroke-linecap:square;stroke-miterlimit:0;stroke-dasharray:none;marker-start:url(#marker8023)"
       d="m 175.82465,309.58928 c -4.49813,-7.63576 -8.99557,-15.27036 -12.55837,-25.49877 -3.5628,-10.2284 -6.18914,-23.04752 -6.7038,-34.6527 -0.51467,-11.60517 1.08269,-21.99669 4.64524,-31.53579 3.56255,-9.5391 9.08984,-18.2238 14.61693,-26.90819"
       id="path7979-4"
       transform="matrix(-0.26458333,0,0,0.26458333,66.022998,-29.122677)"
       inkscape:path-effect="#path-effect7981-7"
       inkscape:original-d="m 175.82465,309.58928 c -4.49782,-7.63594 -8.99526,-15.27054 -13.49484,-22.90807 -2.62557,-12.81926 -5.25191,-25.63838 -7.87918,-38.45818 1.59831,-10.39022 3.19567,-20.78174 4.79216,-31.17512 5.52864,-8.68425 11.05593,-17.36895 16.58186,-26.05408"
       sodipodi:nodetypes="ccccc" /><path
       style="fill:none;fill-rule:evenodd;stroke:#000000;stroke-width:4;stroke-linecap:square;stroke-miterlimit:0;stroke-dasharray:none;marker-end:url(#marker8023-6)"
       d="m 175.82465,309.58928 c -4.49813,-7.63576 -8.99557,-15.27036 -12.55837,-25.49877 -3.5628,-10.2284 -6.18914,-23.04752 -6.7038,-34.6527 -0.51467,-11.60517 1.08269,-21.99669 4.64524,-31.53579 3.56255,-9.5391 9.08984,-18.2238 14.61693,-26.90819"
       id="path7979-3"
       transform="matrix(0.26458333,0,0,0.26458333,40.277055,-26.645865)"
       inkscape:path-effect="#path-effect7981-8"
       inkscape:original-d="m 175.82465,309.58928 c -4.49782,-7.63594 -8.99526,-15.27054 -13.49484,-22.90807 -2.62557,-12.81926 -5.25191,-25.63838 -7.87918,-38.45818 1.59831,-10.39022 3.19567,-20.78174 4.79216,-31.17512 5.52864,-8.68425 11.05593,-17.36895 16.58186,-26.05408"
       sodipodi:nodetypes="ccccc" /><path
       style="fill:none;fill-rule:evenodd;stroke:#000000;stroke-width:4;stroke-linecap:square;stroke-miterlimit:0;stroke-dasharray:none;marker-start:url(#marker8023-6)"
       d="m 175.82465,309.58928 c -4.49813,-7.63576 -8.99557,-15.27036 -12.55837,-25.49877 -3.5628,-10.2284 -6.18914,-23.04752 -6.7038,-34.6527 -0.51467,-11.60517 1.08269,-21.99669 4.64524,-31.53579 3.56255,-9.5391 9.08984,-18.2238 14.61693,-26.90819"
       id="path7979-4-4"
       transform="matrix(-0.26458333,0,0,0.26458333,138.96851,-29.122677)"
       inkscape:path-effect="#path-effect7981-7-2"
       inkscape:original-d="m 175.82465,309.58928 c -4.49782,-7.63594 -8.99526,-15.27054 -13.49484,-22.90807 -2.62557,-12.81926 -5.25191,-25.63838 -7.87918,-38.45818 1.59831,-10.39022 3.19567,-20.78174 4.79216,-31.17512 5.52864,-8.68425 11.05593,-17.36895 16.58186,-26.05408"
       sodipodi:nodetypes="ccccc" /></g><g
     inkscape:groupmode="layer"
     id="layer3"
     inkscape:label="Alice"
     transform="translate(-27.796956,-24.460424)"><g
       id="g1711"
       transform="translate(-7.6201212,6.0354596)"><path
         style="fill:#050505;stroke:none;stroke-width:3.77953"
         d="m 9,14 5,-7 c 9.8135,7.41 4.8631,18.8131 4.0941,29 -0.474,6.2801 3.1569,10.2433 3.8642,16 0.4463,3.6314 -2.6651,6.4056 -2.601,10 C 19.522,71.251 31.8833,78.1421 40,76 38.4576,72.9346 33.6815,69.645 34.037,65.9969 34.817,57.993 49.5599,57.1651 54.9568,60.0278 65.2159,65.4695 61.0765,80.8355 75,81 L 77.4244,58.5756 86.2392,41 90,6 C 80.4801,9.45801 76.7774,9.7886 67,7 65.5589,12.2412 68.1589,17.9963 64.9105,22.8526 59.4797,30.9714 36.6073,26 28,26 27.8731,19.8513 27.4166,11.1709 23.348,6.21375 15.5506,-3.28665 9.02452,5.45389 9,14"
         transform="matrix(0.26458333,0,0,0.26458333,42.284752,20.05797)"
         id="path315" /><text
         xml:space="preserve"
         style="font-style:normal;font-variant:normal;font-weight:normal;font-stretch:normal;font-size:26.6667px;font-family:Arial;-inkscape-font-specification:'Arial, Normal';font-variant-ligatures:normal;font-variant-caps:normal;font-variant-numeric:normal;font-variant-east-asian:normal;fill:#000000;fill-opacity:1;fill-rule:evenodd;stroke:#000000;stroke-width:1;stroke-linecap:square;stroke-miterlimit:0;stroke-dasharray:none;stroke-opacity:1"
         x="169.66951"
         y="52.656055"
         id="text423"
         transform="matrix(0.26458333,0,0,0.26458333,19.220882,25.541843)"><tspan
           sodipodi:role="line"
           id="tspan421"
           x="169.66951"
           y="52.656055">Alice</tspan></text></g></g><g
     inkscape:groupmode="layer"
     id="layer4"
     inkscape:label="Boots"
     transform="translate(-27.796956,-24.460424)"><g
       id="g1716"
       transform="translate(19.971442,2.7494515)"><path
         style="fill:#050505;stroke:none;stroke-width:3.77953"
         d="m 184,1 c -1.356,5.37973 3.585,12.0747 0.957,16.7863 -4.264,7.6445 -19.329,6.0213 -25.942,11.4884 -8.986,7.4282 -14.444,38.72 -28.801,22.6821 C 128.438,49.9737 126.912,47.6147 126.282,45 125.399,41.3294 126.794,37.7012 126,34 h -2 c -14.06,25.0994 28.924,39.456 47,33 -1.488,-6.2684 1.903,-9.5472 6,-14 l -1,17 h 7 c -1.24,-6.7016 -1.606,-15.3305 4,-20 1.823,7.8802 2.481,20.6883 12,21 -3.686,-14.8102 -4.732,-27.7377 -0.428,-43 2.696,-9.5616 7.34,-16.3947 7.428,-27 -10.851,7.51538 -11.154,3.9939 -22,0"
         transform="matrix(0.26458333,0,0,0.26458333,57.506658,24.95994)"
         id="path311" /><text
         xml:space="preserve"
         style="font-style:normal;font-variant:normal;font-weight:normal;font-stretch:normal;font-size:26.6667px;font-family:Arial;-inkscape-font-specification:'Arial, Normal';font-variant-ligatures:normal;font-variant-caps:normal;font-variant-numeric:normal;font-variant-east-asian:normal;fill:#000000;fill-opacity:1;fill-rule:evenodd;stroke:#000000;stroke-width:1;stroke-linecap:square;stroke-miterlimit:0;stroke-dasharray:none;stroke-opacity:1"
         x="353.9657"
         y="73.133408"
         id="text1565"
         transform="matrix(0.26458333,0,0,0.26458333,-22.384835,23.409885)"><tspan
           sodipodi:role="line"
           id="tspan1563"
           x="353.9657"
           y="73.133408">Boots</tspan></text></g></g><g
     inkscape:groupmode="layer"
     id="layer5"
     inkscape:label="Cleo"
     transform="translate(-27.796956,-24.460424)"><g
       id="g1721"
       transform="translate(-30.705879,56.661572)"><path
         style="fill:#050505;stroke:none;stroke-width:3.77953"
         d="m 284,65 -5,4 c 4.97,1.1871 11.081,4.0826 16,4.3565 6.904,0.3844 13.875,-1.9263 21,-1.2523 8.505,0.8044 14.16,3.1217 23,1.6489 4.283,-0.7136 15.278,-1 17.647,-5.2662 C 358.785,64.637 354.28,58.1357 354.043,54 353.731,48.5427 354.894,42.758 351.486,38.0146 345.564,29.7732 331.206,22.8376 321,23.3758 315.863,23.6467 303.408,29.5859 299.694,24.6783 297.212,21.3984 299.989,13.0622 300,9 c -5.581,1.1492 -8.974,7.3841 -14.985,6.8079 -4.719,-0.4524 -7.26,-9.61311 -11.802,-7.63197 C 268.681,10.1526 269.02,18.989 269.001,23 c -0.048,9.9703 2.955,23.1003 7.456,31.9962 1.937,3.8285 5.615,6.1896 7.543,10.0038"
         transform="matrix(0.26458333,0,0,0.26458333,69.116587,23.41195)"
         id="path317" /><text
         xml:space="preserve"
         style="font-style:normal;font-variant:normal;font-weight:normal;font-stretch:normal;font-size:26.6667px;font-family:Arial;-inkscape-font-specification:'Arial, Normal';font-variant-ligatures:normal;font-variant-caps:normal;font-variant-numeric:normal;font-variant-east-asian:normal;fill:#000000;fill-opacity:1;fill-rule:evenodd;stroke:#000000;stroke-width:1;stroke-linecap:square;stroke-miterlimit:0;stroke-dasharray:none;stroke-opacity:1"
         x="476.82983"
         y="164.79395"
         id="text1569"
         transform="matrix(0.26458333,0,0,0.26458333,-0.94975466,-8.6262453)"><tspan
           sodipodi:role="line"
           id="tspan1567"
           x="476.82983"
           y="164.79395">Cleo</tspan></text></g></g><g
     inkscape:groupmode="layer"
     id="layer6"
     inkscape:label="Duke"
     transform="translate(-27.796956,-24.460424)"><g
       id="g1737"
       transform="translate(31.48302,-13.195511)"><path
         style="fill:#050505;stroke:none;stroke-width:3.77953"
         d="m 72,102 c -0.158,13.343 -17.3696,12.34 -11,28 -7.2639,-1.349 -14.8868,-1.908 -20.8148,3.39 C 33.7103,139.177 32.1277,148.117 24,152.583 16.6918,156.6 2.66134,157.114 1,167 c 15.8669,-3.94 30.543,-4.611 47,-1.532 7.0121,1.311 14.0371,7.506 20.9954,7.329 5.9601,-0.151 5.5251,-4.498 4.0046,-8.797 8.0095,-1.414 11.4731,4.654 18.9961,4.952 5.6311,0.223 7.914,-3.673 2.0039,-5.952 3.0628,-10.899 -0.1242,-16.693 -1.5664,-27 -0.9589,-6.853 1.3276,-14.104 -0.4336,-21 -8.9943,1.655 -13.9518,-6.169 -18,-13 h -2"
         transform="matrix(0.26458333,0,0,0.26458333,40.478763,39.923849)"
         id="path321" /><text
         xml:space="preserve"
         style="font-style:normal;font-variant:normal;font-weight:normal;font-stretch:normal;font-size:26.6667px;font-family:Arial;-inkscape-font-specification:'Arial, Normal';font-variant-ligatures:normal;font-variant-caps:normal;font-variant-numeric:normal;font-variant-east-asian:normal;fill:#000000;fill-opacity:1;fill-rule:evenodd;stroke:#000000;stroke-width:1;stroke-linecap:square;stroke-miterlimit:0;stroke-dasharray:none;stroke-opacity:1"
         x="162.84373"
         y="267.18073"
         id="text1573"
         transform="matrix(0.26458333,0,0,0.26458333,8.6882671,21.174065)"><tspan
           sodipodi:role="line"
           id="tspan1571"
           x="162.84373"
           y="267.18073">Duke</tspan></text></g></g><g
     inkscape:groupmode="layer"
     id="layer7"
     inkscape:label="Elvis"
     transform="translate(-27.796956,-24.460424)"><g
       id="g1731"
       transform="translate(-55.774689,12.595432)"><path
         style="fill:#050505;stroke:none;stroke-width:3.77953"
         d="m 171,117 -0.457,18.852 -17.539,5.801 -11.217,11.758 L 114,157 v 2 c 8.897,2.63 18.832,0.208 28,1.105 4.549,0.445 8.498,2.99 13,3.749 10.864,1.832 22.019,1.146 33,1.146 7.274,0 21.09,1.801 24.392,-7.044 3.44,-9.215 -9.468,-7.305 -12.294,-13.011 -3.572,-7.212 -1.122,-21.312 0.902,-28.945 -11.978,2.127 -17.821,4.474 -30,1"
         transform="matrix(0.26458333,0,0,0.26458333,58.280654,41.729838)"
         id="path323" /><text
         xml:space="preserve"
         style="font-style:normal;font-variant:normal;font-weight:normal;font-stretch:normal;font-size:26.6667px;font-family:Arial;-inkscape-font-specification:'Arial, Normal';font-variant-ligatures:normal;font-variant-caps:normal;font-variant-numeric:normal;font-variant-east-asian:normal;fill:#000000;fill-opacity:1;fill-rule:evenodd;stroke:#000000;stroke-width:1;stroke-linecap:square;stroke-miterlimit:0;stroke-dasharray:none;stroke-opacity:1"
         x="371.51773"
         y="275.95673"
         id="text1577"
         transform="matrix(0.26458333,0,0,0.26458333,14.373669,6.0315211)"><tspan
           sodipodi:role="line"
           id="tspan1575"
           x="371.51773"
           y="275.95673">Elvis</tspan></text></g></g></svg>
