<?xml version="1.0" encoding="UTF-8" standalone="no"?>
<svg
   viewBox="0 0 433.80902 364.62442"
   version="1.1"
   id="svg1321"
   sodipodi:docname="Unit Cell.svg"
   inkscape:version="1.2.2 (732a01da63, 2022-12-09)"
   width="433.80902"
   height="364.62442"
   xml:space="preserve"
   xmlns:inkscape="http://www.inkscape.org/namespaces/inkscape"
   xmlns:sodipodi="http://sodipodi.sourceforge.net/DTD/sodipodi-0.dtd"
   xmlns="http://www.w3.org/2000/svg"
   xmlns:svg="http://www.w3.org/2000/svg"><defs
     id="defs1325" /><sodipodi:namedview
     id="namedview1323"
     pagecolor="#ffffff"
     bordercolor="#111111"
     borderopacity="1"
     inkscape:showpageshadow="0"
     inkscape:pageopacity="0"
     inkscape:pagecheckerboard="1"
     inkscape:deskcolor="#d1d1d1"
     showgrid="false"
     inkscape:zoom="1.4743176"
     inkscape:cx="213.31902"
     inkscape:cy="158.37835"
     inkscape:window-width="2400"
     inkscape:window-height="1271"
     inkscape:window-x="2391"
     inkscape:window-y="-9"
     inkscape:window-maximized="1"
     inkscape:current-layer="layer4" /><g
     inkscape:groupmode="layer"
     id="layer4"
     inkscape:label="Background"
     transform="translate(-29.311108,-3.53647)"><rect
       style="font-variation-settings:normal;opacity:1;vector-effect:none;fill:#ffffff;fill-opacity:1;fill-rule:evenodd;stroke:#000000;stroke-width:3.2327;stroke-linecap:square;stroke-linejoin:miter;stroke-miterlimit:0;stroke-dasharray:none;stroke-dashoffset:0;stroke-opacity:1;-inkscape-stroke:none;stop-color:#000000;stop-opacity:1"
       id="rect6574"
       width="430.02945"
       height="263.85086"
       x="31.200874"
       y="5.426239"
       rx="0.42746365"
       ry="0.7769224"
       inkscape:label="Background"
       transform="matrix(1.0012622,0,0,1.3652073,-0.31075781,-1.6648182)" /><text
       xml:space="preserve"
       style="font-style:normal;font-variant:normal;font-weight:normal;font-stretch:normal;font-size:26.6667px;font-family:Arial;-inkscape-font-specification:'Arial, Normal';font-variant-ligatures:normal;font-variant-caps:normal;font-variant-numeric:normal;font-variant-east-asian:normal;text-align:center;text-anchor:middle;fill:#000000;fill-opacity:0.992042;fill-rule:evenodd;stroke:none;stroke-width:2;stroke-linecap:round;stroke-miterlimit:0;stroke-opacity:1"
       x="25.096355"
       y="328.28745"
       id="text7378-9"
       transform="translate(323.65854,28.229067)"><tspan
         sodipodi:role="line"
         x="25.096355"
         y="328.28745"
         id="tspan7380-3">β = γ = 90°</tspan></text><text
       xml:space="preserve"
       style="font-style:normal;font-variant:normal;font-weight:normal;font-stretch:normal;font-size:26.6667px;font-family:Arial;-inkscape-font-specification:'Arial, Normal';font-variant-ligatures:normal;font-variant-caps:normal;font-variant-numeric:normal;font-variant-east-asian:normal;text-align:center;text-anchor:middle;fill:#000000;fill-opacity:0.992042;fill-rule:evenodd;stroke:none;stroke-width:2;stroke-linecap:round;stroke-miterlimit:0;stroke-opacity:1"
       x="50.192711"
       y="280.80786"
       id="text6644"
       transform="translate(89.678019,-0.53320526)"><tspan
         sodipodi:role="line"
         id="tspan6642"
         x="50.192711"
         y="280.80786">Hexagonal</tspan></text><text
       xml:space="preserve"
       style="font-style:normal;font-variant:normal;font-weight:normal;font-stretch:normal;font-size:26.6667px;font-family:Arial;-inkscape-font-specification:'Arial, Normal';font-variant-ligatures:normal;font-variant-caps:normal;font-variant-numeric:normal;font-variant-east-asian:normal;text-align:center;text-anchor:middle;fill:#000000;fill-opacity:0.992042;fill-rule:evenodd;stroke:none;stroke-width:2;stroke-linecap:round;stroke-miterlimit:0;stroke-opacity:1"
       x="40.018513"
       y="303.1911"
       id="text7374"
       transform="translate(89.678018,4.2147529)"><tspan
         sodipodi:role="line"
         id="tspan7372"
         x="40.018513"
         y="303.1911">a = b</tspan></text><text
       xml:space="preserve"
       style="font-style:normal;font-variant:normal;font-weight:normal;font-stretch:normal;font-size:26.6667px;font-family:Arial;-inkscape-font-specification:'Arial, Normal';font-variant-ligatures:normal;font-variant-caps:normal;font-variant-numeric:normal;font-variant-east-asian:normal;text-align:center;text-anchor:middle;fill:#000000;fill-opacity:0.992042;fill-rule:evenodd;stroke:none;stroke-width:2;stroke-linecap:round;stroke-miterlimit:0;stroke-opacity:1"
       x="25.096355"
       y="328.28745"
       id="text7378"
       transform="translate(101.20878,25.241429)"><tspan
         sodipodi:role="line"
         x="25.096355"
         y="328.28745"
         id="tspan7380">β = γ = 90°</tspan></text><text
       xml:space="preserve"
       style="font-style:normal;font-variant:normal;font-weight:normal;font-stretch:normal;font-size:26.6667px;font-family:Arial;-inkscape-font-specification:'Arial, Normal';font-variant-ligatures:normal;font-variant-caps:normal;font-variant-numeric:normal;font-variant-east-asian:normal;text-align:center;text-anchor:middle;fill:#000000;fill-opacity:0.992042;fill-rule:evenodd;stroke:none;stroke-width:2;stroke-linecap:round;stroke-miterlimit:0;stroke-opacity:1"
       x="33.913994"
       y="347.2793"
       id="text7386"
       transform="translate(95.782541,-15.455367)"><tspan
         sodipodi:role="line"
         id="tspan7384"
         x="33.913994"
         y="347.2793">α = 120°</tspan></text><text
       xml:space="preserve"
       style="font-style:normal;font-variant:normal;font-weight:normal;font-stretch:normal;font-size:26.6667px;font-family:Arial;-inkscape-font-specification:'Arial, Normal';font-variant-ligatures:normal;font-variant-caps:normal;font-variant-numeric:normal;font-variant-east-asian:normal;text-align:center;text-anchor:middle;fill:#000000;fill-opacity:0.992042;fill-rule:evenodd;stroke:none;stroke-width:2;stroke-linecap:round;stroke-miterlimit:0;stroke-opacity:1"
       x="250.96356"
       y="299.79971"
       id="text7390"
       transform="translate(96.460817,4.8930298)"><tspan
         sodipodi:role="line"
         id="tspan7388"
         x="250.96356"
         y="299.79971">a ≠ b</tspan></text><text
       xml:space="preserve"
       style="font-style:normal;font-variant:normal;font-weight:normal;font-stretch:normal;font-size:26.6667px;font-family:Arial;-inkscape-font-specification:'Arial, Normal';font-variant-ligatures:normal;font-variant-caps:normal;font-variant-numeric:normal;font-variant-east-asian:normal;text-align:center;text-anchor:middle;fill:#000000;fill-opacity:0.992042;fill-rule:evenodd;stroke:none;stroke-width:2;stroke-linecap:round;stroke-miterlimit:0;stroke-opacity:1"
       x="194.66634"
       y="350.67068"
       id="text7394"
       transform="translate(29.311108,3.53647)"><tspan
         sodipodi:role="line"
         id="tspan7392"
         x="194.66634"
         y="350.67068" /></text><text
       xml:space="preserve"
       style="font-style:normal;font-variant:normal;font-weight:normal;font-stretch:normal;font-size:26.6667px;font-family:Arial;-inkscape-font-specification:'Arial, Normal';font-variant-ligatures:normal;font-variant-caps:normal;font-variant-numeric:normal;font-variant-east-asian:normal;text-align:center;text-anchor:middle;fill:#000000;fill-opacity:0.992042;fill-rule:evenodd;stroke:none;stroke-width:2;stroke-linecap:round;stroke-miterlimit:0;stroke-opacity:1"
       x="225.18892"
       y="326.93091"
       id="text7398"
       transform="translate(125.62685,4.8930298)"><tspan
         sodipodi:role="line"
         id="tspan7396"
         x="225.18892"
         y="326.93091">α ≠ 90°</tspan></text><text
       xml:space="preserve"
       style="font-style:normal;font-variant:normal;font-weight:normal;font-stretch:normal;font-size:26.6667px;font-family:Arial;-inkscape-font-specification:'Arial, Normal';font-variant-ligatures:normal;font-variant-caps:normal;font-variant-numeric:normal;font-variant-east-asian:normal;text-align:center;text-anchor:middle;fill:#000000;fill-opacity:0.992042;fill-rule:evenodd;stroke:none;stroke-width:2;stroke-linecap:round;stroke-miterlimit:0;stroke-opacity:1"
       x="252.32011"
       y="275.38162"
       id="text7459"
       transform="translate(95.104257,4.8930298)"><tspan
         sodipodi:role="line"
         id="tspan7457"
         x="252.32011"
         y="275.38162">Monoclinic</tspan></text></g><g
     inkscape:groupmode="layer"
     id="layer3"
     inkscape:label="Diagram"
     transform="rotate(-0.48737566,129.96162,2863.3737)"><g
       id="g1593"
       inkscape:groupmode="layer"
       inkscape:label="Right"
       style="display:inline"><path
         id="path649"
         style="fill:#000000"
         d="m 254.63591,255.2199 c -0.76281,-1.23425 -0.79793,-7.39917 -0.71469,-125.4699 L 254,18 l 3.25,0.01531 3.25,0.01531 -1.36315,0.863636 -1.36316,0.863636 1.36316,0.542104 1.36315,0.542103 -1.25,0.07895 L 258,21 v 21.40736 21.407361 l 6.75,3.417347 6.75,3.417348 v 1.398152 1.398152 l -6.74558,3.52714 -6.74558,3.52714 -0.0859,7 c -0.0472,3.85 -0.16172,36.54296 -0.25442,72.65103 l -0.16855,65.65103 2,-0.97423 c 1.1,-0.53583 3.41618,-1.69368 5.14706,-2.573 l 3.14707,-1.59877 0.59193,-3.57803 c 0.32556,-1.96792 0.59688,-5.49053 0.60293,-7.82803 L 269,205 h 1.5 1.5 v 16.44098 16.44099 l -1.03718,0.64101 c -0.57044,0.35255 -3.66033,-0.7242 -6.86642,-2.39278 l -5.82924,-3.03379 -0.62489,5.20179 c -0.34369,2.86099 -0.6288,6.81847 -0.63358,8.7944 l -0.009,3.5926 17.25,0.65434 c 9.4875,0.35989 46.8375,0.65572 83,0.6574 L 423,252 v -40 c 0,-22 -0.3375,-39.9926 -0.75,-39.98355 -0.4125,0.009 -2.55,1.03355 -4.75,2.27667 l -4,2.26022 -0.5,7.96367 -0.5,7.96368 -1.75,0.33298 -1.75,0.33298 V 176.07332 159 h 1.53324 c 0.84329,0 3.75333,1.125 6.46676,2.5 2.71343,1.375 5.17347,2.5 5.46676,2.5 0.29328,0 0.52631,-25.3125 0.51785,-56.25 l -0.0154,-56.25 -6.73461,-3.557885 -6.73461,-3.557884 v -1.426752 -1.426753 l 6.75,-3.298448 6.75,-3.298449 V 27.966915 L 423,21 H 403 383 V 35.531385 50.06277 l -1.45759,0.559328 -1.45758,0.559327 -8.54242,-4.333829 L 363,42.513766 v -1.537598 -1.537597 l 7.5,-3.711099 7.5,-3.711099 v -6.450689 -6.450688 l -4.25,-0.382791 c -2.3375,-0.210535 8.84826,-0.461409 24.85725,-0.557498 L 427.7145,18 427.40996,42.25 c -0.1675,13.3375 -0.32826,66.8875 -0.35725,119 L 427,256 h -85.94098 c -47.26754,0 -86.15794,-0.35104 -86.42311,-0.7801 z m 20.14761,-1.95357 c -2.59406,-0.20525 -7.09406,-0.20738 -10,-0.005 -2.90594,0.20264 -0.78352,0.37057 4.71648,0.37317 5.5,0.003 7.87758,-0.16319 5.28352,-0.36844 z m 19.46648,10e-4 c -2.3375,-0.21053 -6.1625,-0.21053 -8.5,0 -2.3375,0.21054 -0.425,0.3828 4.25,0.3828 4.675,0 6.5875,-0.17226 4.25,-0.3828 z m -38.53242,-8.00404 -0.41792,-2.76375 -0.0136,5 c -0.007,2.75 0.18056,3.99369 0.41792,2.76375 0.23736,-1.22994 0.24351,-3.47994 0.0136,-5 z M 268,229.5 c 0,-4.03407 -0.0397,-4.04953 -4.71018,-1.83324 l -3.51244,1.66676 3.36131,1.79132 C 267.74092,233.57749 268,233.49089 268,229.5 Z m 2.70573,-19.75 c -0.23835,-1.2375 -0.43337,-0.225 -0.43337,2.25 0,2.475 0.19502,3.4875 0.43337,2.25 0.23836,-1.2375 0.23836,-3.2625 0,-4.5 z m -15.04345,-40 c -0.27741,-0.6875 -0.50439,-0.125 -0.50439,1.25 0,1.375 0.22698,1.9375 0.50439,1.25 0.27741,-0.6875 0.27741,-1.8125 0,-2.5 z m 163.10741,-2.33728 c -0.69833,-0.65894 -2.28219,-1.50169 -3.51969,-1.87278 L 413,164.86522 v 3.55121 3.55121 l 3.51969,-1.67842 3.51968,-1.67842 z M 255.69299,146.26903 255.232,144.5 l -0.037,3 c -0.0204,1.65 0.18706,2.44606 0.46099,1.76903 0.27392,-0.67703 0.29059,-2.02703 0.0371,-3 z M 255.66228,118.75 c -0.27741,-0.6875 -0.50439,-0.125 -0.50439,1.25 0,1.375 0.22698,1.9375 0.50439,1.25 0.27741,-0.6875 0.27741,-1.8125 0,-2.5 z m 6.60557,-45.155098 1.76785,-1.341491 -2.48267,-1.626706 C 258.21936,68.442396 258,68.52718 258,72 v 3 l 1.25,-0.0318 c 0.6875,-0.01749 2.04553,-0.635475 3.01785,-1.373295 z M 425.68311,62.8125 425.15789,61.5 l -0.0789,1.916667 c -0.0434,1.054166 0.19293,1.644791 0.52522,1.3125 0.33229,-0.332292 0.36781,-1.194792 0.0789,-1.916667 z M 423,43 c 0,-3.409255 -0.004,-3.41114 -3.45295,-1.839485 -3.13472,1.428277 -3.19964,2.219125 -0.29705,3.61899 C 422.64912,46.418839 423,46.252334 423,43 Z M 377.81955,39.040889 377.5,37.081779 374.25,38.665792 C 372.4625,39.537 371,40.587393 371,41 c 0,0.412607 1.4625,1.463 3.25,2.334208 l 3.25,1.584013 0.31955,-1.95911 c 0.17575,-1.077511 0.17575,-2.840711 0,-3.918222 z m 2.86356,3.771611 -0.52522,-1.3125 -0.0789,1.916667 c -0.0434,1.054166 0.19293,1.644791 0.52522,1.3125 0.33229,-0.332292 0.36781,-1.194792 0.0789,-1.916667 z m 0.01,-5.543468 L 380.232,35.5 l -0.0371,3 c -0.0204,1.65 0.18706,2.446064 0.46099,1.769032 0.27392,-0.677033 0.29059,-2.027033 0.0371,-3 z m 45,-14 L 425.232,21.5 l -0.0371,3 c -0.0204,1.65 0.18706,2.446064 0.46099,1.769032 0.27392,-0.677033 0.29059,-2.027033 0.0371,-3 z M 390.75,19.283746 c -1.5125,-0.229125 -3.9875,-0.229125 -5.5,0 -1.5125,0.229124 -0.275,0.41659 2.75,0.41659 3.025,0 4.2625,-0.187466 2.75,-0.41659 z m 6.97917,0.112087 c -0.33229,-0.332291 -1.1948,-0.367818 -1.91667,-0.07895 l -1.3125,0.525219 1.91667,0.07895 c 1.05416,0.04342 1.64479,-0.192928 1.3125,-0.52522 z M 417.25,19.259603 c -3.4375,-0.195271 -9.0625,-0.195271 -12.5,0 -3.4375,0.195271 -0.625,0.355038 6.25,0.355038 6.875,0 9.6875,-0.159767 6.25,-0.355038 z m -62.03261,216.551967 -8.28261,-4.23438 0.28261,-1.5386 L 347.5,228.5 l 7.71114,-3.92814 7.71114,-3.92813 0.28886,-7.56102 0.28886,-7.56102 1.77395,-0.33878 1.77395,-0.33878 -0.27395,17.31513 -0.27395,17.31513 -1.5,0.28578 c -0.825,0.15717 -5.22718,-1.6197 -9.78261,-3.9486 z m 7.35539,-9.57212 C 361.91589,225.58255 354,229.01328 354,229.95486 c 0,0.35811 1.9125,1.5806 4.25,2.71664 l 4.25,2.06552 0.31258,-3.97259 c 0.17192,-2.18493 0.064,-4.22117 -0.2398,-4.52498 z m 38.67887,9.53344 -8.24834,-4.27289 -0.002,-1.54978 -0.002,-1.54977 8,-3.90045 8,-3.90045 V 213.29978 206 h 2.02418 2.02418 l -0.27418,16.73724 -0.27418,16.73723 -1.5,0.28565 c -0.825,0.15711 -5.21176,-1.63715 -9.74835,-3.98723 z m 7.39215,-9.46243 c -0.62813,-0.62812 -7.6438,2.70128 -7.6438,3.62748 0,0.39054 1.6875,1.60212 3.75,2.69241 l 3.75,1.98234 0.31258,-3.91043 c 0.17192,-2.15073 0.096,-4.12704 -0.16878,-4.3918 z M 307.75,234.78453 300,230.72363 v -1.67827 -1.67827 l 8,-3.74475 8,-3.74474 V 213.4388 207 h 2 2 v 16 16 l -2.25,-0.0773 c -1.2375,-0.0425 -5.7375,-1.90469 -10,-4.13818 z m 8.25,-5.73665 v -4.95212 l -5.00136,2.5948 -5.00137,2.5948 4.75137,2.27845 c 2.61325,1.25314 4.86386,2.31394 5.00136,2.35732 0.1375,0.0434 0.25,-2.14958 0.25,-4.87325 z M 316,175 v -17 l 1.75,0.088 c 0.9625,0.0484 4.9,1.73589 8.75,3.75 l 7,3.66201 v 2 2 l -6.75,3.36332 -6.75,3.36332 v 7.88668 7.88668 h -2 -2 v -17 z m 11.79159,-7.44441 c -0.16038,-0.10684 -1.97909,-1.16038 -4.04159,-2.3412 L 320,163.06745 v 4.34082 4.34081 l 4.04159,-1.99962 c 2.22287,-1.09979 3.91037,-2.08703 3.75,-2.19387 z M 363,175 v -16 h 2.02496 c 1.11373,0 5.19423,1.59601 9.06777,3.5467 l 7.0428,3.5467 -0.36786,1.2033 c -0.20233,0.66181 -3.38159,2.7783 -7.06504,4.7033 l -6.69718,3.5 -0.003,7.75 -0.003,7.75 h -2 -2 v -16 z m 8.06574,-6.03518 C 373.7527,167.5268 373.48951,166.62324 370,165.3061 l -3,-1.13237 v 2.91313 c 0,3.10162 0.95504,3.54275 4.06574,1.87796 z M 269,174.05902 v -15.94099 l 0.9573,-0.59164 c 0.52652,-0.32541 4.57652,1.22806 9,3.45214 l 8.0427,4.04379 -0.008,1.73884 -0.008,1.73884 -7.46176,3.5 -7.46175,3.5 -0.0302,7.25 L 272,190 h -1.5 -1.5 z m 1.71625,3.19098 c -0.22912,-1.5125 -0.41659,-0.275 -0.41659,2.75 0,3.025 0.18747,4.2625 0.41659,2.75 0.22913,-1.5125 0.22913,-3.9875 0,-5.5 z m -0.009,-10.48834 -0.4349,-2.26166 -0.0202,4 c -0.0111,2.2 0.18461,3.21775 0.4349,2.26166 0.25029,-0.95609 0.25937,-2.75609 0.0202,-4 z m 6.5365,1.75999 3.74376,-1.74361 -3.68964,-1.88109 -3.68965,-1.88109 -0.7888,1.24207 c -1.0068,1.58533 -1.06523,6.99984 -0.0694,6.43371 0.4125,-0.23451 2.43469,-1.21101 4.49376,-2.16999 z M 292.5,142.42004 c -11.93278,-5.96062 -11.98667,-6.59634 -1.01267,-11.9462 l 7.42802,-3.62119 0.29233,-7.17632 L 299.5,112.5 h 2 2 v 16.5 16.5 l -2,0.20833 c -1.1,0.11458 -5.15,-1.36515 -9,-3.28829 z M 299,136 c 0,-4.60769 0.16397,-4.5227 -4.46607,-2.31479 -4.35577,2.07712 -4.39019,2.64288 -0.28393,4.66712 4.5452,2.24062 4.75,2.1392 4.75,-2.35233 z m 2.71758,-2.73625 -0.41792,-2.76375 -0.0137,5 c -0.007,2.75 0.18056,3.99369 0.41792,2.76375 0.23736,-1.22994 0.24351,-3.47994 0.0136,-5 z m 0.0122,-15.99145 c -0.21648,-2.07476 -0.39722,-0.6223 -0.40166,3.2277 -0.004,3.85 0.17268,5.54754 0.39359,3.7723 0.22091,-1.77523 0.22454,-4.92523 0.008,-7 z m 37.43576,24.57053 -8.16556,-4.15717 v -1.85102 -1.85101 l 7.5,-3.7111 7.5,-3.7111 v -6.8121 -6.8121 l 1.56722,-0.6014 c 0.86197,-0.33077 1.94247,-0.20414 2.40113,0.28139 l 0.83391,0.88278 -0.54297,16.25 -0.54297,16.25 h -1.1926 c -0.65593,0 -4.86711,-1.87073 -9.35816,-4.15717 z M 346,136 c 0,-4.55345 0.11092,-4.49101 -4.53212,-2.55103 -4.26588,1.7824 -4.28033,2.08507 -0.21788,4.56199 4.43539,2.70431 4.75,2.57112 4.75,-2.01096 z m 39.90071,6.21683 -7.40071,-3.78317 -0.28833,-1.97858 -0.28833,-1.97858 7.49391,-3.70808 7.49391,-3.70809 0.29442,-7.28016 L 393.5,112.5 h 2 2 l 0.14338,11.5 c 0.0789,6.325 -0.0855,13.8625 -0.36522,16.75 l -0.50861,5.25 h -1.73407 c -0.95373,0 -5.06438,-1.70243 -9.13477,-3.78317 z M 393,136.59362 v -4.40638 l -1.75,0.46001 c -0.9625,0.25301 -2.84126,1.28472 -4.17502,2.2927 l -2.42502,1.83269 3.92502,2.06948 c 2.15876,1.13822 4.03752,2.08938 4.17502,2.11368 0.1375,0.0243 0.25,-1.93867 0.25,-4.36218 z m 2.68311,-20.78112 -0.52522,-1.3125 -0.0789,1.91667 c -0.0434,1.05416 0.19293,1.64479 0.52522,1.3125 0.33229,-0.3323 0.36781,-1.1948 0.0789,-1.91667 z M 299.66667,97.333333 c -0.83326,-0.833255 -0.88732,-29.594762 -0.0597,-31.751546 0.87299,-2.274967 1.80588,-2.053272 11.09759,2.637239 l 8.35771,4.219026 -0.29,1.505857 c -0.30127,1.564324 -2.01616,2.601197 -10.02229,6.059746 l -4.75,2.051941 V 88.827798 95.6 l -1.2,1.2 c -1.35945,1.359451 -2.16936,1.497308 -3.13333,0.533333 z m 2.04059,-12.571674 -0.4349,-2.261659 -0.0202,4 c -0.0111,2.2 0.18461,3.217747 0.4349,2.261659 0.25029,-0.956087 0.25937,-2.756087 0.0202,-4 z M 301.71625,71.25 c -0.22912,-1.5125 -0.41659,-0.275 -0.41659,2.75 0,3.025 0.18747,4.2625 0.41659,2.75 0.22913,-1.5125 0.22913,-3.9875 0,-5.5 z m 7.53375,4.019915 c 2.58874,-0.74434 2.13872,-1.92951 -1.40364,-3.696673 C 303.77945,69.5444 304,69.427786 304,73.606989 v 3.606989 l 1.75,-0.720443 c 0.9625,-0.396243 2.5375,-0.946872 3.5,-1.22362 z M 393,81.559017 V 65.118034 l 1.05915,-0.654588 c 0.58253,-0.360023 4.8869,1.207208 9.56528,3.482737 l 8.50614,4.137326 -0.32441,1.684511 -0.32441,1.684511 -6.74087,3.391532 -6.74088,3.391531 -0.0136,5.632203 c -0.008,3.097712 -0.285,6.644703 -0.61664,7.882203 L 396.76674,98 H 394.88337 393 Z M 395.68933,89.25 C 395.4378,88.2875 395.232,89.075 395.232,91 c 0,1.925 0.2058,2.7125 0.45733,1.75 0.25152,-0.9625 0.25152,-2.5375 0,-3.5 z m -0.027,-6.5 c -0.27741,-0.6875 -0.50439,-0.125 -0.50439,1.25 0,1.375 0.22698,1.9375 0.50439,1.25 0.27741,-0.6875 0.27741,-1.8125 0,-2.5 z m 0.0208,-5.9375 -0.52522,-1.3125 -0.0789,1.916667 c -0.0434,1.054166 0.19293,1.644791 0.52522,1.3125 0.33229,-0.332292 0.36781,-1.194792 0.0789,-1.916667 z m 6.55861,-1.4375 3.14241,-1.625 -3.44207,-1.787 -3.44206,-1.787 -0.59518,1.646032 c -1.57586,4.358199 0.1096,5.738993 4.3369,3.552968 z M 347,80.573324 V 64 h 1.0222 c 0.56221,0 4.61221,1.805022 9,4.011161 L 365,72.022321 v 1.51335 1.513349 L 358.05655,78.27451 351.11311,81.5 350.80655,88.989156 350.5,96.478311 348.75,96.81248 347,97.146648 Z M 357.136,73.5 c 0,-0.452901 -1.3806,-1.403955 -3.068,-2.113454 L 351,70.096548 V 73.5 76.903452 l 3.068,-1.289998 c 1.6874,-0.709499 3.068,-1.660553 3.068,-2.113454 z M 277,45.973802 269.5,42.114386 V 40.31916 38.523935 L 277.25,34.75 285,30.976065 V 25.988033 21 l -2.25,-0.09968 -2.25,-0.09968 2.5,-0.747661 2.5,-0.747661 -2.5,-0.516477 -2.5,-0.516477 4.80902,-0.136182 L 290.11803,18 l -0.56524,0.91459 c -0.31089,0.503024 5e-5,1.142498 0.69098,1.421052 L 291.5,20.842105 290.25,20.921053 289,21 V 35.5 50 l -2.25,-0.08339 c -1.2375,-0.04586 -5.625,-1.820129 -9.75,-3.942808 z m 7.67247,-9.634662 c -0.24898,-0.248982 -2.54169,0.52925 -5.0949,1.729403 l -4.64222,2.182098 4.78233,2.311786 4.78232,2.311787 0.31258,-4.04119 c 0.17192,-2.222655 0.10887,-4.244902 -0.14011,-4.493884 z M 322.75,45.915919 315,41.998896 v -1.402974 -1.402973 l 8,-3.754169 8,-3.754169 V 24.842306 18 h 2.5 c 1.375,0 2.5,0.425344 2.5,0.945209 0,0.519865 2.1375,1.113753 4.75,1.319752 l 4.75,0.374543 -4.67041,0.180248 -4.6704,0.180248 -0.6476,6.25 c -0.35618,3.4375 -0.52675,8.05 -0.37903,10.25 0.14771,2.2 0.17831,5.9125 0.068,8.25 L 335,50 332.75,49.91647 c -1.2375,-0.04594 -5.7375,-1.846189 -10,-4.000552 z m 7.89756,-8.601694 c -0.26683,-0.266824 -2.12295,0.292056 -4.12471,1.241957 l -3.63958,1.727091 0.80837,0.795884 c 0.4446,0.437737 2.15836,1.496173 3.80836,2.35208 l 3,1.556197 0.31635,-3.594038 c 0.17399,-1.97672 0.098,-3.812348 -0.16879,-4.079171 z M 354.8125,20.316886 c 0.72187,-0.288871 1.58438,-0.253344 1.91667,0.07895 0.33229,0.332292 -0.25834,0.568641 -1.3125,0.52522 l -1.91667,-0.07895 1.3125,-0.525219 z m 10.45125,-0.03447 c 1.52006,-0.229855 3.77006,-0.223712 5,0.01365 1.22994,0.237362 -0.0138,0.425424 -2.76375,0.417917 l -5,-0.01365 z m -91.45125,-1.96553 c 0.72187,-0.288871 1.58438,-0.253344 1.91667,0.07895 0.33229,0.332292 -0.25834,0.568641 -1.3125,0.52522 l -1.91667,-0.07895 1.3125,-0.525219 z m 81.4375,-0.0062 c 0.9625,-0.251527 2.5375,-0.251527 3.5,0 0.9625,0.251528 0.175,0.457323 -1.75,0.457323 -1.925,0 -2.7125,-0.205795 -1.75,-0.457323 z" /></g><g
       inkscape:groupmode="layer"
       id="layer2"
       inkscape:label="Left"><path
         id="path693"
         style="display:inline;fill:#000000"
         d="m 213.69766,248.36432 c -0.17148,-0.17147 -36.06109,-0.35614 -79.75471,-0.41038 C 90.249325,247.8997 53.2625,247.61041 51.75,247.31108 L 49,246.76685 V 131.91861 17.070368 l 2.037773,-1.090583 c 1.120775,-0.599821 2.808275,-0.865966 3.75,-0.591434 0.941725,0.274532 39.737227,0.805316 86.212227,1.17952 46.475,0.374203 84.8375,0.876073 85.25,1.115266 0.4125,0.239193 0.75,52.128015 0.75,115.308493 v 114.87359 l -1.83303,0.58178 c -1.82211,0.57832 -10.87357,0.51307 -11.46931,-0.0827 z m -10.42863,-2.02026 c -0.67703,-0.27392 -2.02703,-0.29059 -3,-0.0371 L 198.5,246.768 l 3,0.037 c 1.65,0.0204 2.44606,-0.18706 1.76903,-0.46099 z M 72.25,245.33772 c -0.6875,-0.27741 -1.8125,-0.27741 -2.5,0 -0.6875,0.27741 -0.125,0.50439 1.25,0.50439 1.375,0 1.9375,-0.22698 1.25,-0.50439 z m 14.517909,-0.0522 c -1.50265,-0.22817 -4.20265,-0.23276 -6,-0.0102 -1.79735,0.22256 -0.567909,0.40925 2.732091,0.41486 3.3,0.006 4.770559,-0.17648 3.267909,-0.40466 z m 115.342731,-3.5905 -2.01614,-3.19502 -4.59114,-0.30658 -4.59114,-0.30659 -1.92284,2.30659 c -3.21058,3.85131 -2.80281,4.03816 9.82401,4.5016 l 5.31339,0.19501 z M 222,233 v -12 h -4.4454 -4.44541 l -4.41078,7.75 -4.41079,7.75 2.01161,3.6989 2.01161,3.6989 3.59458,0.383 c 1.97702,0.21065 5.05708,0.45864 6.84458,0.5511 L 222,245 Z m -81.0565,6.60342 2.43992,-4.46648 -1.20456,-2.31847 c -0.6625,-1.27516 -2.5116,-4.56847 -4.1091,-7.31847 l -2.90455,-5 -5.8326,-0.5 -5.83261,-0.5 -2.23518,-4.43183 c -2.93995,-5.8292 -3.38095,-6.03496 -12.97267,-6.05286 L 100.08431,209 l -2.640474,4.50562 -2.640472,4.50563 -2.151682,0.48066 c -1.183425,0.26436 -4.116726,0.59933 -6.518445,0.74437 l -4.366764,0.26372 -3.166482,5.73325 c -1.741565,3.15328 -3.714021,6.28078 -4.383236,6.95 -1.69685,1.69684 -1.526605,3.25735 0.768318,7.04258 l 1.985073,3.27417 7.264927,0.5151 c 3.99571,0.28331 17.840737,0.63654 30.766717,0.78495 l 23.5018,0.26985 z M 160,243.01143 c 0,-0.54371 -0.77501,-1.89371 -1.72224,-3 L 156.55552,238 h -4.66275 -4.66275 l -1.61501,2.46482 C 143.28497,244.02091 143.2472,244 152,244 h 8 z M 184.40453,239 l 3.59214,-5 h 6.37234 6.37234 l 4.20543,-7.25 4.20543,-7.25 -0.89926,-1.5 c -0.49458,-0.825 -1.96875,-3.42506 -3.27593,-5.77791 l -2.37667,-4.27791 2.94982,-5.46088 2.94983,-5.46088 -2.45707,-4.6396 c -1.35139,-2.55179 -3.29656,-5.70683 -4.32258,-7.01121 L 199.85484,183 h -5.34165 -5.34164 l -3.10036,-5.03872 -3.10035,-5.03872 -8.67269,0.28872 -8.67269,0.28872 -2.62386,4.5 -2.62387,4.5 -6.13595,0.29634 -6.13595,0.29635 -1.95415,3.20365 c -1.07479,1.76201 -2.82331,4.77866 -3.88561,6.70366 l -1.93146,3.5 1.0827,2.5 c 0.59548,1.375 1.95622,3.78981 3.02387,5.36625 l 1.94118,2.86625 -3.33385,6.17761 -3.33385,6.17762 2.41536,3.95614 c 1.32844,2.17587 3.04369,5.19363 3.81165,6.70613 l 1.39629,2.75 h 5.75844 5.75844 l 1.82258,2.40151 c 1.00242,1.32084 2.58915,3.79584 3.52607,5.5 L 165.90698,244 h 7.4527 7.45271 z M 70.292171,239.75 68.400238,236.5 63.950119,236.22813 59.5,235.95626 57.240807,239.47813 54.981614,243 h 8.601244 8.601245 z m -6.958764,-7.76226 6.166593,-0.0123 4.394047,-7.58479 4.394047,-7.5848 -2.644047,-4.89561 c -3.206801,-5.93759 -3.239862,-6.78612 -0.448729,-11.51674 l 2.195318,-3.72078 -3.87743,-7.33638 L 69.635775,182 h -4.863342 -4.863342 l -2.204546,-2.30878 C 56.492045,178.42139 55.05,176.59078 54.5,175.6232 l -1,-1.75923 -0.184859,31.81802 -0.184858,31.81801 2.018265,-2.75 2.018265,-2.75 6.166594,-0.0123 z M 154.25,235.29427 c -1.2375,-0.23836 -3.2625,-0.23836 -4.5,0 -1.2375,0.23835 -0.225,0.43337 2.25,0.43337 2.475,0 3.4875,-0.19502 2.25,-0.43337 z M 222.58382,208.25 222.66762,200 h -5.14968 -5.14968 l -2.19145,3.89916 -2.19145,3.89916 0.67003,1.85084 c 0.36852,1.01796 1.54365,3.11108 2.6114,4.65138 l 1.94135,2.80054 4.64592,-0.30054 L 222.5,216.5 l 0.0838,-8.25 z m -83.72686,3.79072 2.22524,-3.95928 -1.99272,-3.90604 -1.99271,-3.90605 -3.17339,-0.63467 C 132.17802,199.2856 129.93176,199 128.93168,199 h -1.81832 l -2.47258,4.14635 -2.47259,4.14634 2.11517,4.35366 2.11517,4.35365 h 5.11659 5.1166 z m -44.792665,-1.26722 2.54172,-4.22651 -2.415529,-4.32185 -2.41553,-4.32185 -4.996689,0.29835 -4.99669,0.29836 -2.140788,3.72249 L 77.5,205.94498 79.888962,210.47249 82.277923,215 h 4.622326 4.622325 z M 51.707261,208.76166 51.272364,206.5 l -0.02018,4 c -0.0111,2.2 0.184605,3.21775 0.434897,2.26166 0.250293,-0.95609 0.259374,-2.75609 0.02018,-4 z M 120.895,200.5 l 2.11525,-4.5 2.24487,-0.11515 c 1.23469,-0.0633 3.08114,-0.0268 4.10323,0.0812 1.02209,0.108 2.91696,-0.0693 4.21082,-0.39406 l 2.35247,-0.59044 4.10073,-6.90255 4.10074,-6.90256 -2.56156,-5.05498 c -3.16737,-6.25051 -3.17367,-7.22083 -0.0812,-12.4978 l 2.4804,-4.23247 -4.50483,-7.6956 -4.50483,-7.6956 h -4.39378 c -6.18664,0 -7.30952,-0.6513 -9.44468,-5.47818 -2.42092,-5.47291 -2.1456,-5.35084 -12.63814,-5.60319 l -8.932396,-0.21483 -2.313823,4.63978 -2.313824,4.63978 -2.207244,0.53012 c -1.213983,0.29157 -3.997374,0.40782 -6.185311,0.25832 l -3.978068,-0.2718 -4.707667,7.81499 -4.707668,7.81498 2.935736,4.97902 c 3.640913,6.17501 3.642879,7.31222 0.02208,12.76988 l -2.905089,4.37887 3.737352,6.12113 3.737352,6.12113 6.878697,0.5 6.878698,0.5 3.405484,5.75 3.405491,5.75 h 8.77771 8.77771 l 2.11525,-4.5 z m 101.49801,-6.08179 c 0.33385,-0.86998 0.60699,-12.56998 0.60699,-26 V 144 h -3.88499 -3.88499 l -1.45943,2.25 c -7.93038,12.22628 -8.5513,14.55302 -5.27059,19.75 3.10254,4.91474 3.0993,5.09524 -0.1841,10.26987 -3.34937,5.27861 -3.29134,5.95864 1.15606,13.54697 L 213.09581,196 h 4.34511 4.3451 z M 51.683114,183.8125 51.157895,182.5 l -0.07895,1.91667 c -0.04342,1.05416 0.192928,1.64479 0.52522,1.3125 0.332291,-0.3323 0.367818,-1.1948 0.07895,-1.91667 z m 107.793626,-9.1826 2.56105,-4.3701 -2.20442,-4.1299 L 157.62895,162 h -4.73291 -4.73292 l -2.18221,3.5309 -2.18222,3.53089 0.64132,2.55523 c 0.35273,1.40537 1.72757,3.64147 3.0552,4.9691 L 149.90909,179 h 3.5033 3.5033 z m 44.02756,0.36328 2.52939,-4.00681 -1.96846,-3.85851 -1.96846,-3.85851 -3.17339,-0.63467 C 197.17802,162.2856 194.95194,162 193.97654,162 h -1.77346 l -2.50352,4.23921 -2.50352,4.23922 1.52696,3.01078 c 0.83983,1.65594 1.97582,3.57329 2.52443,4.26079 l 0.99746,1.25 h 4.36501 4.36501 z m -131.470927,-1.35002 2.311295,-4.35683 -2.014947,-3.89317 -2.014947,-3.89316 -4.947956,-0.295 -4.947957,-0.29499 -2.288609,4.07203 -2.28861,4.07203 2.621333,4.47296 L 61.084308,178 h 4.318884 4.318885 z m 113.762127,-10.09813 3.26276,-5.45498 6.55744,-0.29502 6.55744,-0.29503 3.97694,-7.27466 3.97694,-7.27466 -2.77242,-5.47534 -2.77242,-5.47534 2.70891,-5.34991 c 3.34537,-6.60687 3.42841,-5.55408 -1.04109,-13.19821 l -3.75,-6.41357 -6.23315,-0.0191 L 190.03369,107 187.3857,101.75 C 184.00133,95.040039 183.98841,95.033285 174.5,95.016329 l -8,-0.0143 -2.80769,4.998991 -2.80768,4.99898 -6.19232,0.0192 -6.19231,0.0191 -3.59065,6.23085 c -4.98024,8.6422 -5.00743,8.80831 -2.31187,14.12586 3.01317,5.94413 3.01615,5.88651 -0.60959,11.77908 l -3.01211,4.8953 4.01211,6.65216 c 2.20666,3.65869 4.01211,7.01808 4.01211,7.4653 0,0.44723 1.74375,0.81314 3.875,0.81314 2.13125,0 5.31726,0.28845 7.08002,0.641 l 3.20502,0.64101 2.6283,5.35899 2.6283,5.359 h 8.05805 8.05805 l 3.26276,-5.45497 z M 55.867499,160.5 57.932549,157 h 5.438704 5.438703 l 2.481078,-4.25 c 1.364593,-2.3375 3.444834,-5.97341 4.622757,-8.0798 l 2.14168,-3.82979 -3.211713,-5.61349 -3.211714,-5.61349 2.683978,-4.80724 c 3.37178,-6.03915 3.402062,-5.64627 -1.029017,-13.35049 L 69.57401,105 H 63.806172 58.038334 L 55.769167,100.53437 53.5,96.068733 v 33.964957 c 0,18.68073 0.06805,33.96526 0.151224,33.96563 0.08317,3.8e-4 1.080497,-1.57432 2.216275,-3.49932 z m -4.184385,-5.6875 -0.525219,-1.3125 -0.07895,1.91667 c -0.04342,1.05416 0.192928,1.64479 0.52522,1.3125 0.332291,-0.3323 0.367818,-1.1948 0.07895,-1.91667 z M 89.25,140.29427 c -1.2375,-0.23836 -3.2625,-0.23836 -4.5,0 -1.2375,0.23835 -0.225,0.43337 2.25,0.43337 2.475,0 3.4875,-0.19502 2.25,-0.43337 z M 222.79044,131.75 222.5,123.5 l -4.1355,-0.3019 -4.13549,-0.30191 -2.58306,4.62159 -2.58306,4.6216 2.4811,3.93031 2.4811,3.93031 h 4.5279 4.52789 z m -129.247925,2.76767 2.626823,-4.48234 -2.348256,-4.26766 -2.348257,-4.26767 -4.649184,-0.30123 -4.649184,-0.30123 -2.543802,4.26578 -2.543802,4.26577 2.22302,4.03546 2.223021,4.03545 3.483553,0.61836 c 1.915954,0.3401 4.027084,0.6776 4.691399,0.75 0.664316,0.0724 2.389917,-1.88541 3.834669,-4.35069 z m 44.421065,0.33334 2.33187,-4.149 -2.37684,-4.351 L 135.54177,122 h -4.58674 -4.58675 l -2.33186,4.14899 -2.33187,4.149 2.37684,4.351 2.37684,4.35101 h 4.58674 4.58675 z M 51.689326,129.25 c -0.251528,-0.9625 -0.457323,-0.175 -0.457323,1.75 0,1.925 0.205795,2.7125 0.457323,1.75 0.251527,-0.9625 0.251527,-2.5375 0,-3.5 z m 68.714154,-6.25 2.72134,-5 3.68759,-0.18289 c 2.02818,-0.10059 4.82736,-0.11213 6.22041,-0.0256 l 2.53281,0.15724 3.19771,-4.88456 c 1.75874,-2.68651 3.74923,-6.095 4.4233,-7.57442 l 1.22558,-2.68987 -2.79248,-5.162279 -2.79249,-5.16228 2.5315,-4.987645 L 143.89024,82.5 141.25579,78 c -1.44895,-2.475 -3.33675,-5.734655 -4.19512,-7.243677 L 135.5,68.012645 129.3189,68.006323 123.1378,68 120.2947,62.25 117.45159,56.5 109.0997,56.20752 100.74781,55.915041 99.132471,58.20752 C 98.244035,59.468384 96.838278,61.85 96.008567,63.5 L 94.5,66.5 88.507454,67 l -5.992545,0.5 -4.378456,7.20567 -4.378455,7.205669 2.621001,4.472401 c 3.257367,5.558276 3.258492,6.672325 0.01233,12.211485 l -2.608674,4.451365 3.866813,6.7267 3.866812,6.72671 4.491861,0.26372 c 2.470524,0.14504 5.479749,0.48494 6.687169,0.75532 l 2.195307,0.49161 2.804693,4.99366 2.80469,4.99366 8.59107,0.001 8.59107,0.001 2.72134,-5 z m 12.35818,-3.68708 c -0.95609,-0.25029 -2.75609,-0.25937 -4,-0.0202 l -2.26166,0.4349 4,0.0202 c 2.2,0.0111 3.21775,-0.18461 2.26166,-0.4349 z M 223,94 V 69 h -4.29932 -4.29932 l -4.30971,7.195186 -4.30971,7.195185 2.62467,5.054815 c 3.20063,6.164069 3.20092,6.215921 0.0653,11.826134 l -2.52808,4.52323 4.2729,7.10272 4.27289,7.10273 h 4.25519 4.25518 V 94 Z M 51.683114,105.8125 51.157895,104.5 l -0.07895,1.91667 c -0.04342,1.05416 0.192928,1.64479 0.52522,1.3125 0.332291,-0.3323 0.367818,-1.1948 0.07895,-1.91667 z M 201.5231,102.23469 c 4.35585,-3.127943 5.29533,-8.174377 2.39534,-12.866656 L 201.83688,86 h -4.81394 -4.81393 l -2.0049,4.052259 -2.0049,4.052259 2.48589,4.447741 2.48589,4.447741 3.6645,-0.0153 c 2.01548,-0.008 4.1249,-0.34592 4.68761,-0.75 z M 160.47863,96.5 l 2.10201,-4 -2.53304,-4.25 -2.53304,-4.25 -4.50728,0.0077 -4.50728,0.0077 -2.38208,4.169919 -2.38209,4.169918 2.38209,4.364967 2.38208,4.364976 4.93831,-0.29259 4.93832,-0.29259 2.102,-4.000004 z m -88.092571,0.09887 c 2.077403,-4.377802 2.036839,-5.17854 -0.467618,-9.230837 L 69.836881,84 h -4.732918 -4.732917 l -2.190819,4.104423 -2.190819,4.104422 2.189437,3.895578 L 60.368282,100 H 65.5702 70.772117 Z M 187.06676,86.25 l 2.52105,-4.75 6.11883,-0.295452 6.11882,-0.295452 4.1308,-6.83671 4.13081,-6.83671 -3.04354,-5.161844 C 203.34,55.79262 203.34599,56.253918 206.88288,49.716472 l 2.88289,-5.328608 -3.73923,-6.216939 c -4.77088,-7.932207 -4.04456,-7.398674 -10.74095,-7.89001 -6.5415,-0.479972 -7.46192,-1.043082 -10.47879,-6.410877 L 182.63172,20 h -8.80332 -8.80331 l -2.64709,4.25 c -1.45591,2.3375 -2.80805,4.433995 -3.00476,4.658877 -0.19671,0.224882 -2.57214,0.330498 -5.27872,0.234701 l -4.92107,-0.174174 -1.51071,1.510712 c -0.83089,0.830892 -2.94045,4.009643 -4.68792,7.063891 l -3.17721,5.553178 1.26589,3.201408 c 0.69624,1.760774 1.90734,3.956658 2.69133,4.879743 l 1.42544,1.678337 -0.73271,2.308541 c -0.40298,1.269698 -1.80152,3.923644 -3.10787,5.897659 l -2.37516,3.589118 3.11907,5.924005 c 1.71549,3.258202 3.69997,6.534429 4.40995,7.280505 l 1.29088,1.356501 6.68899,0.536928 6.689,0.536928 2.62711,5.356571 L 166.41664,91 h 9.06453 9.06453 z M 56.120156,83 58.368282,79 h 5.660871 5.660872 l 1.510064,-1.75 c 0.830535,-0.9625 2.769492,-4.033131 4.308793,-6.823625 l 2.79873,-5.073624 -3.222684,-6.341828 -3.222685,-6.341828 2.525776,-4.640682 2.525776,-4.640682 -1.268059,-2.443866 C 74.948304,39.599739 73.124941,36.3625 71.593817,33.75 L 68.809956,29 H 62.557793 56.305629 L 55.220495,26.75 54.135361,24.5 53.961578,27 C 53.718101,30.5026 53.458626,86.999695 53.686015,86.999863 53.788324,86.999938 54.883687,85.2 56.120156,83 Z m 142.641504,0.31292 c -0.95609,-0.250293 -2.75609,-0.259374 -4,-0.02018 l -2.26166,0.434897 4,0.02018 c 2.2,0.0111 3.21775,-0.184605 2.26166,-0.434897 z m 18.96751,-16.917087 c -0.3323,-0.332291 -1.1948,-0.367818 -1.91667,-0.07895 l -1.3125,0.525219 1.91667,0.07895 c 1.05416,0.04342 1.64479,-0.192928 1.3125,-0.525219 z M 51.733497,53.776433 C 51.522251,51.424395 51.346443,53.1 51.34281,57.5 c -0.0036,4.4 0.169205,6.324395 0.384083,4.276433 0.214877,-2.047962 0.217849,-5.647962 0.0066,-8 z M 222.99963,56.25 l -3.7e-4,-8.75 -4.77728,-0.201105 -4.77729,-0.201105 -2.29315,4.322625 -2.29315,4.322626 2.07043,3.87848 2.07043,3.878479 3.25038,0.618359 c 1.7877,0.340097 4.03787,0.677597 5.00037,0.75 L 223,65 Z M 93.552868,58.5 96.190044,54 93.552868,49.5 90.915692,45 h -4.773705 -4.773705 l -2.244976,3.994397 -2.244977,3.994396 2.810836,5.004587 2.810835,5.004587 4.207846,10e-4 4.207846,10e-4 2.637176,-4.5 z m 44.003972,-0.389863 2.34189,-4.389864 -2.19937,-3.852434 -2.19936,-3.852435 -5.15122,-0.0077 -5.15123,-0.0077 -2.17465,3.685761 -2.17465,3.685762 1.14834,2.564238 c 0.63159,1.410332 1.81657,3.60034 2.6333,4.866685 l 1.48494,2.302446 4.55006,-0.302446 4.55006,-0.302446 2.34189,-4.389863 z M 119.68653,46.75 122.5,41.5 l 6.5665,-0.291507 6.56651,-0.291507 3.74544,-6.402738 3.74545,-6.402737 -2.31195,-4.048053 L 138.5,20.015404 107.4774,20.007702 76.454808,20 l -1.9126,3.551483 -1.9126,3.551483 1.860472,3.198517 c 1.023259,1.759184 2.899156,4.865287 4.16866,6.90245 l 2.308188,3.703933 6.728456,0.296067 L 94.42384,41.5 97.416006,46.75 100.40817,52 h 8.23245 8.23244 z m 15.04264,-3.354167 c -0.3323,-0.332291 -1.1948,-0.367818 -1.91667,-0.07895 l -1.3125,0.525219 1.91667,0.07895 c 1.05416,0.04342 1.64479,-0.192928 1.3125,-0.525219 z M 222.9992,31.25 223,20 h -6.80755 -6.80755 l -1.69245,3.83602 c -2.25685,5.115258 -0.64256,10.324859 5.56032,17.944136 l 1.04217,1.280156 4.35173,-0.280156 L 222.99839,42.5 Z M 51.683114,23.8125 51.157895,22.5 l -0.07895,1.916667 c -0.04342,1.054166 0.192928,1.644791 0.52522,1.3125 0.332291,-0.332292 0.367818,-1.194792 0.07895,-1.916667 z M 157.5,23 l 1.55136,-3 h -7.58222 -7.58221 l 1.77214,3 1.77215,3 h 4.25871 4.25871 z m 45.33948,0.452947 C 203.47777,22.052068 204,20.702068 204,20.452947 204,20.203826 200.42093,20 196.04651,20 h -7.95349 l 1.70349,2.993677 1.70349,2.993678 5.08948,0.0063 5.08949,0.0063 1.16051,-2.547053 z M 70.108105,22.25 70.935552,20 h -6.967776 c -7.423834,0 -7.540411,0.06151 -5.905775,3.115851 l 1.062002,1.984368 5.078328,-0.30011 L 69.280658,24.5 Z M 149.25,18.337719 c -0.6875,-0.277412 -1.8125,-0.277412 -2.5,0 -0.6875,0.277413 -0.125,0.504386 1.25,0.504386 1.375,0 1.9375,-0.226973 1.25,-0.504386 z m 9.51166,-0.0248 c -0.95609,-0.250293 -2.75609,-0.259374 -4,-0.02018 l -2.26166,0.434897 4,0.02018 c 2.2,0.0111 3.21775,-0.184605 2.26166,-0.434897 z m 19.51851,-0.04365 c -2.3209,-0.209724 -6.3709,-0.212217 -9,-0.0055 -2.62909,0.206677 -0.73017,0.378269 4.21983,0.381317 4.95,0.003 7.10108,-0.166052 4.78017,-0.375776 z m 17.46983,0.01448 c -1.5125,-0.229125 -3.9875,-0.229125 -5.5,0 -1.5125,0.229124 -0.275,0.41659 2.75,0.41659 3.025,0 4.2625,-0.187466 2.75,-0.41659 z m 8.5,0.05397 c -0.6875,-0.277412 -1.8125,-0.277412 -2.5,0 -0.6875,0.277413 -0.125,0.504386 1.25,0.504386 1.375,0 1.9375,-0.226973 1.25,-0.504386 z m 14.01375,-0.04165 c -1.22994,-0.237362 -3.47994,-0.243505 -5,-0.01365 l -2.76375,0.417917 5,0.01365 c 2.75,0.0075 3.99369,-0.180555 2.76375,-0.417917 z" /><path
         style="display:inline;fill:#656565;fill-opacity:0.469185;fill-rule:evenodd;stroke:#000000;stroke-width:2;stroke-linecap:round;stroke-miterlimit:0;stroke-opacity:1"
         d="M 109.88134,91.228645 174.685,53.814234 v 78.450346 l -64.87207,36.96932 z"
         id="path1981"
         sodipodi:nodetypes="ccccc" /><path
         style="display:inline;fill:#656565;fill-opacity:0.469185;fill-rule:evenodd;stroke:#000000;stroke-width:2;stroke-linecap:round;stroke-miterlimit:0;stroke-opacity:1"
         d="M 109.88134,91.228645 174.685,53.814234 v 78.450346 l -64.87207,36.96932 z"
         id="path1981-1"
         sodipodi:nodetypes="ccccc"
         transform="translate(0,78.522497)" /><path
         style="fill:#656565;fill-opacity:0.469185;fill-rule:evenodd;stroke:#000000;stroke-width:2;stroke-linecap:round;stroke-miterlimit:0;stroke-opacity:1"
         d="M 317.09585,159.05663 300.5229,65.066807 h 46.41726 l 16.59475,94.113503 z"
         id="path6467" /><path
         style="fill:#656565;fill-opacity:0.469185;fill-rule:evenodd;stroke:#000000;stroke-width:2;stroke-linecap:round;stroke-miterlimit:0;stroke-opacity:1"
         d="M 317.09585,159.05663 300.5229,65.066807 h 46.41726 l 16.59475,94.113503 z"
         id="path6467-5"
         transform="translate(16.891958,94.070687)" /></g></g></svg>
