<?xml version="1.0" encoding="UTF-8" standalone="no"?>
<svg
   viewBox="0 0 383.99999 268.62682"
   version="1.1"
   id="svg1321"
   sodipodi:docname="moo-cow-small.svg"
   inkscape:version="1.2.2 (732a01da63, 2022-12-09)"
   width="4in"
   height="2.7981961in"
   xml:space="preserve"
   xmlns:inkscape="http://www.inkscape.org/namespaces/inkscape"
   xmlns:sodipodi="http://sodipodi.sourceforge.net/DTD/sodipodi-0.dtd"
   xmlns:xlink="http://www.w3.org/1999/xlink"
   xmlns="http://www.w3.org/2000/svg"
   xmlns:svg="http://www.w3.org/2000/svg"><defs
     id="defs1325"><symbol
       id="CircleBalloon"
       style="stroke-linejoin:miter;stroke-miterlimit:10"><title
         id="title2695">Circle Balloon</title><ellipse
         cx="205"
         cy="125"
         rx="125"
         ry="70"
         style="stroke:none"
         id="ellipse2697" /><path
         d="m 110,166 c 11,21 -10,30 -22,43 32,-3 59,-7 70,-26"
         style="stroke:none"
         id="path2699" /><ellipse
         cx="200"
         cy="120"
         rx="125"
         ry="70"
         style="fill:#eeeeee;stroke-width:3.5"
         id="ellipse2701" /><path
         d="m 106,162 c 11,21 -10,30 -22,43 32,-3 59,-7 70,-26"
         style="fill:#eeeeee;stroke-width:3.5"
         id="path2703" /><ellipse
         cx="197"
         cy="117"
         rx="117"
         ry="63"
         style="fill:#ffffff;stroke:none"
         id="ellipse2705" /><path
         d="m 103,149 c 14,25 9,34 -6,47 30,-3 50,-10 58,-31"
         style="fill:#ffffff;stroke:none"
         id="path2707" /></symbol></defs><sodipodi:namedview
     id="namedview1323"
     pagecolor="#ffffff"
     bordercolor="#111111"
     borderopacity="1"
     inkscape:showpageshadow="0"
     inkscape:pageopacity="0"
     inkscape:pagecheckerboard="1"
     inkscape:deskcolor="#d1d1d1"
     showgrid="false"
     inkscape:zoom="0.73715882"
     inkscape:cx="-55.618951"
     inkscape:cy="22.383236"
     inkscape:window-width="1920"
     inkscape:window-height="1001"
     inkscape:window-x="-9"
     inkscape:window-y="-9"
     inkscape:window-maximized="1"
     inkscape:current-layer="layer1"
     inkscape:document-units="in" /><g
     inkscape:groupmode="layer"
     id="layer1"
     inkscape:label="Layer 1"
     style="display:inline"
     transform="translate(47.163854,-124.12521)"><rect
       style="font-variation-settings:normal;opacity:1;vector-effect:none;fill:#ffffff;fill-opacity:1;fill-rule:evenodd;stroke:#000000;stroke-width:21.1702;stroke-linecap:square;stroke-linejoin:miter;stroke-miterlimit:0;stroke-dasharray:none;stroke-dashoffset:0;stroke-opacity:1;-inkscape-stroke:none;stop-color:#000000;stop-opacity:1"
       id="rect2910"
       width="1999.0408"
       height="1580.8153"
       x="0"
       y="0"
       rx="20.185961"
       ry="22.881956"
       transform="matrix(0.19007916,0,0,0.16768368,-45.151847,125.90016)" /><path
       style="fill:#040404;stroke:none;stroke-width:7.41162"
       d="m 505,490 c -13.846,-9.911 -24.615,-26.118 -37,-37.961 -38.046,-36.38 -88.236,-77.112 -143,-80.95 -19.657,-1.377 -39.795,2.016 -59,5.601 -41.725,7.789 -83.308,18.849 -119,42.643 -15.05,10.034 -36.466,20.951 -43.455,38.667 -10.664,27.028 6.383,58.13 21.125,80 26.87,39.863 64.338,72.837 103.33,100.424 19.711,13.946 42.749,28.318 67,32.251 17.759,2.88 39.788,-3.706 57,-7.791 27.646,-6.561 55.227,-14.587 82,-24.123 18.705,-6.662 37.713,-16.191 57,-20.761 0,21.632 -1.739,43.383 -1.996,65 -0.199,16.719 1.799,34.402 -0.188,51 -1.801,15.036 -6.708,29.811 -8.531,45 -4.5,37.511 -3.139,76.095 5.214,113 7.972,35.221 23.995,69.906 46.811,98 8.101,9.975 17.41,19.09 26.69,27.96 3.491,3.34 9.806,6.7 11.802,11.21 3.197,7.22 -2.969,26.01 -4.338,33.83 -4.029,23.01 -0.816,47.16 -4.793,70 -5.101,29.31 -29.462,61.35 -48.516,83 -6.217,7.06 -15.666,19.18 -24.985,22.13 -4.917,1.55 -15.638,-8.03 -20.17,-10.32 -19.586,-9.94 -53.639,-14.42 -58.409,15.19 -1.337,8.3 1.965,15.91 1.409,24 -14.751,-8.61 -45.458,-20.24 -56.925,-1 -8.314,13.95 -3.104,36.94 -0.779,52 7.853,50.87 30.649,113.33 76.704,141.39 19.882,12.1 44.124,16.16 67,12.15 12.705,-2.23 24.45,-7.35 37,-10.03 27.087,-5.79 56.274,-9.68 84,-8.47 17.038,0.75 39.953,-0.91 56,5.52 15.501,6.21 22.157,22.03 41,22.39 9.896,0.18 16.322,-9.18 25,-9.38 21.019,-0.46 42.982,4.9 64,6.34 51.259,3.51 102.9,3.11 154,-2.08 22.47,-2.28 43.09,-10.26 65,-14.45 6.95,-1.34 13.95,0.74 21,-0.76 5.28,-1.11 9.82,-4.29 15,-5.69 12.46,-3.38 27.11,-4.33 40,-4.89 35.76,-1.57 71.14,1.73 106,9.61 12.68,2.87 24.41,8.39 37,11.45 24.38,5.92 51.07,3.89 73,-8.91 48.64,-28.4 69.07,-87.53 81.41,-139.19 3.57,-14.94 9.83,-43.06 -1.94,-55.67 -13.45,-14.42 -40.96,-3.12 -55.47,3.67 l -1,-1 c 7.7,-18.25 -0.46,-43.25 -21,-47.49 -11.6,-2.39 -25.88,3.65 -36,8.85 -4.26,2.19 -11.01,8.78 -16,8 -9.1,-1.41 -20.43,-17.61 -25.91,-24.36 -16.57,-20.42 -29.58,-43.07 -40.36,-67 -3.98,-8.82 -9.91,-19.24 -10.64,-29 -2.27,-30.3 0.21,-60.7 -3.38,-91 -1.1,-9.31 -1.7,-18.74 -3.15,-28 -0.62,-4.003 -2.83,-9.608 -1.11,-13.561 2.53,-5.81 11.79,-10.402 16.55,-14.36 12.17,-10.118 24.27,-21.173 34.71,-33.079 32.29,-36.804 53.24,-85.239 58.12,-134 5.77,-57.675 -5.58,-115.835 -28.06,-169 -12.02,-28.433 -28.16,-53.848 -42.44,-81 -10.99,-20.869 -19.77,-45.66 -27.33,-68 48.61,0 95.6,5.878 144,-3.8 23.19,-4.637 46.5,-11.748 64.91,-27.189 14.81,-12.425 26.61,-29.098 35.78,-46.011 15.28,-28.183 24.51,-58.503 33.81,-89 10.05,-32.915 16.5,-67.541 16.5,-102 0,-18.762 -2.75,-36.962 -20,-48.038 -19.99,-12.833 -47.62,-11.146 -70,-7.551 -33.21,5.334 -65.59,16.418 -97,28.364 -23.94,9.105 -49.31,18.552 -70,33.985 -17.1,12.75 -33.72,29.594 -47,46.24 -2.95,3.701 -9.93,17.226 -15.3,16.494 -3.29,-0.449 -9.74,-3.473 -11.1,-6.638 -2.54,-5.952 0.38,-16.597 1.11,-22.856 1.14,-9.62 0.42,-19.568 -1.45,-29 -7.02,-35.399 -29.45,-67.551 -54.27,-93 -8.29,-8.497 -20.35,-21.72 -32.99,-22.894 -19.85,-1.844 -12.93,24.401 -11.42,35.894 3.97,30.258 -6.73,63.947 -21.58,90 -3.61,6.328 -9.58,21.051 -17.01,23.306 -5.79,1.754 -14.21,-3.204 -19.99,-4.161 -17.916,-2.964 -35.798,-5.925 -54,-6.141 -60.376,-0.718 -122.951,4.59 -182,17.356 -43.277,9.356 -86.213,18.851 -126,38.888 -13.148,6.621 -25.625,14.668 -36.996,24.013 -4.667,3.835 -10.565,12.043 -17.004,12.166 -11.395,0.217 -24.153,-3.761 -35,-6.875 -30.433,-8.738 -58.72,-23.632 -79.95,-47.552 -6.6,-7.436 -21.065,-32.938 -33.66,-19.772 -11.758,12.294 -8.015,40.481 -6.56,55.772 3.011,31.638 8.438,64.253 27.212,91 9.102,12.966 22.726,24.116 34.958,34 5.102,4.122 15.347,9.754 17.788,16.015 2.237,5.738 -2.659,15.746 -2.788,21.985 m 741,-106 c 3.58,-5.071 15.17,-5.119 21,-6.884 14.46,-4.379 32.79,-10.324 42,-23.116 -12.4,0 -24.65,-0.06 -37,-0.911 -5.17,-0.356 -11.87,0.794 -15,-4.089 15.73,-0.324 38.15,-2.23 52,-10 -14.46,-3.442 -28.07,3.092 -42,-5 9.2,-23.905 38.97,-35.441 60,-45.806 19.76,-9.741 37.69,-22.416 57,-32.885 15.81,-8.573 32.38,-12.821 36.62,9.691 4.62,24.461 -14.68,51.302 -28.05,70 -32.89,46.029 -77.66,92.057 -129.57,116.294 -20.59,9.614 -56.72,15.242 -76.96,0.853 -7.32,-5.211 -4.41,-12.581 2.96,-15.78 5.47,-2.371 12.19,-1.584 18,-2.738 15.03,-2.987 29.7,-9.13 41,-19.719 5.07,-4.758 22.14,-22.748 10.94,-28.882 -3.57,-1.959 -9,-1.028 -12.94,-1.028 m -232,94 c -2.53,12.117 -8.4,24.584 -15.012,35 -2.484,3.916 -4.408,8.488 -8.988,10 2.142,-16.932 1.096,-27.384 -6,-43 h -1 c -3.248,12.555 -5.069,31.869 -16.326,40.397 -5.089,3.855 -16.317,3.311 -22.674,6.032 -17.952,7.684 -29.903,25.306 -31.829,44.571 -4.758,47.582 36.113,119.906 91.829,108.485 8.96,-1.835 17.47,-6.455 25,-11.486 7.93,-5.3 14.48,-11.227 20.08,-18.999 17.1,-23.768 14.3,-57.473 2.61,-83 -3.96,-8.655 -13.48,-18.063 -15.62,-27 -0.9,-3.733 2.11,-7.716 3.5,-11 2.91,-6.856 5.78,-14.554 6.43,-22 -4.98,4.55 -15.12,21.866 -23.02,20.033 -3.3,-0.765 -4.78,-3.926 -4.33,-7.034 2.13,-14.625 3.76,-24.267 0.35,-38.999 35.12,10.117 54.09,46.245 83,65.641 14.45,9.697 32.36,17.541 50,18.32 15.88,0.701 39.31,-4.766 53.91,2.148 4.1,1.941 6.36,6.186 8.66,9.891 5.47,8.772 14.67,20.798 16.7,31 2.22,11.176 -13.81,18.881 -22.27,21.254 -24.49,6.866 -62.79,-0.949 -82.24,18.506 -9.4,9.405 -4.93,19.743 -5.85,31.24 -0.86,10.7 -7.02,20.985 -15.91,26.895 -12.38,8.232 -24.62,5.425 -38,8.499 -6.6,1.516 -9.64,8.695 -16,10.288 -8.41,2.109 -19.33,0.318 -28,0.318 -16.83,0 -34.252,0.576 -51,2.17 -60.132,5.722 -120.123,12.737 -179,26.714 -18.409,4.37 -37.115,9.19 -55,15.391 -9.026,3.129 -21.437,10.465 -31,10.406 -11.202,-0.068 -20.452,-14.035 -33,-14.641 -24.161,-1.167 -47.878,17.276 -66,31.195 -9.691,7.444 -17.902,22.075 -32,17.402 -24.586,-8.147 -40.2,-34.238 -56.389,-52.544 -3.67,-4.149 -17.283,-7.623 -18.296,-11.244 C 499.073,740.839 502,729.362 502,721 c 0,-24.381 0.956,-48.685 2,-73 8.095,9.315 13.159,20.304 26,24.247 15.602,4.79 32.111,-7.416 42.961,-17.116 28.065,-25.091 48.014,-57.378 72.025,-86.042 11.782,-14.064 30.287,-20.544 40.716,-35.089 4.718,-6.58 7.673,-13.985 8.973,-22 0.657,-4.049 -0.672,-8.995 0.928,-12.816 2.091,-4.991 9.386,-8.177 12.958,-12.223 9.877,-11.188 18.656,-26.678 19.399,-41.961 0.753,-15.482 -1.14,-29.552 -9.427,-43 -6.404,-10.394 -16.521,-17.418 -23.857,-27.001 -12.758,-16.666 -13.327,-37.464 -4.316,-55.999 8.275,-17.022 21.607,-18.707 38.64,-23.282 23.561,-6.328 47.618,-14.188 72,-16.548 3.62,-0.351 10.301,-1.277 12.657,2.249 4.107,6.147 4.619,17.468 7.627,24.581 8.61,20.363 19.045,39.892 30.14,59 19.26,33.166 45.974,79.854 82.576,95.957 25.414,11.181 54.079,7.524 80,17.043 m -665,36 -29,4 c 6.982,6.57 21.094,4 30,4 5.105,0 10.251,-0.986 13,4 l -41,8 c 12.025,14.029 34.953,12.246 51,17 v 2 c -10.781,9.548 10.349,20.146 18,23.138 15.743,6.157 31.672,5.627 48,2.552 5.347,-1.007 10.551,-3.97 16,-4.219 5.896,-0.269 13.868,3.469 11.137,10.529 -2.966,7.67 -12.476,13.106 -19.137,17.189 -19.558,11.987 -38.254,16.147 -61,13.981 C 328.734,610.716 271.17,587.949 223,556.657 205.443,545.251 181.835,530.556 176.156,509 c -2.677,-10.161 -2.391,-22.807 9.844,-25.481 16.26,-3.554 35.907,2.529 52,5.042 28.583,4.464 58.582,0.519 86,11.051 8.611,3.308 18.996,7.125 25,14.388 m 624,40.376 c 30.7,-1.629 38.99,52.563 6,53.494 -30.155,0.852 -38.677,-51.761 -6,-53.494 M 704,557 l 15,19 v 1 c -19.618,10.907 -30.971,-7.41 -48,-15 0.129,14.389 10.309,29.424 23,36 L 679,595.413 645,579 c 0.042,12.141 7.223,20.479 16.089,28.091 3.284,2.819 9.906,5.52 11.134,9.952 1.933,6.975 -1.672,18.277 -1.134,25.957 1.463,20.865 9.753,42.416 22.414,59 26.28,34.423 89.719,47.719 115.033,4 21.367,-36.902 3.593,-95.672 -27.706,-121.37 -9.76,-8.014 -22.153,-13.095 -34.83,-13.59 -5.227,-0.204 -10.893,2.102 -16,0.94 -9.956,-2.265 -17.115,-10.783 -26,-14.98 m 31,62.38 c 29.904,-6.079 42.407,45.895 12,53.088 -29.356,6.944 -42.592,-46.87 -12,-53.088 m 219.189,2.228 c 7.878,-3.2 15.323,10.499 6.752,13.784 -8.039,3.082 -15.31,-10.307 -6.752,-13.784 m -167.13,46.015 c 8.294,-2.958 13.142,11.873 4.884,14.541 -8.12,2.623 -12.641,-11.775 -4.884,-14.541 M 1003,739.286 c 19.98,-2.358 42.01,-0.745 62,0.625 51.48,3.525 103.15,10.701 149,36.229 17.49,9.739 49.08,25.467 55.38,45.86 4.17,13.515 -2.12,26.883 -7.52,39 -13.23,29.716 -30.34,56.441 -52.9,80 -35.13,36.676 -81.47,61.83 -127.96,81.01 -62.38,25.74 -130.767,44.31 -198,50.82 -97.749,9.47 -206.307,8.59 -291,-48.5 C 560.36,1003 512.017,961.73 534.363,919 c 5.04,-9.636 13.233,-17.308 20.397,-25.325 22.954,-25.687 51.866,-46.051 81.24,-63.675 84.562,-50.737 184.911,-73.394 282,-83.826 28.225,-3.033 56.858,-3.568 85,-6.888 M 983,799 c 7.859,-11.07 12.019,-31.119 -9,-24.365 -8.503,2.732 -15.623,11.409 -20.711,18.365 -3.239,4.428 -8.287,11.136 -6.84,16.996 3.599,14.576 36.749,13.549 46.323,6.74 C 1003.09,809.401 990.507,800.109 983,799 m -169,28 c -7.475,3.028 -13.976,16.002 -2.96,19.486 19.169,6.062 57.078,-21.247 34.867,-39.443 -8.964,-7.343 -22.866,-9.294 -33.907,-6.828 -5.895,1.316 -13.199,4.368 -11.566,11.781 1.432,6.495 8.995,10.794 13.566,15.004 m 276,57.834 c -9.52,0.892 -20.54,16.202 -28,21.931 -20.75,15.934 -42.96,29.046 -67,39.364 -77.127,33.098 -167.216,33.39 -248,15.37 -9.669,-2.157 -23.919,5.831 -13.606,16.198 4.255,4.277 12.971,4.687 18.606,5.954 17.547,3.943 35.201,5.533 53,7.635 81.141,9.574 167.043,-5.332 238,-46.158 18.55,-10.675 38.34,-24.358 52.91,-40.132 6.27,-6.787 7.19,-21.389 -5.91,-20.162 M 1119,1021 c -0.12,14.42 -5.64,29.62 -2.32,44 2.49,10.81 14.13,19.07 10.52,31 -2.83,9.34 -13.34,15.04 -20.2,21.17 -12.33,11.01 -18.09,24.34 -14.9,40.83 3.98,20.6 23.17,27.14 38.9,36.92 8.83,5.49 13,13.89 20.04,21.06 2.9,2.96 7.92,5.05 10.19,8.41 4.22,6.27 -3.78,25.69 -5.46,32.61 -8.03,32.96 -19.62,66.61 -36.77,96 h -1 c -22.91,-51.44 -86.61,-59.86 -137,-60 0.6,-11.72 7.633,-23.01 11.333,-34 7.424,-22.06 14.007,-44.78 16.497,-68 2.27,-21.27 2.28,-41.74 0,-63 -0.61,-5.66 -4.39,-21.93 -13.407,-14.4 -5.427,4.53 -1.22,16.51 -0.589,22.4 2.198,20.52 0.744,40.6 -1.834,61 -8.651,-5.29 -14.276,-17.57 -23,-24.1 -9.315,-6.99 -19.747,-12.04 -30,-17.45 -28.244,-14.91 -62.677,-30.95 -95,-22.7 -15.638,3.99 -28.911,12.67 -39.961,24.25 -6.333,6.64 -9.692,15.49 -16.132,21.91 -7.971,7.93 -24.149,9.8 -34.907,8.09 1.556,-8.38 4.454,-20.56 2.991,-28.98 -0.87,-5.01 -6.554,-7.76 -10.763,-4.44 -8.71,6.86 -6.228,31.51 -6.228,41.42 0,28.5 4.604,55.85 13.344,83 4.253,13.21 13.248,26.49 15.656,40 -33.948,-4.14 -63.214,-0.16 -94,16.38 -11.726,6.29 -23.339,13.3 -34,21.29 -3.525,2.64 -10.273,10.19 -14.867,10.13 -5.504,-0.08 -11.145,-19.4 -13.133,-23.8 -11.207,-24.8 -24.429,-57.49 -25,-85 2.381,1.9 4.42,4.41 7.039,5.99 5.625,3.39 11.223,-0.32 13.182,-5.98 3.173,-9.17 -2.319,-18.95 -3.221,-28.01 17.035,8.56 33.064,-9.62 34.66,-26 0.745,-7.64 -2.908,-18.6 -8.754,-23.61 -5.655,-4.85 -13.052,-5.96 -14.577,-14.39 -1.539,-8.51 -1.131,-20.57 3.641,-28 2.844,-4.43 9.513,-7.59 10.423,-13 0.709,-4.22 -1.867,-9.2 -3.394,-13 -4.381,-10.9 -13.384,-34.77 -27.999,-33.88 -9.95,0.61 -12.952,11.04 -20,15.88 l 6,-54 c 17.018,5.42 33.546,19.16 50,26.88 24.898,11.68 52.216,18.13 79,23.61 51.079,10.45 105.707,7.18 157,0.8 86.048,-10.71 169.02,-33.56 248,-69.29 m -551,207 c 0.053,19.1 5.807,39.62 10.718,58 9.678,36.21 22.408,71.87 42.093,104 10.865,17.73 27.381,33.08 37.189,51 l -48,-2.99 -66,5.99 c 17.112,-41.1 27.166,-81.44 7.691,-124 -7.921,-17.31 -21.769,-31.23 -29.691,-48 4.403,0.75 8.466,2.52 13,1.47 19.117,-4.46 23.603,-30.75 31,-45.47 h 2 m 608,12 c 8.74,15.68 26.01,21.8 29.62,41 5.42,28.72 -16.38,56.43 -20.32,84 -3.97,27.78 8.34,52.26 15.7,78 l -61,-7.91 -64,1.91 c 8.94,-12.7 20.74,-23.51 30.1,-36 17.28,-23.03 31.19,-48.55 42.47,-75 8.16,-19.14 14.27,-39 19.88,-59 2.28,-8.17 2.73,-20.07 7.55,-27 m -234,124 c 1.641,5.55 0.617,11.29 1.17,17 1.856,19.18 10.522,63.2 37.845,57.75 9.255,-1.85 13.227,-10.85 20.985,-14.75 l 9,26 c -32.883,5.57 -64.306,13.32 -97.911,14.83 C 867.775,1466.86 823.026,1461 778,1461 v -1 c 30.514,-18.08 30.468,-57.73 28,-89 11.845,5.52 20.231,16.43 33,21.49 38.267,15.17 74.802,-2.52 103,-28.49 m -193,81 17,13 v 1 l -21,-2 z"
       id="path305"
       transform="matrix(0.13513077,0,0,0.13471614,20.926308,143.60672)" /><use
       xlink:href="#CircleBalloon"
       style="fill:#000000;fill-opacity:1;stroke:#000000;stroke-width:2.32137;stroke-opacity:1"
       id="use770"
       transform="matrix(0.43169949,0,0,0.42986625,142.3364,177.91917)" /><text
       xml:space="preserve"
       style="font-style:normal;font-variant:normal;font-weight:normal;font-stretch:normal;font-size:26.6667px;font-family:'Comic Sans MS';-inkscape-font-specification:'Comic Sans MS, Normal';font-variant-ligatures:normal;font-variant-caps:normal;font-variant-numeric:normal;font-variant-east-asian:normal;text-align:center;text-anchor:middle;fill:#000000;fill-opacity:1;fill-rule:evenodd;stroke-width:1.30179;stroke-miterlimit:5"
       x="1296.8824"
       y="494.96402"
       id="text2908"
       transform="matrix(1.3830441,0,0,1.7066345,-1566.9662,-599.20087)"><tspan
         sodipodi:role="line"
         id="tspan2906"
         x="1296.8824"
         y="494.96402"
         style="font-style:normal;font-variant:normal;font-weight:normal;font-stretch:normal;font-size:26.6667px;font-family:'Comic Sans MS';-inkscape-font-specification:'Comic Sans MS, Normal';font-variant-ligatures:normal;font-variant-caps:normal;font-variant-numeric:normal;font-variant-east-asian:normal;fill:#000000;fill-opacity:1;stroke-width:1.30179">Moo</tspan></text></g></svg>
